<?xml version="1.0" encoding="utf-8" standalone="no"?>
<!DOCTYPE svg PUBLIC "-//W3C//DTD SVG 1.1//EN"
  "http://www.w3.org/Graphics/SVG/1.1/DTD/svg11.dtd">
<svg xmlns:xlink="http://www.w3.org/1999/xlink" width="288pt" height="360pt" viewBox="0 0 288 360" xmlns="http://www.w3.org/2000/svg" version="1.1">
 <metadata>
  <rdf:RDF xmlns:dc="http://purl.org/dc/elements/1.1/" xmlns:cc="http://creativecommons.org/ns#" xmlns:rdf="http://www.w3.org/1999/02/22-rdf-syntax-ns#">
   <cc:Work>
    <dc:type rdf:resource="http://purl.org/dc/dcmitype/StillImage"/>
    <dc:date>2024-12-17T16:34:30.349725</dc:date>
    <dc:format>image/svg+xml</dc:format>
    <dc:creator>
     <cc:Agent>
      <dc:title>Matplotlib v3.8.0, https://matplotlib.org/</dc:title>
     </cc:Agent>
    </dc:creator>
   </cc:Work>
  </rdf:RDF>
 </metadata>
 <defs>
  <style type="text/css">*{stroke-linejoin: round; stroke-linecap: butt}</style>
 </defs>
 <g id="figure_1">
  <g id="patch_1">
   <path d="M 0 360 
L 288 360 
L 288 0 
L 0 0 
z
" style="fill: #ffffff"/>
  </g>
  <g id="axes_1">
   <g id="patch_2">
    <path d="M 44.66 143.44 
L 270.702747 143.44 
L 270.702747 10.8 
L 44.66 10.8 
z
" style="fill: #ffffff"/>
   </g>
   <g id="matplotlib.axis_1">
    <g id="xtick_1">
     <g id="line2d_1">
      <path d="M 53.147771 143.44 
L 53.147771 10.8 
" clip-path="url(#p931ecb58d8)" style="fill: none; stroke: #808080; stroke-opacity: 0.25; stroke-width: 0.5; stroke-linecap: square"/>
     </g>
     <g id="line2d_2">
      <defs>
       <path id="m3f4126724d" d="M 0 0 
L 0 3.5 
" style="stroke: #000000; stroke-width: 0.8"/>
      </defs>
      <g>
       <use xlink:href="#m3f4126724d" x="53.147771" y="143.44" style="stroke: #000000; stroke-width: 0.8"/>
      </g>
     </g>
     <g id="text_1">
      <!-- 0 -->
      <g transform="translate(49.966521 158.038438) scale(0.1 -0.1)">
       <defs>
        <path id="DejaVuSans-30" d="M 2034 4250 
Q 1547 4250 1301 3770 
Q 1056 3291 1056 2328 
Q 1056 1369 1301 889 
Q 1547 409 2034 409 
Q 2525 409 2770 889 
Q 3016 1369 3016 2328 
Q 3016 3291 2770 3770 
Q 2525 4250 2034 4250 
z
M 2034 4750 
Q 2819 4750 3233 4129 
Q 3647 3509 3647 2328 
Q 3647 1150 3233 529 
Q 2819 -91 2034 -91 
Q 1250 -91 836 529 
Q 422 1150 422 2328 
Q 422 3509 836 4129 
Q 1250 4750 2034 4750 
z
" transform="scale(0.015625)"/>
       </defs>
       <use xlink:href="#DejaVuSans-30"/>
      </g>
     </g>
    </g>
    <g id="xtick_2">
     <g id="line2d_3">
      <path d="M 88.885755 143.44 
L 88.885755 10.8 
" clip-path="url(#p931ecb58d8)" style="fill: none; stroke: #808080; stroke-opacity: 0.25; stroke-width: 0.5; stroke-linecap: square"/>
     </g>
     <g id="line2d_4">
      <g>
       <use xlink:href="#m3f4126724d" x="88.885755" y="143.44" style="stroke: #000000; stroke-width: 0.8"/>
      </g>
     </g>
     <g id="text_2">
      <!-- 100 -->
      <g transform="translate(79.342005 158.038438) scale(0.1 -0.1)">
       <defs>
        <path id="DejaVuSans-31" d="M 794 531 
L 1825 531 
L 1825 4091 
L 703 3866 
L 703 4441 
L 1819 4666 
L 2450 4666 
L 2450 531 
L 3481 531 
L 3481 0 
L 794 0 
L 794 531 
z
" transform="scale(0.015625)"/>
       </defs>
       <use xlink:href="#DejaVuSans-31"/>
       <use xlink:href="#DejaVuSans-30" x="63.623047"/>
       <use xlink:href="#DejaVuSans-30" x="127.246094"/>
      </g>
     </g>
    </g>
    <g id="xtick_3">
     <g id="line2d_5">
      <path d="M 124.623739 143.44 
L 124.623739 10.8 
" clip-path="url(#p931ecb58d8)" style="fill: none; stroke: #808080; stroke-opacity: 0.25; stroke-width: 0.5; stroke-linecap: square"/>
     </g>
     <g id="line2d_6">
      <g>
       <use xlink:href="#m3f4126724d" x="124.623739" y="143.44" style="stroke: #000000; stroke-width: 0.8"/>
      </g>
     </g>
     <g id="text_3">
      <!-- 200 -->
      <g transform="translate(115.079989 158.038438) scale(0.1 -0.1)">
       <defs>
        <path id="DejaVuSans-32" d="M 1228 531 
L 3431 531 
L 3431 0 
L 469 0 
L 469 531 
Q 828 903 1448 1529 
Q 2069 2156 2228 2338 
Q 2531 2678 2651 2914 
Q 2772 3150 2772 3378 
Q 2772 3750 2511 3984 
Q 2250 4219 1831 4219 
Q 1534 4219 1204 4116 
Q 875 4013 500 3803 
L 500 4441 
Q 881 4594 1212 4672 
Q 1544 4750 1819 4750 
Q 2544 4750 2975 4387 
Q 3406 4025 3406 3419 
Q 3406 3131 3298 2873 
Q 3191 2616 2906 2266 
Q 2828 2175 2409 1742 
Q 1991 1309 1228 531 
z
" transform="scale(0.015625)"/>
       </defs>
       <use xlink:href="#DejaVuSans-32"/>
       <use xlink:href="#DejaVuSans-30" x="63.623047"/>
       <use xlink:href="#DejaVuSans-30" x="127.246094"/>
      </g>
     </g>
    </g>
    <g id="xtick_4">
     <g id="line2d_7">
      <path d="M 160.361722 143.44 
L 160.361722 10.8 
" clip-path="url(#p931ecb58d8)" style="fill: none; stroke: #808080; stroke-opacity: 0.25; stroke-width: 0.5; stroke-linecap: square"/>
     </g>
     <g id="line2d_8">
      <g>
       <use xlink:href="#m3f4126724d" x="160.361722" y="143.44" style="stroke: #000000; stroke-width: 0.8"/>
      </g>
     </g>
     <g id="text_4">
      <!-- 300 -->
      <g transform="translate(150.817972 158.038438) scale(0.1 -0.1)">
       <defs>
        <path id="DejaVuSans-33" d="M 2597 2516 
Q 3050 2419 3304 2112 
Q 3559 1806 3559 1356 
Q 3559 666 3084 287 
Q 2609 -91 1734 -91 
Q 1441 -91 1130 -33 
Q 819 25 488 141 
L 488 750 
Q 750 597 1062 519 
Q 1375 441 1716 441 
Q 2309 441 2620 675 
Q 2931 909 2931 1356 
Q 2931 1769 2642 2001 
Q 2353 2234 1838 2234 
L 1294 2234 
L 1294 2753 
L 1863 2753 
Q 2328 2753 2575 2939 
Q 2822 3125 2822 3475 
Q 2822 3834 2567 4026 
Q 2313 4219 1838 4219 
Q 1578 4219 1281 4162 
Q 984 4106 628 3988 
L 628 4550 
Q 988 4650 1302 4700 
Q 1616 4750 1894 4750 
Q 2613 4750 3031 4423 
Q 3450 4097 3450 3541 
Q 3450 3153 3228 2886 
Q 3006 2619 2597 2516 
z
" transform="scale(0.015625)"/>
       </defs>
       <use xlink:href="#DejaVuSans-33"/>
       <use xlink:href="#DejaVuSans-30" x="63.623047"/>
       <use xlink:href="#DejaVuSans-30" x="127.246094"/>
      </g>
     </g>
    </g>
    <g id="xtick_5">
     <g id="line2d_9">
      <path d="M 196.099706 143.44 
L 196.099706 10.8 
" clip-path="url(#p931ecb58d8)" style="fill: none; stroke: #808080; stroke-opacity: 0.25; stroke-width: 0.5; stroke-linecap: square"/>
     </g>
     <g id="line2d_10">
      <g>
       <use xlink:href="#m3f4126724d" x="196.099706" y="143.44" style="stroke: #000000; stroke-width: 0.8"/>
      </g>
     </g>
     <g id="text_5">
      <!-- 400 -->
      <g transform="translate(186.555956 158.038438) scale(0.1 -0.1)">
       <defs>
        <path id="DejaVuSans-34" d="M 2419 4116 
L 825 1625 
L 2419 1625 
L 2419 4116 
z
M 2253 4666 
L 3047 4666 
L 3047 1625 
L 3713 1625 
L 3713 1100 
L 3047 1100 
L 3047 0 
L 2419 0 
L 2419 1100 
L 313 1100 
L 313 1709 
L 2253 4666 
z
" transform="scale(0.015625)"/>
       </defs>
       <use xlink:href="#DejaVuSans-34"/>
       <use xlink:href="#DejaVuSans-30" x="63.623047"/>
       <use xlink:href="#DejaVuSans-30" x="127.246094"/>
      </g>
     </g>
    </g>
    <g id="xtick_6">
     <g id="line2d_11">
      <path d="M 231.83769 143.44 
L 231.83769 10.8 
" clip-path="url(#p931ecb58d8)" style="fill: none; stroke: #808080; stroke-opacity: 0.25; stroke-width: 0.5; stroke-linecap: square"/>
     </g>
     <g id="line2d_12">
      <g>
       <use xlink:href="#m3f4126724d" x="231.83769" y="143.44" style="stroke: #000000; stroke-width: 0.8"/>
      </g>
     </g>
     <g id="text_6">
      <!-- 500 -->
      <g transform="translate(222.29394 158.038438) scale(0.1 -0.1)">
       <defs>
        <path id="DejaVuSans-35" d="M 691 4666 
L 3169 4666 
L 3169 4134 
L 1269 4134 
L 1269 2991 
Q 1406 3038 1543 3061 
Q 1681 3084 1819 3084 
Q 2600 3084 3056 2656 
Q 3513 2228 3513 1497 
Q 3513 744 3044 326 
Q 2575 -91 1722 -91 
Q 1428 -91 1123 -41 
Q 819 9 494 109 
L 494 744 
Q 775 591 1075 516 
Q 1375 441 1709 441 
Q 2250 441 2565 725 
Q 2881 1009 2881 1497 
Q 2881 1984 2565 2268 
Q 2250 2553 1709 2553 
Q 1456 2553 1204 2497 
Q 953 2441 691 2322 
L 691 4666 
z
" transform="scale(0.015625)"/>
       </defs>
       <use xlink:href="#DejaVuSans-35"/>
       <use xlink:href="#DejaVuSans-30" x="63.623047"/>
       <use xlink:href="#DejaVuSans-30" x="127.246094"/>
      </g>
     </g>
    </g>
    <g id="xtick_7">
     <g id="line2d_13">
      <path d="M 267.575673 143.44 
L 267.575673 10.8 
" clip-path="url(#p931ecb58d8)" style="fill: none; stroke: #808080; stroke-opacity: 0.25; stroke-width: 0.5; stroke-linecap: square"/>
     </g>
     <g id="line2d_14">
      <g>
       <use xlink:href="#m3f4126724d" x="267.575673" y="143.44" style="stroke: #000000; stroke-width: 0.8"/>
      </g>
     </g>
     <g id="text_7">
      <!-- 600 -->
      <g transform="translate(258.031923 158.038438) scale(0.1 -0.1)">
       <defs>
        <path id="DejaVuSans-36" d="M 2113 2584 
Q 1688 2584 1439 2293 
Q 1191 2003 1191 1497 
Q 1191 994 1439 701 
Q 1688 409 2113 409 
Q 2538 409 2786 701 
Q 3034 994 3034 1497 
Q 3034 2003 2786 2293 
Q 2538 2584 2113 2584 
z
M 3366 4563 
L 3366 3988 
Q 3128 4100 2886 4159 
Q 2644 4219 2406 4219 
Q 1781 4219 1451 3797 
Q 1122 3375 1075 2522 
Q 1259 2794 1537 2939 
Q 1816 3084 2150 3084 
Q 2853 3084 3261 2657 
Q 3669 2231 3669 1497 
Q 3669 778 3244 343 
Q 2819 -91 2113 -91 
Q 1303 -91 875 529 
Q 447 1150 447 2328 
Q 447 3434 972 4092 
Q 1497 4750 2381 4750 
Q 2619 4750 2861 4703 
Q 3103 4656 3366 4563 
z
" transform="scale(0.015625)"/>
       </defs>
       <use xlink:href="#DejaVuSans-36"/>
       <use xlink:href="#DejaVuSans-30" x="63.623047"/>
       <use xlink:href="#DejaVuSans-30" x="127.246094"/>
      </g>
     </g>
    </g>
    <g id="text_8">
     <!-- Training Steps -->
     <g transform="translate(122.376686 171.716563) scale(0.1 -0.1)">
      <defs>
       <path id="DejaVuSans-54" d="M -19 4666 
L 3928 4666 
L 3928 4134 
L 2272 4134 
L 2272 0 
L 1638 0 
L 1638 4134 
L -19 4134 
L -19 4666 
z
" transform="scale(0.015625)"/>
       <path id="DejaVuSans-72" d="M 2631 2963 
Q 2534 3019 2420 3045 
Q 2306 3072 2169 3072 
Q 1681 3072 1420 2755 
Q 1159 2438 1159 1844 
L 1159 0 
L 581 0 
L 581 3500 
L 1159 3500 
L 1159 2956 
Q 1341 3275 1631 3429 
Q 1922 3584 2338 3584 
Q 2397 3584 2469 3576 
Q 2541 3569 2628 3553 
L 2631 2963 
z
" transform="scale(0.015625)"/>
       <path id="DejaVuSans-61" d="M 2194 1759 
Q 1497 1759 1228 1600 
Q 959 1441 959 1056 
Q 959 750 1161 570 
Q 1363 391 1709 391 
Q 2188 391 2477 730 
Q 2766 1069 2766 1631 
L 2766 1759 
L 2194 1759 
z
M 3341 1997 
L 3341 0 
L 2766 0 
L 2766 531 
Q 2569 213 2275 61 
Q 1981 -91 1556 -91 
Q 1019 -91 701 211 
Q 384 513 384 1019 
Q 384 1609 779 1909 
Q 1175 2209 1959 2209 
L 2766 2209 
L 2766 2266 
Q 2766 2663 2505 2880 
Q 2244 3097 1772 3097 
Q 1472 3097 1187 3025 
Q 903 2953 641 2809 
L 641 3341 
Q 956 3463 1253 3523 
Q 1550 3584 1831 3584 
Q 2591 3584 2966 3190 
Q 3341 2797 3341 1997 
z
" transform="scale(0.015625)"/>
       <path id="DejaVuSans-69" d="M 603 3500 
L 1178 3500 
L 1178 0 
L 603 0 
L 603 3500 
z
M 603 4863 
L 1178 4863 
L 1178 4134 
L 603 4134 
L 603 4863 
z
" transform="scale(0.015625)"/>
       <path id="DejaVuSans-6e" d="M 3513 2113 
L 3513 0 
L 2938 0 
L 2938 2094 
Q 2938 2591 2744 2837 
Q 2550 3084 2163 3084 
Q 1697 3084 1428 2787 
Q 1159 2491 1159 1978 
L 1159 0 
L 581 0 
L 581 3500 
L 1159 3500 
L 1159 2956 
Q 1366 3272 1645 3428 
Q 1925 3584 2291 3584 
Q 2894 3584 3203 3211 
Q 3513 2838 3513 2113 
z
" transform="scale(0.015625)"/>
       <path id="DejaVuSans-67" d="M 2906 1791 
Q 2906 2416 2648 2759 
Q 2391 3103 1925 3103 
Q 1463 3103 1205 2759 
Q 947 2416 947 1791 
Q 947 1169 1205 825 
Q 1463 481 1925 481 
Q 2391 481 2648 825 
Q 2906 1169 2906 1791 
z
M 3481 434 
Q 3481 -459 3084 -895 
Q 2688 -1331 1869 -1331 
Q 1566 -1331 1297 -1286 
Q 1028 -1241 775 -1147 
L 775 -588 
Q 1028 -725 1275 -790 
Q 1522 -856 1778 -856 
Q 2344 -856 2625 -561 
Q 2906 -266 2906 331 
L 2906 616 
Q 2728 306 2450 153 
Q 2172 0 1784 0 
Q 1141 0 747 490 
Q 353 981 353 1791 
Q 353 2603 747 3093 
Q 1141 3584 1784 3584 
Q 2172 3584 2450 3431 
Q 2728 3278 2906 2969 
L 2906 3500 
L 3481 3500 
L 3481 434 
z
" transform="scale(0.015625)"/>
       <path id="DejaVuSans-20" transform="scale(0.015625)"/>
       <path id="DejaVuSans-53" d="M 3425 4513 
L 3425 3897 
Q 3066 4069 2747 4153 
Q 2428 4238 2131 4238 
Q 1616 4238 1336 4038 
Q 1056 3838 1056 3469 
Q 1056 3159 1242 3001 
Q 1428 2844 1947 2747 
L 2328 2669 
Q 3034 2534 3370 2195 
Q 3706 1856 3706 1288 
Q 3706 609 3251 259 
Q 2797 -91 1919 -91 
Q 1588 -91 1214 -16 
Q 841 59 441 206 
L 441 856 
Q 825 641 1194 531 
Q 1563 422 1919 422 
Q 2459 422 2753 634 
Q 3047 847 3047 1241 
Q 3047 1584 2836 1778 
Q 2625 1972 2144 2069 
L 1759 2144 
Q 1053 2284 737 2584 
Q 422 2884 422 3419 
Q 422 4038 858 4394 
Q 1294 4750 2059 4750 
Q 2388 4750 2728 4690 
Q 3069 4631 3425 4513 
z
" transform="scale(0.015625)"/>
       <path id="DejaVuSans-74" d="M 1172 4494 
L 1172 3500 
L 2356 3500 
L 2356 3053 
L 1172 3053 
L 1172 1153 
Q 1172 725 1289 603 
Q 1406 481 1766 481 
L 2356 481 
L 2356 0 
L 1766 0 
Q 1100 0 847 248 
Q 594 497 594 1153 
L 594 3053 
L 172 3053 
L 172 3500 
L 594 3500 
L 594 4494 
L 1172 4494 
z
" transform="scale(0.015625)"/>
       <path id="DejaVuSans-65" d="M 3597 1894 
L 3597 1613 
L 953 1613 
Q 991 1019 1311 708 
Q 1631 397 2203 397 
Q 2534 397 2845 478 
Q 3156 559 3463 722 
L 3463 178 
Q 3153 47 2828 -22 
Q 2503 -91 2169 -91 
Q 1331 -91 842 396 
Q 353 884 353 1716 
Q 353 2575 817 3079 
Q 1281 3584 2069 3584 
Q 2775 3584 3186 3129 
Q 3597 2675 3597 1894 
z
M 3022 2063 
Q 3016 2534 2758 2815 
Q 2500 3097 2075 3097 
Q 1594 3097 1305 2825 
Q 1016 2553 972 2059 
L 3022 2063 
z
" transform="scale(0.015625)"/>
       <path id="DejaVuSans-70" d="M 1159 525 
L 1159 -1331 
L 581 -1331 
L 581 3500 
L 1159 3500 
L 1159 2969 
Q 1341 3281 1617 3432 
Q 1894 3584 2278 3584 
Q 2916 3584 3314 3078 
Q 3713 2572 3713 1747 
Q 3713 922 3314 415 
Q 2916 -91 2278 -91 
Q 1894 -91 1617 61 
Q 1341 213 1159 525 
z
M 3116 1747 
Q 3116 2381 2855 2742 
Q 2594 3103 2138 3103 
Q 1681 3103 1420 2742 
Q 1159 2381 1159 1747 
Q 1159 1113 1420 752 
Q 1681 391 2138 391 
Q 2594 391 2855 752 
Q 3116 1113 3116 1747 
z
" transform="scale(0.015625)"/>
       <path id="DejaVuSans-73" d="M 2834 3397 
L 2834 2853 
Q 2591 2978 2328 3040 
Q 2066 3103 1784 3103 
Q 1356 3103 1142 2972 
Q 928 2841 928 2578 
Q 928 2378 1081 2264 
Q 1234 2150 1697 2047 
L 1894 2003 
Q 2506 1872 2764 1633 
Q 3022 1394 3022 966 
Q 3022 478 2636 193 
Q 2250 -91 1575 -91 
Q 1294 -91 989 -36 
Q 684 19 347 128 
L 347 722 
Q 666 556 975 473 
Q 1284 391 1588 391 
Q 1994 391 2212 530 
Q 2431 669 2431 922 
Q 2431 1156 2273 1281 
Q 2116 1406 1581 1522 
L 1381 1569 
Q 847 1681 609 1914 
Q 372 2147 372 2553 
Q 372 3047 722 3315 
Q 1072 3584 1716 3584 
Q 2034 3584 2315 3537 
Q 2597 3491 2834 3397 
z
" transform="scale(0.015625)"/>
      </defs>
      <use xlink:href="#DejaVuSans-54"/>
      <use xlink:href="#DejaVuSans-72" x="46.333984"/>
      <use xlink:href="#DejaVuSans-61" x="87.447266"/>
      <use xlink:href="#DejaVuSans-69" x="148.726562"/>
      <use xlink:href="#DejaVuSans-6e" x="176.509766"/>
      <use xlink:href="#DejaVuSans-69" x="239.888672"/>
      <use xlink:href="#DejaVuSans-6e" x="267.671875"/>
      <use xlink:href="#DejaVuSans-67" x="331.050781"/>
      <use xlink:href="#DejaVuSans-20" x="394.527344"/>
      <use xlink:href="#DejaVuSans-53" x="426.314453"/>
      <use xlink:href="#DejaVuSans-74" x="489.791016"/>
      <use xlink:href="#DejaVuSans-65" x="529"/>
      <use xlink:href="#DejaVuSans-70" x="590.523438"/>
      <use xlink:href="#DejaVuSans-73" x="654"/>
     </g>
    </g>
   </g>
   <g id="matplotlib.axis_2">
    <g id="ytick_1">
     <g id="line2d_15">
      <path d="M 44.66 143.183941 
L 270.702747 143.183941 
" clip-path="url(#p931ecb58d8)" style="fill: none; stroke: #808080; stroke-opacity: 0.25; stroke-width: 0.5; stroke-linecap: square"/>
     </g>
     <g id="line2d_16">
      <defs>
       <path id="m6ffa743fa6" d="M 0 0 
L -3.5 0 
" style="stroke: #000000; stroke-width: 0.8"/>
      </defs>
      <g>
       <use xlink:href="#m6ffa743fa6" x="44.66" y="143.183941" style="stroke: #000000; stroke-width: 0.8"/>
      </g>
     </g>
     <g id="text_9">
      <!-- 5 -->
      <g transform="translate(31.2975 146.98316) scale(0.1 -0.1)">
       <use xlink:href="#DejaVuSans-35"/>
      </g>
     </g>
    </g>
    <g id="ytick_2">
     <g id="line2d_17">
      <path d="M 44.66 120.026067 
L 270.702747 120.026067 
" clip-path="url(#p931ecb58d8)" style="fill: none; stroke: #808080; stroke-opacity: 0.25; stroke-width: 0.5; stroke-linecap: square"/>
     </g>
     <g id="line2d_18">
      <g>
       <use xlink:href="#m6ffa743fa6" x="44.66" y="120.026067" style="stroke: #000000; stroke-width: 0.8"/>
      </g>
     </g>
     <g id="text_10">
      <!-- 6 -->
      <g transform="translate(31.2975 123.825286) scale(0.1 -0.1)">
       <use xlink:href="#DejaVuSans-36"/>
      </g>
     </g>
    </g>
    <g id="ytick_3">
     <g id="line2d_19">
      <path d="M 44.66 96.868193 
L 270.702747 96.868193 
" clip-path="url(#p931ecb58d8)" style="fill: none; stroke: #808080; stroke-opacity: 0.25; stroke-width: 0.5; stroke-linecap: square"/>
     </g>
     <g id="line2d_20">
      <g>
       <use xlink:href="#m6ffa743fa6" x="44.66" y="96.868193" style="stroke: #000000; stroke-width: 0.8"/>
      </g>
     </g>
     <g id="text_11">
      <!-- 7 -->
      <g transform="translate(31.2975 100.667412) scale(0.1 -0.1)">
       <defs>
        <path id="DejaVuSans-37" d="M 525 4666 
L 3525 4666 
L 3525 4397 
L 1831 0 
L 1172 0 
L 2766 4134 
L 525 4134 
L 525 4666 
z
" transform="scale(0.015625)"/>
       </defs>
       <use xlink:href="#DejaVuSans-37"/>
      </g>
     </g>
    </g>
    <g id="ytick_4">
     <g id="line2d_21">
      <path d="M 44.66 73.710319 
L 270.702747 73.710319 
" clip-path="url(#p931ecb58d8)" style="fill: none; stroke: #808080; stroke-opacity: 0.25; stroke-width: 0.5; stroke-linecap: square"/>
     </g>
     <g id="line2d_22">
      <g>
       <use xlink:href="#m6ffa743fa6" x="44.66" y="73.710319" style="stroke: #000000; stroke-width: 0.8"/>
      </g>
     </g>
     <g id="text_12">
      <!-- 8 -->
      <g transform="translate(31.2975 77.509538) scale(0.1 -0.1)">
       <defs>
        <path id="DejaVuSans-38" d="M 2034 2216 
Q 1584 2216 1326 1975 
Q 1069 1734 1069 1313 
Q 1069 891 1326 650 
Q 1584 409 2034 409 
Q 2484 409 2743 651 
Q 3003 894 3003 1313 
Q 3003 1734 2745 1975 
Q 2488 2216 2034 2216 
z
M 1403 2484 
Q 997 2584 770 2862 
Q 544 3141 544 3541 
Q 544 4100 942 4425 
Q 1341 4750 2034 4750 
Q 2731 4750 3128 4425 
Q 3525 4100 3525 3541 
Q 3525 3141 3298 2862 
Q 3072 2584 2669 2484 
Q 3125 2378 3379 2068 
Q 3634 1759 3634 1313 
Q 3634 634 3220 271 
Q 2806 -91 2034 -91 
Q 1263 -91 848 271 
Q 434 634 434 1313 
Q 434 1759 690 2068 
Q 947 2378 1403 2484 
z
M 1172 3481 
Q 1172 3119 1398 2916 
Q 1625 2713 2034 2713 
Q 2441 2713 2670 2916 
Q 2900 3119 2900 3481 
Q 2900 3844 2670 4047 
Q 2441 4250 2034 4250 
Q 1625 4250 1398 4047 
Q 1172 3844 1172 3481 
z
" transform="scale(0.015625)"/>
       </defs>
       <use xlink:href="#DejaVuSans-38"/>
      </g>
     </g>
    </g>
    <g id="ytick_5">
     <g id="line2d_23">
      <path d="M 44.66 50.552445 
L 270.702747 50.552445 
" clip-path="url(#p931ecb58d8)" style="fill: none; stroke: #808080; stroke-opacity: 0.25; stroke-width: 0.5; stroke-linecap: square"/>
     </g>
     <g id="line2d_24">
      <g>
       <use xlink:href="#m6ffa743fa6" x="44.66" y="50.552445" style="stroke: #000000; stroke-width: 0.8"/>
      </g>
     </g>
     <g id="text_13">
      <!-- 9 -->
      <g transform="translate(31.2975 54.351664) scale(0.1 -0.1)">
       <defs>
        <path id="DejaVuSans-39" d="M 703 97 
L 703 672 
Q 941 559 1184 500 
Q 1428 441 1663 441 
Q 2288 441 2617 861 
Q 2947 1281 2994 2138 
Q 2813 1869 2534 1725 
Q 2256 1581 1919 1581 
Q 1219 1581 811 2004 
Q 403 2428 403 3163 
Q 403 3881 828 4315 
Q 1253 4750 1959 4750 
Q 2769 4750 3195 4129 
Q 3622 3509 3622 2328 
Q 3622 1225 3098 567 
Q 2575 -91 1691 -91 
Q 1453 -91 1209 -44 
Q 966 3 703 97 
z
M 1959 2075 
Q 2384 2075 2632 2365 
Q 2881 2656 2881 3163 
Q 2881 3666 2632 3958 
Q 2384 4250 1959 4250 
Q 1534 4250 1286 3958 
Q 1038 3666 1038 3163 
Q 1038 2656 1286 2365 
Q 1534 2075 1959 2075 
z
" transform="scale(0.015625)"/>
       </defs>
       <use xlink:href="#DejaVuSans-39"/>
      </g>
     </g>
    </g>
    <g id="ytick_6">
     <g id="line2d_25">
      <path d="M 44.66 27.394571 
L 270.702747 27.394571 
" clip-path="url(#p931ecb58d8)" style="fill: none; stroke: #808080; stroke-opacity: 0.25; stroke-width: 0.5; stroke-linecap: square"/>
     </g>
     <g id="line2d_26">
      <g>
       <use xlink:href="#m6ffa743fa6" x="44.66" y="27.394571" style="stroke: #000000; stroke-width: 0.8"/>
      </g>
     </g>
     <g id="text_14">
      <!-- 10 -->
      <g transform="translate(24.935 31.19379) scale(0.1 -0.1)">
       <use xlink:href="#DejaVuSans-31"/>
       <use xlink:href="#DejaVuSans-30" x="63.623047"/>
      </g>
     </g>
    </g>
    <g id="text_15">
     <!-- NLL Loss -->
     <g transform="translate(18.855313 98.98875) rotate(-90) scale(0.1 -0.1)">
      <defs>
       <path id="DejaVuSans-4e" d="M 628 4666 
L 1478 4666 
L 3547 763 
L 3547 4666 
L 4159 4666 
L 4159 0 
L 3309 0 
L 1241 3903 
L 1241 0 
L 628 0 
L 628 4666 
z
" transform="scale(0.015625)"/>
       <path id="DejaVuSans-4c" d="M 628 4666 
L 1259 4666 
L 1259 531 
L 3531 531 
L 3531 0 
L 628 0 
L 628 4666 
z
" transform="scale(0.015625)"/>
       <path id="DejaVuSans-6f" d="M 1959 3097 
Q 1497 3097 1228 2736 
Q 959 2375 959 1747 
Q 959 1119 1226 758 
Q 1494 397 1959 397 
Q 2419 397 2687 759 
Q 2956 1122 2956 1747 
Q 2956 2369 2687 2733 
Q 2419 3097 1959 3097 
z
M 1959 3584 
Q 2709 3584 3137 3096 
Q 3566 2609 3566 1747 
Q 3566 888 3137 398 
Q 2709 -91 1959 -91 
Q 1206 -91 779 398 
Q 353 888 353 1747 
Q 353 2609 779 3096 
Q 1206 3584 1959 3584 
z
" transform="scale(0.015625)"/>
      </defs>
      <use xlink:href="#DejaVuSans-4e"/>
      <use xlink:href="#DejaVuSans-4c" x="74.804688"/>
      <use xlink:href="#DejaVuSans-4c" x="130.517578"/>
      <use xlink:href="#DejaVuSans-20" x="186.230469"/>
      <use xlink:href="#DejaVuSans-4c" x="218.017578"/>
      <use xlink:href="#DejaVuSans-6f" x="271.980469"/>
      <use xlink:href="#DejaVuSans-73" x="333.162109"/>
      <use xlink:href="#DejaVuSans-73" x="385.261719"/>
     </g>
    </g>
   </g>
   <g id="line2d_27">
    <path d="M 54.93467 48.884868 
L 56.72157 56.203507 
L 58.508469 64.199119 
L 60.295368 73.97068 
L 62.082267 84.366962 
L 63.869166 92.991413 
L 65.656065 98.552787 
L 67.442965 100.288883 
L 69.229864 101.216269 
L 71.016763 101.813592 
L 72.803662 102.601477 
L 74.590561 103.819038 
L 76.377461 105.141824 
L 78.16436 106.094419 
L 79.951259 106.898315 
L 81.738158 107.857547 
L 83.525057 108.401282 
L 85.311956 109.195582 
L 87.098856 109.627124 
L 88.885755 110.49922 
L 90.672654 110.924976 
L 92.459553 111.194016 
L 94.246452 111.759559 
L 96.033352 111.750438 
L 97.820251 112.129628 
L 99.60715 112.672556 
L 101.394049 112.691947 
L 103.180948 113.053005 
L 104.967848 113.52451 
L 106.754747 113.44062 
L 108.541646 113.516184 
L 110.328545 113.909353 
L 112.115444 113.746365 
L 113.902343 114.503629 
L 115.689243 114.719445 
L 117.476142 114.776303 
L 119.263041 114.748001 
L 121.04994 115.115916 
L 122.836839 115.471386 
L 124.623739 115.381577 
L 126.410638 115.399245 
L 128.197537 115.634584 
L 129.984436 115.574866 
L 131.771335 116.061654 
L 133.558235 116.153461 
L 135.345134 116.171096 
L 137.132033 116.068688 
L 138.918932 116.346231 
L 140.705831 116.621532 
L 142.49273 116.424699 
L 144.27963 116.582387 
L 146.066529 116.747207 
L 147.853428 117.146737 
L 149.640327 117.061069 
L 151.427226 116.804805 
L 153.214126 117.106554 
L 155.001025 117.145401 
L 156.787924 116.96172 
L 158.574823 117.195788 
L 160.361722 117.063134 
L 162.148621 117.37799 
L 163.935521 116.937404 
L 165.72242 117.551833 
L 167.509319 117.503941 
L 169.296218 117.272976 
L 171.083117 117.523222 
L 172.870017 117.36888 
L 174.656916 117.459848 
L 176.443815 117.750101 
L 178.230714 117.470935 
L 180.017613 117.53274 
L 181.804513 117.45107 
L 183.591412 117.305209 
L 185.378311 117.809058 
L 187.16521 117.721413 
L 188.952109 117.974475 
L 190.739008 117.932712 
L 192.525908 117.855271 
L 194.312807 118.013808 
L 196.099706 117.834301 
L 197.886605 117.621246 
L 199.673504 117.71365 
L 201.460404 117.819879 
L 203.247303 118.063478 
L 205.034202 117.719094 
L 206.821101 118.11752 
L 208.608 118.030637 
L 210.3949 117.907999 
L 212.181799 118.118304 
L 213.968698 118.12589 
L 215.755597 118.101784 
L 217.542496 117.915585 
L 219.329395 118.184791 
L 221.116295 118.385301 
L 222.903194 118.267201 
L 224.690093 118.355199 
L 226.476992 118.092575 
L 228.263891 118.117266 
L 230.050791 118.008088 
L 231.83769 118.09507 
L 233.624589 118.255839 
L 235.411488 118.269012 
L 237.198387 118.383501 
L 238.985286 118.266384 
L 240.772186 118.415293 
L 242.559085 118.762735 
L 244.345984 118.517977 
L 246.132883 118.478831 
L 247.919782 118.485744 
L 249.706682 118.346973 
L 251.493581 118.50191 
L 253.28048 118.568839 
L 255.067379 118.55444 
L 256.854278 118.601183 
L 258.641178 118.1779 
L 260.428077 118.565074 
" clip-path="url(#p931ecb58d8)" style="fill: none; stroke: #4e9a84; stroke-width: 1.5; stroke-linecap: square"/>
   </g>
   <g id="line2d_28">
    <path d="M 54.93467 31.732344 
L 56.72157 39.846244 
L 58.508469 47.7417 
L 60.295368 57.363481 
L 62.082267 68.472403 
L 63.869166 78.894944 
L 65.656065 87.350875 
L 67.442965 92.237076 
L 69.229864 92.686396 
L 71.016763 93.382429 
L 72.803662 94.430532 
L 74.590561 95.378213 
L 76.377461 96.292281 
L 78.16436 96.877348 
L 79.951259 97.490076 
L 81.738158 98.47645 
L 83.525057 99.196666 
L 85.311956 99.613743 
L 87.098856 100.205049 
L 88.885755 100.423779 
L 90.672654 101.224716 
L 92.459553 101.469805 
L 94.246452 101.628674 
L 96.033352 101.6889 
L 97.820251 102.607065 
L 99.60715 103.117274 
L 101.394049 103.190884 
L 103.180948 103.542622 
L 104.967848 103.8592 
L 106.754747 103.938066 
L 108.541646 104.081597 
L 110.328545 104.779176 
L 112.115444 104.492909 
L 113.902343 105.081189 
L 115.689243 105.495063 
L 117.476142 105.759841 
L 119.263041 105.902842 
L 121.04994 105.64883 
L 122.836839 106.092619 
L 124.623739 106.577176 
L 126.410638 106.078131 
L 128.197537 106.242565 
L 129.984436 106.786101 
L 131.771335 106.904554 
L 133.558235 107.29334 
L 135.345134 107.796062 
L 137.132033 107.339763 
L 138.918932 107.596833 
L 140.705831 108.138801 
L 142.49273 107.582831 
L 144.27963 107.97695 
L 146.066529 108.126278 
L 147.853428 108.581904 
L 149.640327 108.185113 
L 151.427226 108.211107 
L 153.214126 108.377408 
L 155.001025 108.332961 
L 156.787924 108.673337 
L 158.574823 108.411408 
L 160.361722 108.585681 
L 162.148621 108.840631 
L 163.935521 109.047524 
L 165.72242 109.488728 
L 167.509319 109.33601 
L 169.296218 108.847842 
L 171.083117 109.464667 
L 172.870017 108.886601 
L 174.656916 109.381296 
L 176.443815 109.283216 
L 178.230714 109.322516 
L 180.017613 109.262158 
L 181.804513 109.608164 
L 183.591412 109.779655 
L 185.378311 109.926797 
L 187.16521 109.964662 
L 188.952109 110.117877 
L 190.739008 110.078687 
L 192.525908 109.901355 
L 194.312807 109.775083 
L 196.099706 109.915821 
L 197.886605 109.988282 
L 199.673504 109.733155 
L 201.460404 109.669903 
L 203.247303 110.201193 
L 205.034202 110.060787 
L 206.821101 110.336166 
L 208.608 110.338606 
L 210.3949 110.124248 
L 212.181799 110.142502 
L 213.968698 110.358317 
L 215.755597 110.304396 
L 217.542496 110.16346 
L 219.329395 110.021829 
L 221.116295 110.065027 
L 222.903194 110.61097 
L 224.690093 110.573183 
L 226.476992 110.636556 
L 228.263891 110.750448 
L 230.050791 110.203975 
L 231.83769 110.059804 
L 233.624589 110.513674 
L 235.411488 110.247825 
L 237.198387 110.336939 
L 238.985286 110.479984 
L 240.772186 110.854303 
L 242.559085 110.817355 
L 244.345984 110.572034 
L 246.132883 110.796341 
L 247.919782 110.705837 
L 249.706682 111.078588 
L 251.493581 111.016187 
L 253.28048 110.858356 
L 255.067379 110.700845 
L 256.854278 110.771385 
L 258.641178 110.973916 
L 260.428077 111.058237 
" clip-path="url(#p931ecb58d8)" style="fill: none; stroke: #438d77; stroke-width: 1.5; stroke-linecap: square"/>
   </g>
   <g id="line2d_29">
    <path d="M 54.93467 23.833111 
L 56.72157 32.195578 
L 58.508469 40.552326 
L 60.295368 50.879348 
L 62.082267 62.700161 
L 63.869166 74.18506 
L 65.656065 83.118172 
L 67.442965 88.573417 
L 69.229864 90.870065 
L 71.016763 90.595614 
L 72.803662 91.023656 
L 74.590561 91.967583 
L 76.377461 92.645815 
L 78.16436 93.534441 
L 79.951259 93.699891 
L 81.738158 94.822796 
L 83.525057 95.765419 
L 85.311956 96.554519 
L 87.098856 96.629884 
L 88.885755 97.508804 
L 90.672654 97.610483 
L 92.459553 97.985963 
L 94.246452 98.74369 
L 96.033352 98.519096 
L 97.820251 99.488686 
L 99.60715 99.47125 
L 101.394049 100.166996 
L 103.180948 100.079694 
L 104.967848 100.511026 
L 106.754747 100.352632 
L 108.541646 100.946709 
L 110.328545 101.170166 
L 112.115444 101.219769 
L 113.902343 102.007267 
L 115.689243 101.754173 
L 117.476142 102.751623 
L 119.263041 103.203318 
L 121.04994 102.476829 
L 122.836839 102.554094 
L 124.623739 103.089878 
L 126.410638 102.928723 
L 128.197537 103.317531 
L 129.984436 103.772582 
L 131.771335 103.913595 
L 133.558235 103.917538 
L 135.345134 103.992307 
L 137.132033 104.665703 
L 138.918932 104.596488 
L 140.705831 104.988432 
L 142.49273 104.656504 
L 144.27963 105.007867 
L 146.066529 105.246407 
L 147.853428 105.884732 
L 149.640327 105.556393 
L 151.427226 105.619413 
L 153.214126 105.781584 
L 155.001025 105.980526 
L 156.787924 106.190776 
L 158.574823 105.971372 
L 160.361722 105.780557 
L 162.148621 106.110066 
L 163.935521 105.994241 
L 165.72242 106.185332 
L 167.509319 107.011391 
L 169.296218 106.572229 
L 171.083117 106.222899 
L 172.870017 106.615417 
L 174.656916 106.334384 
L 176.443815 106.296784 
L 178.230714 106.260532 
L 180.017613 106.91669 
L 181.804513 106.503788 
L 183.591412 106.672087 
L 185.378311 107.052524 
L 187.16521 106.951916 
L 188.952109 107.467194 
L 190.739008 107.064042 
L 192.525908 107.023902 
L 194.312807 107.215424 
L 196.099706 106.910959 
L 197.886605 107.118879 
L 199.673504 107.266231 
L 201.460404 107.178266 
L 203.247303 107.332453 
L 205.034202 107.036689 
L 206.821101 107.412699 
L 208.608 107.522119 
L 210.3949 106.83778 
L 212.181799 107.522406 
L 213.968698 107.663927 
L 215.755597 107.515461 
L 217.542496 107.824453 
L 219.329395 107.878859 
L 221.116295 107.670299 
L 222.903194 107.72359 
L 224.690093 107.911965 
L 226.476992 107.788465 
L 228.263891 107.388372 
L 230.050791 107.889526 
L 231.83769 107.692263 
L 233.624589 107.701207 
L 235.411488 107.961226 
L 237.198387 108.029634 
L 238.985286 107.915079 
L 240.772186 107.982847 
L 242.559085 108.283668 
L 244.345984 108.273807 
L 246.132883 108.475642 
L 247.919782 108.029214 
L 249.706682 108.459443 
L 251.493581 108.206083 
L 253.28048 108.389599 
L 255.067379 108.531617 
L 256.854278 108.237974 
L 258.641178 108.080695 
L 260.428077 108.399537 
" clip-path="url(#p931ecb58d8)" style="fill: none; stroke: #367d6a; stroke-width: 1.5; stroke-linecap: square"/>
   </g>
   <g id="line2d_30">
    <path d="M 54.93467 16.301947 
L 56.72157 24.770644 
L 58.508469 33.100271 
L 60.295368 43.565922 
L 62.082267 55.940915 
L 63.869166 68.232272 
L 65.656065 78.821069 
L 67.442965 85.58248 
L 69.229864 89.868021 
L 71.016763 89.562342 
L 72.803662 90.212316 
L 74.590561 90.726037 
L 76.377461 91.52089 
L 78.16436 92.512487 
L 79.951259 92.854431 
L 81.738158 93.809146 
L 83.525057 94.496224 
L 85.311956 95.49777 
L 87.098856 95.692671 
L 88.885755 95.854731 
L 90.672654 96.634323 
L 92.459553 96.73067 
L 94.246452 97.703892 
L 96.033352 97.119842 
L 97.820251 98.488034 
L 99.60715 98.715808 
L 101.394049 98.88551 
L 103.180948 99.303558 
L 104.967848 99.51976 
L 106.754747 99.653739 
L 108.541646 100.021698 
L 110.328545 100.383849 
L 112.115444 100.743184 
L 113.902343 101.305238 
L 115.689243 101.45323 
L 117.476142 101.820693 
L 119.263041 102.122353 
L 121.04994 102.180337 
L 122.836839 102.467763 
L 124.623739 102.265983 
L 126.410638 102.299773 
L 128.197537 102.971203 
L 129.984436 102.29667 
L 131.771335 103.701336 
L 133.558235 103.51041 
L 135.345134 103.810789 
L 137.132033 103.527813 
L 138.918932 103.808327 
L 140.705831 103.806472 
L 142.49273 104.087769 
L 144.27963 104.258951 
L 146.066529 104.360089 
L 147.853428 104.404999 
L 149.640327 104.697549 
L 151.427226 104.638781 
L 153.214126 104.812016 
L 155.001025 105.158288 
L 156.787924 105.099718 
L 158.574823 104.963222 
L 160.361722 104.578201 
L 162.148621 105.464873 
L 163.935521 105.147267 
L 165.72242 105.369123 
L 167.509319 105.39398 
L 169.296218 105.701095 
L 171.083117 105.473928 
L 172.870017 106.191339 
L 174.656916 105.705821 
L 176.443815 105.899573 
L 178.230714 105.752078 
L 180.017613 105.904631 
L 181.804513 105.414762 
L 183.591412 106.15099 
L 185.378311 106.452705 
L 187.16521 106.1064 
L 188.952109 106.457111 
L 190.739008 106.608913 
L 192.525908 106.160354 
L 194.312807 106.504881 
L 196.099706 106.577784 
L 197.886605 106.623643 
L 199.673504 106.198837 
L 201.460404 106.232903 
L 203.247303 106.763828 
L 205.034202 106.847111 
L 206.821101 107.235919 
L 208.608 106.785416 
L 210.3949 106.548609 
L 212.181799 107.181623 
L 213.968698 106.96139 
L 215.755597 106.688662 
L 217.542496 107.042454 
L 219.329395 107.180154 
L 221.116295 107.087606 
L 222.903194 107.286229 
L 224.690093 107.483051 
L 226.476992 106.857292 
L 228.263891 107.011634 
L 230.050791 107.245636 
L 231.83769 106.923227 
L 233.624589 107.143117 
L 235.411488 107.118813 
L 237.198387 107.29461 
L 238.985286 107.332486 
L 240.772186 107.430356 
L 242.559085 107.412136 
L 244.345984 107.370914 
L 246.132883 107.651306 
L 247.919782 107.768036 
L 249.706682 107.511662 
L 251.493581 107.731342 
L 253.28048 107.595674 
L 255.067379 107.869915 
L 256.854278 107.726539 
L 258.641178 107.829422 
L 260.428077 107.651858 
" clip-path="url(#p931ecb58d8)" style="fill: none; stroke: #295e57; stroke-width: 1.5; stroke-linecap: square"/>
   </g>
   <g id="patch_3">
    <path d="M 44.66 143.44 
L 44.66 10.8 
" style="fill: none; stroke: #000000; stroke-width: 0.8; stroke-linejoin: miter; stroke-linecap: square"/>
   </g>
   <g id="patch_4">
    <path d="M 270.702747 143.44 
L 270.702747 10.8 
" style="fill: none; stroke: #000000; stroke-width: 0.8; stroke-linejoin: miter; stroke-linecap: square"/>
   </g>
   <g id="patch_5">
    <path d="M 44.66 143.44 
L 270.702747 143.44 
" style="fill: none; stroke: #000000; stroke-width: 0.8; stroke-linejoin: miter; stroke-linecap: square"/>
   </g>
   <g id="patch_6">
    <path d="M 44.66 10.8 
L 270.702747 10.8 
" style="fill: none; stroke: #000000; stroke-width: 0.8; stroke-linejoin: miter; stroke-linecap: square"/>
   </g>
   <g id="legend_1">
    <g id="patch_7">
     <path d="M 209.162269 67.298225 
L 264.871747 67.298225 
Q 266.537747 67.298225 266.537747 65.632225 
L 266.537747 16.631 
Q 266.537747 14.965 264.871747 14.965 
L 209.162269 14.965 
Q 207.496269 14.965 207.496269 16.631 
L 207.496269 65.632225 
Q 207.496269 67.298225 209.162269 67.298225 
z
" style="fill: #ffffff; opacity: 0.8; stroke: #cccccc; stroke-linejoin: miter"/>
    </g>
    <g id="line2d_31">
     <path d="M 210.828269 21.710998 
L 219.158269 21.710998 
L 227.488269 21.710998 
" style="fill: none; stroke: #4e9a84; stroke-width: 1.5; stroke-linecap: square"/>
    </g>
    <g id="text_16">
     <!-- es_10k -->
     <g transform="translate(234.152269 24.626498) scale(0.0833 -0.0833)">
      <defs>
       <path id="DejaVuSans-5f" d="M 3263 -1063 
L 3263 -1509 
L -63 -1509 
L -63 -1063 
L 3263 -1063 
z
" transform="scale(0.015625)"/>
       <path id="DejaVuSans-6b" d="M 581 4863 
L 1159 4863 
L 1159 1991 
L 2875 3500 
L 3609 3500 
L 1753 1863 
L 3688 0 
L 2938 0 
L 1159 1709 
L 1159 0 
L 581 0 
L 581 4863 
z
" transform="scale(0.015625)"/>
      </defs>
      <use xlink:href="#DejaVuSans-65"/>
      <use xlink:href="#DejaVuSans-73" x="61.523438"/>
      <use xlink:href="#DejaVuSans-5f" x="113.623047"/>
      <use xlink:href="#DejaVuSans-31" x="163.623047"/>
      <use xlink:href="#DejaVuSans-30" x="227.246094"/>
      <use xlink:href="#DejaVuSans-6b" x="290.869141"/>
     </g>
    </g>
    <g id="line2d_32">
     <path d="M 210.828269 34.169555 
L 219.158269 34.169555 
L 227.488269 34.169555 
" style="fill: none; stroke: #438d77; stroke-width: 1.5; stroke-linecap: square"/>
    </g>
    <g id="text_17">
     <!-- es_20k -->
     <g transform="translate(234.152269 37.085055) scale(0.0833 -0.0833)">
      <use xlink:href="#DejaVuSans-65"/>
      <use xlink:href="#DejaVuSans-73" x="61.523438"/>
      <use xlink:href="#DejaVuSans-5f" x="113.623047"/>
      <use xlink:href="#DejaVuSans-32" x="163.623047"/>
      <use xlink:href="#DejaVuSans-30" x="227.246094"/>
      <use xlink:href="#DejaVuSans-6b" x="290.869141"/>
     </g>
    </g>
    <g id="line2d_33">
     <path d="M 210.828269 46.628111 
L 219.158269 46.628111 
L 227.488269 46.628111 
" style="fill: none; stroke: #367d6a; stroke-width: 1.5; stroke-linecap: square"/>
    </g>
    <g id="text_18">
     <!-- es_30k -->
     <g transform="translate(234.152269 49.543611) scale(0.0833 -0.0833)">
      <use xlink:href="#DejaVuSans-65"/>
      <use xlink:href="#DejaVuSans-73" x="61.523438"/>
      <use xlink:href="#DejaVuSans-5f" x="113.623047"/>
      <use xlink:href="#DejaVuSans-33" x="163.623047"/>
      <use xlink:href="#DejaVuSans-30" x="227.246094"/>
      <use xlink:href="#DejaVuSans-6b" x="290.869141"/>
     </g>
    </g>
    <g id="line2d_34">
     <path d="M 210.828269 59.086667 
L 219.158269 59.086667 
L 227.488269 59.086667 
" style="fill: none; stroke: #295e57; stroke-width: 1.5; stroke-linecap: square"/>
    </g>
    <g id="text_19">
     <!-- es_40k -->
     <g transform="translate(234.152269 62.002167) scale(0.0833 -0.0833)">
      <use xlink:href="#DejaVuSans-65"/>
      <use xlink:href="#DejaVuSans-73" x="61.523438"/>
      <use xlink:href="#DejaVuSans-5f" x="113.623047"/>
      <use xlink:href="#DejaVuSans-34" x="163.623047"/>
      <use xlink:href="#DejaVuSans-30" x="227.246094"/>
      <use xlink:href="#DejaVuSans-6b" x="290.869141"/>
     </g>
    </g>
   </g>
  </g>
  <g id="axes_2">
   <g id="patch_8">
    <path d="M 44.66 318.04 
L 270.702747 318.04 
L 270.702747 185.4 
L 44.66 185.4 
z
" style="fill: #ffffff"/>
   </g>
   <g id="matplotlib.axis_3">
    <g id="xtick_8">
     <g id="line2d_35">
      <path d="M 53.147771 318.04 
L 53.147771 185.4 
" clip-path="url(#p96d0feaddc)" style="fill: none; stroke: #808080; stroke-opacity: 0.25; stroke-width: 0.5; stroke-linecap: square"/>
     </g>
     <g id="line2d_36">
      <g>
       <use xlink:href="#m3f4126724d" x="53.147771" y="318.04" style="stroke: #000000; stroke-width: 0.8"/>
      </g>
     </g>
     <g id="text_20">
      <!-- 0 -->
      <g transform="translate(49.966521 332.638438) scale(0.1 -0.1)">
       <use xlink:href="#DejaVuSans-30"/>
      </g>
     </g>
    </g>
    <g id="xtick_9">
     <g id="line2d_37">
      <path d="M 88.885755 318.04 
L 88.885755 185.4 
" clip-path="url(#p96d0feaddc)" style="fill: none; stroke: #808080; stroke-opacity: 0.25; stroke-width: 0.5; stroke-linecap: square"/>
     </g>
     <g id="line2d_38">
      <g>
       <use xlink:href="#m3f4126724d" x="88.885755" y="318.04" style="stroke: #000000; stroke-width: 0.8"/>
      </g>
     </g>
     <g id="text_21">
      <!-- 100 -->
      <g transform="translate(79.342005 332.638438) scale(0.1 -0.1)">
       <use xlink:href="#DejaVuSans-31"/>
       <use xlink:href="#DejaVuSans-30" x="63.623047"/>
       <use xlink:href="#DejaVuSans-30" x="127.246094"/>
      </g>
     </g>
    </g>
    <g id="xtick_10">
     <g id="line2d_39">
      <path d="M 124.623739 318.04 
L 124.623739 185.4 
" clip-path="url(#p96d0feaddc)" style="fill: none; stroke: #808080; stroke-opacity: 0.25; stroke-width: 0.5; stroke-linecap: square"/>
     </g>
     <g id="line2d_40">
      <g>
       <use xlink:href="#m3f4126724d" x="124.623739" y="318.04" style="stroke: #000000; stroke-width: 0.8"/>
      </g>
     </g>
     <g id="text_22">
      <!-- 200 -->
      <g transform="translate(115.079989 332.638438) scale(0.1 -0.1)">
       <use xlink:href="#DejaVuSans-32"/>
       <use xlink:href="#DejaVuSans-30" x="63.623047"/>
       <use xlink:href="#DejaVuSans-30" x="127.246094"/>
      </g>
     </g>
    </g>
    <g id="xtick_11">
     <g id="line2d_41">
      <path d="M 160.361722 318.04 
L 160.361722 185.4 
" clip-path="url(#p96d0feaddc)" style="fill: none; stroke: #808080; stroke-opacity: 0.25; stroke-width: 0.5; stroke-linecap: square"/>
     </g>
     <g id="line2d_42">
      <g>
       <use xlink:href="#m3f4126724d" x="160.361722" y="318.04" style="stroke: #000000; stroke-width: 0.8"/>
      </g>
     </g>
     <g id="text_23">
      <!-- 300 -->
      <g transform="translate(150.817972 332.638438) scale(0.1 -0.1)">
       <use xlink:href="#DejaVuSans-33"/>
       <use xlink:href="#DejaVuSans-30" x="63.623047"/>
       <use xlink:href="#DejaVuSans-30" x="127.246094"/>
      </g>
     </g>
    </g>
    <g id="xtick_12">
     <g id="line2d_43">
      <path d="M 196.099706 318.04 
L 196.099706 185.4 
" clip-path="url(#p96d0feaddc)" style="fill: none; stroke: #808080; stroke-opacity: 0.25; stroke-width: 0.5; stroke-linecap: square"/>
     </g>
     <g id="line2d_44">
      <g>
       <use xlink:href="#m3f4126724d" x="196.099706" y="318.04" style="stroke: #000000; stroke-width: 0.8"/>
      </g>
     </g>
     <g id="text_24">
      <!-- 400 -->
      <g transform="translate(186.555956 332.638438) scale(0.1 -0.1)">
       <use xlink:href="#DejaVuSans-34"/>
       <use xlink:href="#DejaVuSans-30" x="63.623047"/>
       <use xlink:href="#DejaVuSans-30" x="127.246094"/>
      </g>
     </g>
    </g>
    <g id="xtick_13">
     <g id="line2d_45">
      <path d="M 231.83769 318.04 
L 231.83769 185.4 
" clip-path="url(#p96d0feaddc)" style="fill: none; stroke: #808080; stroke-opacity: 0.25; stroke-width: 0.5; stroke-linecap: square"/>
     </g>
     <g id="line2d_46">
      <g>
       <use xlink:href="#m3f4126724d" x="231.83769" y="318.04" style="stroke: #000000; stroke-width: 0.8"/>
      </g>
     </g>
     <g id="text_25">
      <!-- 500 -->
      <g transform="translate(222.29394 332.638438) scale(0.1 -0.1)">
       <use xlink:href="#DejaVuSans-35"/>
       <use xlink:href="#DejaVuSans-30" x="63.623047"/>
       <use xlink:href="#DejaVuSans-30" x="127.246094"/>
      </g>
     </g>
    </g>
    <g id="xtick_14">
     <g id="line2d_47">
      <path d="M 267.575673 318.04 
L 267.575673 185.4 
" clip-path="url(#p96d0feaddc)" style="fill: none; stroke: #808080; stroke-opacity: 0.25; stroke-width: 0.5; stroke-linecap: square"/>
     </g>
     <g id="line2d_48">
      <g>
       <use xlink:href="#m3f4126724d" x="267.575673" y="318.04" style="stroke: #000000; stroke-width: 0.8"/>
      </g>
     </g>
     <g id="text_26">
      <!-- 600 -->
      <g transform="translate(258.031923 332.638438) scale(0.1 -0.1)">
       <use xlink:href="#DejaVuSans-36"/>
       <use xlink:href="#DejaVuSans-30" x="63.623047"/>
       <use xlink:href="#DejaVuSans-30" x="127.246094"/>
      </g>
     </g>
    </g>
    <g id="text_27">
     <!-- Training Steps -->
     <g transform="translate(122.376686 346.316563) scale(0.1 -0.1)">
      <use xlink:href="#DejaVuSans-54"/>
      <use xlink:href="#DejaVuSans-72" x="46.333984"/>
      <use xlink:href="#DejaVuSans-61" x="87.447266"/>
      <use xlink:href="#DejaVuSans-69" x="148.726562"/>
      <use xlink:href="#DejaVuSans-6e" x="176.509766"/>
      <use xlink:href="#DejaVuSans-69" x="239.888672"/>
      <use xlink:href="#DejaVuSans-6e" x="267.671875"/>
      <use xlink:href="#DejaVuSans-67" x="331.050781"/>
      <use xlink:href="#DejaVuSans-20" x="394.527344"/>
      <use xlink:href="#DejaVuSans-53" x="426.314453"/>
      <use xlink:href="#DejaVuSans-74" x="489.791016"/>
      <use xlink:href="#DejaVuSans-65" x="529"/>
      <use xlink:href="#DejaVuSans-70" x="590.523438"/>
      <use xlink:href="#DejaVuSans-73" x="654"/>
     </g>
    </g>
   </g>
   <g id="matplotlib.axis_4">
    <g id="ytick_7">
     <g id="line2d_49">
      <path d="M 44.66 317.783941 
L 270.702747 317.783941 
" clip-path="url(#p96d0feaddc)" style="fill: none; stroke: #808080; stroke-opacity: 0.25; stroke-width: 0.5; stroke-linecap: square"/>
     </g>
     <g id="line2d_50">
      <g>
       <use xlink:href="#m6ffa743fa6" x="44.66" y="317.783941" style="stroke: #000000; stroke-width: 0.8"/>
      </g>
     </g>
     <g id="text_28">
      <!-- 5 -->
      <g transform="translate(31.2975 321.58316) scale(0.1 -0.1)">
       <use xlink:href="#DejaVuSans-35"/>
      </g>
     </g>
    </g>
    <g id="ytick_8">
     <g id="line2d_51">
      <path d="M 44.66 294.626067 
L 270.702747 294.626067 
" clip-path="url(#p96d0feaddc)" style="fill: none; stroke: #808080; stroke-opacity: 0.25; stroke-width: 0.5; stroke-linecap: square"/>
     </g>
     <g id="line2d_52">
      <g>
       <use xlink:href="#m6ffa743fa6" x="44.66" y="294.626067" style="stroke: #000000; stroke-width: 0.8"/>
      </g>
     </g>
     <g id="text_29">
      <!-- 6 -->
      <g transform="translate(31.2975 298.425286) scale(0.1 -0.1)">
       <use xlink:href="#DejaVuSans-36"/>
      </g>
     </g>
    </g>
    <g id="ytick_9">
     <g id="line2d_53">
      <path d="M 44.66 271.468193 
L 270.702747 271.468193 
" clip-path="url(#p96d0feaddc)" style="fill: none; stroke: #808080; stroke-opacity: 0.25; stroke-width: 0.5; stroke-linecap: square"/>
     </g>
     <g id="line2d_54">
      <g>
       <use xlink:href="#m6ffa743fa6" x="44.66" y="271.468193" style="stroke: #000000; stroke-width: 0.8"/>
      </g>
     </g>
     <g id="text_30">
      <!-- 7 -->
      <g transform="translate(31.2975 275.267412) scale(0.1 -0.1)">
       <use xlink:href="#DejaVuSans-37"/>
      </g>
     </g>
    </g>
    <g id="ytick_10">
     <g id="line2d_55">
      <path d="M 44.66 248.310319 
L 270.702747 248.310319 
" clip-path="url(#p96d0feaddc)" style="fill: none; stroke: #808080; stroke-opacity: 0.25; stroke-width: 0.5; stroke-linecap: square"/>
     </g>
     <g id="line2d_56">
      <g>
       <use xlink:href="#m6ffa743fa6" x="44.66" y="248.310319" style="stroke: #000000; stroke-width: 0.8"/>
      </g>
     </g>
     <g id="text_31">
      <!-- 8 -->
      <g transform="translate(31.2975 252.109538) scale(0.1 -0.1)">
       <use xlink:href="#DejaVuSans-38"/>
      </g>
     </g>
    </g>
    <g id="ytick_11">
     <g id="line2d_57">
      <path d="M 44.66 225.152445 
L 270.702747 225.152445 
" clip-path="url(#p96d0feaddc)" style="fill: none; stroke: #808080; stroke-opacity: 0.25; stroke-width: 0.5; stroke-linecap: square"/>
     </g>
     <g id="line2d_58">
      <g>
       <use xlink:href="#m6ffa743fa6" x="44.66" y="225.152445" style="stroke: #000000; stroke-width: 0.8"/>
      </g>
     </g>
     <g id="text_32">
      <!-- 9 -->
      <g transform="translate(31.2975 228.951664) scale(0.1 -0.1)">
       <use xlink:href="#DejaVuSans-39"/>
      </g>
     </g>
    </g>
    <g id="ytick_12">
     <g id="line2d_59">
      <path d="M 44.66 201.994571 
L 270.702747 201.994571 
" clip-path="url(#p96d0feaddc)" style="fill: none; stroke: #808080; stroke-opacity: 0.25; stroke-width: 0.5; stroke-linecap: square"/>
     </g>
     <g id="line2d_60">
      <g>
       <use xlink:href="#m6ffa743fa6" x="44.66" y="201.994571" style="stroke: #000000; stroke-width: 0.8"/>
      </g>
     </g>
     <g id="text_33">
      <!-- 10 -->
      <g transform="translate(24.935 205.79379) scale(0.1 -0.1)">
       <use xlink:href="#DejaVuSans-31"/>
       <use xlink:href="#DejaVuSans-30" x="63.623047"/>
      </g>
     </g>
    </g>
    <g id="text_34">
     <!-- NLL Loss -->
     <g transform="translate(18.855313 273.58875) rotate(-90) scale(0.1 -0.1)">
      <use xlink:href="#DejaVuSans-4e"/>
      <use xlink:href="#DejaVuSans-4c" x="74.804688"/>
      <use xlink:href="#DejaVuSans-4c" x="130.517578"/>
      <use xlink:href="#DejaVuSans-20" x="186.230469"/>
      <use xlink:href="#DejaVuSans-4c" x="218.017578"/>
      <use xlink:href="#DejaVuSans-6f" x="271.980469"/>
      <use xlink:href="#DejaVuSans-73" x="333.162109"/>
      <use xlink:href="#DejaVuSans-73" x="385.261719"/>
     </g>
    </g>
   </g>
   <g id="line2d_61">
    <path d="M 54.93467 221.529831 
L 56.72157 227.127093 
L 58.508469 233.725538 
L 60.295368 241.813356 
L 62.082267 249.688571 
L 63.869166 255.561046 
L 65.656065 258.396924 
L 67.442965 259.116743 
L 69.229864 259.759783 
L 71.016763 260.630431 
L 72.803662 261.642104 
L 74.590561 262.71471 
L 76.377461 263.937715 
L 78.16436 264.926032 
L 79.951259 265.721592 
L 81.738158 266.454562 
L 83.525057 267.112576 
L 85.311956 267.856699 
L 87.098856 268.597664 
L 88.885755 269.421813 
L 90.672654 270.045882 
L 92.459553 270.302389 
L 94.246452 270.830498 
L 96.033352 271.185449 
L 97.820251 272.196007 
L 99.60715 272.486337 
L 101.394049 272.679184 
L 103.180948 273.031529 
L 104.967848 273.529139 
L 106.754747 273.485245 
L 108.541646 273.593638 
L 110.328545 274.176066 
L 112.115444 274.404558 
L 113.902343 274.77371 
L 115.689243 274.853249 
L 117.476142 275.038819 
L 119.263041 275.370923 
L 121.04994 275.623124 
L 122.836839 275.67213 
L 124.623739 275.849164 
L 126.410638 275.745928 
L 128.197537 275.848259 
L 129.984436 276.372823 
L 131.771335 276.81617 
L 133.558235 276.836919 
L 135.345134 276.682633 
L 137.132033 277.098936 
L 138.918932 277.003915 
L 140.705831 277.484641 
L 142.49273 277.207981 
L 144.27963 277.74011 
L 146.066529 277.566764 
L 147.853428 278.140601 
L 149.640327 277.8741 
L 151.427226 277.770035 
L 153.214126 277.826816 
L 155.001025 278.136007 
L 156.787924 278.373775 
L 158.574823 278.6399 
L 160.361722 278.497142 
L 162.148621 278.720577 
L 163.935521 278.637824 
L 165.72242 278.798913 
L 167.509319 279.043052 
L 169.296218 278.900758 
L 171.083117 278.902138 
L 172.870017 279.208458 
L 174.656916 278.830859 
L 176.443815 279.041716 
L 178.230714 279.134473 
L 180.017613 279.196941 
L 181.804513 279.126622 
L 183.591412 279.615519 
L 185.378311 279.713787 
L 187.16521 279.749708 
L 188.952109 279.47444 
L 190.739008 279.562658 
L 192.525908 279.745644 
L 194.312807 279.892786 
L 196.099706 279.492019 
L 197.886605 279.51522 
L 199.673504 279.693137 
L 201.460404 279.65197 
L 203.247303 279.756168 
L 205.034202 279.56797 
L 206.821101 280.073917 
L 208.608 279.87397 
L 210.3949 280.07024 
L 212.181799 280.05298 
L 213.968698 280.142679 
L 215.755597 279.829247 
L 217.542496 279.941031 
L 219.329395 280.143142 
L 221.116295 279.854899 
L 222.903194 280.214289 
L 224.690093 280.120273 
L 226.476992 280.030365 
L 228.263891 280.056072 
L 230.050791 280.471271 
L 231.83769 280.082397 
L 233.624589 280.314876 
L 235.411488 280.313197 
L 237.198387 280.57961 
L 238.985286 280.401405 
L 240.772186 280.408119 
L 242.559085 280.737352 
L 244.345984 280.463773 
L 246.132883 280.593589 
L 247.919782 280.338352 
L 249.706682 280.869752 
L 251.493581 280.50812 
L 253.28048 280.408826 
L 255.067379 280.495443 
L 256.854278 280.666238 
L 258.641178 280.719187 
L 260.428077 280.686026 
" clip-path="url(#p96d0feaddc)" style="fill: none; stroke: #68b3c7; stroke-width: 1.5; stroke-linecap: square"/>
   </g>
   <g id="line2d_62">
    <path d="M 54.93467 205.659655 
L 56.72157 211.517079 
L 58.508469 217.651075 
L 60.295368 225.147785 
L 62.082267 233.029527 
L 63.869166 239.823712 
L 65.656065 244.129041 
L 67.442965 245.478439 
L 69.229864 245.579854 
L 71.016763 246.510828 
L 72.803662 246.96885 
L 74.590561 248.140242 
L 76.377461 248.584461 
L 78.16436 249.269198 
L 79.951259 250.065144 
L 81.738158 250.766565 
L 83.525057 251.485733 
L 85.311956 252.514555 
L 87.098856 253.02801 
L 88.885755 253.643135 
L 90.672654 254.624142 
L 92.459553 254.667849 
L 94.246452 255.52814 
L 96.033352 255.637196 
L 97.820251 256.574928 
L 99.60715 256.948265 
L 101.394049 257.313607 
L 103.180948 257.745569 
L 104.967848 258.401749 
L 106.754747 258.478528 
L 108.541646 258.695249 
L 110.328545 259.17995 
L 112.115444 259.230039 
L 113.902343 259.833933 
L 115.689243 260.172707 
L 117.476142 260.509582 
L 119.263041 260.605343 
L 121.04994 261.263411 
L 122.836839 261.389738 
L 124.623739 261.215951 
L 126.410638 261.689134 
L 128.197537 261.985637 
L 129.984436 262.635822 
L 131.771335 262.782467 
L 133.558235 263.014272 
L 135.345134 262.992915 
L 137.132033 263.258091 
L 138.918932 263.262729 
L 140.705831 263.513328 
L 142.49273 263.660326 
L 144.27963 263.709863 
L 146.066529 263.840684 
L 147.853428 264.347172 
L 149.640327 264.313934 
L 151.427226 264.343042 
L 153.214126 264.418429 
L 155.001025 264.499967 
L 156.787924 264.947941 
L 158.574823 265.187939 
L 160.361722 265.11211 
L 162.148621 265.333347 
L 163.935521 265.217876 
L 165.72242 265.32914 
L 167.509319 265.756674 
L 169.296218 265.487523 
L 171.083117 266.013037 
L 172.870017 265.944949 
L 174.656916 265.801485 
L 176.443815 266.045955 
L 178.230714 265.991781 
L 180.017613 266.284187 
L 181.804513 266.227693 
L 183.591412 266.361175 
L 185.378311 266.609478 
L 187.16521 266.689227 
L 188.952109 266.848416 
L 190.739008 266.880031 
L 192.525908 266.732337 
L 194.312807 266.822058 
L 196.099706 266.360425 
L 197.886605 266.887573 
L 199.673504 267.009781 
L 201.460404 267.371302 
L 203.247303 267.260402 
L 205.034202 267.111427 
L 206.821101 267.278567 
L 208.608 267.52168 
L 210.3949 267.399483 
L 212.181799 267.596117 
L 213.968698 267.536134 
L 215.755597 267.467494 
L 217.542496 267.553305 
L 219.329395 267.576959 
L 221.116295 267.472143 
L 222.903194 267.852127 
L 224.690093 268.112521 
L 226.476992 267.204516 
L 228.263891 267.69497 
L 230.050791 268.070063 
L 231.83769 267.616204 
L 233.624589 267.771749 
L 235.411488 268.083347 
L 237.198387 267.799134 
L 238.985286 267.797765 
L 240.772186 268.07162 
L 242.559085 268.338794 
L 244.345984 268.079394 
L 246.132883 268.218806 
L 247.919782 268.107939 
L 249.706682 268.480878 
L 251.493581 268.353194 
L 253.28048 268.206471 
L 255.067379 268.227408 
L 256.854278 268.145605 
L 258.641178 268.103842 
L 260.428077 268.055697 
" clip-path="url(#p96d0feaddc)" style="fill: none; stroke: #4da1b4; stroke-width: 1.5; stroke-linecap: square"/>
   </g>
   <g id="line2d_63">
    <path d="M 54.93467 196.56213 
L 56.72157 202.745287 
L 58.508469 208.678529 
L 60.295368 216.618509 
L 62.082267 225.182105 
L 63.869166 232.781843 
L 65.656065 237.771699 
L 67.442965 240.247458 
L 69.229864 240.488406 
L 71.016763 241.311053 
L 72.803662 241.048815 
L 74.590561 241.777136 
L 76.377461 242.839693 
L 78.16436 243.504034 
L 79.951259 244.105852 
L 81.738158 244.789738 
L 83.525057 245.10805 
L 85.311956 246.141433 
L 87.098856 246.889366 
L 88.885755 247.203923 
L 90.672654 248.362683 
L 92.459553 248.224408 
L 94.246452 249.141988 
L 96.033352 249.46104 
L 97.820251 249.924539 
L 99.60715 250.288468 
L 101.394049 251.029543 
L 103.180948 251.182383 
L 104.967848 252.156158 
L 106.754747 251.882623 
L 108.541646 252.244289 
L 110.328545 252.701427 
L 112.115444 253.090202 
L 113.902343 253.745389 
L 115.689243 254.271499 
L 117.476142 254.543399 
L 119.263041 255.069908 
L 121.04994 255.337435 
L 122.836839 255.280301 
L 124.623739 255.332378 
L 126.410638 255.766349 
L 128.197537 255.926135 
L 129.984436 256.638952 
L 131.771335 256.791803 
L 133.558235 256.892345 
L 135.345134 257.225377 
L 137.132033 257.106714 
L 138.918932 257.279176 
L 140.705831 257.621175 
L 142.49273 257.626387 
L 144.27963 257.924303 
L 146.066529 257.827902 
L 147.853428 258.449277 
L 149.640327 258.27931 
L 151.427226 258.074636 
L 153.214126 258.066509 
L 155.001025 258.536535 
L 156.787924 258.929053 
L 158.574823 259.151085 
L 160.361722 259.32633 
L 162.148621 259.287272 
L 163.935521 259.241965 
L 165.72242 259.290453 
L 167.509319 259.986221 
L 169.296218 259.79524 
L 171.083117 259.952442 
L 172.870017 260.405605 
L 174.656916 260.247774 
L 176.443815 260.620394 
L 178.230714 260.335054 
L 180.017613 260.815913 
L 181.804513 260.714288 
L 183.591412 260.285496 
L 185.378311 261.165751 
L 187.16521 261.135064 
L 188.952109 261.245953 
L 190.739008 261.018797 
L 192.525908 261.217364 
L 194.312807 261.212825 
L 196.099706 260.541804 
L 197.886605 261.045167 
L 199.673504 261.326663 
L 201.460404 261.756416 
L 203.247303 261.535831 
L 205.034202 262.029068 
L 206.821101 262.166437 
L 208.608 261.939612 
L 210.3949 261.883958 
L 212.181799 262.263191 
L 213.968698 262.111931 
L 215.755597 261.829176 
L 217.542496 262.216581 
L 219.329395 262.242431 
L 221.116295 262.16096 
L 222.903194 262.263843 
L 224.690093 262.576192 
L 226.476992 262.266913 
L 228.263891 262.107955 
L 230.050791 262.460908 
L 231.83769 262.415932 
L 233.624589 262.673123 
L 235.411488 262.465877 
L 237.198387 262.441904 
L 238.985286 262.208509 
L 240.772186 262.280605 
L 242.559085 263.030637 
L 244.345984 262.710403 
L 246.132883 262.887459 
L 247.919782 262.773456 
L 249.706682 263.291572 
L 251.493581 262.82445 
L 253.28048 262.927842 
L 255.067379 262.839711 
L 256.854278 262.610291 
L 258.641178 262.911322 
L 260.428077 262.896889 
" clip-path="url(#p96d0feaddc)" style="fill: none; stroke: #3b7d98; stroke-width: 1.5; stroke-linecap: square"/>
   </g>
   <g id="line2d_64">
    <path d="M 54.93467 190.25766 
L 56.72157 196.46045 
L 58.508469 203.062671 
L 60.295368 211.104331 
L 62.082267 220.258438 
L 63.869166 228.443364 
L 65.656065 233.880818 
L 67.442965 237.004398 
L 69.229864 237.681482 
L 71.016763 237.937823 
L 72.803662 238.057061 
L 74.590561 238.536682 
L 76.377461 239.065553 
L 78.16436 239.948514 
L 79.951259 240.476016 
L 81.738158 241.067653 
L 83.525057 242.066031 
L 85.311956 242.627014 
L 87.098856 243.326647 
L 88.885755 244.21959 
L 90.672654 245.005819 
L 92.459553 244.839165 
L 94.246452 245.640013 
L 96.033352 246.819069 
L 97.820251 246.777439 
L 99.60715 247.003811 
L 101.394049 247.962744 
L 103.180948 248.180569 
L 104.967848 248.783293 
L 106.754747 248.546718 
L 108.541646 248.793861 
L 110.328545 249.473827 
L 112.115444 249.804838 
L 113.902343 250.244154 
L 115.689243 250.852808 
L 117.476142 250.941159 
L 119.263041 251.115741 
L 121.04994 251.371166 
L 122.836839 251.543507 
L 124.623739 251.721314 
L 126.410638 252.104126 
L 128.197537 252.66438 
L 129.984436 252.876948 
L 131.771335 253.4001 
L 133.558235 253.172833 
L 135.345134 253.647419 
L 137.132033 253.407642 
L 138.918932 253.718511 
L 140.705831 254.145548 
L 142.49273 253.940102 
L 144.27963 254.359365 
L 146.066529 254.528028 
L 147.853428 254.710683 
L 149.640327 254.769407 
L 151.427226 254.496314 
L 153.214126 254.759656 
L 155.001025 255.260789 
L 156.787924 255.349803 
L 158.574823 255.743977 
L 160.361722 255.774786 
L 162.148621 256.051048 
L 163.935521 256.129693 
L 165.72242 256.312623 
L 167.509319 256.843526 
L 169.296218 256.682129 
L 171.083117 256.683178 
L 172.870017 257.082575 
L 174.656916 256.58936 
L 176.443815 257.064697 
L 178.230714 256.78669 
L 180.017613 257.100862 
L 181.804513 256.950352 
L 183.591412 257.288375 
L 185.378311 258.007575 
L 187.16521 257.728133 
L 188.952109 257.852096 
L 190.739008 257.781877 
L 192.525908 257.827538 
L 194.312807 257.657571 
L 196.099706 257.221203 
L 197.886605 257.795205 
L 199.673504 258.031372 
L 201.460404 258.132665 
L 203.247303 258.530616 
L 205.034202 258.401749 
L 206.821101 259.027088 
L 208.608 257.999304 
L 210.3949 258.655783 
L 212.181799 258.806503 
L 213.968698 259.020131 
L 215.755597 258.641218 
L 217.542496 259.099737 
L 219.329395 259.120718 
L 221.116295 258.772282 
L 222.903194 258.898222 
L 224.690093 258.863835 
L 226.476992 259.096822 
L 228.263891 259.054054 
L 230.050791 259.213067 
L 231.83769 259.324585 
L 233.624589 259.353561 
L 235.411488 259.087182 
L 237.198387 259.298878 
L 238.985286 259.178824 
L 240.772186 259.159179 
L 242.559085 259.74461 
L 244.345984 259.498969 
L 246.132883 259.988617 
L 247.919782 259.321548 
L 249.706682 259.726865 
L 251.493581 259.859861 
L 253.28048 259.688514 
L 255.067379 259.449554 
L 256.854278 259.786991 
L 258.641178 260.040164 
L 260.428077 259.777506 
" clip-path="url(#p96d0feaddc)" style="fill: none; stroke: #2c5b73; stroke-width: 1.5; stroke-linecap: square"/>
   </g>
   <g id="patch_9">
    <path d="M 44.66 318.04 
L 44.66 185.4 
" style="fill: none; stroke: #000000; stroke-width: 0.8; stroke-linejoin: miter; stroke-linecap: square"/>
   </g>
   <g id="patch_10">
    <path d="M 270.702747 318.04 
L 270.702747 185.4 
" style="fill: none; stroke: #000000; stroke-width: 0.8; stroke-linejoin: miter; stroke-linecap: square"/>
   </g>
   <g id="patch_11">
    <path d="M 44.66 318.04 
L 270.702747 318.04 
" style="fill: none; stroke: #000000; stroke-width: 0.8; stroke-linejoin: miter; stroke-linecap: square"/>
   </g>
   <g id="patch_12">
    <path d="M 44.66 185.4 
L 270.702747 185.4 
" style="fill: none; stroke: #000000; stroke-width: 0.8; stroke-linejoin: miter; stroke-linecap: square"/>
   </g>
   <g id="legend_2">
    <g id="patch_13">
     <path d="M 211.9372 241.898225 
L 264.871747 241.898225 
Q 266.537747 241.898225 266.537747 240.232225 
L 266.537747 191.231 
Q 266.537747 189.565 264.871747 189.565 
L 211.9372 189.565 
Q 210.2712 189.565 210.2712 191.231 
L 210.2712 240.232225 
Q 210.2712 241.898225 211.9372 241.898225 
z
" style="fill: #ffffff; opacity: 0.8; stroke: #cccccc; stroke-linejoin: miter"/>
    </g>
    <g id="line2d_65">
     <path d="M 213.6032 196.310998 
L 221.9332 196.310998 
L 230.2632 196.310998 
" style="fill: none; stroke: #68b3c7; stroke-width: 1.5; stroke-linecap: square"/>
    </g>
    <g id="text_35">
     <!-- tr_10k -->
     <g transform="translate(236.9272 199.226498) scale(0.0833 -0.0833)">
      <use xlink:href="#DejaVuSans-74"/>
      <use xlink:href="#DejaVuSans-72" x="39.208984"/>
      <use xlink:href="#DejaVuSans-5f" x="80.322266"/>
      <use xlink:href="#DejaVuSans-31" x="130.322266"/>
      <use xlink:href="#DejaVuSans-30" x="193.945312"/>
      <use xlink:href="#DejaVuSans-6b" x="257.568359"/>
     </g>
    </g>
    <g id="line2d_66">
     <path d="M 213.6032 208.769555 
L 221.9332 208.769555 
L 230.2632 208.769555 
" style="fill: none; stroke: #4da1b4; stroke-width: 1.5; stroke-linecap: square"/>
    </g>
    <g id="text_36">
     <!-- tr_20k -->
     <g transform="translate(236.9272 211.685055) scale(0.0833 -0.0833)">
      <use xlink:href="#DejaVuSans-74"/>
      <use xlink:href="#DejaVuSans-72" x="39.208984"/>
      <use xlink:href="#DejaVuSans-5f" x="80.322266"/>
      <use xlink:href="#DejaVuSans-32" x="130.322266"/>
      <use xlink:href="#DejaVuSans-30" x="193.945312"/>
      <use xlink:href="#DejaVuSans-6b" x="257.568359"/>
     </g>
    </g>
    <g id="line2d_67">
     <path d="M 213.6032 221.228111 
L 221.9332 221.228111 
L 230.2632 221.228111 
" style="fill: none; stroke: #3b7d98; stroke-width: 1.5; stroke-linecap: square"/>
    </g>
    <g id="text_37">
     <!-- tr_30k -->
     <g transform="translate(236.9272 224.143611) scale(0.0833 -0.0833)">
      <use xlink:href="#DejaVuSans-74"/>
      <use xlink:href="#DejaVuSans-72" x="39.208984"/>
      <use xlink:href="#DejaVuSans-5f" x="80.322266"/>
      <use xlink:href="#DejaVuSans-33" x="130.322266"/>
      <use xlink:href="#DejaVuSans-30" x="193.945312"/>
      <use xlink:href="#DejaVuSans-6b" x="257.568359"/>
     </g>
    </g>
    <g id="line2d_68">
     <path d="M 213.6032 233.686667 
L 221.9332 233.686667 
L 230.2632 233.686667 
" style="fill: none; stroke: #2c5b73; stroke-width: 1.5; stroke-linecap: square"/>
    </g>
    <g id="text_38">
     <!-- tr_40k -->
     <g transform="translate(236.9272 236.602167) scale(0.0833 -0.0833)">
      <use xlink:href="#DejaVuSans-74"/>
      <use xlink:href="#DejaVuSans-72" x="39.208984"/>
      <use xlink:href="#DejaVuSans-5f" x="80.322266"/>
      <use xlink:href="#DejaVuSans-34" x="130.322266"/>
      <use xlink:href="#DejaVuSans-30" x="193.945312"/>
      <use xlink:href="#DejaVuSans-6b" x="257.568359"/>
     </g>
    </g>
   </g>
  </g>
 </g>
 <defs>
  <clipPath id="p931ecb58d8">
   <rect x="44.66" y="10.8" width="226.042747" height="132.64"/>
  </clipPath>
  <clipPath id="p96d0feaddc">
   <rect x="44.66" y="185.4" width="226.042747" height="132.64"/>
  </clipPath>
 </defs>
</svg>
