<?xml version="1.0" encoding="utf-8" standalone="no"?>
<!DOCTYPE svg PUBLIC "-//W3C//DTD SVG 1.1//EN"
  "http://www.w3.org/Graphics/SVG/1.1/DTD/svg11.dtd">
<svg xmlns:xlink="http://www.w3.org/1999/xlink" width="288pt" height="360pt" viewBox="0 0 288 360" xmlns="http://www.w3.org/2000/svg" version="1.1">
 <metadata>
  <rdf:RDF xmlns:dc="http://purl.org/dc/elements/1.1/" xmlns:cc="http://creativecommons.org/ns#" xmlns:rdf="http://www.w3.org/1999/02/22-rdf-syntax-ns#">
   <cc:Work>
    <dc:type rdf:resource="http://purl.org/dc/dcmitype/StillImage"/>
    <dc:date>2024-12-17T16:34:28.149020</dc:date>
    <dc:format>image/svg+xml</dc:format>
    <dc:creator>
     <cc:Agent>
      <dc:title>Matplotlib v3.8.0, https://matplotlib.org/</dc:title>
     </cc:Agent>
    </dc:creator>
   </cc:Work>
  </rdf:RDF>
 </metadata>
 <defs>
  <style type="text/css">*{stroke-linejoin: round; stroke-linecap: butt}</style>
 </defs>
 <g id="figure_1">
  <g id="patch_1">
   <path d="M 0 360 
L 288 360 
L 288 0 
L 0 0 
z
" style="fill: #ffffff"/>
  </g>
  <g id="axes_1">
   <g id="patch_2">
    <path d="M 47.81 143.44 
L 270.702747 143.44 
L 270.702747 10.8 
L 47.81 10.8 
z
" style="fill: #ffffff"/>
   </g>
   <g id="matplotlib.axis_1">
    <g id="xtick_1">
     <g id="line2d_1">
      <path d="M 56.179491 143.44 
L 56.179491 10.8 
" clip-path="url(#p26222738dc)" style="fill: none; stroke: #808080; stroke-opacity: 0.25; stroke-width: 0.5; stroke-linecap: square"/>
     </g>
     <g id="line2d_2">
      <defs>
       <path id="m1bf858c3ac" d="M 0 0 
L 0 3.5 
" style="stroke: #000000; stroke-width: 0.8"/>
      </defs>
      <g>
       <use xlink:href="#m1bf858c3ac" x="56.179491" y="143.44" style="stroke: #000000; stroke-width: 0.8"/>
      </g>
     </g>
     <g id="text_1">
      <!-- 0 -->
      <g transform="translate(52.998241 158.038438) scale(0.1 -0.1)">
       <defs>
        <path id="DejaVuSans-30" d="M 2034 4250 
Q 1547 4250 1301 3770 
Q 1056 3291 1056 2328 
Q 1056 1369 1301 889 
Q 1547 409 2034 409 
Q 2525 409 2770 889 
Q 3016 1369 3016 2328 
Q 3016 3291 2770 3770 
Q 2525 4250 2034 4250 
z
M 2034 4750 
Q 2819 4750 3233 4129 
Q 3647 3509 3647 2328 
Q 3647 1150 3233 529 
Q 2819 -91 2034 -91 
Q 1250 -91 836 529 
Q 422 1150 422 2328 
Q 422 3509 836 4129 
Q 1250 4750 2034 4750 
z
" transform="scale(0.015625)"/>
       </defs>
       <use xlink:href="#DejaVuSans-30"/>
      </g>
     </g>
    </g>
    <g id="xtick_2">
     <g id="line2d_3">
      <path d="M 91.419451 143.44 
L 91.419451 10.8 
" clip-path="url(#p26222738dc)" style="fill: none; stroke: #808080; stroke-opacity: 0.25; stroke-width: 0.5; stroke-linecap: square"/>
     </g>
     <g id="line2d_4">
      <g>
       <use xlink:href="#m1bf858c3ac" x="91.419451" y="143.44" style="stroke: #000000; stroke-width: 0.8"/>
      </g>
     </g>
     <g id="text_2">
      <!-- 100 -->
      <g transform="translate(81.875701 158.038438) scale(0.1 -0.1)">
       <defs>
        <path id="DejaVuSans-31" d="M 794 531 
L 1825 531 
L 1825 4091 
L 703 3866 
L 703 4441 
L 1819 4666 
L 2450 4666 
L 2450 531 
L 3481 531 
L 3481 0 
L 794 0 
L 794 531 
z
" transform="scale(0.015625)"/>
       </defs>
       <use xlink:href="#DejaVuSans-31"/>
       <use xlink:href="#DejaVuSans-30" x="63.623047"/>
       <use xlink:href="#DejaVuSans-30" x="127.246094"/>
      </g>
     </g>
    </g>
    <g id="xtick_3">
     <g id="line2d_5">
      <path d="M 126.659411 143.44 
L 126.659411 10.8 
" clip-path="url(#p26222738dc)" style="fill: none; stroke: #808080; stroke-opacity: 0.25; stroke-width: 0.5; stroke-linecap: square"/>
     </g>
     <g id="line2d_6">
      <g>
       <use xlink:href="#m1bf858c3ac" x="126.659411" y="143.44" style="stroke: #000000; stroke-width: 0.8"/>
      </g>
     </g>
     <g id="text_3">
      <!-- 200 -->
      <g transform="translate(117.115661 158.038438) scale(0.1 -0.1)">
       <defs>
        <path id="DejaVuSans-32" d="M 1228 531 
L 3431 531 
L 3431 0 
L 469 0 
L 469 531 
Q 828 903 1448 1529 
Q 2069 2156 2228 2338 
Q 2531 2678 2651 2914 
Q 2772 3150 2772 3378 
Q 2772 3750 2511 3984 
Q 2250 4219 1831 4219 
Q 1534 4219 1204 4116 
Q 875 4013 500 3803 
L 500 4441 
Q 881 4594 1212 4672 
Q 1544 4750 1819 4750 
Q 2544 4750 2975 4387 
Q 3406 4025 3406 3419 
Q 3406 3131 3298 2873 
Q 3191 2616 2906 2266 
Q 2828 2175 2409 1742 
Q 1991 1309 1228 531 
z
" transform="scale(0.015625)"/>
       </defs>
       <use xlink:href="#DejaVuSans-32"/>
       <use xlink:href="#DejaVuSans-30" x="63.623047"/>
       <use xlink:href="#DejaVuSans-30" x="127.246094"/>
      </g>
     </g>
    </g>
    <g id="xtick_4">
     <g id="line2d_7">
      <path d="M 161.899371 143.44 
L 161.899371 10.8 
" clip-path="url(#p26222738dc)" style="fill: none; stroke: #808080; stroke-opacity: 0.25; stroke-width: 0.5; stroke-linecap: square"/>
     </g>
     <g id="line2d_8">
      <g>
       <use xlink:href="#m1bf858c3ac" x="161.899371" y="143.44" style="stroke: #000000; stroke-width: 0.8"/>
      </g>
     </g>
     <g id="text_4">
      <!-- 300 -->
      <g transform="translate(152.355621 158.038438) scale(0.1 -0.1)">
       <defs>
        <path id="DejaVuSans-33" d="M 2597 2516 
Q 3050 2419 3304 2112 
Q 3559 1806 3559 1356 
Q 3559 666 3084 287 
Q 2609 -91 1734 -91 
Q 1441 -91 1130 -33 
Q 819 25 488 141 
L 488 750 
Q 750 597 1062 519 
Q 1375 441 1716 441 
Q 2309 441 2620 675 
Q 2931 909 2931 1356 
Q 2931 1769 2642 2001 
Q 2353 2234 1838 2234 
L 1294 2234 
L 1294 2753 
L 1863 2753 
Q 2328 2753 2575 2939 
Q 2822 3125 2822 3475 
Q 2822 3834 2567 4026 
Q 2313 4219 1838 4219 
Q 1578 4219 1281 4162 
Q 984 4106 628 3988 
L 628 4550 
Q 988 4650 1302 4700 
Q 1616 4750 1894 4750 
Q 2613 4750 3031 4423 
Q 3450 4097 3450 3541 
Q 3450 3153 3228 2886 
Q 3006 2619 2597 2516 
z
" transform="scale(0.015625)"/>
       </defs>
       <use xlink:href="#DejaVuSans-33"/>
       <use xlink:href="#DejaVuSans-30" x="63.623047"/>
       <use xlink:href="#DejaVuSans-30" x="127.246094"/>
      </g>
     </g>
    </g>
    <g id="xtick_5">
     <g id="line2d_9">
      <path d="M 197.139331 143.44 
L 197.139331 10.8 
" clip-path="url(#p26222738dc)" style="fill: none; stroke: #808080; stroke-opacity: 0.25; stroke-width: 0.5; stroke-linecap: square"/>
     </g>
     <g id="line2d_10">
      <g>
       <use xlink:href="#m1bf858c3ac" x="197.139331" y="143.44" style="stroke: #000000; stroke-width: 0.8"/>
      </g>
     </g>
     <g id="text_5">
      <!-- 400 -->
      <g transform="translate(187.595581 158.038438) scale(0.1 -0.1)">
       <defs>
        <path id="DejaVuSans-34" d="M 2419 4116 
L 825 1625 
L 2419 1625 
L 2419 4116 
z
M 2253 4666 
L 3047 4666 
L 3047 1625 
L 3713 1625 
L 3713 1100 
L 3047 1100 
L 3047 0 
L 2419 0 
L 2419 1100 
L 313 1100 
L 313 1709 
L 2253 4666 
z
" transform="scale(0.015625)"/>
       </defs>
       <use xlink:href="#DejaVuSans-34"/>
       <use xlink:href="#DejaVuSans-30" x="63.623047"/>
       <use xlink:href="#DejaVuSans-30" x="127.246094"/>
      </g>
     </g>
    </g>
    <g id="xtick_6">
     <g id="line2d_11">
      <path d="M 232.379291 143.44 
L 232.379291 10.8 
" clip-path="url(#p26222738dc)" style="fill: none; stroke: #808080; stroke-opacity: 0.25; stroke-width: 0.5; stroke-linecap: square"/>
     </g>
     <g id="line2d_12">
      <g>
       <use xlink:href="#m1bf858c3ac" x="232.379291" y="143.44" style="stroke: #000000; stroke-width: 0.8"/>
      </g>
     </g>
     <g id="text_6">
      <!-- 500 -->
      <g transform="translate(222.835541 158.038438) scale(0.1 -0.1)">
       <defs>
        <path id="DejaVuSans-35" d="M 691 4666 
L 3169 4666 
L 3169 4134 
L 1269 4134 
L 1269 2991 
Q 1406 3038 1543 3061 
Q 1681 3084 1819 3084 
Q 2600 3084 3056 2656 
Q 3513 2228 3513 1497 
Q 3513 744 3044 326 
Q 2575 -91 1722 -91 
Q 1428 -91 1123 -41 
Q 819 9 494 109 
L 494 744 
Q 775 591 1075 516 
Q 1375 441 1709 441 
Q 2250 441 2565 725 
Q 2881 1009 2881 1497 
Q 2881 1984 2565 2268 
Q 2250 2553 1709 2553 
Q 1456 2553 1204 2497 
Q 953 2441 691 2322 
L 691 4666 
z
" transform="scale(0.015625)"/>
       </defs>
       <use xlink:href="#DejaVuSans-35"/>
       <use xlink:href="#DejaVuSans-30" x="63.623047"/>
       <use xlink:href="#DejaVuSans-30" x="127.246094"/>
      </g>
     </g>
    </g>
    <g id="xtick_7">
     <g id="line2d_13">
      <path d="M 267.619251 143.44 
L 267.619251 10.8 
" clip-path="url(#p26222738dc)" style="fill: none; stroke: #808080; stroke-opacity: 0.25; stroke-width: 0.5; stroke-linecap: square"/>
     </g>
     <g id="line2d_14">
      <g>
       <use xlink:href="#m1bf858c3ac" x="267.619251" y="143.44" style="stroke: #000000; stroke-width: 0.8"/>
      </g>
     </g>
     <g id="text_7">
      <!-- 600 -->
      <g transform="translate(258.075501 158.038438) scale(0.1 -0.1)">
       <defs>
        <path id="DejaVuSans-36" d="M 2113 2584 
Q 1688 2584 1439 2293 
Q 1191 2003 1191 1497 
Q 1191 994 1439 701 
Q 1688 409 2113 409 
Q 2538 409 2786 701 
Q 3034 994 3034 1497 
Q 3034 2003 2786 2293 
Q 2538 2584 2113 2584 
z
M 3366 4563 
L 3366 3988 
Q 3128 4100 2886 4159 
Q 2644 4219 2406 4219 
Q 1781 4219 1451 3797 
Q 1122 3375 1075 2522 
Q 1259 2794 1537 2939 
Q 1816 3084 2150 3084 
Q 2853 3084 3261 2657 
Q 3669 2231 3669 1497 
Q 3669 778 3244 343 
Q 2819 -91 2113 -91 
Q 1303 -91 875 529 
Q 447 1150 447 2328 
Q 447 3434 972 4092 
Q 1497 4750 2381 4750 
Q 2619 4750 2861 4703 
Q 3103 4656 3366 4563 
z
" transform="scale(0.015625)"/>
       </defs>
       <use xlink:href="#DejaVuSans-36"/>
       <use xlink:href="#DejaVuSans-30" x="63.623047"/>
       <use xlink:href="#DejaVuSans-30" x="127.246094"/>
      </g>
     </g>
    </g>
    <g id="text_8">
     <!-- Training Steps -->
     <g transform="translate(123.951686 171.716563) scale(0.1 -0.1)">
      <defs>
       <path id="DejaVuSans-54" d="M -19 4666 
L 3928 4666 
L 3928 4134 
L 2272 4134 
L 2272 0 
L 1638 0 
L 1638 4134 
L -19 4134 
L -19 4666 
z
" transform="scale(0.015625)"/>
       <path id="DejaVuSans-72" d="M 2631 2963 
Q 2534 3019 2420 3045 
Q 2306 3072 2169 3072 
Q 1681 3072 1420 2755 
Q 1159 2438 1159 1844 
L 1159 0 
L 581 0 
L 581 3500 
L 1159 3500 
L 1159 2956 
Q 1341 3275 1631 3429 
Q 1922 3584 2338 3584 
Q 2397 3584 2469 3576 
Q 2541 3569 2628 3553 
L 2631 2963 
z
" transform="scale(0.015625)"/>
       <path id="DejaVuSans-61" d="M 2194 1759 
Q 1497 1759 1228 1600 
Q 959 1441 959 1056 
Q 959 750 1161 570 
Q 1363 391 1709 391 
Q 2188 391 2477 730 
Q 2766 1069 2766 1631 
L 2766 1759 
L 2194 1759 
z
M 3341 1997 
L 3341 0 
L 2766 0 
L 2766 531 
Q 2569 213 2275 61 
Q 1981 -91 1556 -91 
Q 1019 -91 701 211 
Q 384 513 384 1019 
Q 384 1609 779 1909 
Q 1175 2209 1959 2209 
L 2766 2209 
L 2766 2266 
Q 2766 2663 2505 2880 
Q 2244 3097 1772 3097 
Q 1472 3097 1187 3025 
Q 903 2953 641 2809 
L 641 3341 
Q 956 3463 1253 3523 
Q 1550 3584 1831 3584 
Q 2591 3584 2966 3190 
Q 3341 2797 3341 1997 
z
" transform="scale(0.015625)"/>
       <path id="DejaVuSans-69" d="M 603 3500 
L 1178 3500 
L 1178 0 
L 603 0 
L 603 3500 
z
M 603 4863 
L 1178 4863 
L 1178 4134 
L 603 4134 
L 603 4863 
z
" transform="scale(0.015625)"/>
       <path id="DejaVuSans-6e" d="M 3513 2113 
L 3513 0 
L 2938 0 
L 2938 2094 
Q 2938 2591 2744 2837 
Q 2550 3084 2163 3084 
Q 1697 3084 1428 2787 
Q 1159 2491 1159 1978 
L 1159 0 
L 581 0 
L 581 3500 
L 1159 3500 
L 1159 2956 
Q 1366 3272 1645 3428 
Q 1925 3584 2291 3584 
Q 2894 3584 3203 3211 
Q 3513 2838 3513 2113 
z
" transform="scale(0.015625)"/>
       <path id="DejaVuSans-67" d="M 2906 1791 
Q 2906 2416 2648 2759 
Q 2391 3103 1925 3103 
Q 1463 3103 1205 2759 
Q 947 2416 947 1791 
Q 947 1169 1205 825 
Q 1463 481 1925 481 
Q 2391 481 2648 825 
Q 2906 1169 2906 1791 
z
M 3481 434 
Q 3481 -459 3084 -895 
Q 2688 -1331 1869 -1331 
Q 1566 -1331 1297 -1286 
Q 1028 -1241 775 -1147 
L 775 -588 
Q 1028 -725 1275 -790 
Q 1522 -856 1778 -856 
Q 2344 -856 2625 -561 
Q 2906 -266 2906 331 
L 2906 616 
Q 2728 306 2450 153 
Q 2172 0 1784 0 
Q 1141 0 747 490 
Q 353 981 353 1791 
Q 353 2603 747 3093 
Q 1141 3584 1784 3584 
Q 2172 3584 2450 3431 
Q 2728 3278 2906 2969 
L 2906 3500 
L 3481 3500 
L 3481 434 
z
" transform="scale(0.015625)"/>
       <path id="DejaVuSans-20" transform="scale(0.015625)"/>
       <path id="DejaVuSans-53" d="M 3425 4513 
L 3425 3897 
Q 3066 4069 2747 4153 
Q 2428 4238 2131 4238 
Q 1616 4238 1336 4038 
Q 1056 3838 1056 3469 
Q 1056 3159 1242 3001 
Q 1428 2844 1947 2747 
L 2328 2669 
Q 3034 2534 3370 2195 
Q 3706 1856 3706 1288 
Q 3706 609 3251 259 
Q 2797 -91 1919 -91 
Q 1588 -91 1214 -16 
Q 841 59 441 206 
L 441 856 
Q 825 641 1194 531 
Q 1563 422 1919 422 
Q 2459 422 2753 634 
Q 3047 847 3047 1241 
Q 3047 1584 2836 1778 
Q 2625 1972 2144 2069 
L 1759 2144 
Q 1053 2284 737 2584 
Q 422 2884 422 3419 
Q 422 4038 858 4394 
Q 1294 4750 2059 4750 
Q 2388 4750 2728 4690 
Q 3069 4631 3425 4513 
z
" transform="scale(0.015625)"/>
       <path id="DejaVuSans-74" d="M 1172 4494 
L 1172 3500 
L 2356 3500 
L 2356 3053 
L 1172 3053 
L 1172 1153 
Q 1172 725 1289 603 
Q 1406 481 1766 481 
L 2356 481 
L 2356 0 
L 1766 0 
Q 1100 0 847 248 
Q 594 497 594 1153 
L 594 3053 
L 172 3053 
L 172 3500 
L 594 3500 
L 594 4494 
L 1172 4494 
z
" transform="scale(0.015625)"/>
       <path id="DejaVuSans-65" d="M 3597 1894 
L 3597 1613 
L 953 1613 
Q 991 1019 1311 708 
Q 1631 397 2203 397 
Q 2534 397 2845 478 
Q 3156 559 3463 722 
L 3463 178 
Q 3153 47 2828 -22 
Q 2503 -91 2169 -91 
Q 1331 -91 842 396 
Q 353 884 353 1716 
Q 353 2575 817 3079 
Q 1281 3584 2069 3584 
Q 2775 3584 3186 3129 
Q 3597 2675 3597 1894 
z
M 3022 2063 
Q 3016 2534 2758 2815 
Q 2500 3097 2075 3097 
Q 1594 3097 1305 2825 
Q 1016 2553 972 2059 
L 3022 2063 
z
" transform="scale(0.015625)"/>
       <path id="DejaVuSans-70" d="M 1159 525 
L 1159 -1331 
L 581 -1331 
L 581 3500 
L 1159 3500 
L 1159 2969 
Q 1341 3281 1617 3432 
Q 1894 3584 2278 3584 
Q 2916 3584 3314 3078 
Q 3713 2572 3713 1747 
Q 3713 922 3314 415 
Q 2916 -91 2278 -91 
Q 1894 -91 1617 61 
Q 1341 213 1159 525 
z
M 3116 1747 
Q 3116 2381 2855 2742 
Q 2594 3103 2138 3103 
Q 1681 3103 1420 2742 
Q 1159 2381 1159 1747 
Q 1159 1113 1420 752 
Q 1681 391 2138 391 
Q 2594 391 2855 752 
Q 3116 1113 3116 1747 
z
" transform="scale(0.015625)"/>
       <path id="DejaVuSans-73" d="M 2834 3397 
L 2834 2853 
Q 2591 2978 2328 3040 
Q 2066 3103 1784 3103 
Q 1356 3103 1142 2972 
Q 928 2841 928 2578 
Q 928 2378 1081 2264 
Q 1234 2150 1697 2047 
L 1894 2003 
Q 2506 1872 2764 1633 
Q 3022 1394 3022 966 
Q 3022 478 2636 193 
Q 2250 -91 1575 -91 
Q 1294 -91 989 -36 
Q 684 19 347 128 
L 347 722 
Q 666 556 975 473 
Q 1284 391 1588 391 
Q 1994 391 2212 530 
Q 2431 669 2431 922 
Q 2431 1156 2273 1281 
Q 2116 1406 1581 1522 
L 1381 1569 
Q 847 1681 609 1914 
Q 372 2147 372 2553 
Q 372 3047 722 3315 
Q 1072 3584 1716 3584 
Q 2034 3584 2315 3537 
Q 2597 3491 2834 3397 
z
" transform="scale(0.015625)"/>
      </defs>
      <use xlink:href="#DejaVuSans-54"/>
      <use xlink:href="#DejaVuSans-72" x="46.333984"/>
      <use xlink:href="#DejaVuSans-61" x="87.447266"/>
      <use xlink:href="#DejaVuSans-69" x="148.726562"/>
      <use xlink:href="#DejaVuSans-6e" x="176.509766"/>
      <use xlink:href="#DejaVuSans-69" x="239.888672"/>
      <use xlink:href="#DejaVuSans-6e" x="267.671875"/>
      <use xlink:href="#DejaVuSans-67" x="331.050781"/>
      <use xlink:href="#DejaVuSans-20" x="394.527344"/>
      <use xlink:href="#DejaVuSans-53" x="426.314453"/>
      <use xlink:href="#DejaVuSans-74" x="489.791016"/>
      <use xlink:href="#DejaVuSans-65" x="529"/>
      <use xlink:href="#DejaVuSans-70" x="590.523438"/>
      <use xlink:href="#DejaVuSans-73" x="654"/>
     </g>
    </g>
   </g>
   <g id="matplotlib.axis_2">
    <g id="ytick_1">
     <g id="line2d_15">
      <path d="M 47.81 125.635199 
L 270.702747 125.635199 
" clip-path="url(#p26222738dc)" style="fill: none; stroke: #808080; stroke-opacity: 0.25; stroke-width: 0.5; stroke-linecap: square"/>
     </g>
     <g id="line2d_16">
      <defs>
       <path id="m1f0c2f9e41" d="M 0 0 
L -3.5 0 
" style="stroke: #000000; stroke-width: 0.8"/>
      </defs>
      <g>
       <use xlink:href="#m1f0c2f9e41" x="47.81" y="125.635199" style="stroke: #000000; stroke-width: 0.8"/>
      </g>
     </g>
     <g id="text_9">
      <!-- 2.5 -->
      <g transform="translate(24.906875 129.434418) scale(0.1 -0.1)">
       <defs>
        <path id="DejaVuSans-2e" d="M 684 794 
L 1344 794 
L 1344 0 
L 684 0 
L 684 794 
z
" transform="scale(0.015625)"/>
       </defs>
       <use xlink:href="#DejaVuSans-32"/>
       <use xlink:href="#DejaVuSans-2e" x="63.623047"/>
       <use xlink:href="#DejaVuSans-35" x="95.410156"/>
      </g>
     </g>
    </g>
    <g id="ytick_2">
     <g id="line2d_17">
      <path d="M 47.81 98.234989 
L 270.702747 98.234989 
" clip-path="url(#p26222738dc)" style="fill: none; stroke: #808080; stroke-opacity: 0.25; stroke-width: 0.5; stroke-linecap: square"/>
     </g>
     <g id="line2d_18">
      <g>
       <use xlink:href="#m1f0c2f9e41" x="47.81" y="98.234989" style="stroke: #000000; stroke-width: 0.8"/>
      </g>
     </g>
     <g id="text_10">
      <!-- 3.0 -->
      <g transform="translate(24.906875 102.034208) scale(0.1 -0.1)">
       <use xlink:href="#DejaVuSans-33"/>
       <use xlink:href="#DejaVuSans-2e" x="63.623047"/>
       <use xlink:href="#DejaVuSans-30" x="95.410156"/>
      </g>
     </g>
    </g>
    <g id="ytick_3">
     <g id="line2d_19">
      <path d="M 47.81 70.834779 
L 270.702747 70.834779 
" clip-path="url(#p26222738dc)" style="fill: none; stroke: #808080; stroke-opacity: 0.25; stroke-width: 0.5; stroke-linecap: square"/>
     </g>
     <g id="line2d_20">
      <g>
       <use xlink:href="#m1f0c2f9e41" x="47.81" y="70.834779" style="stroke: #000000; stroke-width: 0.8"/>
      </g>
     </g>
     <g id="text_11">
      <!-- 3.5 -->
      <g transform="translate(24.906875 74.633998) scale(0.1 -0.1)">
       <use xlink:href="#DejaVuSans-33"/>
       <use xlink:href="#DejaVuSans-2e" x="63.623047"/>
       <use xlink:href="#DejaVuSans-35" x="95.410156"/>
      </g>
     </g>
    </g>
    <g id="ytick_4">
     <g id="line2d_21">
      <path d="M 47.81 43.434569 
L 270.702747 43.434569 
" clip-path="url(#p26222738dc)" style="fill: none; stroke: #808080; stroke-opacity: 0.25; stroke-width: 0.5; stroke-linecap: square"/>
     </g>
     <g id="line2d_22">
      <g>
       <use xlink:href="#m1f0c2f9e41" x="47.81" y="43.434569" style="stroke: #000000; stroke-width: 0.8"/>
      </g>
     </g>
     <g id="text_12">
      <!-- 4.0 -->
      <g transform="translate(24.906875 47.233788) scale(0.1 -0.1)">
       <use xlink:href="#DejaVuSans-34"/>
       <use xlink:href="#DejaVuSans-2e" x="63.623047"/>
       <use xlink:href="#DejaVuSans-30" x="95.410156"/>
      </g>
     </g>
    </g>
    <g id="ytick_5">
     <g id="line2d_23">
      <path d="M 47.81 16.034359 
L 270.702747 16.034359 
" clip-path="url(#p26222738dc)" style="fill: none; stroke: #808080; stroke-opacity: 0.25; stroke-width: 0.5; stroke-linecap: square"/>
     </g>
     <g id="line2d_24">
      <g>
       <use xlink:href="#m1f0c2f9e41" x="47.81" y="16.034359" style="stroke: #000000; stroke-width: 0.8"/>
      </g>
     </g>
     <g id="text_13">
      <!-- 4.5 -->
      <g transform="translate(24.906875 19.833578) scale(0.1 -0.1)">
       <use xlink:href="#DejaVuSans-34"/>
       <use xlink:href="#DejaVuSans-2e" x="63.623047"/>
       <use xlink:href="#DejaVuSans-35" x="95.410156"/>
      </g>
     </g>
    </g>
    <g id="text_14">
     <!-- BPC Loss -->
     <g transform="translate(18.827187 99.612969) rotate(-90) scale(0.1 -0.1)">
      <defs>
       <path id="DejaVuSans-42" d="M 1259 2228 
L 1259 519 
L 2272 519 
Q 2781 519 3026 730 
Q 3272 941 3272 1375 
Q 3272 1813 3026 2020 
Q 2781 2228 2272 2228 
L 1259 2228 
z
M 1259 4147 
L 1259 2741 
L 2194 2741 
Q 2656 2741 2882 2914 
Q 3109 3088 3109 3444 
Q 3109 3797 2882 3972 
Q 2656 4147 2194 4147 
L 1259 4147 
z
M 628 4666 
L 2241 4666 
Q 2963 4666 3353 4366 
Q 3744 4066 3744 3513 
Q 3744 3084 3544 2831 
Q 3344 2578 2956 2516 
Q 3422 2416 3680 2098 
Q 3938 1781 3938 1306 
Q 3938 681 3513 340 
Q 3088 0 2303 0 
L 628 0 
L 628 4666 
z
" transform="scale(0.015625)"/>
       <path id="DejaVuSans-50" d="M 1259 4147 
L 1259 2394 
L 2053 2394 
Q 2494 2394 2734 2622 
Q 2975 2850 2975 3272 
Q 2975 3691 2734 3919 
Q 2494 4147 2053 4147 
L 1259 4147 
z
M 628 4666 
L 2053 4666 
Q 2838 4666 3239 4311 
Q 3641 3956 3641 3272 
Q 3641 2581 3239 2228 
Q 2838 1875 2053 1875 
L 1259 1875 
L 1259 0 
L 628 0 
L 628 4666 
z
" transform="scale(0.015625)"/>
       <path id="DejaVuSans-43" d="M 4122 4306 
L 4122 3641 
Q 3803 3938 3442 4084 
Q 3081 4231 2675 4231 
Q 1875 4231 1450 3742 
Q 1025 3253 1025 2328 
Q 1025 1406 1450 917 
Q 1875 428 2675 428 
Q 3081 428 3442 575 
Q 3803 722 4122 1019 
L 4122 359 
Q 3791 134 3420 21 
Q 3050 -91 2638 -91 
Q 1578 -91 968 557 
Q 359 1206 359 2328 
Q 359 3453 968 4101 
Q 1578 4750 2638 4750 
Q 3056 4750 3426 4639 
Q 3797 4528 4122 4306 
z
" transform="scale(0.015625)"/>
       <path id="DejaVuSans-4c" d="M 628 4666 
L 1259 4666 
L 1259 531 
L 3531 531 
L 3531 0 
L 628 0 
L 628 4666 
z
" transform="scale(0.015625)"/>
       <path id="DejaVuSans-6f" d="M 1959 3097 
Q 1497 3097 1228 2736 
Q 959 2375 959 1747 
Q 959 1119 1226 758 
Q 1494 397 1959 397 
Q 2419 397 2687 759 
Q 2956 1122 2956 1747 
Q 2956 2369 2687 2733 
Q 2419 3097 1959 3097 
z
M 1959 3584 
Q 2709 3584 3137 3096 
Q 3566 2609 3566 1747 
Q 3566 888 3137 398 
Q 2709 -91 1959 -91 
Q 1206 -91 779 398 
Q 353 888 353 1747 
Q 353 2609 779 3096 
Q 1206 3584 1959 3584 
z
" transform="scale(0.015625)"/>
      </defs>
      <use xlink:href="#DejaVuSans-42"/>
      <use xlink:href="#DejaVuSans-50" x="68.603516"/>
      <use xlink:href="#DejaVuSans-43" x="128.90625"/>
      <use xlink:href="#DejaVuSans-20" x="198.730469"/>
      <use xlink:href="#DejaVuSans-4c" x="230.517578"/>
      <use xlink:href="#DejaVuSans-6f" x="284.480469"/>
      <use xlink:href="#DejaVuSans-73" x="345.662109"/>
      <use xlink:href="#DejaVuSans-73" x="397.761719"/>
     </g>
    </g>
   </g>
   <g id="line2d_25">
    <path d="M 57.941489 43.691812 
L 59.703487 53.51975 
L 61.465485 61.931486 
L 63.227483 71.828028 
L 64.989481 80.948141 
L 66.751479 93.924822 
L 68.513477 94.863872 
L 70.275475 98.710504 
L 72.037473 102.513017 
L 73.799471 101.83625 
L 75.561469 102.564766 
L 77.323467 104.133442 
L 79.085465 103.231541 
L 80.847463 105.975807 
L 82.609461 107.448846 
L 84.371459 104.621846 
L 86.133457 109.328056 
L 87.895455 108.97579 
L 89.657453 108.583707 
L 91.419451 110.654406 
L 93.181449 111.505728 
L 94.943447 110.89607 
L 96.705445 112.925926 
L 98.467443 110.851037 
L 100.229441 113.121591 
L 101.991439 112.822518 
L 103.753437 112.792272 
L 105.515435 113.409195 
L 107.277433 111.424383 
L 109.039431 114.908738 
L 110.801429 111.967161 
L 112.563427 114.132492 
L 114.325425 113.180598 
L 116.087423 113.817131 
L 117.849421 113.067348 
L 119.611419 111.177409 
L 121.373417 115.749352 
L 123.135415 113.805452 
L 124.897413 111.755764 
L 126.659411 115.237844 
L 128.421409 114.929995 
L 130.183407 112.862673 
L 131.945405 112.330986 
L 133.707403 116.799475 
L 135.469401 115.137101 
L 137.231399 114.231808 
L 138.993397 115.531404 
L 140.755395 114.913729 
L 142.517393 114.376437 
L 144.279391 115.479649 
L 146.041389 116.376778 
L 147.803387 116.326501 
L 149.565385 115.34986 
L 151.327383 116.833471 
L 153.089381 115.00125 
L 154.851379 114.577326 
L 156.613377 114.615488 
L 158.375375 116.600358 
L 160.137373 116.212438 
L 161.899371 114.953333 
L 163.661369 117.588658 
L 165.423367 115.498458 
L 167.185365 117.854703 
L 168.947363 117.600064 
L 170.709361 116.269506 
L 172.471359 117.842221 
L 174.233357 116.509516 
L 175.995355 115.008975 
L 177.757353 115.660305 
L 179.519351 114.287645 
L 181.281349 115.844199 
L 183.043347 115.532307 
L 184.805345 115.776048 
L 186.567343 119.896819 
L 188.329341 116.151076 
L 190.091339 116.980826 
L 191.853337 113.852771 
L 193.615335 116.98048 
L 195.377333 113.178981 
L 197.139331 113.370031 
L 198.901329 114.771141 
L 200.663327 118.584067 
L 202.425325 114.998358 
L 204.187323 114.076387 
L 205.949321 116.458498 
L 207.711319 116.261069 
L 209.473317 118.879919 
L 211.235315 117.289438 
L 212.997313 116.391676 
L 214.759311 116.858977 
L 216.521309 117.066449 
L 218.283307 116.294444 
L 220.045305 112.124618 
L 221.807303 114.310361 
L 223.569301 116.301343 
L 225.331299 118.725596 
L 227.093297 116.329789 
L 228.855295 120.659739 
L 230.617293 120.444641 
L 232.379291 115.082896 
L 234.141289 116.143246 
L 235.903287 117.447766 
L 237.665285 117.552191 
L 239.427283 117.718701 
L 241.189281 116.510178 
L 242.951279 117.347787 
L 244.713277 118.59466 
L 246.475275 116.068889 
L 248.237273 116.386035 
L 249.999271 116.784305 
L 251.761269 116.637552 
L 253.523267 116.176633 
L 255.285265 116.830105 
L 257.047263 117.774141 
L 258.809261 117.278182 
L 260.571259 116.202617 
" clip-path="url(#p26222738dc)" style="fill: none; stroke: #4e9a84; stroke-width: 1.5; stroke-linecap: square"/>
   </g>
   <g id="line2d_26">
    <path d="M 57.941489 60.696522 
L 59.703487 66.654601 
L 61.465485 73.286137 
L 63.227483 85.733106 
L 64.989481 92.243203 
L 66.751479 104.375742 
L 68.513477 112.133606 
L 70.275475 115.240024 
L 72.037473 116.002698 
L 73.799471 117.166457 
L 75.561469 116.443587 
L 77.323467 115.955604 
L 79.085465 117.409032 
L 80.847463 117.726026 
L 82.609461 118.766708 
L 84.371459 121.195894 
L 86.133457 124.10993 
L 87.895455 117.382339 
L 89.657453 122.043958 
L 91.419451 124.610339 
L 93.181449 124.103369 
L 94.943447 123.909105 
L 96.705445 124.115859 
L 98.467443 121.035498 
L 100.229441 124.141326 
L 101.991439 122.808542 
L 103.753437 124.790296 
L 105.515435 125.60911 
L 107.277433 124.024494 
L 109.039431 124.534507 
L 110.801429 125.02334 
L 112.563427 124.237598 
L 114.325425 124.386875 
L 116.087423 125.103295 
L 117.849421 126.39404 
L 119.611419 124.991428 
L 121.373417 128.309756 
L 123.135415 128.052861 
L 124.897413 125.339587 
L 126.659411 127.76493 
L 128.421409 128.137523 
L 130.183407 125.999081 
L 131.945405 126.103613 
L 133.707403 126.962299 
L 135.469401 127.963799 
L 137.231399 127.372519 
L 138.993397 126.467426 
L 140.755395 128.011898 
L 142.517393 128.733778 
L 144.279391 128.550906 
L 146.041389 127.543927 
L 147.803387 131.805658 
L 149.565385 127.708317 
L 151.327383 126.194095 
L 153.089381 128.894882 
L 154.851379 126.262418 
L 156.613377 125.986855 
L 158.375375 128.983303 
L 160.137373 127.782927 
L 161.899371 128.683671 
L 163.661369 131.178606 
L 165.423367 126.770214 
L 167.185365 130.579232 
L 168.947363 130.966334 
L 170.709361 128.252752 
L 172.471359 131.730074 
L 174.233357 129.582986 
L 175.995355 128.870241 
L 177.757353 131.171153 
L 179.519351 128.889145 
L 181.281349 128.520962 
L 183.043347 127.49364 
L 184.805345 128.63475 
L 186.567343 131.525044 
L 188.329341 130.10865 
L 190.091339 128.358451 
L 191.853337 129.121567 
L 193.615335 128.051307 
L 195.377333 129.242065 
L 197.139331 130.931051 
L 198.901329 130.327269 
L 200.663327 132.330848 
L 202.425325 129.604576 
L 204.187323 126.848091 
L 205.949321 128.30496 
L 207.711319 132.562933 
L 209.473317 129.097944 
L 211.235315 129.60554 
L 212.997313 131.887522 
L 214.759311 131.611399 
L 216.521309 132.269811 
L 218.283307 130.224582 
L 220.045305 129.41203 
L 221.807303 132.537122 
L 223.569301 129.727315 
L 225.331299 129.605486 
L 227.093297 130.348997 
L 228.855295 133.643312 
L 230.617293 133.897931 
L 232.379291 131.778552 
L 234.141289 130.085104 
L 235.903287 130.275283 
L 237.665285 132.228238 
L 239.427283 130.156108 
L 241.189281 132.312425 
L 242.951279 128.811963 
L 244.713277 128.348057 
L 246.475275 131.056083 
L 248.237273 130.535237 
L 249.999271 130.008359 
L 251.761269 130.805784 
L 253.523267 130.099703 
L 255.285265 132.573776 
L 257.047263 130.595675 
L 258.809261 129.326232 
L 260.571259 131.124863 
" clip-path="url(#p26222738dc)" style="fill: none; stroke: #438d77; stroke-width: 1.5; stroke-linecap: square"/>
   </g>
   <g id="line2d_27">
    <path d="M 57.941489 59.464039 
L 59.703487 70.145506 
L 61.465485 74.359449 
L 63.227483 86.383125 
L 64.989481 94.637067 
L 66.751479 107.971388 
L 68.513477 113.152859 
L 70.275475 117.972638 
L 72.037473 121.029349 
L 73.799471 118.687969 
L 75.561469 120.260897 
L 77.323467 116.389949 
L 79.085465 121.419251 
L 80.847463 121.824689 
L 82.609461 122.57107 
L 84.371459 124.239421 
L 86.133457 127.863816 
L 87.895455 123.44453 
L 89.657453 124.225948 
L 91.419451 124.066631 
L 93.181449 126.830094 
L 94.943447 125.170593 
L 96.705445 128.518906 
L 98.467443 123.646286 
L 100.229441 128.619575 
L 101.991439 128.736908 
L 103.753437 127.594189 
L 105.515435 128.178859 
L 107.277433 126.469842 
L 109.039431 126.669091 
L 110.801429 128.283633 
L 112.563427 128.873758 
L 114.325425 128.797231 
L 116.087423 129.335059 
L 117.849421 128.890872 
L 119.611419 129.267724 
L 121.373417 127.617423 
L 123.135415 128.340393 
L 124.897413 127.941235 
L 126.659411 129.036422 
L 128.421409 128.886435 
L 130.183407 128.930438 
L 131.945405 129.818407 
L 133.707403 130.957085 
L 135.469401 130.576852 
L 137.231399 129.993232 
L 138.993397 130.347502 
L 140.755395 132.386972 
L 142.517393 134.114154 
L 144.279391 130.621613 
L 146.041389 130.074974 
L 147.803387 131.10483 
L 149.565385 128.165765 
L 151.327383 131.542765 
L 153.089381 133.803342 
L 154.851379 131.436634 
L 156.613377 128.139443 
L 158.375375 131.847903 
L 160.137373 132.430744 
L 161.899371 131.818518 
L 163.661369 134.263174 
L 165.423367 127.359926 
L 167.185365 131.889525 
L 168.947363 131.567964 
L 170.709361 130.488055 
L 172.471359 132.778064 
L 174.233357 129.65829 
L 175.995355 132.524508 
L 177.757353 133.027644 
L 179.519351 130.975969 
L 181.281349 131.113828 
L 183.043347 133.636918 
L 184.805345 132.933986 
L 186.567343 130.763374 
L 188.329341 132.441354 
L 190.091339 134.188222 
L 191.853337 132.404544 
L 193.615335 133.226847 
L 195.377333 134.359832 
L 197.139331 133.113111 
L 198.901329 132.216931 
L 200.663327 135.693512 
L 202.425325 131.434323 
L 204.187323 131.341528 
L 205.949321 133.106887 
L 207.711319 134.876421 
L 209.473317 133.202508 
L 211.235315 134.44347 
L 212.997313 133.012365 
L 214.759311 134.473975 
L 216.521309 133.195499 
L 218.283307 134.529589 
L 220.045305 134.990607 
L 221.807303 135.340015 
L 223.569301 134.978961 
L 225.331299 133.567816 
L 227.093297 133.674503 
L 228.855295 135.606459 
L 230.617293 135.941437 
L 232.379291 132.706039 
L 234.141289 134.944947 
L 235.903287 133.295648 
L 237.665285 134.522798 
L 239.427283 135.352685 
L 241.189281 133.084475 
L 242.951279 133.254757 
L 244.713277 132.991016 
L 246.475275 133.686135 
L 248.237273 131.720217 
L 249.999271 132.869662 
L 251.761269 132.599189 
L 253.523267 134.745551 
L 255.285265 134.480602 
L 257.047263 134.498327 
L 258.809261 133.07014 
L 260.571259 134.382656 
" clip-path="url(#p26222738dc)" style="fill: none; stroke: #367d6a; stroke-width: 1.5; stroke-linecap: square"/>
   </g>
   <g id="line2d_28">
    <path d="M 57.941489 63.402896 
L 59.703487 72.685576 
L 61.465485 71.423311 
L 63.227483 83.994805 
L 64.989481 92.479559 
L 66.751479 106.396732 
L 68.513477 113.646745 
L 70.275475 117.540239 
L 72.037473 124.357743 
L 73.799471 122.552053 
L 75.561469 123.220049 
L 77.323467 121.377291 
L 79.085465 123.837183 
L 80.847463 125.189622 
L 82.609461 126.495297 
L 84.371459 126.46271 
L 86.133457 125.854339 
L 87.895455 126.667065 
L 89.657453 127.023107 
L 91.419451 128.626896 
L 93.181449 128.767671 
L 94.943447 129.212811 
L 96.705445 130.18355 
L 98.467443 127.531641 
L 100.229441 127.600358 
L 101.991439 130.133937 
L 103.753437 128.182961 
L 105.515435 129.680834 
L 107.277433 129.868277 
L 109.039431 130.746643 
L 110.801429 133.119772 
L 112.563427 129.251688 
L 114.325425 130.904384 
L 116.087423 132.408828 
L 117.849421 130.998786 
L 119.611419 129.882264 
L 121.373417 132.043178 
L 123.135415 132.846897 
L 124.897413 131.3817 
L 126.659411 132.355011 
L 128.421409 129.524803 
L 130.183407 130.943598 
L 131.945405 132.030992 
L 133.707403 134.355959 
L 135.469401 132.358652 
L 137.231399 131.433384 
L 138.993397 133.332451 
L 140.755395 134.239884 
L 142.517393 134.072921 
L 144.279391 132.349361 
L 146.041389 133.872357 
L 147.803387 131.854597 
L 149.565385 132.478849 
L 151.327383 133.924866 
L 153.089381 132.752667 
L 154.851379 133.079169 
L 156.613377 131.635848 
L 158.375375 134.661824 
L 160.137373 134.252436 
L 161.899371 133.375829 
L 163.661369 135.688245 
L 165.423367 130.385405 
L 167.185365 131.028177 
L 168.947363 135.586229 
L 170.709361 134.426047 
L 172.471359 134.589084 
L 174.233357 135.444963 
L 175.995355 133.663805 
L 177.757353 135.885086 
L 179.519351 132.757986 
L 181.281349 134.247387 
L 183.043347 134.761627 
L 184.805345 133.893227 
L 186.567343 134.024393 
L 188.329341 133.528021 
L 190.091339 136.058435 
L 191.853337 133.82948 
L 193.615335 134.25985 
L 195.377333 135.548103 
L 197.139331 133.813751 
L 198.901329 133.720223 
L 200.663327 138.238106 
L 202.425325 136.216966 
L 204.187323 134.847737 
L 205.949321 138.117867 
L 207.711319 137.283061 
L 209.473317 135.891128 
L 211.235315 135.752411 
L 212.997313 137.395295 
L 214.759311 135.869959 
L 216.521309 135.623845 
L 218.283307 138.230453 
L 220.045305 135.388591 
L 221.807303 134.531946 
L 223.569301 135.358736 
L 225.331299 135.575223 
L 227.093297 136.394297 
L 228.855295 135.507385 
L 230.617293 135.756843 
L 232.379291 135.065625 
L 234.141289 135.095559 
L 235.903287 134.458916 
L 237.665285 138.628378 
L 239.427283 136.895934 
L 241.189281 134.89088 
L 242.951279 135.615045 
L 244.713277 135.20634 
L 246.475275 134.715755 
L 248.237273 135.482715 
L 249.999271 135.803629 
L 251.761269 136.773621 
L 253.523267 139.490905 
L 255.285265 137.712828 
L 257.047263 135.546 
L 258.809261 135.482614 
L 260.571259 135.283556 
" clip-path="url(#p26222738dc)" style="fill: none; stroke: #295e57; stroke-width: 1.5; stroke-linecap: square"/>
   </g>
   <g id="patch_3">
    <path d="M 47.81 143.44 
L 47.81 10.8 
" style="fill: none; stroke: #000000; stroke-width: 0.8; stroke-linejoin: miter; stroke-linecap: square"/>
   </g>
   <g id="patch_4">
    <path d="M 270.702747 143.44 
L 270.702747 10.8 
" style="fill: none; stroke: #000000; stroke-width: 0.8; stroke-linejoin: miter; stroke-linecap: square"/>
   </g>
   <g id="patch_5">
    <path d="M 47.81 143.44 
L 270.702747 143.44 
" style="fill: none; stroke: #000000; stroke-width: 0.8; stroke-linejoin: miter; stroke-linecap: square"/>
   </g>
   <g id="patch_6">
    <path d="M 47.81 10.8 
L 270.702747 10.8 
" style="fill: none; stroke: #000000; stroke-width: 0.8; stroke-linejoin: miter; stroke-linecap: square"/>
   </g>
   <g id="legend_1">
    <g id="patch_7">
     <path d="M 209.162269 67.298225 
L 264.871747 67.298225 
Q 266.537747 67.298225 266.537747 65.632225 
L 266.537747 16.631 
Q 266.537747 14.965 264.871747 14.965 
L 209.162269 14.965 
Q 207.496269 14.965 207.496269 16.631 
L 207.496269 65.632225 
Q 207.496269 67.298225 209.162269 67.298225 
z
" style="fill: #ffffff; opacity: 0.8; stroke: #cccccc; stroke-linejoin: miter"/>
    </g>
    <g id="line2d_29">
     <path d="M 210.828269 21.710998 
L 219.158269 21.710998 
L 227.488269 21.710998 
" style="fill: none; stroke: #4e9a84; stroke-width: 1.5; stroke-linecap: square"/>
    </g>
    <g id="text_15">
     <!-- es_10k -->
     <g transform="translate(234.152269 24.626498) scale(0.0833 -0.0833)">
      <defs>
       <path id="DejaVuSans-5f" d="M 3263 -1063 
L 3263 -1509 
L -63 -1509 
L -63 -1063 
L 3263 -1063 
z
" transform="scale(0.015625)"/>
       <path id="DejaVuSans-6b" d="M 581 4863 
L 1159 4863 
L 1159 1991 
L 2875 3500 
L 3609 3500 
L 1753 1863 
L 3688 0 
L 2938 0 
L 1159 1709 
L 1159 0 
L 581 0 
L 581 4863 
z
" transform="scale(0.015625)"/>
      </defs>
      <use xlink:href="#DejaVuSans-65"/>
      <use xlink:href="#DejaVuSans-73" x="61.523438"/>
      <use xlink:href="#DejaVuSans-5f" x="113.623047"/>
      <use xlink:href="#DejaVuSans-31" x="163.623047"/>
      <use xlink:href="#DejaVuSans-30" x="227.246094"/>
      <use xlink:href="#DejaVuSans-6b" x="290.869141"/>
     </g>
    </g>
    <g id="line2d_30">
     <path d="M 210.828269 34.169555 
L 219.158269 34.169555 
L 227.488269 34.169555 
" style="fill: none; stroke: #438d77; stroke-width: 1.5; stroke-linecap: square"/>
    </g>
    <g id="text_16">
     <!-- es_20k -->
     <g transform="translate(234.152269 37.085055) scale(0.0833 -0.0833)">
      <use xlink:href="#DejaVuSans-65"/>
      <use xlink:href="#DejaVuSans-73" x="61.523438"/>
      <use xlink:href="#DejaVuSans-5f" x="113.623047"/>
      <use xlink:href="#DejaVuSans-32" x="163.623047"/>
      <use xlink:href="#DejaVuSans-30" x="227.246094"/>
      <use xlink:href="#DejaVuSans-6b" x="290.869141"/>
     </g>
    </g>
    <g id="line2d_31">
     <path d="M 210.828269 46.628111 
L 219.158269 46.628111 
L 227.488269 46.628111 
" style="fill: none; stroke: #367d6a; stroke-width: 1.5; stroke-linecap: square"/>
    </g>
    <g id="text_17">
     <!-- es_30k -->
     <g transform="translate(234.152269 49.543611) scale(0.0833 -0.0833)">
      <use xlink:href="#DejaVuSans-65"/>
      <use xlink:href="#DejaVuSans-73" x="61.523438"/>
      <use xlink:href="#DejaVuSans-5f" x="113.623047"/>
      <use xlink:href="#DejaVuSans-33" x="163.623047"/>
      <use xlink:href="#DejaVuSans-30" x="227.246094"/>
      <use xlink:href="#DejaVuSans-6b" x="290.869141"/>
     </g>
    </g>
    <g id="line2d_32">
     <path d="M 210.828269 59.086667 
L 219.158269 59.086667 
L 227.488269 59.086667 
" style="fill: none; stroke: #295e57; stroke-width: 1.5; stroke-linecap: square"/>
    </g>
    <g id="text_18">
     <!-- es_40k -->
     <g transform="translate(234.152269 62.002167) scale(0.0833 -0.0833)">
      <use xlink:href="#DejaVuSans-65"/>
      <use xlink:href="#DejaVuSans-73" x="61.523438"/>
      <use xlink:href="#DejaVuSans-5f" x="113.623047"/>
      <use xlink:href="#DejaVuSans-34" x="163.623047"/>
      <use xlink:href="#DejaVuSans-30" x="227.246094"/>
      <use xlink:href="#DejaVuSans-6b" x="290.869141"/>
     </g>
    </g>
   </g>
  </g>
  <g id="axes_2">
   <g id="patch_8">
    <path d="M 47.81 318.04 
L 270.702747 318.04 
L 270.702747 185.4 
L 47.81 185.4 
z
" style="fill: #ffffff"/>
   </g>
   <g id="matplotlib.axis_3">
    <g id="xtick_8">
     <g id="line2d_33">
      <path d="M 56.179491 318.04 
L 56.179491 185.4 
" clip-path="url(#p6eb837d3d8)" style="fill: none; stroke: #808080; stroke-opacity: 0.25; stroke-width: 0.5; stroke-linecap: square"/>
     </g>
     <g id="line2d_34">
      <g>
       <use xlink:href="#m1bf858c3ac" x="56.179491" y="318.04" style="stroke: #000000; stroke-width: 0.8"/>
      </g>
     </g>
     <g id="text_19">
      <!-- 0 -->
      <g transform="translate(52.998241 332.638438) scale(0.1 -0.1)">
       <use xlink:href="#DejaVuSans-30"/>
      </g>
     </g>
    </g>
    <g id="xtick_9">
     <g id="line2d_35">
      <path d="M 91.419451 318.04 
L 91.419451 185.4 
" clip-path="url(#p6eb837d3d8)" style="fill: none; stroke: #808080; stroke-opacity: 0.25; stroke-width: 0.5; stroke-linecap: square"/>
     </g>
     <g id="line2d_36">
      <g>
       <use xlink:href="#m1bf858c3ac" x="91.419451" y="318.04" style="stroke: #000000; stroke-width: 0.8"/>
      </g>
     </g>
     <g id="text_20">
      <!-- 100 -->
      <g transform="translate(81.875701 332.638438) scale(0.1 -0.1)">
       <use xlink:href="#DejaVuSans-31"/>
       <use xlink:href="#DejaVuSans-30" x="63.623047"/>
       <use xlink:href="#DejaVuSans-30" x="127.246094"/>
      </g>
     </g>
    </g>
    <g id="xtick_10">
     <g id="line2d_37">
      <path d="M 126.659411 318.04 
L 126.659411 185.4 
" clip-path="url(#p6eb837d3d8)" style="fill: none; stroke: #808080; stroke-opacity: 0.25; stroke-width: 0.5; stroke-linecap: square"/>
     </g>
     <g id="line2d_38">
      <g>
       <use xlink:href="#m1bf858c3ac" x="126.659411" y="318.04" style="stroke: #000000; stroke-width: 0.8"/>
      </g>
     </g>
     <g id="text_21">
      <!-- 200 -->
      <g transform="translate(117.115661 332.638438) scale(0.1 -0.1)">
       <use xlink:href="#DejaVuSans-32"/>
       <use xlink:href="#DejaVuSans-30" x="63.623047"/>
       <use xlink:href="#DejaVuSans-30" x="127.246094"/>
      </g>
     </g>
    </g>
    <g id="xtick_11">
     <g id="line2d_39">
      <path d="M 161.899371 318.04 
L 161.899371 185.4 
" clip-path="url(#p6eb837d3d8)" style="fill: none; stroke: #808080; stroke-opacity: 0.25; stroke-width: 0.5; stroke-linecap: square"/>
     </g>
     <g id="line2d_40">
      <g>
       <use xlink:href="#m1bf858c3ac" x="161.899371" y="318.04" style="stroke: #000000; stroke-width: 0.8"/>
      </g>
     </g>
     <g id="text_22">
      <!-- 300 -->
      <g transform="translate(152.355621 332.638438) scale(0.1 -0.1)">
       <use xlink:href="#DejaVuSans-33"/>
       <use xlink:href="#DejaVuSans-30" x="63.623047"/>
       <use xlink:href="#DejaVuSans-30" x="127.246094"/>
      </g>
     </g>
    </g>
    <g id="xtick_12">
     <g id="line2d_41">
      <path d="M 197.139331 318.04 
L 197.139331 185.4 
" clip-path="url(#p6eb837d3d8)" style="fill: none; stroke: #808080; stroke-opacity: 0.25; stroke-width: 0.5; stroke-linecap: square"/>
     </g>
     <g id="line2d_42">
      <g>
       <use xlink:href="#m1bf858c3ac" x="197.139331" y="318.04" style="stroke: #000000; stroke-width: 0.8"/>
      </g>
     </g>
     <g id="text_23">
      <!-- 400 -->
      <g transform="translate(187.595581 332.638438) scale(0.1 -0.1)">
       <use xlink:href="#DejaVuSans-34"/>
       <use xlink:href="#DejaVuSans-30" x="63.623047"/>
       <use xlink:href="#DejaVuSans-30" x="127.246094"/>
      </g>
     </g>
    </g>
    <g id="xtick_13">
     <g id="line2d_43">
      <path d="M 232.379291 318.04 
L 232.379291 185.4 
" clip-path="url(#p6eb837d3d8)" style="fill: none; stroke: #808080; stroke-opacity: 0.25; stroke-width: 0.5; stroke-linecap: square"/>
     </g>
     <g id="line2d_44">
      <g>
       <use xlink:href="#m1bf858c3ac" x="232.379291" y="318.04" style="stroke: #000000; stroke-width: 0.8"/>
      </g>
     </g>
     <g id="text_24">
      <!-- 500 -->
      <g transform="translate(222.835541 332.638438) scale(0.1 -0.1)">
       <use xlink:href="#DejaVuSans-35"/>
       <use xlink:href="#DejaVuSans-30" x="63.623047"/>
       <use xlink:href="#DejaVuSans-30" x="127.246094"/>
      </g>
     </g>
    </g>
    <g id="xtick_14">
     <g id="line2d_45">
      <path d="M 267.619251 318.04 
L 267.619251 185.4 
" clip-path="url(#p6eb837d3d8)" style="fill: none; stroke: #808080; stroke-opacity: 0.25; stroke-width: 0.5; stroke-linecap: square"/>
     </g>
     <g id="line2d_46">
      <g>
       <use xlink:href="#m1bf858c3ac" x="267.619251" y="318.04" style="stroke: #000000; stroke-width: 0.8"/>
      </g>
     </g>
     <g id="text_25">
      <!-- 600 -->
      <g transform="translate(258.075501 332.638438) scale(0.1 -0.1)">
       <use xlink:href="#DejaVuSans-36"/>
       <use xlink:href="#DejaVuSans-30" x="63.623047"/>
       <use xlink:href="#DejaVuSans-30" x="127.246094"/>
      </g>
     </g>
    </g>
    <g id="text_26">
     <!-- Training Steps -->
     <g transform="translate(123.951686 346.316563) scale(0.1 -0.1)">
      <use xlink:href="#DejaVuSans-54"/>
      <use xlink:href="#DejaVuSans-72" x="46.333984"/>
      <use xlink:href="#DejaVuSans-61" x="87.447266"/>
      <use xlink:href="#DejaVuSans-69" x="148.726562"/>
      <use xlink:href="#DejaVuSans-6e" x="176.509766"/>
      <use xlink:href="#DejaVuSans-69" x="239.888672"/>
      <use xlink:href="#DejaVuSans-6e" x="267.671875"/>
      <use xlink:href="#DejaVuSans-67" x="331.050781"/>
      <use xlink:href="#DejaVuSans-20" x="394.527344"/>
      <use xlink:href="#DejaVuSans-53" x="426.314453"/>
      <use xlink:href="#DejaVuSans-74" x="489.791016"/>
      <use xlink:href="#DejaVuSans-65" x="529"/>
      <use xlink:href="#DejaVuSans-70" x="590.523438"/>
      <use xlink:href="#DejaVuSans-73" x="654"/>
     </g>
    </g>
   </g>
   <g id="matplotlib.axis_4">
    <g id="ytick_6">
     <g id="line2d_47">
      <path d="M 47.81 300.235199 
L 270.702747 300.235199 
" clip-path="url(#p6eb837d3d8)" style="fill: none; stroke: #808080; stroke-opacity: 0.25; stroke-width: 0.5; stroke-linecap: square"/>
     </g>
     <g id="line2d_48">
      <g>
       <use xlink:href="#m1f0c2f9e41" x="47.81" y="300.235199" style="stroke: #000000; stroke-width: 0.8"/>
      </g>
     </g>
     <g id="text_27">
      <!-- 2.5 -->
      <g transform="translate(24.906875 304.034418) scale(0.1 -0.1)">
       <use xlink:href="#DejaVuSans-32"/>
       <use xlink:href="#DejaVuSans-2e" x="63.623047"/>
       <use xlink:href="#DejaVuSans-35" x="95.410156"/>
      </g>
     </g>
    </g>
    <g id="ytick_7">
     <g id="line2d_49">
      <path d="M 47.81 272.834989 
L 270.702747 272.834989 
" clip-path="url(#p6eb837d3d8)" style="fill: none; stroke: #808080; stroke-opacity: 0.25; stroke-width: 0.5; stroke-linecap: square"/>
     </g>
     <g id="line2d_50">
      <g>
       <use xlink:href="#m1f0c2f9e41" x="47.81" y="272.834989" style="stroke: #000000; stroke-width: 0.8"/>
      </g>
     </g>
     <g id="text_28">
      <!-- 3.0 -->
      <g transform="translate(24.906875 276.634208) scale(0.1 -0.1)">
       <use xlink:href="#DejaVuSans-33"/>
       <use xlink:href="#DejaVuSans-2e" x="63.623047"/>
       <use xlink:href="#DejaVuSans-30" x="95.410156"/>
      </g>
     </g>
    </g>
    <g id="ytick_8">
     <g id="line2d_51">
      <path d="M 47.81 245.434779 
L 270.702747 245.434779 
" clip-path="url(#p6eb837d3d8)" style="fill: none; stroke: #808080; stroke-opacity: 0.25; stroke-width: 0.5; stroke-linecap: square"/>
     </g>
     <g id="line2d_52">
      <g>
       <use xlink:href="#m1f0c2f9e41" x="47.81" y="245.434779" style="stroke: #000000; stroke-width: 0.8"/>
      </g>
     </g>
     <g id="text_29">
      <!-- 3.5 -->
      <g transform="translate(24.906875 249.233998) scale(0.1 -0.1)">
       <use xlink:href="#DejaVuSans-33"/>
       <use xlink:href="#DejaVuSans-2e" x="63.623047"/>
       <use xlink:href="#DejaVuSans-35" x="95.410156"/>
      </g>
     </g>
    </g>
    <g id="ytick_9">
     <g id="line2d_53">
      <path d="M 47.81 218.034569 
L 270.702747 218.034569 
" clip-path="url(#p6eb837d3d8)" style="fill: none; stroke: #808080; stroke-opacity: 0.25; stroke-width: 0.5; stroke-linecap: square"/>
     </g>
     <g id="line2d_54">
      <g>
       <use xlink:href="#m1f0c2f9e41" x="47.81" y="218.034569" style="stroke: #000000; stroke-width: 0.8"/>
      </g>
     </g>
     <g id="text_30">
      <!-- 4.0 -->
      <g transform="translate(24.906875 221.833788) scale(0.1 -0.1)">
       <use xlink:href="#DejaVuSans-34"/>
       <use xlink:href="#DejaVuSans-2e" x="63.623047"/>
       <use xlink:href="#DejaVuSans-30" x="95.410156"/>
      </g>
     </g>
    </g>
    <g id="ytick_10">
     <g id="line2d_55">
      <path d="M 47.81 190.634359 
L 270.702747 190.634359 
" clip-path="url(#p6eb837d3d8)" style="fill: none; stroke: #808080; stroke-opacity: 0.25; stroke-width: 0.5; stroke-linecap: square"/>
     </g>
     <g id="line2d_56">
      <g>
       <use xlink:href="#m1f0c2f9e41" x="47.81" y="190.634359" style="stroke: #000000; stroke-width: 0.8"/>
      </g>
     </g>
     <g id="text_31">
      <!-- 4.5 -->
      <g transform="translate(24.906875 194.433578) scale(0.1 -0.1)">
       <use xlink:href="#DejaVuSans-34"/>
       <use xlink:href="#DejaVuSans-2e" x="63.623047"/>
       <use xlink:href="#DejaVuSans-35" x="95.410156"/>
      </g>
     </g>
    </g>
    <g id="text_32">
     <!-- BPC Loss -->
     <g transform="translate(18.827187 274.212969) rotate(-90) scale(0.1 -0.1)">
      <use xlink:href="#DejaVuSans-42"/>
      <use xlink:href="#DejaVuSans-50" x="68.603516"/>
      <use xlink:href="#DejaVuSans-43" x="128.90625"/>
      <use xlink:href="#DejaVuSans-20" x="198.730469"/>
      <use xlink:href="#DejaVuSans-4c" x="230.517578"/>
      <use xlink:href="#DejaVuSans-6f" x="284.480469"/>
      <use xlink:href="#DejaVuSans-73" x="345.662109"/>
      <use xlink:href="#DejaVuSans-73" x="397.761719"/>
     </g>
    </g>
   </g>
   <g id="line2d_57">
    <path d="M 57.941489 234.34807 
L 59.703487 241.876548 
L 61.465485 245.264757 
L 63.227483 254.474169 
L 64.989481 262.432431 
L 66.751479 271.22616 
L 68.513477 271.396018 
L 70.275475 272.056764 
L 72.037473 275.561081 
L 73.799471 270.519924 
L 75.561469 272.874606 
L 77.323467 273.671058 
L 79.085465 275.674864 
L 80.847463 277.938298 
L 82.609461 278.07642 
L 84.371459 279.535206 
L 86.133457 277.750522 
L 87.895455 279.863066 
L 89.657453 280.513358 
L 91.419451 280.143688 
L 93.181449 280.760306 
L 94.943447 281.916926 
L 96.705445 283.67612 
L 98.467443 283.647941 
L 100.229441 283.572045 
L 101.991439 285.501427 
L 103.753437 280.751331 
L 105.515435 282.364465 
L 107.277433 283.798651 
L 109.039431 284.086156 
L 110.801429 283.442465 
L 112.563427 287.528766 
L 114.325425 285.427294 
L 116.087423 285.036471 
L 117.849421 286.640137 
L 119.611419 284.513702 
L 121.373417 287.884052 
L 123.135415 286.677038 
L 124.897413 284.092846 
L 126.659411 286.281298 
L 128.421409 287.34467 
L 130.183407 285.98286 
L 131.945405 287.414152 
L 133.707403 287.314622 
L 135.469401 287.822132 
L 137.231399 290.63886 
L 138.993397 287.00427 
L 140.755395 289.883925 
L 142.517393 288.18805 
L 144.279391 285.319053 
L 146.041389 287.907043 
L 147.803387 289.328377 
L 149.565385 287.669604 
L 151.327383 287.538026 
L 153.089381 289.434002 
L 154.851379 289.859709 
L 156.613377 287.69435 
L 158.375375 288.349806 
L 160.137373 289.584811 
L 161.899371 289.530673 
L 163.661369 289.135978 
L 165.423367 288.155027 
L 167.185365 290.460994 
L 168.947363 290.628126 
L 170.709361 291.60761 
L 172.471359 290.172717 
L 174.233357 291.57311 
L 175.995355 288.02877 
L 177.757353 289.806348 
L 179.519351 288.571768 
L 181.281349 290.848878 
L 183.043347 288.219914 
L 184.805345 290.072845 
L 186.567343 292.952916 
L 188.329341 287.488522 
L 190.091339 290.003434 
L 191.853337 292.146522 
L 193.615335 291.331305 
L 195.377333 287.666275 
L 197.139331 288.141988 
L 198.901329 290.215311 
L 200.663327 290.927629 
L 202.425325 289.667044 
L 204.187323 286.366888 
L 205.949321 287.412776 
L 207.711319 290.387807 
L 209.473317 291.85128 
L 211.235315 289.74108 
L 212.997313 291.748391 
L 214.759311 288.774121 
L 216.521309 291.443865 
L 218.283307 293.990583 
L 220.045305 289.472888 
L 221.807303 288.504882 
L 223.569301 290.938009 
L 225.331299 293.697971 
L 227.093297 289.428519 
L 228.855295 292.780147 
L 230.617293 292.333689 
L 232.379291 290.244122 
L 234.141289 289.753183 
L 235.903287 290.101963 
L 237.665285 292.839446 
L 239.427283 289.851135 
L 241.189281 291.249031 
L 242.951279 288.736875 
L 244.713277 291.520168 
L 246.475275 291.22013 
L 248.237273 288.681288 
L 249.999271 289.51612 
L 251.761269 289.932494 
L 253.523267 291.880464 
L 255.285265 290.269642 
L 257.047263 288.084802 
L 258.809261 291.75727 
L 260.571259 291.263713 
" clip-path="url(#p6eb837d3d8)" style="fill: none; stroke: #68b3c7; stroke-width: 1.5; stroke-linecap: square"/>
   </g>
   <g id="line2d_58">
    <path d="M 57.941489 254.598979 
L 59.703487 258.209807 
L 61.465485 263.895735 
L 63.227483 272.160982 
L 64.989481 274.214309 
L 66.751479 283.182913 
L 68.513477 284.120201 
L 70.275475 283.84914 
L 72.037473 283.871131 
L 73.799471 284.79805 
L 75.561469 287.813703 
L 77.323467 286.527729 
L 79.085465 289.686711 
L 80.847463 288.269524 
L 82.609461 290.239003 
L 84.371459 290.212553 
L 86.133457 287.625304 
L 87.895455 292.605875 
L 89.657453 290.195337 
L 91.419451 292.608331 
L 93.181449 293.885206 
L 94.943447 293.962223 
L 96.705445 292.074396 
L 98.467443 294.391184 
L 100.229441 295.363418 
L 101.991439 295.995331 
L 103.753437 294.215361 
L 105.515435 295.724693 
L 107.277433 295.838053 
L 109.039431 297.106774 
L 110.801429 294.750329 
L 112.563427 297.848511 
L 114.325425 295.851637 
L 116.087423 297.088985 
L 117.849421 296.661216 
L 119.611419 296.984807 
L 121.373417 298.967807 
L 123.135415 297.405087 
L 124.897413 295.475885 
L 126.659411 298.910265 
L 128.421409 298.231161 
L 130.183407 297.582221 
L 131.945405 301.084312 
L 133.707403 297.515166 
L 135.469401 300.991904 
L 137.231399 302.099856 
L 138.993397 299.732852 
L 140.755395 302.018284 
L 142.517393 300.739269 
L 144.279391 298.930064 
L 146.041389 301.115501 
L 147.803387 298.071364 
L 149.565385 301.919132 
L 151.327383 300.722599 
L 153.089381 302.772915 
L 154.851379 300.516995 
L 156.613377 301.387078 
L 158.375375 299.611081 
L 160.137373 300.958219 
L 161.899371 301.091239 
L 163.661369 299.944001 
L 165.423367 300.838049 
L 167.185365 300.749611 
L 168.947363 303.188814 
L 170.709361 302.267335 
L 172.471359 302.399485 
L 174.233357 299.895127 
L 175.995355 302.345447 
L 177.757353 301.943127 
L 179.519351 300.744816 
L 181.281349 302.067774 
L 183.043347 301.231859 
L 184.805345 301.688166 
L 186.567343 302.727943 
L 188.329341 303.06127 
L 190.091339 302.691801 
L 191.853337 304.335037 
L 193.615335 304.509735 
L 195.377333 301.188771 
L 197.139331 299.937959 
L 198.901329 303.497452 
L 200.663327 304.16677 
L 202.425325 304.433916 
L 204.187323 301.077887 
L 205.949321 302.619835 
L 207.711319 302.854936 
L 209.473317 303.425117 
L 211.235315 302.562271 
L 212.997313 303.653256 
L 214.759311 299.823905 
L 216.521309 301.715471 
L 218.283307 301.89747 
L 220.045305 303.064939 
L 221.807303 303.085334 
L 223.569301 302.257912 
L 225.331299 303.662807 
L 227.093297 302.036095 
L 228.855295 304.552203 
L 230.617293 303.744196 
L 232.379291 304.005599 
L 234.141289 304.326408 
L 235.903287 303.765626 
L 237.665285 302.895075 
L 239.427283 303.980305 
L 241.189281 302.725008 
L 242.951279 300.839866 
L 244.713277 301.407796 
L 246.475275 304.375394 
L 248.237273 305.467473 
L 249.999271 303.266683 
L 251.761269 302.935125 
L 253.523267 300.990664 
L 255.285265 301.299371 
L 257.047263 301.158684 
L 258.809261 302.987548 
L 260.571259 302.541652 
" clip-path="url(#p6eb837d3d8)" style="fill: none; stroke: #4da1b4; stroke-width: 1.5; stroke-linecap: square"/>
   </g>
   <g id="line2d_59">
    <path d="M 57.941489 257.232054 
L 59.703487 259.347287 
L 61.465485 267.399288 
L 63.227483 274.692912 
L 64.989481 279.537585 
L 66.751479 285.054557 
L 68.513477 289.532497 
L 70.275475 289.674943 
L 72.037473 292.043192 
L 73.799471 292.636733 
L 75.561469 290.379414 
L 77.323467 291.665988 
L 79.085465 292.888931 
L 80.847463 293.643636 
L 82.609461 293.990858 
L 84.371459 295.093368 
L 86.133457 294.833893 
L 87.895455 293.79161 
L 89.657453 297.474703 
L 91.419451 295.401056 
L 93.181449 297.185202 
L 94.943447 298.328751 
L 96.705445 296.683987 
L 98.467443 299.563506 
L 100.229441 300.593712 
L 101.991439 300.340217 
L 103.753437 295.80613 
L 105.515435 301.459781 
L 107.277433 299.838594 
L 109.039431 300.439036 
L 110.801429 299.826658 
L 112.563427 300.955115 
L 114.325425 299.075513 
L 116.087423 300.067092 
L 117.849421 302.415795 
L 119.611419 301.239859 
L 121.373417 300.744024 
L 123.135415 300.305604 
L 124.897413 300.595942 
L 126.659411 301.976955 
L 128.421409 302.201007 
L 130.183407 301.196611 
L 131.945405 301.621289 
L 133.707403 302.708706 
L 135.469401 302.238167 
L 137.231399 301.686675 
L 138.993397 301.648984 
L 140.755395 304.281153 
L 142.517393 302.82367 
L 144.279391 302.374158 
L 146.041389 304.358406 
L 147.803387 303.248537 
L 149.565385 304.423957 
L 151.327383 304.456227 
L 153.089381 303.721337 
L 154.851379 304.906569 
L 156.613377 304.587096 
L 158.375375 303.647504 
L 160.137373 304.155324 
L 161.899371 307.198742 
L 163.661369 305.640951 
L 165.423367 302.529593 
L 167.185365 304.379495 
L 168.947363 305.357542 
L 170.709361 305.831231 
L 172.471359 306.367498 
L 174.233357 303.314141 
L 175.995355 303.972146 
L 177.757353 306.910555 
L 179.519351 306.045881 
L 181.281349 304.659047 
L 183.043347 306.224553 
L 184.805345 304.907068 
L 186.567343 306.91928 
L 188.329341 305.449194 
L 190.091339 305.849498 
L 191.853337 306.799631 
L 193.615335 307.632002 
L 195.377333 307.263265 
L 197.139331 305.19736 
L 198.901329 306.12496 
L 200.663327 307.034366 
L 202.425325 307.359102 
L 204.187323 306.862901 
L 205.949321 305.539724 
L 207.711319 305.674473 
L 209.473317 305.693989 
L 211.235315 306.328939 
L 212.997313 305.948983 
L 214.759311 304.167334 
L 216.521309 306.780239 
L 218.283307 307.021193 
L 220.045305 307.182882 
L 221.807303 305.771337 
L 223.569301 306.98508 
L 225.331299 305.649894 
L 227.093297 306.294165 
L 228.855295 306.901054 
L 230.617293 304.819848 
L 232.379291 305.656723 
L 234.141289 307.710132 
L 235.903287 306.833817 
L 237.665285 307.953721 
L 239.427283 306.147226 
L 241.189281 307.455428 
L 242.951279 305.52385 
L 244.713277 305.42928 
L 246.475275 306.837374 
L 248.237273 307.427854 
L 249.999271 306.078817 
L 251.761269 306.811042 
L 253.523267 306.231717 
L 255.285265 305.477655 
L 257.047263 305.150104 
L 258.809261 306.790525 
L 260.571259 307.344221 
" clip-path="url(#p6eb837d3d8)" style="fill: none; stroke: #3b7d98; stroke-width: 1.5; stroke-linecap: square"/>
   </g>
   <g id="line2d_60">
    <path d="M 57.941489 257.54793 
L 59.703487 263.687623 
L 61.465485 268.349105 
L 63.227483 273.507112 
L 64.989481 280.580504 
L 66.751479 286.610357 
L 68.513477 290.500335 
L 70.275475 291.118048 
L 72.037473 292.832384 
L 73.799471 293.145397 
L 75.561469 294.335727 
L 77.323467 295.488908 
L 79.085465 293.685395 
L 80.847463 295.405704 
L 82.609461 293.778637 
L 84.371459 298.123291 
L 86.133457 296.676287 
L 87.895455 297.080902 
L 89.657453 298.380097 
L 91.419451 300.173216 
L 93.181449 299.85094 
L 94.943447 298.8664 
L 96.705445 300.808675 
L 98.467443 300.478781 
L 100.229441 301.135 
L 101.991439 300.062558 
L 103.753437 299.551776 
L 105.515435 301.172805 
L 107.277433 303.098378 
L 109.039431 303.118104 
L 110.801429 300.794955 
L 112.563427 300.776112 
L 114.325425 302.768327 
L 116.087423 302.978119 
L 117.849421 302.697523 
L 119.611419 302.364928 
L 121.373417 301.014054 
L 123.135415 304.099099 
L 124.897413 303.921122 
L 126.659411 303.174599 
L 128.421409 303.981072 
L 130.183407 304.642737 
L 131.945405 307.061204 
L 133.707403 304.937916 
L 135.469401 304.387149 
L 137.231399 305.365507 
L 138.993397 303.686864 
L 140.755395 306.491923 
L 142.517393 305.373796 
L 144.279391 304.426373 
L 146.041389 307.214749 
L 147.803387 304.588309 
L 149.565385 306.618192 
L 151.327383 306.962476 
L 153.089381 305.22032 
L 154.851379 307.73235 
L 156.613377 306.521411 
L 158.375375 306.880195 
L 160.137373 307.621349 
L 161.899371 308.582006 
L 163.661369 307.720277 
L 165.423367 306.648026 
L 167.185365 306.66339 
L 168.947363 309.694392 
L 170.709361 309.528968 
L 172.471359 307.071001 
L 174.233357 308.374586 
L 175.995355 306.240553 
L 177.757353 307.872628 
L 179.519351 305.249919 
L 181.281349 307.247792 
L 183.043347 306.313494 
L 184.805345 307.92872 
L 186.567343 307.995641 
L 188.329341 306.969834 
L 190.091339 308.486991 
L 191.853337 308.362924 
L 193.615335 309.324355 
L 195.377333 307.88578 
L 197.139331 307.868041 
L 198.901329 308.811525 
L 200.663327 308.030926 
L 202.425325 307.861898 
L 204.187323 305.560171 
L 205.949321 306.663142 
L 207.711319 308.701446 
L 209.473317 308.673717 
L 211.235315 308.519815 
L 212.997313 307.262859 
L 214.759311 306.071423 
L 216.521309 309.867938 
L 218.283307 307.8968 
L 220.045305 308.322239 
L 221.807303 309.437794 
L 223.569301 310.526911 
L 225.331299 310.228129 
L 227.093297 309.009498 
L 228.855295 308.620625 
L 230.617293 308.608701 
L 232.379291 308.039414 
L 234.141289 309.415401 
L 235.903287 309.480948 
L 237.665285 310.20712 
L 239.427283 309.072051 
L 241.189281 309.586549 
L 242.951279 307.114736 
L 244.713277 309.866023 
L 246.475275 308.094928 
L 248.237273 308.082053 
L 249.999271 309.068722 
L 251.761269 309.505909 
L 253.523267 310.50926 
L 255.285265 307.838815 
L 257.047263 306.389688 
L 258.809261 309.884411 
L 260.571259 309.914044 
" clip-path="url(#p6eb837d3d8)" style="fill: none; stroke: #2c5b73; stroke-width: 1.5; stroke-linecap: square"/>
   </g>
   <g id="patch_9">
    <path d="M 47.81 318.04 
L 47.81 185.4 
" style="fill: none; stroke: #000000; stroke-width: 0.8; stroke-linejoin: miter; stroke-linecap: square"/>
   </g>
   <g id="patch_10">
    <path d="M 270.702747 318.04 
L 270.702747 185.4 
" style="fill: none; stroke: #000000; stroke-width: 0.8; stroke-linejoin: miter; stroke-linecap: square"/>
   </g>
   <g id="patch_11">
    <path d="M 47.81 318.04 
L 270.702747 318.04 
" style="fill: none; stroke: #000000; stroke-width: 0.8; stroke-linejoin: miter; stroke-linecap: square"/>
   </g>
   <g id="patch_12">
    <path d="M 47.81 185.4 
L 270.702747 185.4 
" style="fill: none; stroke: #000000; stroke-width: 0.8; stroke-linejoin: miter; stroke-linecap: square"/>
   </g>
   <g id="legend_2">
    <g id="patch_13">
     <path d="M 211.9372 241.898225 
L 264.871747 241.898225 
Q 266.537747 241.898225 266.537747 240.232225 
L 266.537747 191.231 
Q 266.537747 189.565 264.871747 189.565 
L 211.9372 189.565 
Q 210.2712 189.565 210.2712 191.231 
L 210.2712 240.232225 
Q 210.2712 241.898225 211.9372 241.898225 
z
" style="fill: #ffffff; opacity: 0.8; stroke: #cccccc; stroke-linejoin: miter"/>
    </g>
    <g id="line2d_61">
     <path d="M 213.6032 196.310998 
L 221.9332 196.310998 
L 230.2632 196.310998 
" style="fill: none; stroke: #68b3c7; stroke-width: 1.5; stroke-linecap: square"/>
    </g>
    <g id="text_33">
     <!-- tr_10k -->
     <g transform="translate(236.9272 199.226498) scale(0.0833 -0.0833)">
      <use xlink:href="#DejaVuSans-74"/>
      <use xlink:href="#DejaVuSans-72" x="39.208984"/>
      <use xlink:href="#DejaVuSans-5f" x="80.322266"/>
      <use xlink:href="#DejaVuSans-31" x="130.322266"/>
      <use xlink:href="#DejaVuSans-30" x="193.945312"/>
      <use xlink:href="#DejaVuSans-6b" x="257.568359"/>
     </g>
    </g>
    <g id="line2d_62">
     <path d="M 213.6032 208.769555 
L 221.9332 208.769555 
L 230.2632 208.769555 
" style="fill: none; stroke: #4da1b4; stroke-width: 1.5; stroke-linecap: square"/>
    </g>
    <g id="text_34">
     <!-- tr_20k -->
     <g transform="translate(236.9272 211.685055) scale(0.0833 -0.0833)">
      <use xlink:href="#DejaVuSans-74"/>
      <use xlink:href="#DejaVuSans-72" x="39.208984"/>
      <use xlink:href="#DejaVuSans-5f" x="80.322266"/>
      <use xlink:href="#DejaVuSans-32" x="130.322266"/>
      <use xlink:href="#DejaVuSans-30" x="193.945312"/>
      <use xlink:href="#DejaVuSans-6b" x="257.568359"/>
     </g>
    </g>
    <g id="line2d_63">
     <path d="M 213.6032 221.228111 
L 221.9332 221.228111 
L 230.2632 221.228111 
" style="fill: none; stroke: #3b7d98; stroke-width: 1.5; stroke-linecap: square"/>
    </g>
    <g id="text_35">
     <!-- tr_30k -->
     <g transform="translate(236.9272 224.143611) scale(0.0833 -0.0833)">
      <use xlink:href="#DejaVuSans-74"/>
      <use xlink:href="#DejaVuSans-72" x="39.208984"/>
      <use xlink:href="#DejaVuSans-5f" x="80.322266"/>
      <use xlink:href="#DejaVuSans-33" x="130.322266"/>
      <use xlink:href="#DejaVuSans-30" x="193.945312"/>
      <use xlink:href="#DejaVuSans-6b" x="257.568359"/>
     </g>
    </g>
    <g id="line2d_64">
     <path d="M 213.6032 233.686667 
L 221.9332 233.686667 
L 230.2632 233.686667 
" style="fill: none; stroke: #2c5b73; stroke-width: 1.5; stroke-linecap: square"/>
    </g>
    <g id="text_36">
     <!-- tr_40k -->
     <g transform="translate(236.9272 236.602167) scale(0.0833 -0.0833)">
      <use xlink:href="#DejaVuSans-74"/>
      <use xlink:href="#DejaVuSans-72" x="39.208984"/>
      <use xlink:href="#DejaVuSans-5f" x="80.322266"/>
      <use xlink:href="#DejaVuSans-34" x="130.322266"/>
      <use xlink:href="#DejaVuSans-30" x="193.945312"/>
      <use xlink:href="#DejaVuSans-6b" x="257.568359"/>
     </g>
    </g>
   </g>
  </g>
 </g>
 <defs>
  <clipPath id="p26222738dc">
   <rect x="47.81" y="10.8" width="222.892747" height="132.64"/>
  </clipPath>
  <clipPath id="p6eb837d3d8">
   <rect x="47.81" y="185.4" width="222.892747" height="132.64"/>
  </clipPath>
 </defs>
</svg>
