<?xml version="1.0" encoding="utf-8" standalone="no"?>
<!DOCTYPE svg PUBLIC "-//W3C//DTD SVG 1.1//EN"
  "http://www.w3.org/Graphics/SVG/1.1/DTD/svg11.dtd">
<svg xmlns:xlink="http://www.w3.org/1999/xlink" width="288pt" height="360pt" viewBox="0 0 288 360" xmlns="http://www.w3.org/2000/svg" version="1.1">
 <metadata>
  <rdf:RDF xmlns:dc="http://purl.org/dc/elements/1.1/" xmlns:cc="http://creativecommons.org/ns#" xmlns:rdf="http://www.w3.org/1999/02/22-rdf-syntax-ns#">
   <cc:Work>
    <dc:type rdf:resource="http://purl.org/dc/dcmitype/StillImage"/>
    <dc:date>2024-12-17T16:34:29.599279</dc:date>
    <dc:format>image/svg+xml</dc:format>
    <dc:creator>
     <cc:Agent>
      <dc:title>Matplotlib v3.8.0, https://matplotlib.org/</dc:title>
     </cc:Agent>
    </dc:creator>
   </cc:Work>
  </rdf:RDF>
 </metadata>
 <defs>
  <style type="text/css">*{stroke-linejoin: round; stroke-linecap: butt}</style>
 </defs>
 <g id="figure_1">
  <g id="patch_1">
   <path d="M 0 360 
L 288 360 
L 288 0 
L 0 0 
z
" style="fill: #ffffff"/>
  </g>
  <g id="axes_1">
   <g id="patch_2">
    <path d="M 47.81 143.44 
L 270.702747 143.44 
L 270.702747 10.8 
L 47.81 10.8 
z
" style="fill: #ffffff"/>
   </g>
   <g id="matplotlib.axis_1">
    <g id="xtick_1">
     <g id="line2d_1">
      <path d="M 56.179491 143.44 
L 56.179491 10.8 
" clip-path="url(#p19cb44f672)" style="fill: none; stroke: #808080; stroke-opacity: 0.25; stroke-width: 0.5; stroke-linecap: square"/>
     </g>
     <g id="line2d_2">
      <defs>
       <path id="m6ac3e0afff" d="M 0 0 
L 0 3.5 
" style="stroke: #000000; stroke-width: 0.8"/>
      </defs>
      <g>
       <use xlink:href="#m6ac3e0afff" x="56.179491" y="143.44" style="stroke: #000000; stroke-width: 0.8"/>
      </g>
     </g>
     <g id="text_1">
      <!-- 0 -->
      <g transform="translate(52.998241 158.038438) scale(0.1 -0.1)">
       <defs>
        <path id="DejaVuSans-30" d="M 2034 4250 
Q 1547 4250 1301 3770 
Q 1056 3291 1056 2328 
Q 1056 1369 1301 889 
Q 1547 409 2034 409 
Q 2525 409 2770 889 
Q 3016 1369 3016 2328 
Q 3016 3291 2770 3770 
Q 2525 4250 2034 4250 
z
M 2034 4750 
Q 2819 4750 3233 4129 
Q 3647 3509 3647 2328 
Q 3647 1150 3233 529 
Q 2819 -91 2034 -91 
Q 1250 -91 836 529 
Q 422 1150 422 2328 
Q 422 3509 836 4129 
Q 1250 4750 2034 4750 
z
" transform="scale(0.015625)"/>
       </defs>
       <use xlink:href="#DejaVuSans-30"/>
      </g>
     </g>
    </g>
    <g id="xtick_2">
     <g id="line2d_3">
      <path d="M 91.419451 143.44 
L 91.419451 10.8 
" clip-path="url(#p19cb44f672)" style="fill: none; stroke: #808080; stroke-opacity: 0.25; stroke-width: 0.5; stroke-linecap: square"/>
     </g>
     <g id="line2d_4">
      <g>
       <use xlink:href="#m6ac3e0afff" x="91.419451" y="143.44" style="stroke: #000000; stroke-width: 0.8"/>
      </g>
     </g>
     <g id="text_2">
      <!-- 100 -->
      <g transform="translate(81.875701 158.038438) scale(0.1 -0.1)">
       <defs>
        <path id="DejaVuSans-31" d="M 794 531 
L 1825 531 
L 1825 4091 
L 703 3866 
L 703 4441 
L 1819 4666 
L 2450 4666 
L 2450 531 
L 3481 531 
L 3481 0 
L 794 0 
L 794 531 
z
" transform="scale(0.015625)"/>
       </defs>
       <use xlink:href="#DejaVuSans-31"/>
       <use xlink:href="#DejaVuSans-30" x="63.623047"/>
       <use xlink:href="#DejaVuSans-30" x="127.246094"/>
      </g>
     </g>
    </g>
    <g id="xtick_3">
     <g id="line2d_5">
      <path d="M 126.659411 143.44 
L 126.659411 10.8 
" clip-path="url(#p19cb44f672)" style="fill: none; stroke: #808080; stroke-opacity: 0.25; stroke-width: 0.5; stroke-linecap: square"/>
     </g>
     <g id="line2d_6">
      <g>
       <use xlink:href="#m6ac3e0afff" x="126.659411" y="143.44" style="stroke: #000000; stroke-width: 0.8"/>
      </g>
     </g>
     <g id="text_3">
      <!-- 200 -->
      <g transform="translate(117.115661 158.038438) scale(0.1 -0.1)">
       <defs>
        <path id="DejaVuSans-32" d="M 1228 531 
L 3431 531 
L 3431 0 
L 469 0 
L 469 531 
Q 828 903 1448 1529 
Q 2069 2156 2228 2338 
Q 2531 2678 2651 2914 
Q 2772 3150 2772 3378 
Q 2772 3750 2511 3984 
Q 2250 4219 1831 4219 
Q 1534 4219 1204 4116 
Q 875 4013 500 3803 
L 500 4441 
Q 881 4594 1212 4672 
Q 1544 4750 1819 4750 
Q 2544 4750 2975 4387 
Q 3406 4025 3406 3419 
Q 3406 3131 3298 2873 
Q 3191 2616 2906 2266 
Q 2828 2175 2409 1742 
Q 1991 1309 1228 531 
z
" transform="scale(0.015625)"/>
       </defs>
       <use xlink:href="#DejaVuSans-32"/>
       <use xlink:href="#DejaVuSans-30" x="63.623047"/>
       <use xlink:href="#DejaVuSans-30" x="127.246094"/>
      </g>
     </g>
    </g>
    <g id="xtick_4">
     <g id="line2d_7">
      <path d="M 161.899371 143.44 
L 161.899371 10.8 
" clip-path="url(#p19cb44f672)" style="fill: none; stroke: #808080; stroke-opacity: 0.25; stroke-width: 0.5; stroke-linecap: square"/>
     </g>
     <g id="line2d_8">
      <g>
       <use xlink:href="#m6ac3e0afff" x="161.899371" y="143.44" style="stroke: #000000; stroke-width: 0.8"/>
      </g>
     </g>
     <g id="text_4">
      <!-- 300 -->
      <g transform="translate(152.355621 158.038438) scale(0.1 -0.1)">
       <defs>
        <path id="DejaVuSans-33" d="M 2597 2516 
Q 3050 2419 3304 2112 
Q 3559 1806 3559 1356 
Q 3559 666 3084 287 
Q 2609 -91 1734 -91 
Q 1441 -91 1130 -33 
Q 819 25 488 141 
L 488 750 
Q 750 597 1062 519 
Q 1375 441 1716 441 
Q 2309 441 2620 675 
Q 2931 909 2931 1356 
Q 2931 1769 2642 2001 
Q 2353 2234 1838 2234 
L 1294 2234 
L 1294 2753 
L 1863 2753 
Q 2328 2753 2575 2939 
Q 2822 3125 2822 3475 
Q 2822 3834 2567 4026 
Q 2313 4219 1838 4219 
Q 1578 4219 1281 4162 
Q 984 4106 628 3988 
L 628 4550 
Q 988 4650 1302 4700 
Q 1616 4750 1894 4750 
Q 2613 4750 3031 4423 
Q 3450 4097 3450 3541 
Q 3450 3153 3228 2886 
Q 3006 2619 2597 2516 
z
" transform="scale(0.015625)"/>
       </defs>
       <use xlink:href="#DejaVuSans-33"/>
       <use xlink:href="#DejaVuSans-30" x="63.623047"/>
       <use xlink:href="#DejaVuSans-30" x="127.246094"/>
      </g>
     </g>
    </g>
    <g id="xtick_5">
     <g id="line2d_9">
      <path d="M 197.139331 143.44 
L 197.139331 10.8 
" clip-path="url(#p19cb44f672)" style="fill: none; stroke: #808080; stroke-opacity: 0.25; stroke-width: 0.5; stroke-linecap: square"/>
     </g>
     <g id="line2d_10">
      <g>
       <use xlink:href="#m6ac3e0afff" x="197.139331" y="143.44" style="stroke: #000000; stroke-width: 0.8"/>
      </g>
     </g>
     <g id="text_5">
      <!-- 400 -->
      <g transform="translate(187.595581 158.038438) scale(0.1 -0.1)">
       <defs>
        <path id="DejaVuSans-34" d="M 2419 4116 
L 825 1625 
L 2419 1625 
L 2419 4116 
z
M 2253 4666 
L 3047 4666 
L 3047 1625 
L 3713 1625 
L 3713 1100 
L 3047 1100 
L 3047 0 
L 2419 0 
L 2419 1100 
L 313 1100 
L 313 1709 
L 2253 4666 
z
" transform="scale(0.015625)"/>
       </defs>
       <use xlink:href="#DejaVuSans-34"/>
       <use xlink:href="#DejaVuSans-30" x="63.623047"/>
       <use xlink:href="#DejaVuSans-30" x="127.246094"/>
      </g>
     </g>
    </g>
    <g id="xtick_6">
     <g id="line2d_11">
      <path d="M 232.379291 143.44 
L 232.379291 10.8 
" clip-path="url(#p19cb44f672)" style="fill: none; stroke: #808080; stroke-opacity: 0.25; stroke-width: 0.5; stroke-linecap: square"/>
     </g>
     <g id="line2d_12">
      <g>
       <use xlink:href="#m6ac3e0afff" x="232.379291" y="143.44" style="stroke: #000000; stroke-width: 0.8"/>
      </g>
     </g>
     <g id="text_6">
      <!-- 500 -->
      <g transform="translate(222.835541 158.038438) scale(0.1 -0.1)">
       <defs>
        <path id="DejaVuSans-35" d="M 691 4666 
L 3169 4666 
L 3169 4134 
L 1269 4134 
L 1269 2991 
Q 1406 3038 1543 3061 
Q 1681 3084 1819 3084 
Q 2600 3084 3056 2656 
Q 3513 2228 3513 1497 
Q 3513 744 3044 326 
Q 2575 -91 1722 -91 
Q 1428 -91 1123 -41 
Q 819 9 494 109 
L 494 744 
Q 775 591 1075 516 
Q 1375 441 1709 441 
Q 2250 441 2565 725 
Q 2881 1009 2881 1497 
Q 2881 1984 2565 2268 
Q 2250 2553 1709 2553 
Q 1456 2553 1204 2497 
Q 953 2441 691 2322 
L 691 4666 
z
" transform="scale(0.015625)"/>
       </defs>
       <use xlink:href="#DejaVuSans-35"/>
       <use xlink:href="#DejaVuSans-30" x="63.623047"/>
       <use xlink:href="#DejaVuSans-30" x="127.246094"/>
      </g>
     </g>
    </g>
    <g id="xtick_7">
     <g id="line2d_13">
      <path d="M 267.619251 143.44 
L 267.619251 10.8 
" clip-path="url(#p19cb44f672)" style="fill: none; stroke: #808080; stroke-opacity: 0.25; stroke-width: 0.5; stroke-linecap: square"/>
     </g>
     <g id="line2d_14">
      <g>
       <use xlink:href="#m6ac3e0afff" x="267.619251" y="143.44" style="stroke: #000000; stroke-width: 0.8"/>
      </g>
     </g>
     <g id="text_7">
      <!-- 600 -->
      <g transform="translate(258.075501 158.038438) scale(0.1 -0.1)">
       <defs>
        <path id="DejaVuSans-36" d="M 2113 2584 
Q 1688 2584 1439 2293 
Q 1191 2003 1191 1497 
Q 1191 994 1439 701 
Q 1688 409 2113 409 
Q 2538 409 2786 701 
Q 3034 994 3034 1497 
Q 3034 2003 2786 2293 
Q 2538 2584 2113 2584 
z
M 3366 4563 
L 3366 3988 
Q 3128 4100 2886 4159 
Q 2644 4219 2406 4219 
Q 1781 4219 1451 3797 
Q 1122 3375 1075 2522 
Q 1259 2794 1537 2939 
Q 1816 3084 2150 3084 
Q 2853 3084 3261 2657 
Q 3669 2231 3669 1497 
Q 3669 778 3244 343 
Q 2819 -91 2113 -91 
Q 1303 -91 875 529 
Q 447 1150 447 2328 
Q 447 3434 972 4092 
Q 1497 4750 2381 4750 
Q 2619 4750 2861 4703 
Q 3103 4656 3366 4563 
z
" transform="scale(0.015625)"/>
       </defs>
       <use xlink:href="#DejaVuSans-36"/>
       <use xlink:href="#DejaVuSans-30" x="63.623047"/>
       <use xlink:href="#DejaVuSans-30" x="127.246094"/>
      </g>
     </g>
    </g>
    <g id="text_8">
     <!-- Training Steps -->
     <g transform="translate(123.951686 171.716563) scale(0.1 -0.1)">
      <defs>
       <path id="DejaVuSans-54" d="M -19 4666 
L 3928 4666 
L 3928 4134 
L 2272 4134 
L 2272 0 
L 1638 0 
L 1638 4134 
L -19 4134 
L -19 4666 
z
" transform="scale(0.015625)"/>
       <path id="DejaVuSans-72" d="M 2631 2963 
Q 2534 3019 2420 3045 
Q 2306 3072 2169 3072 
Q 1681 3072 1420 2755 
Q 1159 2438 1159 1844 
L 1159 0 
L 581 0 
L 581 3500 
L 1159 3500 
L 1159 2956 
Q 1341 3275 1631 3429 
Q 1922 3584 2338 3584 
Q 2397 3584 2469 3576 
Q 2541 3569 2628 3553 
L 2631 2963 
z
" transform="scale(0.015625)"/>
       <path id="DejaVuSans-61" d="M 2194 1759 
Q 1497 1759 1228 1600 
Q 959 1441 959 1056 
Q 959 750 1161 570 
Q 1363 391 1709 391 
Q 2188 391 2477 730 
Q 2766 1069 2766 1631 
L 2766 1759 
L 2194 1759 
z
M 3341 1997 
L 3341 0 
L 2766 0 
L 2766 531 
Q 2569 213 2275 61 
Q 1981 -91 1556 -91 
Q 1019 -91 701 211 
Q 384 513 384 1019 
Q 384 1609 779 1909 
Q 1175 2209 1959 2209 
L 2766 2209 
L 2766 2266 
Q 2766 2663 2505 2880 
Q 2244 3097 1772 3097 
Q 1472 3097 1187 3025 
Q 903 2953 641 2809 
L 641 3341 
Q 956 3463 1253 3523 
Q 1550 3584 1831 3584 
Q 2591 3584 2966 3190 
Q 3341 2797 3341 1997 
z
" transform="scale(0.015625)"/>
       <path id="DejaVuSans-69" d="M 603 3500 
L 1178 3500 
L 1178 0 
L 603 0 
L 603 3500 
z
M 603 4863 
L 1178 4863 
L 1178 4134 
L 603 4134 
L 603 4863 
z
" transform="scale(0.015625)"/>
       <path id="DejaVuSans-6e" d="M 3513 2113 
L 3513 0 
L 2938 0 
L 2938 2094 
Q 2938 2591 2744 2837 
Q 2550 3084 2163 3084 
Q 1697 3084 1428 2787 
Q 1159 2491 1159 1978 
L 1159 0 
L 581 0 
L 581 3500 
L 1159 3500 
L 1159 2956 
Q 1366 3272 1645 3428 
Q 1925 3584 2291 3584 
Q 2894 3584 3203 3211 
Q 3513 2838 3513 2113 
z
" transform="scale(0.015625)"/>
       <path id="DejaVuSans-67" d="M 2906 1791 
Q 2906 2416 2648 2759 
Q 2391 3103 1925 3103 
Q 1463 3103 1205 2759 
Q 947 2416 947 1791 
Q 947 1169 1205 825 
Q 1463 481 1925 481 
Q 2391 481 2648 825 
Q 2906 1169 2906 1791 
z
M 3481 434 
Q 3481 -459 3084 -895 
Q 2688 -1331 1869 -1331 
Q 1566 -1331 1297 -1286 
Q 1028 -1241 775 -1147 
L 775 -588 
Q 1028 -725 1275 -790 
Q 1522 -856 1778 -856 
Q 2344 -856 2625 -561 
Q 2906 -266 2906 331 
L 2906 616 
Q 2728 306 2450 153 
Q 2172 0 1784 0 
Q 1141 0 747 490 
Q 353 981 353 1791 
Q 353 2603 747 3093 
Q 1141 3584 1784 3584 
Q 2172 3584 2450 3431 
Q 2728 3278 2906 2969 
L 2906 3500 
L 3481 3500 
L 3481 434 
z
" transform="scale(0.015625)"/>
       <path id="DejaVuSans-20" transform="scale(0.015625)"/>
       <path id="DejaVuSans-53" d="M 3425 4513 
L 3425 3897 
Q 3066 4069 2747 4153 
Q 2428 4238 2131 4238 
Q 1616 4238 1336 4038 
Q 1056 3838 1056 3469 
Q 1056 3159 1242 3001 
Q 1428 2844 1947 2747 
L 2328 2669 
Q 3034 2534 3370 2195 
Q 3706 1856 3706 1288 
Q 3706 609 3251 259 
Q 2797 -91 1919 -91 
Q 1588 -91 1214 -16 
Q 841 59 441 206 
L 441 856 
Q 825 641 1194 531 
Q 1563 422 1919 422 
Q 2459 422 2753 634 
Q 3047 847 3047 1241 
Q 3047 1584 2836 1778 
Q 2625 1972 2144 2069 
L 1759 2144 
Q 1053 2284 737 2584 
Q 422 2884 422 3419 
Q 422 4038 858 4394 
Q 1294 4750 2059 4750 
Q 2388 4750 2728 4690 
Q 3069 4631 3425 4513 
z
" transform="scale(0.015625)"/>
       <path id="DejaVuSans-74" d="M 1172 4494 
L 1172 3500 
L 2356 3500 
L 2356 3053 
L 1172 3053 
L 1172 1153 
Q 1172 725 1289 603 
Q 1406 481 1766 481 
L 2356 481 
L 2356 0 
L 1766 0 
Q 1100 0 847 248 
Q 594 497 594 1153 
L 594 3053 
L 172 3053 
L 172 3500 
L 594 3500 
L 594 4494 
L 1172 4494 
z
" transform="scale(0.015625)"/>
       <path id="DejaVuSans-65" d="M 3597 1894 
L 3597 1613 
L 953 1613 
Q 991 1019 1311 708 
Q 1631 397 2203 397 
Q 2534 397 2845 478 
Q 3156 559 3463 722 
L 3463 178 
Q 3153 47 2828 -22 
Q 2503 -91 2169 -91 
Q 1331 -91 842 396 
Q 353 884 353 1716 
Q 353 2575 817 3079 
Q 1281 3584 2069 3584 
Q 2775 3584 3186 3129 
Q 3597 2675 3597 1894 
z
M 3022 2063 
Q 3016 2534 2758 2815 
Q 2500 3097 2075 3097 
Q 1594 3097 1305 2825 
Q 1016 2553 972 2059 
L 3022 2063 
z
" transform="scale(0.015625)"/>
       <path id="DejaVuSans-70" d="M 1159 525 
L 1159 -1331 
L 581 -1331 
L 581 3500 
L 1159 3500 
L 1159 2969 
Q 1341 3281 1617 3432 
Q 1894 3584 2278 3584 
Q 2916 3584 3314 3078 
Q 3713 2572 3713 1747 
Q 3713 922 3314 415 
Q 2916 -91 2278 -91 
Q 1894 -91 1617 61 
Q 1341 213 1159 525 
z
M 3116 1747 
Q 3116 2381 2855 2742 
Q 2594 3103 2138 3103 
Q 1681 3103 1420 2742 
Q 1159 2381 1159 1747 
Q 1159 1113 1420 752 
Q 1681 391 2138 391 
Q 2594 391 2855 752 
Q 3116 1113 3116 1747 
z
" transform="scale(0.015625)"/>
       <path id="DejaVuSans-73" d="M 2834 3397 
L 2834 2853 
Q 2591 2978 2328 3040 
Q 2066 3103 1784 3103 
Q 1356 3103 1142 2972 
Q 928 2841 928 2578 
Q 928 2378 1081 2264 
Q 1234 2150 1697 2047 
L 1894 2003 
Q 2506 1872 2764 1633 
Q 3022 1394 3022 966 
Q 3022 478 2636 193 
Q 2250 -91 1575 -91 
Q 1294 -91 989 -36 
Q 684 19 347 128 
L 347 722 
Q 666 556 975 473 
Q 1284 391 1588 391 
Q 1994 391 2212 530 
Q 2431 669 2431 922 
Q 2431 1156 2273 1281 
Q 2116 1406 1581 1522 
L 1381 1569 
Q 847 1681 609 1914 
Q 372 2147 372 2553 
Q 372 3047 722 3315 
Q 1072 3584 1716 3584 
Q 2034 3584 2315 3537 
Q 2597 3491 2834 3397 
z
" transform="scale(0.015625)"/>
      </defs>
      <use xlink:href="#DejaVuSans-54"/>
      <use xlink:href="#DejaVuSans-72" x="46.333984"/>
      <use xlink:href="#DejaVuSans-61" x="87.447266"/>
      <use xlink:href="#DejaVuSans-69" x="148.726562"/>
      <use xlink:href="#DejaVuSans-6e" x="176.509766"/>
      <use xlink:href="#DejaVuSans-69" x="239.888672"/>
      <use xlink:href="#DejaVuSans-6e" x="267.671875"/>
      <use xlink:href="#DejaVuSans-67" x="331.050781"/>
      <use xlink:href="#DejaVuSans-20" x="394.527344"/>
      <use xlink:href="#DejaVuSans-53" x="426.314453"/>
      <use xlink:href="#DejaVuSans-74" x="489.791016"/>
      <use xlink:href="#DejaVuSans-65" x="529"/>
      <use xlink:href="#DejaVuSans-70" x="590.523438"/>
      <use xlink:href="#DejaVuSans-73" x="654"/>
     </g>
    </g>
   </g>
   <g id="matplotlib.axis_2">
    <g id="ytick_1">
     <g id="line2d_15">
      <path d="M 47.81 125.635199 
L 270.702747 125.635199 
" clip-path="url(#p19cb44f672)" style="fill: none; stroke: #808080; stroke-opacity: 0.25; stroke-width: 0.5; stroke-linecap: square"/>
     </g>
     <g id="line2d_16">
      <defs>
       <path id="mebd2d9c84a" d="M 0 0 
L -3.5 0 
" style="stroke: #000000; stroke-width: 0.8"/>
      </defs>
      <g>
       <use xlink:href="#mebd2d9c84a" x="47.81" y="125.635199" style="stroke: #000000; stroke-width: 0.8"/>
      </g>
     </g>
     <g id="text_9">
      <!-- 2.5 -->
      <g transform="translate(24.906875 129.434418) scale(0.1 -0.1)">
       <defs>
        <path id="DejaVuSans-2e" d="M 684 794 
L 1344 794 
L 1344 0 
L 684 0 
L 684 794 
z
" transform="scale(0.015625)"/>
       </defs>
       <use xlink:href="#DejaVuSans-32"/>
       <use xlink:href="#DejaVuSans-2e" x="63.623047"/>
       <use xlink:href="#DejaVuSans-35" x="95.410156"/>
      </g>
     </g>
    </g>
    <g id="ytick_2">
     <g id="line2d_17">
      <path d="M 47.81 98.234989 
L 270.702747 98.234989 
" clip-path="url(#p19cb44f672)" style="fill: none; stroke: #808080; stroke-opacity: 0.25; stroke-width: 0.5; stroke-linecap: square"/>
     </g>
     <g id="line2d_18">
      <g>
       <use xlink:href="#mebd2d9c84a" x="47.81" y="98.234989" style="stroke: #000000; stroke-width: 0.8"/>
      </g>
     </g>
     <g id="text_10">
      <!-- 3.0 -->
      <g transform="translate(24.906875 102.034208) scale(0.1 -0.1)">
       <use xlink:href="#DejaVuSans-33"/>
       <use xlink:href="#DejaVuSans-2e" x="63.623047"/>
       <use xlink:href="#DejaVuSans-30" x="95.410156"/>
      </g>
     </g>
    </g>
    <g id="ytick_3">
     <g id="line2d_19">
      <path d="M 47.81 70.834779 
L 270.702747 70.834779 
" clip-path="url(#p19cb44f672)" style="fill: none; stroke: #808080; stroke-opacity: 0.25; stroke-width: 0.5; stroke-linecap: square"/>
     </g>
     <g id="line2d_20">
      <g>
       <use xlink:href="#mebd2d9c84a" x="47.81" y="70.834779" style="stroke: #000000; stroke-width: 0.8"/>
      </g>
     </g>
     <g id="text_11">
      <!-- 3.5 -->
      <g transform="translate(24.906875 74.633998) scale(0.1 -0.1)">
       <use xlink:href="#DejaVuSans-33"/>
       <use xlink:href="#DejaVuSans-2e" x="63.623047"/>
       <use xlink:href="#DejaVuSans-35" x="95.410156"/>
      </g>
     </g>
    </g>
    <g id="ytick_4">
     <g id="line2d_21">
      <path d="M 47.81 43.434569 
L 270.702747 43.434569 
" clip-path="url(#p19cb44f672)" style="fill: none; stroke: #808080; stroke-opacity: 0.25; stroke-width: 0.5; stroke-linecap: square"/>
     </g>
     <g id="line2d_22">
      <g>
       <use xlink:href="#mebd2d9c84a" x="47.81" y="43.434569" style="stroke: #000000; stroke-width: 0.8"/>
      </g>
     </g>
     <g id="text_12">
      <!-- 4.0 -->
      <g transform="translate(24.906875 47.233788) scale(0.1 -0.1)">
       <use xlink:href="#DejaVuSans-34"/>
       <use xlink:href="#DejaVuSans-2e" x="63.623047"/>
       <use xlink:href="#DejaVuSans-30" x="95.410156"/>
      </g>
     </g>
    </g>
    <g id="ytick_5">
     <g id="line2d_23">
      <path d="M 47.81 16.034359 
L 270.702747 16.034359 
" clip-path="url(#p19cb44f672)" style="fill: none; stroke: #808080; stroke-opacity: 0.25; stroke-width: 0.5; stroke-linecap: square"/>
     </g>
     <g id="line2d_24">
      <g>
       <use xlink:href="#mebd2d9c84a" x="47.81" y="16.034359" style="stroke: #000000; stroke-width: 0.8"/>
      </g>
     </g>
     <g id="text_13">
      <!-- 4.5 -->
      <g transform="translate(24.906875 19.833578) scale(0.1 -0.1)">
       <use xlink:href="#DejaVuSans-34"/>
       <use xlink:href="#DejaVuSans-2e" x="63.623047"/>
       <use xlink:href="#DejaVuSans-35" x="95.410156"/>
      </g>
     </g>
    </g>
    <g id="text_14">
     <!-- BPC Loss -->
     <g transform="translate(18.827187 99.612969) rotate(-90) scale(0.1 -0.1)">
      <defs>
       <path id="DejaVuSans-42" d="M 1259 2228 
L 1259 519 
L 2272 519 
Q 2781 519 3026 730 
Q 3272 941 3272 1375 
Q 3272 1813 3026 2020 
Q 2781 2228 2272 2228 
L 1259 2228 
z
M 1259 4147 
L 1259 2741 
L 2194 2741 
Q 2656 2741 2882 2914 
Q 3109 3088 3109 3444 
Q 3109 3797 2882 3972 
Q 2656 4147 2194 4147 
L 1259 4147 
z
M 628 4666 
L 2241 4666 
Q 2963 4666 3353 4366 
Q 3744 4066 3744 3513 
Q 3744 3084 3544 2831 
Q 3344 2578 2956 2516 
Q 3422 2416 3680 2098 
Q 3938 1781 3938 1306 
Q 3938 681 3513 340 
Q 3088 0 2303 0 
L 628 0 
L 628 4666 
z
" transform="scale(0.015625)"/>
       <path id="DejaVuSans-50" d="M 1259 4147 
L 1259 2394 
L 2053 2394 
Q 2494 2394 2734 2622 
Q 2975 2850 2975 3272 
Q 2975 3691 2734 3919 
Q 2494 4147 2053 4147 
L 1259 4147 
z
M 628 4666 
L 2053 4666 
Q 2838 4666 3239 4311 
Q 3641 3956 3641 3272 
Q 3641 2581 3239 2228 
Q 2838 1875 2053 1875 
L 1259 1875 
L 1259 0 
L 628 0 
L 628 4666 
z
" transform="scale(0.015625)"/>
       <path id="DejaVuSans-43" d="M 4122 4306 
L 4122 3641 
Q 3803 3938 3442 4084 
Q 3081 4231 2675 4231 
Q 1875 4231 1450 3742 
Q 1025 3253 1025 2328 
Q 1025 1406 1450 917 
Q 1875 428 2675 428 
Q 3081 428 3442 575 
Q 3803 722 4122 1019 
L 4122 359 
Q 3791 134 3420 21 
Q 3050 -91 2638 -91 
Q 1578 -91 968 557 
Q 359 1206 359 2328 
Q 359 3453 968 4101 
Q 1578 4750 2638 4750 
Q 3056 4750 3426 4639 
Q 3797 4528 4122 4306 
z
" transform="scale(0.015625)"/>
       <path id="DejaVuSans-4c" d="M 628 4666 
L 1259 4666 
L 1259 531 
L 3531 531 
L 3531 0 
L 628 0 
L 628 4666 
z
" transform="scale(0.015625)"/>
       <path id="DejaVuSans-6f" d="M 1959 3097 
Q 1497 3097 1228 2736 
Q 959 2375 959 1747 
Q 959 1119 1226 758 
Q 1494 397 1959 397 
Q 2419 397 2687 759 
Q 2956 1122 2956 1747 
Q 2956 2369 2687 2733 
Q 2419 3097 1959 3097 
z
M 1959 3584 
Q 2709 3584 3137 3096 
Q 3566 2609 3566 1747 
Q 3566 888 3137 398 
Q 2709 -91 1959 -91 
Q 1206 -91 779 398 
Q 353 888 353 1747 
Q 353 2609 779 3096 
Q 1206 3584 1959 3584 
z
" transform="scale(0.015625)"/>
      </defs>
      <use xlink:href="#DejaVuSans-42"/>
      <use xlink:href="#DejaVuSans-50" x="68.603516"/>
      <use xlink:href="#DejaVuSans-43" x="128.90625"/>
      <use xlink:href="#DejaVuSans-20" x="198.730469"/>
      <use xlink:href="#DejaVuSans-4c" x="230.517578"/>
      <use xlink:href="#DejaVuSans-6f" x="284.480469"/>
      <use xlink:href="#DejaVuSans-73" x="345.662109"/>
      <use xlink:href="#DejaVuSans-73" x="397.761719"/>
     </g>
    </g>
   </g>
   <g id="line2d_25">
    <path d="M 57.941489 16.280042 
L 59.703487 31.269089 
L 61.465485 44.058547 
L 63.227483 59.32022 
L 64.989481 74.079602 
L 66.751479 88.026769 
L 68.513477 96.415835 
L 70.275475 103.767824 
L 72.037473 105.705967 
L 73.799471 104.998947 
L 75.561469 108.655062 
L 77.323467 111.995047 
L 79.085465 111.501015 
L 80.847463 111.108465 
L 82.609461 109.154068 
L 84.371459 113.157895 
L 86.133457 113.677124 
L 87.895455 114.095446 
L 89.657453 114.867573 
L 91.419451 113.171979 
L 93.181449 112.043145 
L 94.943447 116.216511 
L 96.705445 115.479976 
L 98.467443 116.138444 
L 100.229441 118.95529 
L 101.991439 117.046262 
L 103.753437 114.215584 
L 105.515435 117.868026 
L 107.277433 117.111084 
L 109.039431 117.096834 
L 110.801429 114.156385 
L 112.563427 117.979222 
L 114.325425 116.397375 
L 116.087423 117.138594 
L 117.849421 117.63391 
L 119.611419 118.274907 
L 121.373417 118.818425 
L 123.135415 120.472121 
L 124.897413 117.454212 
L 126.659411 120.921021 
L 128.421409 118.581531 
L 130.183407 117.185617 
L 131.945405 118.178297 
L 133.707403 115.891169 
L 135.469401 118.383654 
L 137.231399 119.623417 
L 138.993397 118.598965 
L 140.755395 121.619655 
L 142.517393 119.838242 
L 144.279391 118.140522 
L 146.041389 119.739346 
L 147.803387 115.695234 
L 149.565385 116.66405 
L 151.327383 120.107995 
L 153.089381 119.749559 
L 154.851379 121.044125 
L 156.613377 121.161236 
L 158.375375 121.089521 
L 160.137373 117.201693 
L 161.899371 121.234689 
L 163.661369 120.430932 
L 165.423367 120.390146 
L 167.185365 120.514805 
L 168.947363 121.183939 
L 170.709361 121.480593 
L 172.471359 122.996607 
L 174.233357 121.200174 
L 175.995355 119.043465 
L 177.757353 122.508196 
L 179.519351 120.023978 
L 181.281349 120.1181 
L 183.043347 117.872301 
L 184.805345 119.785424 
L 186.567343 125.35541 
L 188.329341 119.588241 
L 190.091339 122.475147 
L 191.853337 122.380229 
L 193.615335 119.897085 
L 195.377333 121.56886 
L 197.139331 121.889942 
L 198.901329 121.777874 
L 200.663327 124.846602 
L 202.425325 122.746672 
L 204.187323 118.491191 
L 205.949321 122.573798 
L 207.711319 125.038137 
L 209.473317 117.501804 
L 211.235315 122.778787 
L 212.997313 119.858575 
L 214.759311 121.941123 
L 216.521309 123.245643 
L 218.283307 122.361661 
L 220.045305 123.887953 
L 221.807303 121.988311 
L 223.569301 121.016404 
L 225.331299 120.504485 
L 227.093297 120.956295 
L 228.855295 125.010053 
L 230.617293 124.236919 
L 232.379291 121.16359 
L 234.141289 124.717575 
L 235.903287 123.148709 
L 237.665285 122.745494 
L 239.427283 121.505106 
L 241.189281 123.118019 
L 242.951279 123.019618 
L 244.713277 122.795327 
L 246.475275 123.972664 
L 248.237273 120.776262 
L 249.999271 122.404581 
L 251.761269 122.512763 
L 253.523267 122.513954 
L 255.285265 119.973131 
L 257.047263 122.500514 
L 258.809261 119.643425 
L 260.571259 120.514952 
" clip-path="url(#p19cb44f672)" style="fill: none; stroke: #4e9a84; stroke-width: 1.5; stroke-linecap: square"/>
   </g>
   <g id="line2d_26">
    <path d="M 57.941489 45.286513 
L 59.703487 53.851006 
L 61.465485 66.898277 
L 63.227483 70.959473 
L 64.989481 85.042101 
L 66.751479 102.421882 
L 68.513477 108.50647 
L 70.275475 114.893667 
L 72.037473 116.925443 
L 73.799471 115.788559 
L 75.561469 120.670208 
L 77.323467 117.717574 
L 79.085465 119.854212 
L 80.847463 119.806607 
L 82.609461 120.535971 
L 84.371459 119.587862 
L 86.133457 123.706105 
L 87.895455 122.601388 
L 89.657453 124.092894 
L 91.419451 123.913983 
L 93.181449 126.829931 
L 94.943447 125.437713 
L 96.705445 123.923591 
L 98.467443 124.704761 
L 100.229441 126.052533 
L 101.991439 126.556406 
L 103.753437 127.060149 
L 105.515435 127.684973 
L 107.277433 124.261917 
L 109.039431 125.892213 
L 110.801429 126.465193 
L 112.563427 125.953836 
L 114.325425 125.209554 
L 116.087423 127.312324 
L 117.849421 129.418547 
L 119.611419 126.319032 
L 121.373417 127.150448 
L 123.135415 129.470793 
L 124.897413 129.313111 
L 126.659411 127.555869 
L 128.421409 126.263593 
L 130.183407 126.171665 
L 131.945405 127.857468 
L 133.707403 128.388816 
L 135.469401 129.143691 
L 137.231399 129.480588 
L 138.993397 125.758676 
L 140.755395 130.622742 
L 142.517393 131.048173 
L 144.279391 127.506629 
L 146.041389 128.328593 
L 147.803387 130.585715 
L 149.565385 127.413446 
L 151.327383 128.371833 
L 153.089381 131.11526 
L 154.851379 129.519023 
L 156.613377 129.157842 
L 158.375375 129.718628 
L 160.137373 130.072034 
L 161.899371 130.14469 
L 163.661369 132.606151 
L 165.423367 128.179951 
L 167.185365 127.831861 
L 168.947363 131.339037 
L 170.709361 132.583567 
L 172.471359 130.483413 
L 174.233357 130.387999 
L 175.995355 131.548282 
L 177.757353 127.907135 
L 179.519351 128.633279 
L 181.281349 130.572813 
L 183.043347 131.271555 
L 184.805345 129.677807 
L 186.567343 134.486251 
L 188.329341 129.564434 
L 190.091339 128.449518 
L 191.853337 131.21465 
L 193.615335 132.947644 
L 195.377333 131.246286 
L 197.139331 131.172397 
L 198.901329 133.29573 
L 200.663327 133.305054 
L 202.425325 129.642898 
L 204.187323 128.147088 
L 205.949321 132.879829 
L 207.711319 132.890571 
L 209.473317 132.291711 
L 211.235315 130.446592 
L 212.997313 131.697172 
L 214.759311 132.674019 
L 216.521309 131.12283 
L 218.283307 131.960108 
L 220.045305 134.642027 
L 221.807303 132.342769 
L 223.569301 131.231955 
L 225.331299 132.256551 
L 227.093297 131.873844 
L 228.855295 135.588627 
L 230.617293 135.40016 
L 232.379291 132.765139 
L 234.141289 131.417519 
L 235.903287 130.159244 
L 237.665285 133.050369 
L 239.427283 130.458628 
L 241.189281 133.297869 
L 242.951279 133.293822 
L 244.713277 130.871537 
L 246.475275 132.42782 
L 248.237273 130.925033 
L 249.999271 131.570374 
L 251.761269 133.636339 
L 253.523267 131.554489 
L 255.285265 132.236892 
L 257.047263 132.531965 
L 258.809261 128.943428 
L 260.571259 129.813079 
" clip-path="url(#p19cb44f672)" style="fill: none; stroke: #438d77; stroke-width: 1.5; stroke-linecap: square"/>
   </g>
   <g id="line2d_27">
    <path d="M 57.941489 40.78731 
L 59.703487 48.827374 
L 61.465485 63.275862 
L 63.227483 68.17218 
L 64.989481 86.837617 
L 66.751479 99.380806 
L 68.513477 107.19891 
L 70.275475 117.881388 
L 72.037473 121.841485 
L 73.799471 120.745341 
L 75.561469 118.904844 
L 77.323467 119.200432 
L 79.085465 121.490291 
L 80.847463 122.091988 
L 82.609461 123.303734 
L 84.371459 121.755241 
L 86.133457 123.735058 
L 87.895455 125.795304 
L 89.657453 126.10494 
L 91.419451 126.006664 
L 93.181449 125.618519 
L 94.943447 127.215095 
L 96.705445 127.558707 
L 98.467443 126.465457 
L 100.229441 129.288336 
L 101.991439 128.749352 
L 103.753437 126.598363 
L 105.515435 127.106986 
L 107.277433 125.754918 
L 109.039431 129.096705 
L 110.801429 128.42695 
L 112.563427 130.636597 
L 114.325425 126.747134 
L 116.087423 130.32982 
L 117.849421 129.037006 
L 119.611419 129.326648 
L 121.373417 130.961379 
L 123.135415 131.323274 
L 124.897413 130.02496 
L 126.659411 129.343268 
L 128.421409 133.155794 
L 130.183407 130.078189 
L 131.945405 128.022206 
L 133.707403 129.818731 
L 135.469401 132.220703 
L 137.231399 130.015948 
L 138.993397 130.944223 
L 140.755395 133.059293 
L 142.517393 130.044927 
L 144.279391 131.403693 
L 146.041389 130.109514 
L 147.803387 129.80364 
L 149.565385 130.739483 
L 151.327383 131.511399 
L 153.089381 133.92082 
L 154.851379 129.701478 
L 156.613377 130.076936 
L 158.375375 131.878418 
L 160.137373 129.990012 
L 161.899371 129.488458 
L 163.661369 135.20687 
L 165.423367 132.245335 
L 167.185365 130.665485 
L 168.947363 132.837702 
L 170.709361 132.915139 
L 172.471359 134.511748 
L 174.233357 133.693776 
L 175.995355 133.957289 
L 177.757353 131.237557 
L 179.519351 130.04285 
L 181.281349 130.816777 
L 183.043347 132.650171 
L 184.805345 131.848004 
L 186.567343 134.926654 
L 188.329341 132.049105 
L 190.091339 133.225508 
L 191.853337 132.383457 
L 193.615335 133.728671 
L 195.377333 132.55187 
L 197.139331 132.491069 
L 198.901329 133.081292 
L 200.663327 134.191348 
L 202.425325 134.873041 
L 204.187323 130.699693 
L 205.949321 133.413288 
L 207.711319 136.474283 
L 209.473317 132.251888 
L 211.235315 134.41847 
L 212.997313 131.95286 
L 214.759311 134.349996 
L 216.521309 132.595322 
L 218.283307 135.702598 
L 220.045305 133.287353 
L 221.807303 132.912778 
L 223.569301 132.626452 
L 225.331299 134.395185 
L 227.093297 133.709169 
L 228.855295 136.40875 
L 230.617293 134.103288 
L 232.379291 134.803552 
L 234.141289 136.148758 
L 235.903287 132.715915 
L 237.665285 134.748285 
L 239.427283 133.862225 
L 241.189281 134.940913 
L 242.951279 135.179744 
L 244.713277 133.347663 
L 246.475275 132.12072 
L 248.237273 132.774153 
L 249.999271 133.887306 
L 251.761269 132.70429 
L 253.523267 133.449446 
L 255.285265 134.962688 
L 257.047263 136.063754 
L 258.809261 134.230311 
L 260.571259 134.040414 
" clip-path="url(#p19cb44f672)" style="fill: none; stroke: #367d6a; stroke-width: 1.5; stroke-linecap: square"/>
   </g>
   <g id="line2d_28">
    <path d="M 57.941489 39.600964 
L 59.703487 48.37383 
L 61.465485 63.472126 
L 63.227483 66.787256 
L 64.989481 82.937598 
L 66.751479 97.847182 
L 68.513477 109.202413 
L 70.275475 116.242925 
L 72.037473 122.169316 
L 73.799471 121.564237 
L 75.561469 122.459909 
L 77.323467 122.568841 
L 79.085465 122.988765 
L 80.847463 123.012705 
L 82.609461 125.082637 
L 84.371459 124.972685 
L 86.133457 126.05018 
L 87.895455 127.763785 
L 89.657453 123.113517 
L 91.419451 127.511909 
L 93.181449 125.952482 
L 94.943447 127.847708 
L 96.705445 128.761282 
L 98.467443 127.575575 
L 100.229441 131.243802 
L 101.991439 127.852853 
L 103.753437 129.329592 
L 105.515435 128.90746 
L 107.277433 128.754781 
L 109.039431 128.493806 
L 110.801429 128.929809 
L 112.563427 129.571546 
L 114.325425 129.441676 
L 116.087423 129.877226 
L 117.849421 130.298558 
L 119.611419 129.666489 
L 121.373417 130.638612 
L 123.135415 130.520336 
L 124.897413 130.762636 
L 126.659411 131.985837 
L 128.421409 130.941645 
L 130.183407 131.206948 
L 131.945405 128.579452 
L 133.707403 132.587963 
L 135.469401 130.821734 
L 137.231399 130.466496 
L 138.993397 131.035977 
L 140.755395 131.999519 
L 142.517393 132.310745 
L 144.279391 133.461599 
L 146.041389 130.793408 
L 147.803387 132.435615 
L 149.565385 132.105689 
L 151.327383 130.296604 
L 153.089381 133.24855 
L 154.851379 131.309803 
L 156.613377 132.642208 
L 158.375375 133.785224 
L 160.137373 132.209043 
L 161.899371 132.434058 
L 163.661369 135.314775 
L 165.423367 132.917083 
L 167.185365 132.934952 
L 168.947363 134.432339 
L 170.709361 132.422004 
L 172.471359 135.105573 
L 174.233357 136.139717 
L 175.995355 132.604127 
L 177.757353 131.657214 
L 179.519351 132.109749 
L 181.281349 134.880564 
L 183.043347 133.111177 
L 184.805345 132.762107 
L 186.567343 136.632239 
L 188.329341 134.094124 
L 190.091339 134.702932 
L 191.853337 136.72994 
L 193.615335 134.672244 
L 195.377333 131.179175 
L 197.139331 134.317314 
L 198.901329 132.622494 
L 200.663327 137.193412 
L 202.425325 134.990067 
L 204.187323 134.413678 
L 205.949321 133.441741 
L 207.711319 135.93689 
L 209.473317 135.28954 
L 211.235315 134.724129 
L 212.997313 134.534325 
L 214.759311 134.010209 
L 216.521309 134.912553 
L 218.283307 134.819111 
L 220.045305 134.985319 
L 221.807303 136.007512 
L 223.569301 133.320411 
L 225.331299 134.509838 
L 227.093297 135.711223 
L 228.855295 138.071871 
L 230.617293 136.528092 
L 232.379291 137.740706 
L 234.141289 136.111846 
L 235.903287 135.944795 
L 237.665285 135.752726 
L 239.427283 134.459669 
L 241.189281 136.976781 
L 242.951279 136.318315 
L 244.713277 134.989541 
L 246.475275 134.546141 
L 248.237273 134.465755 
L 249.999271 132.386778 
L 251.761269 135.987393 
L 253.523267 137.68461 
L 255.285265 135.264126 
L 257.047263 135.919183 
L 258.809261 135.32496 
L 260.571259 134.584007 
" clip-path="url(#p19cb44f672)" style="fill: none; stroke: #295e57; stroke-width: 1.5; stroke-linecap: square"/>
   </g>
   <g id="patch_3">
    <path d="M 47.81 143.44 
L 47.81 10.8 
" style="fill: none; stroke: #000000; stroke-width: 0.8; stroke-linejoin: miter; stroke-linecap: square"/>
   </g>
   <g id="patch_4">
    <path d="M 270.702747 143.44 
L 270.702747 10.8 
" style="fill: none; stroke: #000000; stroke-width: 0.8; stroke-linejoin: miter; stroke-linecap: square"/>
   </g>
   <g id="patch_5">
    <path d="M 47.81 143.44 
L 270.702747 143.44 
" style="fill: none; stroke: #000000; stroke-width: 0.8; stroke-linejoin: miter; stroke-linecap: square"/>
   </g>
   <g id="patch_6">
    <path d="M 47.81 10.8 
L 270.702747 10.8 
" style="fill: none; stroke: #000000; stroke-width: 0.8; stroke-linejoin: miter; stroke-linecap: square"/>
   </g>
   <g id="legend_1">
    <g id="patch_7">
     <path d="M 209.162269 67.298225 
L 264.871747 67.298225 
Q 266.537747 67.298225 266.537747 65.632225 
L 266.537747 16.631 
Q 266.537747 14.965 264.871747 14.965 
L 209.162269 14.965 
Q 207.496269 14.965 207.496269 16.631 
L 207.496269 65.632225 
Q 207.496269 67.298225 209.162269 67.298225 
z
" style="fill: #ffffff; opacity: 0.8; stroke: #cccccc; stroke-linejoin: miter"/>
    </g>
    <g id="line2d_29">
     <path d="M 210.828269 21.710998 
L 219.158269 21.710998 
L 227.488269 21.710998 
" style="fill: none; stroke: #4e9a84; stroke-width: 1.5; stroke-linecap: square"/>
    </g>
    <g id="text_15">
     <!-- es_10k -->
     <g transform="translate(234.152269 24.626498) scale(0.0833 -0.0833)">
      <defs>
       <path id="DejaVuSans-5f" d="M 3263 -1063 
L 3263 -1509 
L -63 -1509 
L -63 -1063 
L 3263 -1063 
z
" transform="scale(0.015625)"/>
       <path id="DejaVuSans-6b" d="M 581 4863 
L 1159 4863 
L 1159 1991 
L 2875 3500 
L 3609 3500 
L 1753 1863 
L 3688 0 
L 2938 0 
L 1159 1709 
L 1159 0 
L 581 0 
L 581 4863 
z
" transform="scale(0.015625)"/>
      </defs>
      <use xlink:href="#DejaVuSans-65"/>
      <use xlink:href="#DejaVuSans-73" x="61.523438"/>
      <use xlink:href="#DejaVuSans-5f" x="113.623047"/>
      <use xlink:href="#DejaVuSans-31" x="163.623047"/>
      <use xlink:href="#DejaVuSans-30" x="227.246094"/>
      <use xlink:href="#DejaVuSans-6b" x="290.869141"/>
     </g>
    </g>
    <g id="line2d_30">
     <path d="M 210.828269 34.169555 
L 219.158269 34.169555 
L 227.488269 34.169555 
" style="fill: none; stroke: #438d77; stroke-width: 1.5; stroke-linecap: square"/>
    </g>
    <g id="text_16">
     <!-- es_20k -->
     <g transform="translate(234.152269 37.085055) scale(0.0833 -0.0833)">
      <use xlink:href="#DejaVuSans-65"/>
      <use xlink:href="#DejaVuSans-73" x="61.523438"/>
      <use xlink:href="#DejaVuSans-5f" x="113.623047"/>
      <use xlink:href="#DejaVuSans-32" x="163.623047"/>
      <use xlink:href="#DejaVuSans-30" x="227.246094"/>
      <use xlink:href="#DejaVuSans-6b" x="290.869141"/>
     </g>
    </g>
    <g id="line2d_31">
     <path d="M 210.828269 46.628111 
L 219.158269 46.628111 
L 227.488269 46.628111 
" style="fill: none; stroke: #367d6a; stroke-width: 1.5; stroke-linecap: square"/>
    </g>
    <g id="text_17">
     <!-- es_30k -->
     <g transform="translate(234.152269 49.543611) scale(0.0833 -0.0833)">
      <use xlink:href="#DejaVuSans-65"/>
      <use xlink:href="#DejaVuSans-73" x="61.523438"/>
      <use xlink:href="#DejaVuSans-5f" x="113.623047"/>
      <use xlink:href="#DejaVuSans-33" x="163.623047"/>
      <use xlink:href="#DejaVuSans-30" x="227.246094"/>
      <use xlink:href="#DejaVuSans-6b" x="290.869141"/>
     </g>
    </g>
    <g id="line2d_32">
     <path d="M 210.828269 59.086667 
L 219.158269 59.086667 
L 227.488269 59.086667 
" style="fill: none; stroke: #295e57; stroke-width: 1.5; stroke-linecap: square"/>
    </g>
    <g id="text_18">
     <!-- es_40k -->
     <g transform="translate(234.152269 62.002167) scale(0.0833 -0.0833)">
      <use xlink:href="#DejaVuSans-65"/>
      <use xlink:href="#DejaVuSans-73" x="61.523438"/>
      <use xlink:href="#DejaVuSans-5f" x="113.623047"/>
      <use xlink:href="#DejaVuSans-34" x="163.623047"/>
      <use xlink:href="#DejaVuSans-30" x="227.246094"/>
      <use xlink:href="#DejaVuSans-6b" x="290.869141"/>
     </g>
    </g>
   </g>
  </g>
  <g id="axes_2">
   <g id="patch_8">
    <path d="M 47.81 318.04 
L 270.702747 318.04 
L 270.702747 185.4 
L 47.81 185.4 
z
" style="fill: #ffffff"/>
   </g>
   <g id="matplotlib.axis_3">
    <g id="xtick_8">
     <g id="line2d_33">
      <path d="M 56.179491 318.04 
L 56.179491 185.4 
" clip-path="url(#p0a20b089dd)" style="fill: none; stroke: #808080; stroke-opacity: 0.25; stroke-width: 0.5; stroke-linecap: square"/>
     </g>
     <g id="line2d_34">
      <g>
       <use xlink:href="#m6ac3e0afff" x="56.179491" y="318.04" style="stroke: #000000; stroke-width: 0.8"/>
      </g>
     </g>
     <g id="text_19">
      <!-- 0 -->
      <g transform="translate(52.998241 332.638438) scale(0.1 -0.1)">
       <use xlink:href="#DejaVuSans-30"/>
      </g>
     </g>
    </g>
    <g id="xtick_9">
     <g id="line2d_35">
      <path d="M 91.419451 318.04 
L 91.419451 185.4 
" clip-path="url(#p0a20b089dd)" style="fill: none; stroke: #808080; stroke-opacity: 0.25; stroke-width: 0.5; stroke-linecap: square"/>
     </g>
     <g id="line2d_36">
      <g>
       <use xlink:href="#m6ac3e0afff" x="91.419451" y="318.04" style="stroke: #000000; stroke-width: 0.8"/>
      </g>
     </g>
     <g id="text_20">
      <!-- 100 -->
      <g transform="translate(81.875701 332.638438) scale(0.1 -0.1)">
       <use xlink:href="#DejaVuSans-31"/>
       <use xlink:href="#DejaVuSans-30" x="63.623047"/>
       <use xlink:href="#DejaVuSans-30" x="127.246094"/>
      </g>
     </g>
    </g>
    <g id="xtick_10">
     <g id="line2d_37">
      <path d="M 126.659411 318.04 
L 126.659411 185.4 
" clip-path="url(#p0a20b089dd)" style="fill: none; stroke: #808080; stroke-opacity: 0.25; stroke-width: 0.5; stroke-linecap: square"/>
     </g>
     <g id="line2d_38">
      <g>
       <use xlink:href="#m6ac3e0afff" x="126.659411" y="318.04" style="stroke: #000000; stroke-width: 0.8"/>
      </g>
     </g>
     <g id="text_21">
      <!-- 200 -->
      <g transform="translate(117.115661 332.638438) scale(0.1 -0.1)">
       <use xlink:href="#DejaVuSans-32"/>
       <use xlink:href="#DejaVuSans-30" x="63.623047"/>
       <use xlink:href="#DejaVuSans-30" x="127.246094"/>
      </g>
     </g>
    </g>
    <g id="xtick_11">
     <g id="line2d_39">
      <path d="M 161.899371 318.04 
L 161.899371 185.4 
" clip-path="url(#p0a20b089dd)" style="fill: none; stroke: #808080; stroke-opacity: 0.25; stroke-width: 0.5; stroke-linecap: square"/>
     </g>
     <g id="line2d_40">
      <g>
       <use xlink:href="#m6ac3e0afff" x="161.899371" y="318.04" style="stroke: #000000; stroke-width: 0.8"/>
      </g>
     </g>
     <g id="text_22">
      <!-- 300 -->
      <g transform="translate(152.355621 332.638438) scale(0.1 -0.1)">
       <use xlink:href="#DejaVuSans-33"/>
       <use xlink:href="#DejaVuSans-30" x="63.623047"/>
       <use xlink:href="#DejaVuSans-30" x="127.246094"/>
      </g>
     </g>
    </g>
    <g id="xtick_12">
     <g id="line2d_41">
      <path d="M 197.139331 318.04 
L 197.139331 185.4 
" clip-path="url(#p0a20b089dd)" style="fill: none; stroke: #808080; stroke-opacity: 0.25; stroke-width: 0.5; stroke-linecap: square"/>
     </g>
     <g id="line2d_42">
      <g>
       <use xlink:href="#m6ac3e0afff" x="197.139331" y="318.04" style="stroke: #000000; stroke-width: 0.8"/>
      </g>
     </g>
     <g id="text_23">
      <!-- 400 -->
      <g transform="translate(187.595581 332.638438) scale(0.1 -0.1)">
       <use xlink:href="#DejaVuSans-34"/>
       <use xlink:href="#DejaVuSans-30" x="63.623047"/>
       <use xlink:href="#DejaVuSans-30" x="127.246094"/>
      </g>
     </g>
    </g>
    <g id="xtick_13">
     <g id="line2d_43">
      <path d="M 232.379291 318.04 
L 232.379291 185.4 
" clip-path="url(#p0a20b089dd)" style="fill: none; stroke: #808080; stroke-opacity: 0.25; stroke-width: 0.5; stroke-linecap: square"/>
     </g>
     <g id="line2d_44">
      <g>
       <use xlink:href="#m6ac3e0afff" x="232.379291" y="318.04" style="stroke: #000000; stroke-width: 0.8"/>
      </g>
     </g>
     <g id="text_24">
      <!-- 500 -->
      <g transform="translate(222.835541 332.638438) scale(0.1 -0.1)">
       <use xlink:href="#DejaVuSans-35"/>
       <use xlink:href="#DejaVuSans-30" x="63.623047"/>
       <use xlink:href="#DejaVuSans-30" x="127.246094"/>
      </g>
     </g>
    </g>
    <g id="xtick_14">
     <g id="line2d_45">
      <path d="M 267.619251 318.04 
L 267.619251 185.4 
" clip-path="url(#p0a20b089dd)" style="fill: none; stroke: #808080; stroke-opacity: 0.25; stroke-width: 0.5; stroke-linecap: square"/>
     </g>
     <g id="line2d_46">
      <g>
       <use xlink:href="#m6ac3e0afff" x="267.619251" y="318.04" style="stroke: #000000; stroke-width: 0.8"/>
      </g>
     </g>
     <g id="text_25">
      <!-- 600 -->
      <g transform="translate(258.075501 332.638438) scale(0.1 -0.1)">
       <use xlink:href="#DejaVuSans-36"/>
       <use xlink:href="#DejaVuSans-30" x="63.623047"/>
       <use xlink:href="#DejaVuSans-30" x="127.246094"/>
      </g>
     </g>
    </g>
    <g id="text_26">
     <!-- Training Steps -->
     <g transform="translate(123.951686 346.316563) scale(0.1 -0.1)">
      <use xlink:href="#DejaVuSans-54"/>
      <use xlink:href="#DejaVuSans-72" x="46.333984"/>
      <use xlink:href="#DejaVuSans-61" x="87.447266"/>
      <use xlink:href="#DejaVuSans-69" x="148.726562"/>
      <use xlink:href="#DejaVuSans-6e" x="176.509766"/>
      <use xlink:href="#DejaVuSans-69" x="239.888672"/>
      <use xlink:href="#DejaVuSans-6e" x="267.671875"/>
      <use xlink:href="#DejaVuSans-67" x="331.050781"/>
      <use xlink:href="#DejaVuSans-20" x="394.527344"/>
      <use xlink:href="#DejaVuSans-53" x="426.314453"/>
      <use xlink:href="#DejaVuSans-74" x="489.791016"/>
      <use xlink:href="#DejaVuSans-65" x="529"/>
      <use xlink:href="#DejaVuSans-70" x="590.523438"/>
      <use xlink:href="#DejaVuSans-73" x="654"/>
     </g>
    </g>
   </g>
   <g id="matplotlib.axis_4">
    <g id="ytick_6">
     <g id="line2d_47">
      <path d="M 47.81 300.235199 
L 270.702747 300.235199 
" clip-path="url(#p0a20b089dd)" style="fill: none; stroke: #808080; stroke-opacity: 0.25; stroke-width: 0.5; stroke-linecap: square"/>
     </g>
     <g id="line2d_48">
      <g>
       <use xlink:href="#mebd2d9c84a" x="47.81" y="300.235199" style="stroke: #000000; stroke-width: 0.8"/>
      </g>
     </g>
     <g id="text_27">
      <!-- 2.5 -->
      <g transform="translate(24.906875 304.034418) scale(0.1 -0.1)">
       <use xlink:href="#DejaVuSans-32"/>
       <use xlink:href="#DejaVuSans-2e" x="63.623047"/>
       <use xlink:href="#DejaVuSans-35" x="95.410156"/>
      </g>
     </g>
    </g>
    <g id="ytick_7">
     <g id="line2d_49">
      <path d="M 47.81 272.834989 
L 270.702747 272.834989 
" clip-path="url(#p0a20b089dd)" style="fill: none; stroke: #808080; stroke-opacity: 0.25; stroke-width: 0.5; stroke-linecap: square"/>
     </g>
     <g id="line2d_50">
      <g>
       <use xlink:href="#mebd2d9c84a" x="47.81" y="272.834989" style="stroke: #000000; stroke-width: 0.8"/>
      </g>
     </g>
     <g id="text_28">
      <!-- 3.0 -->
      <g transform="translate(24.906875 276.634208) scale(0.1 -0.1)">
       <use xlink:href="#DejaVuSans-33"/>
       <use xlink:href="#DejaVuSans-2e" x="63.623047"/>
       <use xlink:href="#DejaVuSans-30" x="95.410156"/>
      </g>
     </g>
    </g>
    <g id="ytick_8">
     <g id="line2d_51">
      <path d="M 47.81 245.434779 
L 270.702747 245.434779 
" clip-path="url(#p0a20b089dd)" style="fill: none; stroke: #808080; stroke-opacity: 0.25; stroke-width: 0.5; stroke-linecap: square"/>
     </g>
     <g id="line2d_52">
      <g>
       <use xlink:href="#mebd2d9c84a" x="47.81" y="245.434779" style="stroke: #000000; stroke-width: 0.8"/>
      </g>
     </g>
     <g id="text_29">
      <!-- 3.5 -->
      <g transform="translate(24.906875 249.233998) scale(0.1 -0.1)">
       <use xlink:href="#DejaVuSans-33"/>
       <use xlink:href="#DejaVuSans-2e" x="63.623047"/>
       <use xlink:href="#DejaVuSans-35" x="95.410156"/>
      </g>
     </g>
    </g>
    <g id="ytick_9">
     <g id="line2d_53">
      <path d="M 47.81 218.034569 
L 270.702747 218.034569 
" clip-path="url(#p0a20b089dd)" style="fill: none; stroke: #808080; stroke-opacity: 0.25; stroke-width: 0.5; stroke-linecap: square"/>
     </g>
     <g id="line2d_54">
      <g>
       <use xlink:href="#mebd2d9c84a" x="47.81" y="218.034569" style="stroke: #000000; stroke-width: 0.8"/>
      </g>
     </g>
     <g id="text_30">
      <!-- 4.0 -->
      <g transform="translate(24.906875 221.833788) scale(0.1 -0.1)">
       <use xlink:href="#DejaVuSans-34"/>
       <use xlink:href="#DejaVuSans-2e" x="63.623047"/>
       <use xlink:href="#DejaVuSans-30" x="95.410156"/>
      </g>
     </g>
    </g>
    <g id="ytick_10">
     <g id="line2d_55">
      <path d="M 47.81 190.634359 
L 270.702747 190.634359 
" clip-path="url(#p0a20b089dd)" style="fill: none; stroke: #808080; stroke-opacity: 0.25; stroke-width: 0.5; stroke-linecap: square"/>
     </g>
     <g id="line2d_56">
      <g>
       <use xlink:href="#mebd2d9c84a" x="47.81" y="190.634359" style="stroke: #000000; stroke-width: 0.8"/>
      </g>
     </g>
     <g id="text_31">
      <!-- 4.5 -->
      <g transform="translate(24.906875 194.433578) scale(0.1 -0.1)">
       <use xlink:href="#DejaVuSans-34"/>
       <use xlink:href="#DejaVuSans-2e" x="63.623047"/>
       <use xlink:href="#DejaVuSans-35" x="95.410156"/>
      </g>
     </g>
    </g>
    <g id="text_32">
     <!-- BPC Loss -->
     <g transform="translate(18.827187 274.212969) rotate(-90) scale(0.1 -0.1)">
      <use xlink:href="#DejaVuSans-42"/>
      <use xlink:href="#DejaVuSans-50" x="68.603516"/>
      <use xlink:href="#DejaVuSans-43" x="128.90625"/>
      <use xlink:href="#DejaVuSans-20" x="198.730469"/>
      <use xlink:href="#DejaVuSans-4c" x="230.517578"/>
      <use xlink:href="#DejaVuSans-6f" x="284.480469"/>
      <use xlink:href="#DejaVuSans-73" x="345.662109"/>
      <use xlink:href="#DejaVuSans-73" x="397.761719"/>
     </g>
    </g>
   </g>
   <g id="line2d_57">
    <path d="M 57.941489 237.416121 
L 59.703487 242.472772 
L 61.465485 249.042949 
L 63.227483 253.570526 
L 64.989481 263.903845 
L 66.751479 272.028981 
L 68.513477 276.707805 
L 70.275475 275.628836 
L 72.037473 279.739291 
L 73.799471 280.691801 
L 75.561469 281.285151 
L 77.323467 279.111615 
L 79.085465 281.890407 
L 80.847463 285.648236 
L 82.609461 284.950806 
L 84.371459 285.615675 
L 86.133457 283.858283 
L 87.895455 287.222572 
L 89.657453 286.256238 
L 91.419451 286.788783 
L 93.181449 289.345315 
L 94.943447 287.276254 
L 96.705445 288.521839 
L 98.467443 290.341584 
L 100.229441 288.030402 
L 101.991439 292.711432 
L 103.753437 288.591876 
L 105.515435 289.898075 
L 107.277433 292.577158 
L 109.039431 290.274399 
L 110.801429 290.918882 
L 112.563427 292.706441 
L 114.325425 291.272776 
L 116.087423 290.805339 
L 117.849421 293.168896 
L 119.611419 290.312718 
L 121.373417 294.878615 
L 123.135415 291.56444 
L 124.897413 290.93747 
L 126.659411 294.1068 
L 128.421409 293.223903 
L 130.183407 292.812697 
L 131.945405 293.30865 
L 133.707403 293.728318 
L 135.469401 295.131675 
L 137.231399 295.297525 
L 138.993397 292.659229 
L 140.755395 296.592168 
L 142.517393 296.342351 
L 144.279391 293.682588 
L 146.041389 294.766751 
L 147.803387 293.287827 
L 149.565385 294.456551 
L 151.327383 295.290057 
L 153.089381 294.647002 
L 154.851379 295.977896 
L 156.613377 295.469586 
L 158.375375 295.171113 
L 160.137373 297.505146 
L 161.899371 296.11505 
L 163.661369 296.97463 
L 165.423367 295.678183 
L 167.185365 297.537046 
L 168.947363 299.146978 
L 170.709361 296.238152 
L 172.471359 295.576267 
L 174.233357 295.988841 
L 175.995355 296.540754 
L 177.757353 295.165146 
L 179.519351 296.156194 
L 181.281349 297.055601 
L 183.043347 294.257579 
L 184.805345 296.484304 
L 186.567343 299.818811 
L 188.329341 296.215483 
L 190.091339 297.451613 
L 191.853337 297.301225 
L 193.615335 297.787077 
L 195.377333 296.614421 
L 197.139331 297.892656 
L 198.901329 298.372687 
L 200.663327 300.356514 
L 202.425325 296.251834 
L 204.187323 296.408018 
L 205.949321 297.06902 
L 207.711319 296.555319 
L 209.473317 297.929847 
L 211.235315 296.017295 
L 212.997313 297.596191 
L 214.759311 297.56031 
L 216.521309 296.038761 
L 218.283307 299.294854 
L 220.045305 296.613556 
L 221.807303 296.608331 
L 223.569301 296.002427 
L 225.331299 299.115138 
L 227.093297 297.683088 
L 228.855295 300.606179 
L 230.617293 296.565285 
L 232.379291 298.708172 
L 234.141289 296.179892 
L 235.903287 298.521474 
L 237.665285 299.986526 
L 239.427283 295.282162 
L 241.189281 298.782709 
L 242.951279 294.812205 
L 244.713277 296.354302 
L 246.475275 297.93984 
L 248.237273 296.666717 
L 249.999271 297.547011 
L 251.761269 297.880937 
L 253.523267 298.460728 
L 255.285265 297.31439 
L 257.047263 295.374286 
L 258.809261 298.430106 
L 260.571259 296.611754 
" clip-path="url(#p0a20b089dd)" style="fill: none; stroke: #68b3c7; stroke-width: 1.5; stroke-linecap: square"/>
   </g>
   <g id="line2d_58">
    <path d="M 57.941489 256.027753 
L 59.703487 258.963395 
L 61.465485 265.060748 
L 63.227483 267.590073 
L 64.989481 279.001742 
L 66.751479 285.408765 
L 68.513477 290.211162 
L 70.275475 290.906931 
L 72.037473 289.026684 
L 73.799471 292.658274 
L 75.561469 292.116769 
L 77.323467 291.809297 
L 79.085465 292.739557 
L 80.847463 296.779539 
L 82.609461 294.320452 
L 84.371459 295.331542 
L 86.133457 294.009516 
L 87.895455 296.73492 
L 89.657453 296.255013 
L 91.419451 296.797324 
L 93.181449 298.62826 
L 94.943447 299.140418 
L 96.705445 298.994992 
L 98.467443 301.930433 
L 100.229441 296.458115 
L 101.991439 301.634407 
L 103.753437 299.610608 
L 105.515435 299.854684 
L 107.277433 301.204941 
L 109.039431 299.08833 
L 110.801429 298.762312 
L 112.563427 301.562825 
L 114.325425 299.176911 
L 116.087423 302.750962 
L 117.849421 302.995825 
L 119.611419 299.264325 
L 121.373417 302.736642 
L 123.135415 302.300486 
L 124.897413 301.965505 
L 126.659411 303.532974 
L 128.421409 302.246469 
L 130.183407 300.661806 
L 131.945405 302.58755 
L 133.707403 303.196463 
L 135.469401 303.408009 
L 137.231399 305.959195 
L 138.993397 304.278011 
L 140.755395 305.848879 
L 142.517393 305.565463 
L 144.279391 304.057221 
L 146.041389 303.946395 
L 147.803387 302.157481 
L 149.565385 304.439282 
L 151.327383 304.923223 
L 153.089381 305.771785 
L 154.851379 303.962536 
L 156.613377 304.249205 
L 158.375375 304.980829 
L 160.137373 305.305492 
L 161.899371 306.348942 
L 163.661369 305.840324 
L 165.423367 304.922259 
L 167.185365 304.268861 
L 168.947363 308.490084 
L 170.709361 306.93727 
L 172.471359 306.899235 
L 174.233357 306.544993 
L 175.995355 306.288085 
L 177.757353 306.191906 
L 179.519351 307.266221 
L 181.281349 308.628314 
L 183.043347 307.212129 
L 184.805345 307.585617 
L 186.567343 308.237612 
L 188.329341 308.268252 
L 190.091339 306.366783 
L 191.853337 308.379471 
L 193.615335 307.703257 
L 195.377333 306.094125 
L 197.139331 308.937597 
L 198.901329 306.904201 
L 200.663327 308.292845 
L 202.425325 307.143832 
L 204.187323 305.093312 
L 205.949321 306.150629 
L 207.711319 305.591954 
L 209.473317 306.983155 
L 211.235315 305.918452 
L 212.997313 304.773798 
L 214.759311 304.243924 
L 216.521309 305.713332 
L 218.283307 307.409359 
L 220.045305 307.238582 
L 221.807303 305.851263 
L 223.569301 307.431243 
L 225.331299 308.035118 
L 227.093297 307.765095 
L 228.855295 307.630858 
L 230.617293 307.704533 
L 232.379291 307.764746 
L 234.141289 308.791372 
L 235.903287 308.584694 
L 237.665285 308.318158 
L 239.427283 307.289368 
L 241.189281 306.689201 
L 242.951279 305.870092 
L 244.713277 309.131588 
L 246.475275 309.350296 
L 248.237273 306.903858 
L 249.999271 308.618505 
L 251.761269 307.631091 
L 253.523267 307.721658 
L 255.285265 304.98921 
L 257.047263 304.947951 
L 258.809261 306.667609 
L 260.571259 309.026186 
" clip-path="url(#p0a20b089dd)" style="fill: none; stroke: #4da1b4; stroke-width: 1.5; stroke-linecap: square"/>
   </g>
   <g id="line2d_59">
    <path d="M 57.941489 253.128706 
L 59.703487 260.794465 
L 61.465485 265.577416 
L 63.227483 268.581431 
L 64.989481 278.65328 
L 66.751479 284.683107 
L 68.513477 291.800421 
L 70.275475 294.567903 
L 72.037473 294.44287 
L 73.799471 294.664111 
L 75.561469 294.565598 
L 77.323467 294.036719 
L 79.085465 293.276147 
L 80.847463 294.707983 
L 82.609461 296.809212 
L 84.371459 298.622475 
L 86.133457 297.500628 
L 87.895455 299.027861 
L 89.657453 297.791057 
L 91.419451 297.655182 
L 93.181449 301.088119 
L 94.943447 300.251106 
L 96.705445 301.59974 
L 98.467443 303.142668 
L 100.229441 303.197066 
L 101.991439 303.006028 
L 103.753437 302.067019 
L 105.515435 303.650453 
L 107.277433 302.640823 
L 109.039431 300.889047 
L 110.801429 301.714561 
L 112.563427 303.852721 
L 114.325425 300.405367 
L 116.087423 301.661969 
L 117.849421 304.727865 
L 119.611419 303.593368 
L 121.373417 305.066127 
L 123.135415 305.517745 
L 124.897413 303.568589 
L 126.659411 305.392535 
L 128.421409 304.29188 
L 130.183407 303.376241 
L 131.945405 306.646056 
L 133.707403 305.949018 
L 135.469401 304.936494 
L 137.231399 305.201756 
L 138.993397 306.797205 
L 140.755395 307.491343 
L 142.517393 305.918567 
L 144.279391 306.642203 
L 146.041389 304.669708 
L 147.803387 305.975668 
L 149.565385 307.513027 
L 151.327383 304.979969 
L 153.089381 306.450994 
L 154.851379 307.491389 
L 156.613377 306.169003 
L 158.375375 307.907404 
L 160.137373 309.627388 
L 161.899371 309.256628 
L 163.661369 308.588642 
L 165.423367 306.880163 
L 167.185365 308.398661 
L 168.947363 310.310753 
L 170.709361 308.546725 
L 172.471359 309.487945 
L 174.233357 308.04428 
L 175.995355 308.749941 
L 177.757353 308.347373 
L 179.519351 308.224868 
L 181.281349 309.186867 
L 183.043347 307.125107 
L 184.805345 307.819792 
L 186.567343 311.084577 
L 188.329341 309.70441 
L 190.091339 308.507657 
L 191.853337 310.050625 
L 193.615335 311.479912 
L 195.377333 307.954681 
L 197.139331 309.824685 
L 198.901329 309.943506 
L 200.663327 312.343864 
L 202.425325 309.636261 
L 204.187323 309.265791 
L 205.949321 308.020348 
L 207.711319 309.008076 
L 209.473317 309.455599 
L 211.235315 309.138802 
L 212.997313 309.570286 
L 214.759311 306.506255 
L 216.521309 309.329978 
L 218.283307 309.088821 
L 220.045305 311.766288 
L 221.807303 310.997875 
L 223.569301 308.988772 
L 225.331299 309.871996 
L 227.093297 310.042211 
L 228.855295 312.504625 
L 230.617293 309.826517 
L 232.379291 311.328843 
L 234.141289 310.038333 
L 235.903287 310.904993 
L 237.665285 311.696776 
L 239.427283 309.780324 
L 241.189281 310.06961 
L 242.951279 309.399143 
L 244.713277 309.881723 
L 246.475275 311.680106 
L 248.237273 310.198086 
L 249.999271 311.689327 
L 251.761269 311.006596 
L 253.523267 310.458519 
L 255.285265 309.223362 
L 257.047263 307.084926 
L 258.809261 311.402083 
L 260.571259 310.929435 
" clip-path="url(#p0a20b089dd)" style="fill: none; stroke: #3b7d98; stroke-width: 1.5; stroke-linecap: square"/>
   </g>
   <g id="line2d_60">
    <path d="M 57.941489 255.339172 
L 59.703487 259.758778 
L 61.465485 263.901017 
L 63.227483 269.42372 
L 64.989481 278.864785 
L 66.751479 289.789584 
L 68.513477 292.282743 
L 70.275475 294.303855 
L 72.037473 297.63663 
L 73.799471 296.827462 
L 75.561469 298.669532 
L 77.323467 296.993793 
L 79.085465 295.324805 
L 80.847463 298.962014 
L 82.609461 298.62339 
L 84.371459 299.568823 
L 86.133457 301.548264 
L 87.895455 300.932999 
L 89.657453 301.753503 
L 91.419451 302.870939 
L 93.181449 302.88787 
L 94.943447 303.403037 
L 96.705445 303.003175 
L 98.467443 305.003932 
L 100.229441 305.600503 
L 101.991439 304.903626 
L 103.753437 301.83404 
L 105.515435 306.112878 
L 107.277433 303.443734 
L 109.039431 305.255089 
L 110.801429 305.380577 
L 112.563427 305.295155 
L 114.325425 302.281773 
L 116.087423 306.13088 
L 117.849421 305.275682 
L 119.611419 306.321312 
L 121.373417 306.382645 
L 123.135415 306.485915 
L 124.897413 306.429869 
L 126.659411 305.807837 
L 128.421409 306.16215 
L 130.183407 307.206084 
L 131.945405 307.526324 
L 133.707403 306.237051 
L 135.469401 305.108561 
L 137.231399 309.479493 
L 138.993397 308.34827 
L 140.755395 310.439996 
L 142.517393 309.157003 
L 144.279391 307.352599 
L 146.041389 308.882745 
L 147.803387 305.148646 
L 149.565385 307.978669 
L 151.327383 308.183699 
L 153.089381 310.325698 
L 154.851379 309.593218 
L 156.613377 309.880754 
L 158.375375 309.523943 
L 160.137373 310.290648 
L 161.899371 310.991502 
L 163.661369 311.208708 
L 165.423367 309.177866 
L 167.185365 307.855684 
L 168.947363 312.207594 
L 170.709361 310.287941 
L 172.471359 312.065187 
L 174.233357 309.457881 
L 175.995355 309.233033 
L 177.757353 310.358936 
L 179.519351 309.87734 
L 181.281349 310.673587 
L 183.043347 308.746501 
L 184.805345 309.946327 
L 186.567343 308.661796 
L 188.329341 312.347814 
L 190.091339 311.246605 
L 191.853337 310.074842 
L 193.615335 312.818182 
L 195.377333 309.874367 
L 197.139331 309.222303 
L 198.901329 312.07465 
L 200.663327 312.367109 
L 202.425325 311.365448 
L 204.187323 310.885526 
L 205.949321 311.357092 
L 207.711319 309.816726 
L 209.473317 310.452849 
L 211.235315 310.523973 
L 212.997313 311.021 
L 214.759311 310.004482 
L 216.521309 311.911236 
L 218.283307 311.453283 
L 220.045305 310.507294 
L 221.807303 311.577988 
L 223.569301 312.306246 
L 225.331299 312.977667 
L 227.093297 311.132106 
L 228.855295 312.813463 
L 230.617293 312.963357 
L 232.379291 311.623547 
L 234.141289 314.429901 
L 235.903287 312.281341 
L 237.665285 314.358168 
L 239.427283 311.933718 
L 241.189281 312.038146 
L 242.951279 310.755934 
L 244.713277 311.501542 
L 246.475275 310.402307 
L 248.237273 312.978656 
L 249.999271 312.75544 
L 251.761269 312.678103 
L 253.523267 312.804149 
L 255.285265 310.742724 
L 257.047263 311.313021 
L 258.809261 310.744122 
L 260.571259 313.442152 
" clip-path="url(#p0a20b089dd)" style="fill: none; stroke: #2c5b73; stroke-width: 1.5; stroke-linecap: square"/>
   </g>
   <g id="patch_9">
    <path d="M 47.81 318.04 
L 47.81 185.4 
" style="fill: none; stroke: #000000; stroke-width: 0.8; stroke-linejoin: miter; stroke-linecap: square"/>
   </g>
   <g id="patch_10">
    <path d="M 270.702747 318.04 
L 270.702747 185.4 
" style="fill: none; stroke: #000000; stroke-width: 0.8; stroke-linejoin: miter; stroke-linecap: square"/>
   </g>
   <g id="patch_11">
    <path d="M 47.81 318.04 
L 270.702747 318.04 
" style="fill: none; stroke: #000000; stroke-width: 0.8; stroke-linejoin: miter; stroke-linecap: square"/>
   </g>
   <g id="patch_12">
    <path d="M 47.81 185.4 
L 270.702747 185.4 
" style="fill: none; stroke: #000000; stroke-width: 0.8; stroke-linejoin: miter; stroke-linecap: square"/>
   </g>
   <g id="legend_2">
    <g id="patch_13">
     <path d="M 211.9372 241.898225 
L 264.871747 241.898225 
Q 266.537747 241.898225 266.537747 240.232225 
L 266.537747 191.231 
Q 266.537747 189.565 264.871747 189.565 
L 211.9372 189.565 
Q 210.2712 189.565 210.2712 191.231 
L 210.2712 240.232225 
Q 210.2712 241.898225 211.9372 241.898225 
z
" style="fill: #ffffff; opacity: 0.8; stroke: #cccccc; stroke-linejoin: miter"/>
    </g>
    <g id="line2d_61">
     <path d="M 213.6032 196.310998 
L 221.9332 196.310998 
L 230.2632 196.310998 
" style="fill: none; stroke: #68b3c7; stroke-width: 1.5; stroke-linecap: square"/>
    </g>
    <g id="text_33">
     <!-- tr_10k -->
     <g transform="translate(236.9272 199.226498) scale(0.0833 -0.0833)">
      <use xlink:href="#DejaVuSans-74"/>
      <use xlink:href="#DejaVuSans-72" x="39.208984"/>
      <use xlink:href="#DejaVuSans-5f" x="80.322266"/>
      <use xlink:href="#DejaVuSans-31" x="130.322266"/>
      <use xlink:href="#DejaVuSans-30" x="193.945312"/>
      <use xlink:href="#DejaVuSans-6b" x="257.568359"/>
     </g>
    </g>
    <g id="line2d_62">
     <path d="M 213.6032 208.769555 
L 221.9332 208.769555 
L 230.2632 208.769555 
" style="fill: none; stroke: #4da1b4; stroke-width: 1.5; stroke-linecap: square"/>
    </g>
    <g id="text_34">
     <!-- tr_20k -->
     <g transform="translate(236.9272 211.685055) scale(0.0833 -0.0833)">
      <use xlink:href="#DejaVuSans-74"/>
      <use xlink:href="#DejaVuSans-72" x="39.208984"/>
      <use xlink:href="#DejaVuSans-5f" x="80.322266"/>
      <use xlink:href="#DejaVuSans-32" x="130.322266"/>
      <use xlink:href="#DejaVuSans-30" x="193.945312"/>
      <use xlink:href="#DejaVuSans-6b" x="257.568359"/>
     </g>
    </g>
    <g id="line2d_63">
     <path d="M 213.6032 221.228111 
L 221.9332 221.228111 
L 230.2632 221.228111 
" style="fill: none; stroke: #3b7d98; stroke-width: 1.5; stroke-linecap: square"/>
    </g>
    <g id="text_35">
     <!-- tr_30k -->
     <g transform="translate(236.9272 224.143611) scale(0.0833 -0.0833)">
      <use xlink:href="#DejaVuSans-74"/>
      <use xlink:href="#DejaVuSans-72" x="39.208984"/>
      <use xlink:href="#DejaVuSans-5f" x="80.322266"/>
      <use xlink:href="#DejaVuSans-33" x="130.322266"/>
      <use xlink:href="#DejaVuSans-30" x="193.945312"/>
      <use xlink:href="#DejaVuSans-6b" x="257.568359"/>
     </g>
    </g>
    <g id="line2d_64">
     <path d="M 213.6032 233.686667 
L 221.9332 233.686667 
L 230.2632 233.686667 
" style="fill: none; stroke: #2c5b73; stroke-width: 1.5; stroke-linecap: square"/>
    </g>
    <g id="text_36">
     <!-- tr_40k -->
     <g transform="translate(236.9272 236.602167) scale(0.0833 -0.0833)">
      <use xlink:href="#DejaVuSans-74"/>
      <use xlink:href="#DejaVuSans-72" x="39.208984"/>
      <use xlink:href="#DejaVuSans-5f" x="80.322266"/>
      <use xlink:href="#DejaVuSans-34" x="130.322266"/>
      <use xlink:href="#DejaVuSans-30" x="193.945312"/>
      <use xlink:href="#DejaVuSans-6b" x="257.568359"/>
     </g>
    </g>
   </g>
  </g>
 </g>
 <defs>
  <clipPath id="p19cb44f672">
   <rect x="47.81" y="10.8" width="222.892747" height="132.64"/>
  </clipPath>
  <clipPath id="p0a20b089dd">
   <rect x="47.81" y="185.4" width="222.892747" height="132.64"/>
  </clipPath>
 </defs>
</svg>
