<?xml version="1.0" encoding="utf-8" standalone="no"?>
<!DOCTYPE svg PUBLIC "-//W3C//DTD SVG 1.1//EN"
  "http://www.w3.org/Graphics/SVG/1.1/DTD/svg11.dtd">
<svg xmlns:xlink="http://www.w3.org/1999/xlink" width="288pt" height="360pt" viewBox="0 0 288 360" xmlns="http://www.w3.org/2000/svg" version="1.1">
 <metadata>
  <rdf:RDF xmlns:dc="http://purl.org/dc/elements/1.1/" xmlns:cc="http://creativecommons.org/ns#" xmlns:rdf="http://www.w3.org/1999/02/22-rdf-syntax-ns#">
   <cc:Work>
    <dc:type rdf:resource="http://purl.org/dc/dcmitype/StillImage"/>
    <dc:date>2024-12-17T16:34:31.763706</dc:date>
    <dc:format>image/svg+xml</dc:format>
    <dc:creator>
     <cc:Agent>
      <dc:title>Matplotlib v3.8.0, https://matplotlib.org/</dc:title>
     </cc:Agent>
    </dc:creator>
   </cc:Work>
  </rdf:RDF>
 </metadata>
 <defs>
  <style type="text/css">*{stroke-linejoin: round; stroke-linecap: butt}</style>
 </defs>
 <g id="figure_1">
  <g id="patch_1">
   <path d="M 0 360 
L 288 360 
L 288 0 
L 0 0 
z
" style="fill: #ffffff"/>
  </g>
  <g id="axes_1">
   <g id="patch_2">
    <path d="M 44.66 143.44 
L 270.702747 143.44 
L 270.702747 10.8 
L 44.66 10.8 
z
" style="fill: #ffffff"/>
   </g>
   <g id="matplotlib.axis_1">
    <g id="xtick_1">
     <g id="line2d_1">
      <path d="M 53.147771 143.44 
L 53.147771 10.8 
" clip-path="url(#p1c6b86994d)" style="fill: none; stroke: #808080; stroke-opacity: 0.25; stroke-width: 0.5; stroke-linecap: square"/>
     </g>
     <g id="line2d_2">
      <defs>
       <path id="ma392a96ff9" d="M 0 0 
L 0 3.5 
" style="stroke: #000000; stroke-width: 0.8"/>
      </defs>
      <g>
       <use xlink:href="#ma392a96ff9" x="53.147771" y="143.44" style="stroke: #000000; stroke-width: 0.8"/>
      </g>
     </g>
     <g id="text_1">
      <!-- 0 -->
      <g transform="translate(49.966521 158.038438) scale(0.1 -0.1)">
       <defs>
        <path id="DejaVuSans-30" d="M 2034 4250 
Q 1547 4250 1301 3770 
Q 1056 3291 1056 2328 
Q 1056 1369 1301 889 
Q 1547 409 2034 409 
Q 2525 409 2770 889 
Q 3016 1369 3016 2328 
Q 3016 3291 2770 3770 
Q 2525 4250 2034 4250 
z
M 2034 4750 
Q 2819 4750 3233 4129 
Q 3647 3509 3647 2328 
Q 3647 1150 3233 529 
Q 2819 -91 2034 -91 
Q 1250 -91 836 529 
Q 422 1150 422 2328 
Q 422 3509 836 4129 
Q 1250 4750 2034 4750 
z
" transform="scale(0.015625)"/>
       </defs>
       <use xlink:href="#DejaVuSans-30"/>
      </g>
     </g>
    </g>
    <g id="xtick_2">
     <g id="line2d_3">
      <path d="M 88.885755 143.44 
L 88.885755 10.8 
" clip-path="url(#p1c6b86994d)" style="fill: none; stroke: #808080; stroke-opacity: 0.25; stroke-width: 0.5; stroke-linecap: square"/>
     </g>
     <g id="line2d_4">
      <g>
       <use xlink:href="#ma392a96ff9" x="88.885755" y="143.44" style="stroke: #000000; stroke-width: 0.8"/>
      </g>
     </g>
     <g id="text_2">
      <!-- 100 -->
      <g transform="translate(79.342005 158.038438) scale(0.1 -0.1)">
       <defs>
        <path id="DejaVuSans-31" d="M 794 531 
L 1825 531 
L 1825 4091 
L 703 3866 
L 703 4441 
L 1819 4666 
L 2450 4666 
L 2450 531 
L 3481 531 
L 3481 0 
L 794 0 
L 794 531 
z
" transform="scale(0.015625)"/>
       </defs>
       <use xlink:href="#DejaVuSans-31"/>
       <use xlink:href="#DejaVuSans-30" x="63.623047"/>
       <use xlink:href="#DejaVuSans-30" x="127.246094"/>
      </g>
     </g>
    </g>
    <g id="xtick_3">
     <g id="line2d_5">
      <path d="M 124.623739 143.44 
L 124.623739 10.8 
" clip-path="url(#p1c6b86994d)" style="fill: none; stroke: #808080; stroke-opacity: 0.25; stroke-width: 0.5; stroke-linecap: square"/>
     </g>
     <g id="line2d_6">
      <g>
       <use xlink:href="#ma392a96ff9" x="124.623739" y="143.44" style="stroke: #000000; stroke-width: 0.8"/>
      </g>
     </g>
     <g id="text_3">
      <!-- 200 -->
      <g transform="translate(115.079989 158.038438) scale(0.1 -0.1)">
       <defs>
        <path id="DejaVuSans-32" d="M 1228 531 
L 3431 531 
L 3431 0 
L 469 0 
L 469 531 
Q 828 903 1448 1529 
Q 2069 2156 2228 2338 
Q 2531 2678 2651 2914 
Q 2772 3150 2772 3378 
Q 2772 3750 2511 3984 
Q 2250 4219 1831 4219 
Q 1534 4219 1204 4116 
Q 875 4013 500 3803 
L 500 4441 
Q 881 4594 1212 4672 
Q 1544 4750 1819 4750 
Q 2544 4750 2975 4387 
Q 3406 4025 3406 3419 
Q 3406 3131 3298 2873 
Q 3191 2616 2906 2266 
Q 2828 2175 2409 1742 
Q 1991 1309 1228 531 
z
" transform="scale(0.015625)"/>
       </defs>
       <use xlink:href="#DejaVuSans-32"/>
       <use xlink:href="#DejaVuSans-30" x="63.623047"/>
       <use xlink:href="#DejaVuSans-30" x="127.246094"/>
      </g>
     </g>
    </g>
    <g id="xtick_4">
     <g id="line2d_7">
      <path d="M 160.361722 143.44 
L 160.361722 10.8 
" clip-path="url(#p1c6b86994d)" style="fill: none; stroke: #808080; stroke-opacity: 0.25; stroke-width: 0.5; stroke-linecap: square"/>
     </g>
     <g id="line2d_8">
      <g>
       <use xlink:href="#ma392a96ff9" x="160.361722" y="143.44" style="stroke: #000000; stroke-width: 0.8"/>
      </g>
     </g>
     <g id="text_4">
      <!-- 300 -->
      <g transform="translate(150.817972 158.038438) scale(0.1 -0.1)">
       <defs>
        <path id="DejaVuSans-33" d="M 2597 2516 
Q 3050 2419 3304 2112 
Q 3559 1806 3559 1356 
Q 3559 666 3084 287 
Q 2609 -91 1734 -91 
Q 1441 -91 1130 -33 
Q 819 25 488 141 
L 488 750 
Q 750 597 1062 519 
Q 1375 441 1716 441 
Q 2309 441 2620 675 
Q 2931 909 2931 1356 
Q 2931 1769 2642 2001 
Q 2353 2234 1838 2234 
L 1294 2234 
L 1294 2753 
L 1863 2753 
Q 2328 2753 2575 2939 
Q 2822 3125 2822 3475 
Q 2822 3834 2567 4026 
Q 2313 4219 1838 4219 
Q 1578 4219 1281 4162 
Q 984 4106 628 3988 
L 628 4550 
Q 988 4650 1302 4700 
Q 1616 4750 1894 4750 
Q 2613 4750 3031 4423 
Q 3450 4097 3450 3541 
Q 3450 3153 3228 2886 
Q 3006 2619 2597 2516 
z
" transform="scale(0.015625)"/>
       </defs>
       <use xlink:href="#DejaVuSans-33"/>
       <use xlink:href="#DejaVuSans-30" x="63.623047"/>
       <use xlink:href="#DejaVuSans-30" x="127.246094"/>
      </g>
     </g>
    </g>
    <g id="xtick_5">
     <g id="line2d_9">
      <path d="M 196.099706 143.44 
L 196.099706 10.8 
" clip-path="url(#p1c6b86994d)" style="fill: none; stroke: #808080; stroke-opacity: 0.25; stroke-width: 0.5; stroke-linecap: square"/>
     </g>
     <g id="line2d_10">
      <g>
       <use xlink:href="#ma392a96ff9" x="196.099706" y="143.44" style="stroke: #000000; stroke-width: 0.8"/>
      </g>
     </g>
     <g id="text_5">
      <!-- 400 -->
      <g transform="translate(186.555956 158.038438) scale(0.1 -0.1)">
       <defs>
        <path id="DejaVuSans-34" d="M 2419 4116 
L 825 1625 
L 2419 1625 
L 2419 4116 
z
M 2253 4666 
L 3047 4666 
L 3047 1625 
L 3713 1625 
L 3713 1100 
L 3047 1100 
L 3047 0 
L 2419 0 
L 2419 1100 
L 313 1100 
L 313 1709 
L 2253 4666 
z
" transform="scale(0.015625)"/>
       </defs>
       <use xlink:href="#DejaVuSans-34"/>
       <use xlink:href="#DejaVuSans-30" x="63.623047"/>
       <use xlink:href="#DejaVuSans-30" x="127.246094"/>
      </g>
     </g>
    </g>
    <g id="xtick_6">
     <g id="line2d_11">
      <path d="M 231.83769 143.44 
L 231.83769 10.8 
" clip-path="url(#p1c6b86994d)" style="fill: none; stroke: #808080; stroke-opacity: 0.25; stroke-width: 0.5; stroke-linecap: square"/>
     </g>
     <g id="line2d_12">
      <g>
       <use xlink:href="#ma392a96ff9" x="231.83769" y="143.44" style="stroke: #000000; stroke-width: 0.8"/>
      </g>
     </g>
     <g id="text_6">
      <!-- 500 -->
      <g transform="translate(222.29394 158.038438) scale(0.1 -0.1)">
       <defs>
        <path id="DejaVuSans-35" d="M 691 4666 
L 3169 4666 
L 3169 4134 
L 1269 4134 
L 1269 2991 
Q 1406 3038 1543 3061 
Q 1681 3084 1819 3084 
Q 2600 3084 3056 2656 
Q 3513 2228 3513 1497 
Q 3513 744 3044 326 
Q 2575 -91 1722 -91 
Q 1428 -91 1123 -41 
Q 819 9 494 109 
L 494 744 
Q 775 591 1075 516 
Q 1375 441 1709 441 
Q 2250 441 2565 725 
Q 2881 1009 2881 1497 
Q 2881 1984 2565 2268 
Q 2250 2553 1709 2553 
Q 1456 2553 1204 2497 
Q 953 2441 691 2322 
L 691 4666 
z
" transform="scale(0.015625)"/>
       </defs>
       <use xlink:href="#DejaVuSans-35"/>
       <use xlink:href="#DejaVuSans-30" x="63.623047"/>
       <use xlink:href="#DejaVuSans-30" x="127.246094"/>
      </g>
     </g>
    </g>
    <g id="xtick_7">
     <g id="line2d_13">
      <path d="M 267.575673 143.44 
L 267.575673 10.8 
" clip-path="url(#p1c6b86994d)" style="fill: none; stroke: #808080; stroke-opacity: 0.25; stroke-width: 0.5; stroke-linecap: square"/>
     </g>
     <g id="line2d_14">
      <g>
       <use xlink:href="#ma392a96ff9" x="267.575673" y="143.44" style="stroke: #000000; stroke-width: 0.8"/>
      </g>
     </g>
     <g id="text_7">
      <!-- 600 -->
      <g transform="translate(258.031923 158.038438) scale(0.1 -0.1)">
       <defs>
        <path id="DejaVuSans-36" d="M 2113 2584 
Q 1688 2584 1439 2293 
Q 1191 2003 1191 1497 
Q 1191 994 1439 701 
Q 1688 409 2113 409 
Q 2538 409 2786 701 
Q 3034 994 3034 1497 
Q 3034 2003 2786 2293 
Q 2538 2584 2113 2584 
z
M 3366 4563 
L 3366 3988 
Q 3128 4100 2886 4159 
Q 2644 4219 2406 4219 
Q 1781 4219 1451 3797 
Q 1122 3375 1075 2522 
Q 1259 2794 1537 2939 
Q 1816 3084 2150 3084 
Q 2853 3084 3261 2657 
Q 3669 2231 3669 1497 
Q 3669 778 3244 343 
Q 2819 -91 2113 -91 
Q 1303 -91 875 529 
Q 447 1150 447 2328 
Q 447 3434 972 4092 
Q 1497 4750 2381 4750 
Q 2619 4750 2861 4703 
Q 3103 4656 3366 4563 
z
" transform="scale(0.015625)"/>
       </defs>
       <use xlink:href="#DejaVuSans-36"/>
       <use xlink:href="#DejaVuSans-30" x="63.623047"/>
       <use xlink:href="#DejaVuSans-30" x="127.246094"/>
      </g>
     </g>
    </g>
    <g id="text_8">
     <!-- Training Steps -->
     <g transform="translate(122.376686 171.716563) scale(0.1 -0.1)">
      <defs>
       <path id="DejaVuSans-54" d="M -19 4666 
L 3928 4666 
L 3928 4134 
L 2272 4134 
L 2272 0 
L 1638 0 
L 1638 4134 
L -19 4134 
L -19 4666 
z
" transform="scale(0.015625)"/>
       <path id="DejaVuSans-72" d="M 2631 2963 
Q 2534 3019 2420 3045 
Q 2306 3072 2169 3072 
Q 1681 3072 1420 2755 
Q 1159 2438 1159 1844 
L 1159 0 
L 581 0 
L 581 3500 
L 1159 3500 
L 1159 2956 
Q 1341 3275 1631 3429 
Q 1922 3584 2338 3584 
Q 2397 3584 2469 3576 
Q 2541 3569 2628 3553 
L 2631 2963 
z
" transform="scale(0.015625)"/>
       <path id="DejaVuSans-61" d="M 2194 1759 
Q 1497 1759 1228 1600 
Q 959 1441 959 1056 
Q 959 750 1161 570 
Q 1363 391 1709 391 
Q 2188 391 2477 730 
Q 2766 1069 2766 1631 
L 2766 1759 
L 2194 1759 
z
M 3341 1997 
L 3341 0 
L 2766 0 
L 2766 531 
Q 2569 213 2275 61 
Q 1981 -91 1556 -91 
Q 1019 -91 701 211 
Q 384 513 384 1019 
Q 384 1609 779 1909 
Q 1175 2209 1959 2209 
L 2766 2209 
L 2766 2266 
Q 2766 2663 2505 2880 
Q 2244 3097 1772 3097 
Q 1472 3097 1187 3025 
Q 903 2953 641 2809 
L 641 3341 
Q 956 3463 1253 3523 
Q 1550 3584 1831 3584 
Q 2591 3584 2966 3190 
Q 3341 2797 3341 1997 
z
" transform="scale(0.015625)"/>
       <path id="DejaVuSans-69" d="M 603 3500 
L 1178 3500 
L 1178 0 
L 603 0 
L 603 3500 
z
M 603 4863 
L 1178 4863 
L 1178 4134 
L 603 4134 
L 603 4863 
z
" transform="scale(0.015625)"/>
       <path id="DejaVuSans-6e" d="M 3513 2113 
L 3513 0 
L 2938 0 
L 2938 2094 
Q 2938 2591 2744 2837 
Q 2550 3084 2163 3084 
Q 1697 3084 1428 2787 
Q 1159 2491 1159 1978 
L 1159 0 
L 581 0 
L 581 3500 
L 1159 3500 
L 1159 2956 
Q 1366 3272 1645 3428 
Q 1925 3584 2291 3584 
Q 2894 3584 3203 3211 
Q 3513 2838 3513 2113 
z
" transform="scale(0.015625)"/>
       <path id="DejaVuSans-67" d="M 2906 1791 
Q 2906 2416 2648 2759 
Q 2391 3103 1925 3103 
Q 1463 3103 1205 2759 
Q 947 2416 947 1791 
Q 947 1169 1205 825 
Q 1463 481 1925 481 
Q 2391 481 2648 825 
Q 2906 1169 2906 1791 
z
M 3481 434 
Q 3481 -459 3084 -895 
Q 2688 -1331 1869 -1331 
Q 1566 -1331 1297 -1286 
Q 1028 -1241 775 -1147 
L 775 -588 
Q 1028 -725 1275 -790 
Q 1522 -856 1778 -856 
Q 2344 -856 2625 -561 
Q 2906 -266 2906 331 
L 2906 616 
Q 2728 306 2450 153 
Q 2172 0 1784 0 
Q 1141 0 747 490 
Q 353 981 353 1791 
Q 353 2603 747 3093 
Q 1141 3584 1784 3584 
Q 2172 3584 2450 3431 
Q 2728 3278 2906 2969 
L 2906 3500 
L 3481 3500 
L 3481 434 
z
" transform="scale(0.015625)"/>
       <path id="DejaVuSans-20" transform="scale(0.015625)"/>
       <path id="DejaVuSans-53" d="M 3425 4513 
L 3425 3897 
Q 3066 4069 2747 4153 
Q 2428 4238 2131 4238 
Q 1616 4238 1336 4038 
Q 1056 3838 1056 3469 
Q 1056 3159 1242 3001 
Q 1428 2844 1947 2747 
L 2328 2669 
Q 3034 2534 3370 2195 
Q 3706 1856 3706 1288 
Q 3706 609 3251 259 
Q 2797 -91 1919 -91 
Q 1588 -91 1214 -16 
Q 841 59 441 206 
L 441 856 
Q 825 641 1194 531 
Q 1563 422 1919 422 
Q 2459 422 2753 634 
Q 3047 847 3047 1241 
Q 3047 1584 2836 1778 
Q 2625 1972 2144 2069 
L 1759 2144 
Q 1053 2284 737 2584 
Q 422 2884 422 3419 
Q 422 4038 858 4394 
Q 1294 4750 2059 4750 
Q 2388 4750 2728 4690 
Q 3069 4631 3425 4513 
z
" transform="scale(0.015625)"/>
       <path id="DejaVuSans-74" d="M 1172 4494 
L 1172 3500 
L 2356 3500 
L 2356 3053 
L 1172 3053 
L 1172 1153 
Q 1172 725 1289 603 
Q 1406 481 1766 481 
L 2356 481 
L 2356 0 
L 1766 0 
Q 1100 0 847 248 
Q 594 497 594 1153 
L 594 3053 
L 172 3053 
L 172 3500 
L 594 3500 
L 594 4494 
L 1172 4494 
z
" transform="scale(0.015625)"/>
       <path id="DejaVuSans-65" d="M 3597 1894 
L 3597 1613 
L 953 1613 
Q 991 1019 1311 708 
Q 1631 397 2203 397 
Q 2534 397 2845 478 
Q 3156 559 3463 722 
L 3463 178 
Q 3153 47 2828 -22 
Q 2503 -91 2169 -91 
Q 1331 -91 842 396 
Q 353 884 353 1716 
Q 353 2575 817 3079 
Q 1281 3584 2069 3584 
Q 2775 3584 3186 3129 
Q 3597 2675 3597 1894 
z
M 3022 2063 
Q 3016 2534 2758 2815 
Q 2500 3097 2075 3097 
Q 1594 3097 1305 2825 
Q 1016 2553 972 2059 
L 3022 2063 
z
" transform="scale(0.015625)"/>
       <path id="DejaVuSans-70" d="M 1159 525 
L 1159 -1331 
L 581 -1331 
L 581 3500 
L 1159 3500 
L 1159 2969 
Q 1341 3281 1617 3432 
Q 1894 3584 2278 3584 
Q 2916 3584 3314 3078 
Q 3713 2572 3713 1747 
Q 3713 922 3314 415 
Q 2916 -91 2278 -91 
Q 1894 -91 1617 61 
Q 1341 213 1159 525 
z
M 3116 1747 
Q 3116 2381 2855 2742 
Q 2594 3103 2138 3103 
Q 1681 3103 1420 2742 
Q 1159 2381 1159 1747 
Q 1159 1113 1420 752 
Q 1681 391 2138 391 
Q 2594 391 2855 752 
Q 3116 1113 3116 1747 
z
" transform="scale(0.015625)"/>
       <path id="DejaVuSans-73" d="M 2834 3397 
L 2834 2853 
Q 2591 2978 2328 3040 
Q 2066 3103 1784 3103 
Q 1356 3103 1142 2972 
Q 928 2841 928 2578 
Q 928 2378 1081 2264 
Q 1234 2150 1697 2047 
L 1894 2003 
Q 2506 1872 2764 1633 
Q 3022 1394 3022 966 
Q 3022 478 2636 193 
Q 2250 -91 1575 -91 
Q 1294 -91 989 -36 
Q 684 19 347 128 
L 347 722 
Q 666 556 975 473 
Q 1284 391 1588 391 
Q 1994 391 2212 530 
Q 2431 669 2431 922 
Q 2431 1156 2273 1281 
Q 2116 1406 1581 1522 
L 1381 1569 
Q 847 1681 609 1914 
Q 372 2147 372 2553 
Q 372 3047 722 3315 
Q 1072 3584 1716 3584 
Q 2034 3584 2315 3537 
Q 2597 3491 2834 3397 
z
" transform="scale(0.015625)"/>
      </defs>
      <use xlink:href="#DejaVuSans-54"/>
      <use xlink:href="#DejaVuSans-72" x="46.333984"/>
      <use xlink:href="#DejaVuSans-61" x="87.447266"/>
      <use xlink:href="#DejaVuSans-69" x="148.726562"/>
      <use xlink:href="#DejaVuSans-6e" x="176.509766"/>
      <use xlink:href="#DejaVuSans-69" x="239.888672"/>
      <use xlink:href="#DejaVuSans-6e" x="267.671875"/>
      <use xlink:href="#DejaVuSans-67" x="331.050781"/>
      <use xlink:href="#DejaVuSans-20" x="394.527344"/>
      <use xlink:href="#DejaVuSans-53" x="426.314453"/>
      <use xlink:href="#DejaVuSans-74" x="489.791016"/>
      <use xlink:href="#DejaVuSans-65" x="529"/>
      <use xlink:href="#DejaVuSans-70" x="590.523438"/>
      <use xlink:href="#DejaVuSans-73" x="654"/>
     </g>
    </g>
   </g>
   <g id="matplotlib.axis_2">
    <g id="ytick_1">
     <g id="line2d_15">
      <path d="M 44.66 143.183941 
L 270.702747 143.183941 
" clip-path="url(#p1c6b86994d)" style="fill: none; stroke: #808080; stroke-opacity: 0.25; stroke-width: 0.5; stroke-linecap: square"/>
     </g>
     <g id="line2d_16">
      <defs>
       <path id="m8197c23247" d="M 0 0 
L -3.5 0 
" style="stroke: #000000; stroke-width: 0.8"/>
      </defs>
      <g>
       <use xlink:href="#m8197c23247" x="44.66" y="143.183941" style="stroke: #000000; stroke-width: 0.8"/>
      </g>
     </g>
     <g id="text_9">
      <!-- 5 -->
      <g transform="translate(31.2975 146.98316) scale(0.1 -0.1)">
       <use xlink:href="#DejaVuSans-35"/>
      </g>
     </g>
    </g>
    <g id="ytick_2">
     <g id="line2d_17">
      <path d="M 44.66 120.026067 
L 270.702747 120.026067 
" clip-path="url(#p1c6b86994d)" style="fill: none; stroke: #808080; stroke-opacity: 0.25; stroke-width: 0.5; stroke-linecap: square"/>
     </g>
     <g id="line2d_18">
      <g>
       <use xlink:href="#m8197c23247" x="44.66" y="120.026067" style="stroke: #000000; stroke-width: 0.8"/>
      </g>
     </g>
     <g id="text_10">
      <!-- 6 -->
      <g transform="translate(31.2975 123.825286) scale(0.1 -0.1)">
       <use xlink:href="#DejaVuSans-36"/>
      </g>
     </g>
    </g>
    <g id="ytick_3">
     <g id="line2d_19">
      <path d="M 44.66 96.868193 
L 270.702747 96.868193 
" clip-path="url(#p1c6b86994d)" style="fill: none; stroke: #808080; stroke-opacity: 0.25; stroke-width: 0.5; stroke-linecap: square"/>
     </g>
     <g id="line2d_20">
      <g>
       <use xlink:href="#m8197c23247" x="44.66" y="96.868193" style="stroke: #000000; stroke-width: 0.8"/>
      </g>
     </g>
     <g id="text_11">
      <!-- 7 -->
      <g transform="translate(31.2975 100.667412) scale(0.1 -0.1)">
       <defs>
        <path id="DejaVuSans-37" d="M 525 4666 
L 3525 4666 
L 3525 4397 
L 1831 0 
L 1172 0 
L 2766 4134 
L 525 4134 
L 525 4666 
z
" transform="scale(0.015625)"/>
       </defs>
       <use xlink:href="#DejaVuSans-37"/>
      </g>
     </g>
    </g>
    <g id="ytick_4">
     <g id="line2d_21">
      <path d="M 44.66 73.710319 
L 270.702747 73.710319 
" clip-path="url(#p1c6b86994d)" style="fill: none; stroke: #808080; stroke-opacity: 0.25; stroke-width: 0.5; stroke-linecap: square"/>
     </g>
     <g id="line2d_22">
      <g>
       <use xlink:href="#m8197c23247" x="44.66" y="73.710319" style="stroke: #000000; stroke-width: 0.8"/>
      </g>
     </g>
     <g id="text_12">
      <!-- 8 -->
      <g transform="translate(31.2975 77.509538) scale(0.1 -0.1)">
       <defs>
        <path id="DejaVuSans-38" d="M 2034 2216 
Q 1584 2216 1326 1975 
Q 1069 1734 1069 1313 
Q 1069 891 1326 650 
Q 1584 409 2034 409 
Q 2484 409 2743 651 
Q 3003 894 3003 1313 
Q 3003 1734 2745 1975 
Q 2488 2216 2034 2216 
z
M 1403 2484 
Q 997 2584 770 2862 
Q 544 3141 544 3541 
Q 544 4100 942 4425 
Q 1341 4750 2034 4750 
Q 2731 4750 3128 4425 
Q 3525 4100 3525 3541 
Q 3525 3141 3298 2862 
Q 3072 2584 2669 2484 
Q 3125 2378 3379 2068 
Q 3634 1759 3634 1313 
Q 3634 634 3220 271 
Q 2806 -91 2034 -91 
Q 1263 -91 848 271 
Q 434 634 434 1313 
Q 434 1759 690 2068 
Q 947 2378 1403 2484 
z
M 1172 3481 
Q 1172 3119 1398 2916 
Q 1625 2713 2034 2713 
Q 2441 2713 2670 2916 
Q 2900 3119 2900 3481 
Q 2900 3844 2670 4047 
Q 2441 4250 2034 4250 
Q 1625 4250 1398 4047 
Q 1172 3844 1172 3481 
z
" transform="scale(0.015625)"/>
       </defs>
       <use xlink:href="#DejaVuSans-38"/>
      </g>
     </g>
    </g>
    <g id="ytick_5">
     <g id="line2d_23">
      <path d="M 44.66 50.552445 
L 270.702747 50.552445 
" clip-path="url(#p1c6b86994d)" style="fill: none; stroke: #808080; stroke-opacity: 0.25; stroke-width: 0.5; stroke-linecap: square"/>
     </g>
     <g id="line2d_24">
      <g>
       <use xlink:href="#m8197c23247" x="44.66" y="50.552445" style="stroke: #000000; stroke-width: 0.8"/>
      </g>
     </g>
     <g id="text_13">
      <!-- 9 -->
      <g transform="translate(31.2975 54.351664) scale(0.1 -0.1)">
       <defs>
        <path id="DejaVuSans-39" d="M 703 97 
L 703 672 
Q 941 559 1184 500 
Q 1428 441 1663 441 
Q 2288 441 2617 861 
Q 2947 1281 2994 2138 
Q 2813 1869 2534 1725 
Q 2256 1581 1919 1581 
Q 1219 1581 811 2004 
Q 403 2428 403 3163 
Q 403 3881 828 4315 
Q 1253 4750 1959 4750 
Q 2769 4750 3195 4129 
Q 3622 3509 3622 2328 
Q 3622 1225 3098 567 
Q 2575 -91 1691 -91 
Q 1453 -91 1209 -44 
Q 966 3 703 97 
z
M 1959 2075 
Q 2384 2075 2632 2365 
Q 2881 2656 2881 3163 
Q 2881 3666 2632 3958 
Q 2384 4250 1959 4250 
Q 1534 4250 1286 3958 
Q 1038 3666 1038 3163 
Q 1038 2656 1286 2365 
Q 1534 2075 1959 2075 
z
" transform="scale(0.015625)"/>
       </defs>
       <use xlink:href="#DejaVuSans-39"/>
      </g>
     </g>
    </g>
    <g id="ytick_6">
     <g id="line2d_25">
      <path d="M 44.66 27.394571 
L 270.702747 27.394571 
" clip-path="url(#p1c6b86994d)" style="fill: none; stroke: #808080; stroke-opacity: 0.25; stroke-width: 0.5; stroke-linecap: square"/>
     </g>
     <g id="line2d_26">
      <g>
       <use xlink:href="#m8197c23247" x="44.66" y="27.394571" style="stroke: #000000; stroke-width: 0.8"/>
      </g>
     </g>
     <g id="text_14">
      <!-- 10 -->
      <g transform="translate(24.935 31.19379) scale(0.1 -0.1)">
       <use xlink:href="#DejaVuSans-31"/>
       <use xlink:href="#DejaVuSans-30" x="63.623047"/>
      </g>
     </g>
    </g>
    <g id="text_15">
     <!-- NLL Loss -->
     <g transform="translate(18.855313 98.98875) rotate(-90) scale(0.1 -0.1)">
      <defs>
       <path id="DejaVuSans-4e" d="M 628 4666 
L 1478 4666 
L 3547 763 
L 3547 4666 
L 4159 4666 
L 4159 0 
L 3309 0 
L 1241 3903 
L 1241 0 
L 628 0 
L 628 4666 
z
" transform="scale(0.015625)"/>
       <path id="DejaVuSans-4c" d="M 628 4666 
L 1259 4666 
L 1259 531 
L 3531 531 
L 3531 0 
L 628 0 
L 628 4666 
z
" transform="scale(0.015625)"/>
       <path id="DejaVuSans-6f" d="M 1959 3097 
Q 1497 3097 1228 2736 
Q 959 2375 959 1747 
Q 959 1119 1226 758 
Q 1494 397 1959 397 
Q 2419 397 2687 759 
Q 2956 1122 2956 1747 
Q 2956 2369 2687 2733 
Q 2419 3097 1959 3097 
z
M 1959 3584 
Q 2709 3584 3137 3096 
Q 3566 2609 3566 1747 
Q 3566 888 3137 398 
Q 2709 -91 1959 -91 
Q 1206 -91 779 398 
Q 353 888 353 1747 
Q 353 2609 779 3096 
Q 1206 3584 1959 3584 
z
" transform="scale(0.015625)"/>
      </defs>
      <use xlink:href="#DejaVuSans-4e"/>
      <use xlink:href="#DejaVuSans-4c" x="74.804688"/>
      <use xlink:href="#DejaVuSans-4c" x="130.517578"/>
      <use xlink:href="#DejaVuSans-20" x="186.230469"/>
      <use xlink:href="#DejaVuSans-4c" x="218.017578"/>
      <use xlink:href="#DejaVuSans-6f" x="271.980469"/>
      <use xlink:href="#DejaVuSans-73" x="333.162109"/>
      <use xlink:href="#DejaVuSans-73" x="385.261719"/>
     </g>
    </g>
   </g>
   <g id="line2d_27">
    <path d="M 54.93467 50.211562 
L 56.72157 62.523834 
L 58.508469 72.784336 
L 60.295368 84.052912 
L 62.082267 97.473081 
L 63.869166 110.930663 
L 65.656065 120.467349 
L 67.442965 122.647322 
L 69.229864 123.498657 
L 71.016763 124.047549 
L 72.803662 125.080788 
L 74.590561 125.994403 
L 76.377461 126.739939 
L 78.16436 127.838075 
L 79.951259 128.509174 
L 81.738158 129.02305 
L 83.525057 129.413249 
L 85.311956 130.22768 
L 87.098856 130.886687 
L 88.885755 131.2908 
L 90.672654 131.184869 
L 92.459553 131.268991 
L 94.246452 132.257287 
L 96.033352 132.026222 
L 97.820251 132.663023 
L 99.60715 132.853805 
L 101.394049 133.438441 
L 103.180948 132.964252 
L 104.967848 133.586499 
L 106.754747 133.767188 
L 108.541646 133.537702 
L 110.328545 133.832747 
L 112.115444 134.039188 
L 113.902343 133.913336 
L 115.689243 134.202054 
L 117.476142 134.584965 
L 119.263041 134.749587 
L 121.04994 134.726453 
L 122.836839 135.189124 
L 124.623739 134.873296 
L 126.410638 135.183581 
L 128.197537 135.474872 
L 129.984436 135.524154 
L 131.771335 135.718216 
L 133.558235 135.937499 
L 135.345134 135.833357 
L 137.132033 136.286222 
L 138.918932 136.039421 
L 140.705831 136.296425 
L 142.49273 136.498239 
L 144.27963 136.305922 
L 146.066529 136.365077 
L 147.853428 136.738911 
L 149.640327 136.547532 
L 151.427226 136.531775 
L 153.214126 136.410947 
L 155.001025 136.88168 
L 156.787924 136.953191 
L 158.574823 136.764154 
L 160.361722 137.151128 
L 162.148621 136.733102 
L 163.935521 137.172982 
L 165.72242 137.137016 
L 167.509319 137.311488 
L 169.296218 137.356012 
L 171.083117 137.388234 
L 172.870017 137.601509 
L 174.656916 137.559382 
L 176.443815 137.487517 
L 178.230714 137.228989 
L 180.017613 137.771575 
L 181.804513 137.810401 
L 183.591412 137.772039 
L 185.378311 137.711272 
L 187.16521 137.672612 
L 188.952109 137.766971 
L 190.739008 137.658621 
L 192.525908 137.755321 
L 194.312807 138.072032 
L 196.099706 137.823751 
L 197.886605 138.042106 
L 199.673504 138.181198 
L 201.460404 138.134069 
L 203.247303 138.122982 
L 205.034202 138.031693 
L 206.821101 138.401442 
L 208.608 138.213233 
L 210.3949 138.383133 
L 212.181799 138.077807 
L 213.968698 138.191468 
L 215.755597 138.322465 
L 217.542496 138.260329 
L 219.329395 138.272553 
L 221.116295 138.394661 
L 222.903194 138.356708 
L 224.690093 138.553111 
L 226.476992 138.175721 
L 228.263891 138.302445 
L 230.050791 138.377501 
L 231.83769 138.188299 
L 233.624589 138.432802 
L 235.411488 138.409922 
L 237.198387 138.425084 
L 238.985286 138.581711 
L 240.772186 138.418226 
L 242.559085 138.462198 
L 244.345984 138.676489 
L 246.132883 138.694908 
L 247.919782 138.724138 
L 249.706682 138.504314 
L 251.493581 138.647955 
L 253.28048 138.254178 
L 255.067379 138.478154 
L 256.854278 138.548705 
L 258.641178 138.808425 
L 260.428077 138.78062 
" clip-path="url(#p1c6b86994d)" style="fill: none; stroke: #4e9a84; stroke-width: 1.5; stroke-linecap: square"/>
   </g>
   <g id="line2d_28">
    <path d="M 54.93467 33.3855 
L 56.72157 44.024408 
L 58.508469 52.922769 
L 60.295368 64.328118 
L 62.082267 78.179951 
L 63.869166 92.340522 
L 65.656065 104.057855 
L 67.442965 110.504995 
L 69.229864 111.022978 
L 71.016763 112.09258 
L 72.803662 112.930863 
L 74.590561 113.790513 
L 76.377461 114.650882 
L 78.16436 115.277358 
L 79.951259 115.965562 
L 81.738158 116.730909 
L 83.525057 117.541077 
L 85.311956 117.691764 
L 87.098856 118.449436 
L 88.885755 118.477573 
L 90.672654 118.858673 
L 92.459553 119.063224 
L 94.246452 119.701174 
L 96.033352 119.234306 
L 97.820251 119.775733 
L 99.60715 120.225219 
L 101.394049 120.572872 
L 103.180948 120.78067 
L 104.967848 120.978696 
L 106.754747 120.684854 
L 108.541646 121.164365 
L 110.328545 121.187013 
L 112.115444 121.709811 
L 113.902343 121.832858 
L 115.689243 121.531165 
L 117.476142 122.283736 
L 119.263041 122.874125 
L 121.04994 122.569649 
L 122.836839 122.840036 
L 124.623739 122.924711 
L 126.410638 123.082497 
L 128.197537 123.078423 
L 129.984436 123.546184 
L 131.771335 123.485804 
L 133.558235 123.887388 
L 135.345134 123.715919 
L 137.132033 124.191643 
L 138.918932 124.241312 
L 140.705831 124.494793 
L 142.49273 124.193023 
L 144.27963 124.529478 
L 146.066529 124.692267 
L 147.853428 124.823441 
L 149.640327 124.634239 
L 151.427226 124.669729 
L 153.214126 124.954715 
L 155.001025 125.185173 
L 156.787924 125.126537 
L 158.574823 125.21385 
L 160.361722 125.315287 
L 162.148621 125.320168 
L 163.935521 125.546871 
L 165.72242 125.396483 
L 167.509319 125.795858 
L 169.296218 125.592267 
L 171.083117 125.543956 
L 172.870017 126.074307 
L 174.656916 125.663668 
L 176.443815 125.993033 
L 178.230714 125.518823 
L 180.017613 126.094801 
L 181.804513 125.655088 
L 183.591412 125.921986 
L 185.378311 126.374575 
L 187.16521 126.014677 
L 188.952109 126.78221 
L 190.739008 126.088518 
L 192.525908 126.256906 
L 194.312807 126.574611 
L 196.099706 126.407482 
L 197.886605 126.649589 
L 199.673504 126.305559 
L 201.460404 126.352534 
L 203.247303 126.736527 
L 205.034202 126.095177 
L 206.821101 126.99744 
L 208.608 126.857841 
L 210.3949 126.438048 
L 212.181799 126.51508 
L 213.968698 126.682618 
L 215.755597 126.609317 
L 217.542496 126.549434 
L 219.329395 126.820075 
L 221.116295 126.997485 
L 222.903194 127.034875 
L 224.690093 127.193986 
L 226.476992 126.533013 
L 228.263891 127.071414 
L 230.050791 127.078062 
L 231.83769 126.661228 
L 233.624589 127.250215 
L 235.411488 127.053006 
L 237.198387 127.369971 
L 238.985286 127.159037 
L 240.772186 126.969845 
L 242.559085 127.396175 
L 244.345984 126.877507 
L 246.132883 127.03472 
L 247.919782 127.512972 
L 249.706682 127.36244 
L 251.493581 127.313897 
L 253.28048 126.909277 
L 255.067379 127.146492 
L 256.854278 127.206829 
L 258.641178 127.331775 
L 260.428077 127.29253 
" clip-path="url(#p1c6b86994d)" style="fill: none; stroke: #438d77; stroke-width: 1.5; stroke-linecap: square"/>
   </g>
   <g id="line2d_29">
    <path d="M 54.93467 22.822895 
L 56.72157 33.958364 
L 58.508469 43.508258 
L 60.295368 55.169108 
L 62.082267 69.186656 
L 63.869166 83.927513 
L 65.656065 96.539888 
L 67.442965 104.567137 
L 69.229864 106.734069 
L 71.016763 107.09167 
L 72.803662 107.255044 
L 74.590561 108.907979 
L 76.377461 109.074589 
L 78.16436 110.087377 
L 79.951259 110.679169 
L 81.738158 111.229595 
L 83.525057 112.021312 
L 85.311956 113.079639 
L 87.098856 113.738072 
L 88.885755 112.9696 
L 90.672654 114.033968 
L 92.459553 114.265906 
L 94.246452 114.702329 
L 96.033352 115.291547 
L 97.820251 115.038353 
L 99.60715 115.880843 
L 101.394049 115.717237 
L 103.180948 116.017539 
L 104.967848 116.243602 
L 106.754747 116.283951 
L 108.541646 116.340047 
L 110.328545 116.830126 
L 112.115444 117.100822 
L 113.902343 117.30406 
L 115.689243 117.146329 
L 117.476142 118.141184 
L 119.263041 118.051397 
L 121.04994 118.274037 
L 122.836839 118.488924 
L 124.623739 118.683439 
L 126.410638 118.928417 
L 128.197537 118.571876 
L 129.984436 118.597572 
L 131.771335 119.289243 
L 133.558235 119.28815 
L 135.345134 119.518155 
L 137.132033 119.197435 
L 138.918932 119.701229 
L 140.705831 119.965609 
L 142.49273 120.185234 
L 144.27963 120.235853 
L 146.066529 120.873869 
L 147.853428 119.933288 
L 149.640327 120.726164 
L 151.427226 120.613033 
L 153.214126 120.34629 
L 155.001025 120.909669 
L 156.787924 120.852281 
L 158.574823 121.140623 
L 160.361722 120.914572 
L 162.148621 121.163117 
L 163.935521 121.102217 
L 165.72242 121.450797 
L 167.509319 121.630062 
L 169.296218 121.565452 
L 171.083117 121.403325 
L 172.870017 121.681509 
L 174.656916 121.433195 
L 176.443815 121.757846 
L 178.230714 121.436873 
L 180.017613 121.94706 
L 181.804513 121.71573 
L 183.591412 121.41863 
L 185.378311 122.330457 
L 187.16521 121.977913 
L 188.952109 122.064917 
L 190.739008 122.216542 
L 192.525908 122.093462 
L 194.312807 122.460372 
L 196.099706 122.064729 
L 197.886605 122.569748 
L 199.673504 122.361641 
L 201.460404 122.369006 
L 203.247303 122.584391 
L 205.034202 122.131017 
L 206.821101 122.60398 
L 208.608 122.419227 
L 210.3949 122.511135 
L 212.181799 122.389678 
L 213.968698 122.665476 
L 215.755597 122.318398 
L 217.542496 122.867764 
L 219.329395 123.068087 
L 221.116295 122.575512 
L 222.903194 122.422397 
L 224.690093 122.856567 
L 226.476992 122.890446 
L 228.263891 122.767597 
L 230.050791 122.790091 
L 231.83769 122.951522 
L 233.624589 122.740874 
L 235.411488 122.944123 
L 237.198387 122.827503 
L 238.985286 122.859129 
L 240.772186 122.935841 
L 242.559085 123.085865 
L 244.345984 122.570466 
L 246.132883 123.314744 
L 247.919782 123.516701 
L 249.706682 122.863944 
L 251.493581 123.19755 
L 253.28048 123.289611 
L 255.067379 123.133967 
L 256.854278 123.498481 
L 258.641178 122.7994 
L 260.428077 123.276879 
" clip-path="url(#p1c6b86994d)" style="fill: none; stroke: #367d6a; stroke-width: 1.5; stroke-linecap: square"/>
   </g>
   <g id="line2d_30">
    <path d="M 54.93467 18.90697 
L 56.72157 28.256993 
L 58.508469 37.864661 
L 60.295368 49.454331 
L 62.082267 64.031317 
L 63.869166 78.860999 
L 65.656065 92.063244 
L 67.442965 100.962301 
L 69.229864 104.952102 
L 71.016763 104.845762 
L 72.803662 105.73123 
L 74.590561 106.246397 
L 76.377461 107.477662 
L 78.16436 108.392216 
L 79.951259 108.794539 
L 81.738158 109.148497 
L 83.525057 109.933632 
L 85.311956 110.912829 
L 87.098856 111.507282 
L 88.885755 111.405867 
L 90.672654 111.832462 
L 92.459553 111.845349 
L 94.246452 112.558962 
L 96.033352 112.824921 
L 97.820251 112.921477 
L 99.60715 113.202443 
L 101.394049 113.670923 
L 103.180948 113.813935 
L 104.967848 114.188564 
L 106.754747 114.18143 
L 108.541646 114.460122 
L 110.328545 114.161046 
L 112.115444 114.611537 
L 113.902343 115.33564 
L 115.689243 115.462563 
L 117.476142 115.403552 
L 119.263041 116.017384 
L 121.04994 115.775089 
L 122.836839 115.999473 
L 124.623739 116.314473 
L 126.410638 116.462995 
L 128.197537 116.761386 
L 129.984436 116.31614 
L 131.771335 116.718883 
L 133.558235 117.50838 
L 135.345134 117.583337 
L 137.132033 117.319686 
L 138.918932 117.921901 
L 140.705831 117.731561 
L 142.49273 117.866887 
L 144.27963 117.945091 
L 146.066529 118.506062 
L 147.853428 118.263082 
L 149.640327 117.938918 
L 151.427226 118.439189 
L 153.214126 118.686586 
L 155.001025 118.561617 
L 156.787924 118.8042 
L 158.574823 118.785472 
L 160.361722 118.617073 
L 162.148621 118.946549 
L 163.935521 118.867231 
L 165.72242 119.257893 
L 167.509319 119.433591 
L 169.296218 119.361969 
L 171.083117 119.12938 
L 172.870017 119.622374 
L 174.656916 119.365194 
L 176.443815 119.809302 
L 178.230714 119.646557 
L 180.017613 119.818666 
L 181.804513 119.686211 
L 183.591412 119.96138 
L 185.378311 120.191584 
L 187.16521 120.111548 
L 188.952109 120.148617 
L 190.739008 120.571381 
L 192.525908 120.155508 
L 194.312807 119.900856 
L 196.099706 120.142478 
L 197.886605 120.402816 
L 199.673504 120.323222 
L 201.460404 120.368585 
L 203.247303 120.101267 
L 205.034202 120.72517 
L 206.821101 120.453546 
L 208.608 120.375078 
L 210.3949 120.535504 
L 212.181799 120.56809 
L 213.968698 120.681475 
L 215.755597 120.330687 
L 217.542496 120.666954 
L 219.329395 120.774475 
L 221.116295 120.508725 
L 222.903194 120.974897 
L 224.690093 121.181348 
L 226.476992 120.973484 
L 228.263891 120.901707 
L 230.050791 120.895921 
L 231.83769 120.826143 
L 233.624589 121.1838 
L 235.411488 121.095316 
L 237.198387 121.008444 
L 238.985286 120.663696 
L 240.772186 121.069134 
L 242.559085 121.11146 
L 244.345984 120.998451 
L 246.132883 121.221985 
L 247.919782 121.494371 
L 249.706682 121.108026 
L 251.493581 121.47678 
L 253.28048 121.016075 
L 255.067379 121.227086 
L 256.854278 121.461619 
L 258.641178 121.299172 
L 260.428077 121.246974 
" clip-path="url(#p1c6b86994d)" style="fill: none; stroke: #295e57; stroke-width: 1.5; stroke-linecap: square"/>
   </g>
   <g id="patch_3">
    <path d="M 44.66 143.44 
L 44.66 10.8 
" style="fill: none; stroke: #000000; stroke-width: 0.8; stroke-linejoin: miter; stroke-linecap: square"/>
   </g>
   <g id="patch_4">
    <path d="M 270.702747 143.44 
L 270.702747 10.8 
" style="fill: none; stroke: #000000; stroke-width: 0.8; stroke-linejoin: miter; stroke-linecap: square"/>
   </g>
   <g id="patch_5">
    <path d="M 44.66 143.44 
L 270.702747 143.44 
" style="fill: none; stroke: #000000; stroke-width: 0.8; stroke-linejoin: miter; stroke-linecap: square"/>
   </g>
   <g id="patch_6">
    <path d="M 44.66 10.8 
L 270.702747 10.8 
" style="fill: none; stroke: #000000; stroke-width: 0.8; stroke-linejoin: miter; stroke-linecap: square"/>
   </g>
   <g id="legend_1">
    <g id="patch_7">
     <path d="M 209.162269 67.298225 
L 264.871747 67.298225 
Q 266.537747 67.298225 266.537747 65.632225 
L 266.537747 16.631 
Q 266.537747 14.965 264.871747 14.965 
L 209.162269 14.965 
Q 207.496269 14.965 207.496269 16.631 
L 207.496269 65.632225 
Q 207.496269 67.298225 209.162269 67.298225 
z
" style="fill: #ffffff; opacity: 0.8; stroke: #cccccc; stroke-linejoin: miter"/>
    </g>
    <g id="line2d_31">
     <path d="M 210.828269 21.710998 
L 219.158269 21.710998 
L 227.488269 21.710998 
" style="fill: none; stroke: #4e9a84; stroke-width: 1.5; stroke-linecap: square"/>
    </g>
    <g id="text_16">
     <!-- es_10k -->
     <g transform="translate(234.152269 24.626498) scale(0.0833 -0.0833)">
      <defs>
       <path id="DejaVuSans-5f" d="M 3263 -1063 
L 3263 -1509 
L -63 -1509 
L -63 -1063 
L 3263 -1063 
z
" transform="scale(0.015625)"/>
       <path id="DejaVuSans-6b" d="M 581 4863 
L 1159 4863 
L 1159 1991 
L 2875 3500 
L 3609 3500 
L 1753 1863 
L 3688 0 
L 2938 0 
L 1159 1709 
L 1159 0 
L 581 0 
L 581 4863 
z
" transform="scale(0.015625)"/>
      </defs>
      <use xlink:href="#DejaVuSans-65"/>
      <use xlink:href="#DejaVuSans-73" x="61.523438"/>
      <use xlink:href="#DejaVuSans-5f" x="113.623047"/>
      <use xlink:href="#DejaVuSans-31" x="163.623047"/>
      <use xlink:href="#DejaVuSans-30" x="227.246094"/>
      <use xlink:href="#DejaVuSans-6b" x="290.869141"/>
     </g>
    </g>
    <g id="line2d_32">
     <path d="M 210.828269 34.169555 
L 219.158269 34.169555 
L 227.488269 34.169555 
" style="fill: none; stroke: #438d77; stroke-width: 1.5; stroke-linecap: square"/>
    </g>
    <g id="text_17">
     <!-- es_20k -->
     <g transform="translate(234.152269 37.085055) scale(0.0833 -0.0833)">
      <use xlink:href="#DejaVuSans-65"/>
      <use xlink:href="#DejaVuSans-73" x="61.523438"/>
      <use xlink:href="#DejaVuSans-5f" x="113.623047"/>
      <use xlink:href="#DejaVuSans-32" x="163.623047"/>
      <use xlink:href="#DejaVuSans-30" x="227.246094"/>
      <use xlink:href="#DejaVuSans-6b" x="290.869141"/>
     </g>
    </g>
    <g id="line2d_33">
     <path d="M 210.828269 46.628111 
L 219.158269 46.628111 
L 227.488269 46.628111 
" style="fill: none; stroke: #367d6a; stroke-width: 1.5; stroke-linecap: square"/>
    </g>
    <g id="text_18">
     <!-- es_30k -->
     <g transform="translate(234.152269 49.543611) scale(0.0833 -0.0833)">
      <use xlink:href="#DejaVuSans-65"/>
      <use xlink:href="#DejaVuSans-73" x="61.523438"/>
      <use xlink:href="#DejaVuSans-5f" x="113.623047"/>
      <use xlink:href="#DejaVuSans-33" x="163.623047"/>
      <use xlink:href="#DejaVuSans-30" x="227.246094"/>
      <use xlink:href="#DejaVuSans-6b" x="290.869141"/>
     </g>
    </g>
    <g id="line2d_34">
     <path d="M 210.828269 59.086667 
L 219.158269 59.086667 
L 227.488269 59.086667 
" style="fill: none; stroke: #295e57; stroke-width: 1.5; stroke-linecap: square"/>
    </g>
    <g id="text_19">
     <!-- es_40k -->
     <g transform="translate(234.152269 62.002167) scale(0.0833 -0.0833)">
      <use xlink:href="#DejaVuSans-65"/>
      <use xlink:href="#DejaVuSans-73" x="61.523438"/>
      <use xlink:href="#DejaVuSans-5f" x="113.623047"/>
      <use xlink:href="#DejaVuSans-34" x="163.623047"/>
      <use xlink:href="#DejaVuSans-30" x="227.246094"/>
      <use xlink:href="#DejaVuSans-6b" x="290.869141"/>
     </g>
    </g>
   </g>
  </g>
  <g id="axes_2">
   <g id="patch_8">
    <path d="M 44.66 318.04 
L 270.702747 318.04 
L 270.702747 185.4 
L 44.66 185.4 
z
" style="fill: #ffffff"/>
   </g>
   <g id="matplotlib.axis_3">
    <g id="xtick_8">
     <g id="line2d_35">
      <path d="M 53.147771 318.04 
L 53.147771 185.4 
" clip-path="url(#p0fe7b4144b)" style="fill: none; stroke: #808080; stroke-opacity: 0.25; stroke-width: 0.5; stroke-linecap: square"/>
     </g>
     <g id="line2d_36">
      <g>
       <use xlink:href="#ma392a96ff9" x="53.147771" y="318.04" style="stroke: #000000; stroke-width: 0.8"/>
      </g>
     </g>
     <g id="text_20">
      <!-- 0 -->
      <g transform="translate(49.966521 332.638438) scale(0.1 -0.1)">
       <use xlink:href="#DejaVuSans-30"/>
      </g>
     </g>
    </g>
    <g id="xtick_9">
     <g id="line2d_37">
      <path d="M 88.885755 318.04 
L 88.885755 185.4 
" clip-path="url(#p0fe7b4144b)" style="fill: none; stroke: #808080; stroke-opacity: 0.25; stroke-width: 0.5; stroke-linecap: square"/>
     </g>
     <g id="line2d_38">
      <g>
       <use xlink:href="#ma392a96ff9" x="88.885755" y="318.04" style="stroke: #000000; stroke-width: 0.8"/>
      </g>
     </g>
     <g id="text_21">
      <!-- 100 -->
      <g transform="translate(79.342005 332.638438) scale(0.1 -0.1)">
       <use xlink:href="#DejaVuSans-31"/>
       <use xlink:href="#DejaVuSans-30" x="63.623047"/>
       <use xlink:href="#DejaVuSans-30" x="127.246094"/>
      </g>
     </g>
    </g>
    <g id="xtick_10">
     <g id="line2d_39">
      <path d="M 124.623739 318.04 
L 124.623739 185.4 
" clip-path="url(#p0fe7b4144b)" style="fill: none; stroke: #808080; stroke-opacity: 0.25; stroke-width: 0.5; stroke-linecap: square"/>
     </g>
     <g id="line2d_40">
      <g>
       <use xlink:href="#ma392a96ff9" x="124.623739" y="318.04" style="stroke: #000000; stroke-width: 0.8"/>
      </g>
     </g>
     <g id="text_22">
      <!-- 200 -->
      <g transform="translate(115.079989 332.638438) scale(0.1 -0.1)">
       <use xlink:href="#DejaVuSans-32"/>
       <use xlink:href="#DejaVuSans-30" x="63.623047"/>
       <use xlink:href="#DejaVuSans-30" x="127.246094"/>
      </g>
     </g>
    </g>
    <g id="xtick_11">
     <g id="line2d_41">
      <path d="M 160.361722 318.04 
L 160.361722 185.4 
" clip-path="url(#p0fe7b4144b)" style="fill: none; stroke: #808080; stroke-opacity: 0.25; stroke-width: 0.5; stroke-linecap: square"/>
     </g>
     <g id="line2d_42">
      <g>
       <use xlink:href="#ma392a96ff9" x="160.361722" y="318.04" style="stroke: #000000; stroke-width: 0.8"/>
      </g>
     </g>
     <g id="text_23">
      <!-- 300 -->
      <g transform="translate(150.817972 332.638438) scale(0.1 -0.1)">
       <use xlink:href="#DejaVuSans-33"/>
       <use xlink:href="#DejaVuSans-30" x="63.623047"/>
       <use xlink:href="#DejaVuSans-30" x="127.246094"/>
      </g>
     </g>
    </g>
    <g id="xtick_12">
     <g id="line2d_43">
      <path d="M 196.099706 318.04 
L 196.099706 185.4 
" clip-path="url(#p0fe7b4144b)" style="fill: none; stroke: #808080; stroke-opacity: 0.25; stroke-width: 0.5; stroke-linecap: square"/>
     </g>
     <g id="line2d_44">
      <g>
       <use xlink:href="#ma392a96ff9" x="196.099706" y="318.04" style="stroke: #000000; stroke-width: 0.8"/>
      </g>
     </g>
     <g id="text_24">
      <!-- 400 -->
      <g transform="translate(186.555956 332.638438) scale(0.1 -0.1)">
       <use xlink:href="#DejaVuSans-34"/>
       <use xlink:href="#DejaVuSans-30" x="63.623047"/>
       <use xlink:href="#DejaVuSans-30" x="127.246094"/>
      </g>
     </g>
    </g>
    <g id="xtick_13">
     <g id="line2d_45">
      <path d="M 231.83769 318.04 
L 231.83769 185.4 
" clip-path="url(#p0fe7b4144b)" style="fill: none; stroke: #808080; stroke-opacity: 0.25; stroke-width: 0.5; stroke-linecap: square"/>
     </g>
     <g id="line2d_46">
      <g>
       <use xlink:href="#ma392a96ff9" x="231.83769" y="318.04" style="stroke: #000000; stroke-width: 0.8"/>
      </g>
     </g>
     <g id="text_25">
      <!-- 500 -->
      <g transform="translate(222.29394 332.638438) scale(0.1 -0.1)">
       <use xlink:href="#DejaVuSans-35"/>
       <use xlink:href="#DejaVuSans-30" x="63.623047"/>
       <use xlink:href="#DejaVuSans-30" x="127.246094"/>
      </g>
     </g>
    </g>
    <g id="xtick_14">
     <g id="line2d_47">
      <path d="M 267.575673 318.04 
L 267.575673 185.4 
" clip-path="url(#p0fe7b4144b)" style="fill: none; stroke: #808080; stroke-opacity: 0.25; stroke-width: 0.5; stroke-linecap: square"/>
     </g>
     <g id="line2d_48">
      <g>
       <use xlink:href="#ma392a96ff9" x="267.575673" y="318.04" style="stroke: #000000; stroke-width: 0.8"/>
      </g>
     </g>
     <g id="text_26">
      <!-- 600 -->
      <g transform="translate(258.031923 332.638438) scale(0.1 -0.1)">
       <use xlink:href="#DejaVuSans-36"/>
       <use xlink:href="#DejaVuSans-30" x="63.623047"/>
       <use xlink:href="#DejaVuSans-30" x="127.246094"/>
      </g>
     </g>
    </g>
    <g id="text_27">
     <!-- Training Steps -->
     <g transform="translate(122.376686 346.316563) scale(0.1 -0.1)">
      <use xlink:href="#DejaVuSans-54"/>
      <use xlink:href="#DejaVuSans-72" x="46.333984"/>
      <use xlink:href="#DejaVuSans-61" x="87.447266"/>
      <use xlink:href="#DejaVuSans-69" x="148.726562"/>
      <use xlink:href="#DejaVuSans-6e" x="176.509766"/>
      <use xlink:href="#DejaVuSans-69" x="239.888672"/>
      <use xlink:href="#DejaVuSans-6e" x="267.671875"/>
      <use xlink:href="#DejaVuSans-67" x="331.050781"/>
      <use xlink:href="#DejaVuSans-20" x="394.527344"/>
      <use xlink:href="#DejaVuSans-53" x="426.314453"/>
      <use xlink:href="#DejaVuSans-74" x="489.791016"/>
      <use xlink:href="#DejaVuSans-65" x="529"/>
      <use xlink:href="#DejaVuSans-70" x="590.523438"/>
      <use xlink:href="#DejaVuSans-73" x="654"/>
     </g>
    </g>
   </g>
   <g id="matplotlib.axis_4">
    <g id="ytick_7">
     <g id="line2d_49">
      <path d="M 44.66 317.783941 
L 270.702747 317.783941 
" clip-path="url(#p0fe7b4144b)" style="fill: none; stroke: #808080; stroke-opacity: 0.25; stroke-width: 0.5; stroke-linecap: square"/>
     </g>
     <g id="line2d_50">
      <g>
       <use xlink:href="#m8197c23247" x="44.66" y="317.783941" style="stroke: #000000; stroke-width: 0.8"/>
      </g>
     </g>
     <g id="text_28">
      <!-- 5 -->
      <g transform="translate(31.2975 321.58316) scale(0.1 -0.1)">
       <use xlink:href="#DejaVuSans-35"/>
      </g>
     </g>
    </g>
    <g id="ytick_8">
     <g id="line2d_51">
      <path d="M 44.66 294.626067 
L 270.702747 294.626067 
" clip-path="url(#p0fe7b4144b)" style="fill: none; stroke: #808080; stroke-opacity: 0.25; stroke-width: 0.5; stroke-linecap: square"/>
     </g>
     <g id="line2d_52">
      <g>
       <use xlink:href="#m8197c23247" x="44.66" y="294.626067" style="stroke: #000000; stroke-width: 0.8"/>
      </g>
     </g>
     <g id="text_29">
      <!-- 6 -->
      <g transform="translate(31.2975 298.425286) scale(0.1 -0.1)">
       <use xlink:href="#DejaVuSans-36"/>
      </g>
     </g>
    </g>
    <g id="ytick_9">
     <g id="line2d_53">
      <path d="M 44.66 271.468193 
L 270.702747 271.468193 
" clip-path="url(#p0fe7b4144b)" style="fill: none; stroke: #808080; stroke-opacity: 0.25; stroke-width: 0.5; stroke-linecap: square"/>
     </g>
     <g id="line2d_54">
      <g>
       <use xlink:href="#m8197c23247" x="44.66" y="271.468193" style="stroke: #000000; stroke-width: 0.8"/>
      </g>
     </g>
     <g id="text_30">
      <!-- 7 -->
      <g transform="translate(31.2975 275.267412) scale(0.1 -0.1)">
       <use xlink:href="#DejaVuSans-37"/>
      </g>
     </g>
    </g>
    <g id="ytick_10">
     <g id="line2d_55">
      <path d="M 44.66 248.310319 
L 270.702747 248.310319 
" clip-path="url(#p0fe7b4144b)" style="fill: none; stroke: #808080; stroke-opacity: 0.25; stroke-width: 0.5; stroke-linecap: square"/>
     </g>
     <g id="line2d_56">
      <g>
       <use xlink:href="#m8197c23247" x="44.66" y="248.310319" style="stroke: #000000; stroke-width: 0.8"/>
      </g>
     </g>
     <g id="text_31">
      <!-- 8 -->
      <g transform="translate(31.2975 252.109538) scale(0.1 -0.1)">
       <use xlink:href="#DejaVuSans-38"/>
      </g>
     </g>
    </g>
    <g id="ytick_11">
     <g id="line2d_57">
      <path d="M 44.66 225.152445 
L 270.702747 225.152445 
" clip-path="url(#p0fe7b4144b)" style="fill: none; stroke: #808080; stroke-opacity: 0.25; stroke-width: 0.5; stroke-linecap: square"/>
     </g>
     <g id="line2d_58">
      <g>
       <use xlink:href="#m8197c23247" x="44.66" y="225.152445" style="stroke: #000000; stroke-width: 0.8"/>
      </g>
     </g>
     <g id="text_32">
      <!-- 9 -->
      <g transform="translate(31.2975 228.951664) scale(0.1 -0.1)">
       <use xlink:href="#DejaVuSans-39"/>
      </g>
     </g>
    </g>
    <g id="ytick_12">
     <g id="line2d_59">
      <path d="M 44.66 201.994571 
L 270.702747 201.994571 
" clip-path="url(#p0fe7b4144b)" style="fill: none; stroke: #808080; stroke-opacity: 0.25; stroke-width: 0.5; stroke-linecap: square"/>
     </g>
     <g id="line2d_60">
      <g>
       <use xlink:href="#m8197c23247" x="44.66" y="201.994571" style="stroke: #000000; stroke-width: 0.8"/>
      </g>
     </g>
     <g id="text_33">
      <!-- 10 -->
      <g transform="translate(24.935 205.79379) scale(0.1 -0.1)">
       <use xlink:href="#DejaVuSans-31"/>
       <use xlink:href="#DejaVuSans-30" x="63.623047"/>
      </g>
     </g>
    </g>
    <g id="text_34">
     <!-- NLL Loss -->
     <g transform="translate(18.855313 273.58875) rotate(-90) scale(0.1 -0.1)">
      <use xlink:href="#DejaVuSans-4e"/>
      <use xlink:href="#DejaVuSans-4c" x="74.804688"/>
      <use xlink:href="#DejaVuSans-4c" x="130.517578"/>
      <use xlink:href="#DejaVuSans-20" x="186.230469"/>
      <use xlink:href="#DejaVuSans-4c" x="218.017578"/>
      <use xlink:href="#DejaVuSans-6f" x="271.980469"/>
      <use xlink:href="#DejaVuSans-73" x="333.162109"/>
      <use xlink:href="#DejaVuSans-73" x="385.261719"/>
     </g>
    </g>
   </g>
   <g id="line2d_61">
    <path d="M 54.93467 221.861637 
L 56.72157 228.158312 
L 58.508469 235.583378 
L 60.295368 244.575712 
L 62.082267 253.800281 
L 63.869166 261.569201 
L 65.656065 266.329505 
L 67.442965 267.688643 
L 69.229864 268.4506 
L 71.016763 269.26184 
L 72.803662 270.394329 
L 74.590561 271.359535 
L 76.377461 272.53912 
L 78.16436 273.200657 
L 79.951259 274.003173 
L 81.738158 274.64809 
L 83.525057 275.615306 
L 85.311956 276.123461 
L 87.098856 276.835185 
L 88.885755 277.423885 
L 90.672654 278.311009 
L 92.459553 278.239442 
L 94.246452 279.155145 
L 96.033352 278.886623 
L 97.820251 279.774156 
L 99.60715 279.944587 
L 101.394049 280.287822 
L 103.180948 280.334311 
L 104.967848 280.850903 
L 106.754747 280.934241 
L 108.541646 281.20031 
L 110.328545 281.637683 
L 112.115444 281.769873 
L 113.902343 282.120264 
L 115.689243 282.311189 
L 117.476142 282.49751 
L 119.263041 282.734825 
L 121.04994 283.237802 
L 122.836839 283.261245 
L 124.623739 283.346935 
L 126.410638 283.702615 
L 128.197537 283.451552 
L 129.984436 283.877507 
L 131.771335 284.445137 
L 133.558235 284.446882 
L 135.345134 284.595581 
L 137.132033 284.846511 
L 138.918932 285.111289 
L 140.705831 285.084721 
L 142.49273 284.838991 
L 144.27963 285.185031 
L 146.066529 285.294452 
L 147.853428 285.526135 
L 149.640327 285.663328 
L 151.427226 285.692093 
L 153.214126 285.514298 
L 155.001025 285.718849 
L 156.787924 286.473883 
L 158.574823 286.248637 
L 160.361722 286.326067 
L 162.148621 286.502108 
L 163.935521 286.451676 
L 165.72242 286.708868 
L 167.509319 286.876129 
L 169.296218 286.820442 
L 171.083117 287.008187 
L 172.870017 286.986764 
L 174.656916 286.70253 
L 176.443815 286.861597 
L 178.230714 286.898292 
L 180.017613 287.199587 
L 181.804513 287.163853 
L 183.591412 287.371022 
L 185.378311 287.551325 
L 187.16521 287.614831 
L 188.952109 287.575839 
L 190.739008 287.654164 
L 192.525908 287.72752 
L 194.312807 287.456348 
L 196.099706 287.31475 
L 197.886605 287.375727 
L 199.673504 287.449822 
L 201.460404 287.570042 
L 203.247303 287.79288 
L 205.034202 287.50573 
L 206.821101 287.95642 
L 208.608 287.803437 
L 210.3949 287.787933 
L 212.181799 288.006752 
L 213.968698 288.194199 
L 215.755597 287.983254 
L 217.542496 288.109205 
L 219.329395 288.28371 
L 221.116295 287.875092 
L 222.903194 288.228663 
L 224.690093 288.091658 
L 226.476992 288.081521 
L 228.263891 288.261835 
L 230.050791 288.266539 
L 231.83769 288.121153 
L 233.624589 288.386284 
L 235.411488 288.40446 
L 237.198387 288.408491 
L 238.985286 288.171606 
L 240.772186 288.536838 
L 242.559085 288.579705 
L 244.345984 288.546898 
L 246.132883 288.84614 
L 247.919782 288.417568 
L 249.706682 288.748899 
L 251.493581 288.683969 
L 253.28048 288.595043 
L 255.067379 288.319764 
L 256.854278 288.696259 
L 258.641178 288.716379 
L 260.428077 288.794957 
" clip-path="url(#p0fe7b4144b)" style="fill: none; stroke: #68b3c7; stroke-width: 1.5; stroke-linecap: square"/>
   </g>
   <g id="line2d_62">
    <path d="M 54.93467 205.93097 
L 56.72157 212.505585 
L 58.508469 219.110898 
L 60.295368 227.738519 
L 62.082267 237.048745 
L 63.869166 245.385505 
L 65.656065 250.873214 
L 67.442965 252.997831 
L 69.229864 253.582611 
L 71.016763 254.248961 
L 72.803662 254.477774 
L 74.590561 255.21621 
L 76.377461 255.799344 
L 78.16436 256.499021 
L 79.951259 257.379222 
L 81.738158 258.290087 
L 83.525057 259.139987 
L 85.311956 259.661272 
L 87.098856 260.078901 
L 88.885755 261.166237 
L 90.672654 261.978327 
L 92.459553 262.020973 
L 94.246452 262.903846 
L 96.033352 262.831164 
L 97.820251 263.872133 
L 99.60715 263.8757 
L 101.394049 264.748391 
L 103.180948 264.634609 
L 104.967848 265.389565 
L 106.754747 265.288647 
L 108.541646 265.523191 
L 110.328545 265.906267 
L 112.115444 266.102515 
L 113.902343 266.241243 
L 115.689243 266.677434 
L 117.476142 267.062365 
L 119.263041 267.276557 
L 121.04994 267.855904 
L 122.836839 267.46724 
L 124.623739 268.253159 
L 126.410638 268.480735 
L 128.197537 268.349781 
L 129.984436 268.981978 
L 131.771335 269.597466 
L 133.558235 269.47707 
L 135.345134 269.582979 
L 137.132033 269.714782 
L 138.918932 270.010292 
L 140.705831 270.207964 
L 142.49273 270.15613 
L 144.27963 270.628927 
L 146.066529 270.585851 
L 147.853428 270.923774 
L 149.640327 271.133229 
L 151.427226 271.218334 
L 153.214126 270.984243 
L 155.001025 271.035359 
L 156.787924 271.721134 
L 158.574823 271.772559 
L 160.361722 271.842082 
L 162.148621 272.214426 
L 163.935521 272.086288 
L 165.72242 272.236986 
L 167.509319 272.515489 
L 169.296218 272.294848 
L 171.083117 272.455595 
L 172.870017 272.608755 
L 174.656916 272.381422 
L 176.443815 273.129344 
L 178.230714 272.6622 
L 180.017613 272.82192 
L 181.804513 272.875299 
L 183.591412 273.334702 
L 185.378311 273.478431 
L 187.16521 273.764533 
L 188.952109 273.84776 
L 190.739008 273.514861 
L 192.525908 273.717801 
L 194.312807 273.649248 
L 196.099706 273.313058 
L 197.886605 273.687157 
L 199.673504 273.811971 
L 201.460404 273.588073 
L 203.247303 273.744667 
L 205.034202 273.706493 
L 206.821101 274.032469 
L 208.608 274.319232 
L 210.3949 274.074728 
L 212.181799 274.509241 
L 213.968698 274.345017 
L 215.755597 274.147521 
L 217.542496 274.485279 
L 219.329395 274.669413 
L 221.116295 274.450473 
L 222.903194 274.753215 
L 224.690093 274.592171 
L 226.476992 274.377305 
L 228.263891 274.471796 
L 230.050791 274.792681 
L 231.83769 274.792383 
L 233.624589 274.779717 
L 235.411488 274.98725 
L 237.198387 274.790494 
L 238.985286 274.566673 
L 240.772186 275.071472 
L 242.559085 275.50287 
L 244.345984 274.858318 
L 246.132883 275.383379 
L 247.919782 274.968202 
L 249.706682 275.322866 
L 251.493581 275.099442 
L 253.28048 274.928692 
L 255.067379 274.951384 
L 256.854278 274.804563 
L 258.641178 275.1958 
L 260.428077 275.118922 
" clip-path="url(#p0fe7b4144b)" style="fill: none; stroke: #4da1b4; stroke-width: 1.5; stroke-linecap: square"/>
   </g>
   <g id="line2d_63">
    <path d="M 54.93467 195.671925 
L 56.72157 202.702398 
L 58.508469 209.787884 
L 60.295368 218.344811 
L 62.082267 228.066084 
L 63.869166 237.234635 
L 65.656065 244.080675 
L 67.442965 247.403285 
L 69.229864 248.089711 
L 71.016763 248.043311 
L 72.803662 248.634771 
L 74.590561 249.483423 
L 76.377461 250.331788 
L 78.16436 250.239638 
L 79.951259 251.252227 
L 81.738158 252.046638 
L 83.525057 252.657158 
L 85.311956 253.401955 
L 87.098856 254.236605 
L 88.885755 254.679631 
L 90.672654 255.409576 
L 92.459553 255.903023 
L 94.246452 256.307555 
L 96.033352 256.762209 
L 97.820251 257.360427 
L 99.60715 257.519937 
L 101.394049 258.066056 
L 103.180948 258.654491 
L 104.967848 259.089843 
L 106.754747 259.210648 
L 108.541646 259.271404 
L 110.328545 259.787786 
L 112.115444 260.275325 
L 113.902343 260.499047 
L 115.689243 260.805588 
L 117.476142 261.421783 
L 119.263041 261.505883 
L 121.04994 261.599414 
L 122.836839 262.20683 
L 124.623739 262.070963 
L 126.410638 262.144992 
L 128.197537 262.560225 
L 129.984436 262.67203 
L 131.771335 263.153849 
L 133.558235 263.150426 
L 135.345134 263.683537 
L 137.132033 263.594513 
L 138.918932 263.649604 
L 140.705831 264.340933 
L 142.49273 264.080528 
L 144.27963 264.673677 
L 146.066529 264.885462 
L 147.853428 265.236018 
L 149.640327 264.830691 
L 151.427226 265.193527 
L 153.214126 265.126918 
L 155.001025 265.294798 
L 156.787924 265.822753 
L 158.574823 266.034946 
L 160.361722 266.042157 
L 162.148621 265.938511 
L 163.935521 266.396048 
L 165.72242 266.483008 
L 167.509319 266.830627 
L 169.296218 266.620984 
L 171.083117 266.763157 
L 172.870017 267.487017 
L 174.656916 266.916725 
L 176.443815 267.091639 
L 178.230714 267.354628 
L 180.017613 267.628152 
L 181.804513 267.877304 
L 183.591412 267.656553 
L 185.378311 268.117734 
L 187.16521 268.279529 
L 188.952109 268.592066 
L 190.739008 268.311729 
L 192.525908 268.29967 
L 194.312807 268.412558 
L 196.099706 267.895569 
L 197.886605 268.261474 
L 199.673504 268.284167 
L 201.460404 268.69835 
L 203.247303 268.615619 
L 205.034202 268.425257 
L 206.821101 268.945107 
L 208.608 268.969599 
L 210.3949 268.717122 
L 212.181799 269.202055 
L 213.968698 269.364314 
L 215.755597 268.921321 
L 217.542496 269.199262 
L 219.329395 269.038813 
L 221.116295 269.283538 
L 222.903194 269.56192 
L 224.690093 269.452268 
L 226.476992 269.094026 
L 228.263891 269.500966 
L 230.050791 269.693945 
L 231.83769 269.066508 
L 233.624589 269.82386 
L 235.411488 270.048212 
L 237.198387 269.687077 
L 238.985286 269.607592 
L 240.772186 269.86273 
L 242.559085 270.289138 
L 244.345984 269.805486 
L 246.132883 269.998498 
L 247.919782 269.719199 
L 249.706682 270.165737 
L 251.493581 269.842235 
L 253.28048 270.070418 
L 255.067379 269.790291 
L 256.854278 269.933071 
L 258.641178 269.995561 
L 260.428077 269.878245 
" clip-path="url(#p0fe7b4144b)" style="fill: none; stroke: #3b7d98; stroke-width: 1.5; stroke-linecap: square"/>
   </g>
   <g id="line2d_64">
    <path d="M 54.93467 190.278353 
L 56.72157 196.43333 
L 58.508469 203.264065 
L 60.295368 212.367244 
L 62.082267 222.199804 
L 63.869166 231.694462 
L 65.656065 239.141636 
L 67.442965 243.451405 
L 69.229864 244.533066 
L 71.016763 245.030024 
L 72.803662 245.586855 
L 74.590561 246.127166 
L 76.377461 246.741705 
L 78.16436 247.42981 
L 79.951259 248.144549 
L 81.738158 248.475162 
L 83.525057 249.304203 
L 85.311956 250.003913 
L 87.098856 251.218978 
L 88.885755 251.433038 
L 90.672654 252.379869 
L 92.459553 252.182561 
L 94.246452 252.861721 
L 96.033352 253.466322 
L 97.820251 254.065269 
L 99.60715 254.269931 
L 101.394049 255.150032 
L 103.180948 255.243507 
L 104.967848 256.029051 
L 106.754747 256.325433 
L 108.541646 256.236949 
L 110.328545 256.349318 
L 112.115444 256.685684 
L 113.902343 256.834571 
L 115.689243 257.643503 
L 117.476142 258.000254 
L 119.263041 258.58214 
L 121.04994 258.843683 
L 122.836839 258.636735 
L 124.623739 259.01016 
L 126.410638 259.258981 
L 128.197537 259.140418 
L 129.984436 259.822294 
L 131.771335 260.168555 
L 133.558235 260.106717 
L 135.345134 260.317243 
L 137.132033 260.461061 
L 138.918932 260.689387 
L 140.705831 261.378475 
L 142.49273 261.000047 
L 144.27963 261.528708 
L 146.066529 261.261921 
L 147.853428 261.675077 
L 149.640327 261.773532 
L 151.427226 261.677849 
L 153.214126 261.901615 
L 155.001025 261.873346 
L 156.787924 262.608072 
L 158.574823 263.106046 
L 160.361722 262.741201 
L 162.148621 262.993004 
L 163.935521 263.254966 
L 165.72242 263.370007 
L 167.509319 263.878769 
L 169.296218 263.486594 
L 171.083117 263.420184 
L 172.870017 264.057802 
L 174.656916 263.877886 
L 176.443815 264.17175 
L 178.230714 263.931674 
L 180.017613 264.757755 
L 181.804513 264.735217 
L 183.591412 264.633195 
L 185.378311 264.583416 
L 187.16521 264.981565 
L 188.952109 265.212708 
L 190.739008 265.03246 
L 192.525908 264.992001 
L 194.312807 265.474626 
L 196.099706 265.123804 
L 197.886605 265.042995 
L 199.673504 265.1961 
L 201.460404 265.359441 
L 203.247303 265.735053 
L 205.034202 265.713851 
L 206.821101 265.910949 
L 208.608 265.8544 
L 210.3949 265.88988 
L 212.181799 266.02058 
L 213.968698 265.96868 
L 215.755597 265.826573 
L 217.542496 266.302882 
L 219.329395 265.998936 
L 221.116295 266.112862 
L 222.903194 266.149612 
L 224.690093 266.561332 
L 226.476992 266.233623 
L 228.263891 266.145272 
L 230.050791 266.59245 
L 231.83769 266.486795 
L 233.624589 266.969288 
L 235.411488 266.627179 
L 237.198387 266.236649 
L 238.985286 266.687504 
L 240.772186 266.910807 
L 242.559085 266.871782 
L 244.345984 266.355522 
L 246.132883 267.200143 
L 247.919782 267.243706 
L 249.706682 267.271566 
L 251.493581 266.743645 
L 253.28048 267.304628 
L 255.067379 266.70515 
L 256.854278 266.344877 
L 258.641178 267.209805 
L 260.428077 267.241221 
" clip-path="url(#p0fe7b4144b)" style="fill: none; stroke: #2c5b73; stroke-width: 1.5; stroke-linecap: square"/>
   </g>
   <g id="patch_9">
    <path d="M 44.66 318.04 
L 44.66 185.4 
" style="fill: none; stroke: #000000; stroke-width: 0.8; stroke-linejoin: miter; stroke-linecap: square"/>
   </g>
   <g id="patch_10">
    <path d="M 270.702747 318.04 
L 270.702747 185.4 
" style="fill: none; stroke: #000000; stroke-width: 0.8; stroke-linejoin: miter; stroke-linecap: square"/>
   </g>
   <g id="patch_11">
    <path d="M 44.66 318.04 
L 270.702747 318.04 
" style="fill: none; stroke: #000000; stroke-width: 0.8; stroke-linejoin: miter; stroke-linecap: square"/>
   </g>
   <g id="patch_12">
    <path d="M 44.66 185.4 
L 270.702747 185.4 
" style="fill: none; stroke: #000000; stroke-width: 0.8; stroke-linejoin: miter; stroke-linecap: square"/>
   </g>
   <g id="legend_2">
    <g id="patch_13">
     <path d="M 211.9372 241.898225 
L 264.871747 241.898225 
Q 266.537747 241.898225 266.537747 240.232225 
L 266.537747 191.231 
Q 266.537747 189.565 264.871747 189.565 
L 211.9372 189.565 
Q 210.2712 189.565 210.2712 191.231 
L 210.2712 240.232225 
Q 210.2712 241.898225 211.9372 241.898225 
z
" style="fill: #ffffff; opacity: 0.8; stroke: #cccccc; stroke-linejoin: miter"/>
    </g>
    <g id="line2d_65">
     <path d="M 213.6032 196.310998 
L 221.9332 196.310998 
L 230.2632 196.310998 
" style="fill: none; stroke: #68b3c7; stroke-width: 1.5; stroke-linecap: square"/>
    </g>
    <g id="text_35">
     <!-- tr_10k -->
     <g transform="translate(236.9272 199.226498) scale(0.0833 -0.0833)">
      <use xlink:href="#DejaVuSans-74"/>
      <use xlink:href="#DejaVuSans-72" x="39.208984"/>
      <use xlink:href="#DejaVuSans-5f" x="80.322266"/>
      <use xlink:href="#DejaVuSans-31" x="130.322266"/>
      <use xlink:href="#DejaVuSans-30" x="193.945312"/>
      <use xlink:href="#DejaVuSans-6b" x="257.568359"/>
     </g>
    </g>
    <g id="line2d_66">
     <path d="M 213.6032 208.769555 
L 221.9332 208.769555 
L 230.2632 208.769555 
" style="fill: none; stroke: #4da1b4; stroke-width: 1.5; stroke-linecap: square"/>
    </g>
    <g id="text_36">
     <!-- tr_20k -->
     <g transform="translate(236.9272 211.685055) scale(0.0833 -0.0833)">
      <use xlink:href="#DejaVuSans-74"/>
      <use xlink:href="#DejaVuSans-72" x="39.208984"/>
      <use xlink:href="#DejaVuSans-5f" x="80.322266"/>
      <use xlink:href="#DejaVuSans-32" x="130.322266"/>
      <use xlink:href="#DejaVuSans-30" x="193.945312"/>
      <use xlink:href="#DejaVuSans-6b" x="257.568359"/>
     </g>
    </g>
    <g id="line2d_67">
     <path d="M 213.6032 221.228111 
L 221.9332 221.228111 
L 230.2632 221.228111 
" style="fill: none; stroke: #3b7d98; stroke-width: 1.5; stroke-linecap: square"/>
    </g>
    <g id="text_37">
     <!-- tr_30k -->
     <g transform="translate(236.9272 224.143611) scale(0.0833 -0.0833)">
      <use xlink:href="#DejaVuSans-74"/>
      <use xlink:href="#DejaVuSans-72" x="39.208984"/>
      <use xlink:href="#DejaVuSans-5f" x="80.322266"/>
      <use xlink:href="#DejaVuSans-33" x="130.322266"/>
      <use xlink:href="#DejaVuSans-30" x="193.945312"/>
      <use xlink:href="#DejaVuSans-6b" x="257.568359"/>
     </g>
    </g>
    <g id="line2d_68">
     <path d="M 213.6032 233.686667 
L 221.9332 233.686667 
L 230.2632 233.686667 
" style="fill: none; stroke: #2c5b73; stroke-width: 1.5; stroke-linecap: square"/>
    </g>
    <g id="text_38">
     <!-- tr_40k -->
     <g transform="translate(236.9272 236.602167) scale(0.0833 -0.0833)">
      <use xlink:href="#DejaVuSans-74"/>
      <use xlink:href="#DejaVuSans-72" x="39.208984"/>
      <use xlink:href="#DejaVuSans-5f" x="80.322266"/>
      <use xlink:href="#DejaVuSans-34" x="130.322266"/>
      <use xlink:href="#DejaVuSans-30" x="193.945312"/>
      <use xlink:href="#DejaVuSans-6b" x="257.568359"/>
     </g>
    </g>
   </g>
  </g>
 </g>
 <defs>
  <clipPath id="p1c6b86994d">
   <rect x="44.66" y="10.8" width="226.042747" height="132.64"/>
  </clipPath>
  <clipPath id="p0fe7b4144b">
   <rect x="44.66" y="185.4" width="226.042747" height="132.64"/>
  </clipPath>
 </defs>
</svg>
