<?xml version="1.0" encoding="utf-8" standalone="no"?>
<!DOCTYPE svg PUBLIC "-//W3C//DTD SVG 1.1//EN"
  "http://www.w3.org/Graphics/SVG/1.1/DTD/svg11.dtd">
<svg xmlns:xlink="http://www.w3.org/1999/xlink" width="288pt" height="360pt" viewBox="0 0 288 360" xmlns="http://www.w3.org/2000/svg" version="1.1">
 <metadata>
  <rdf:RDF xmlns:dc="http://purl.org/dc/elements/1.1/" xmlns:cc="http://creativecommons.org/ns#" xmlns:rdf="http://www.w3.org/1999/02/22-rdf-syntax-ns#">
   <cc:Work>
    <dc:type rdf:resource="http://purl.org/dc/dcmitype/StillImage"/>
    <dc:date>2024-12-17T16:34:28.882021</dc:date>
    <dc:format>image/svg+xml</dc:format>
    <dc:creator>
     <cc:Agent>
      <dc:title>Matplotlib v3.8.0, https://matplotlib.org/</dc:title>
     </cc:Agent>
    </dc:creator>
   </cc:Work>
  </rdf:RDF>
 </metadata>
 <defs>
  <style type="text/css">*{stroke-linejoin: round; stroke-linecap: butt}</style>
 </defs>
 <g id="figure_1">
  <g id="patch_1">
   <path d="M 0 360 
L 288 360 
L 288 0 
L 0 0 
z
" style="fill: #ffffff"/>
  </g>
  <g id="axes_1">
   <g id="patch_2">
    <path d="M 47.81 143.44 
L 270.702747 143.44 
L 270.702747 10.8 
L 47.81 10.8 
z
" style="fill: #ffffff"/>
   </g>
   <g id="matplotlib.axis_1">
    <g id="xtick_1">
     <g id="line2d_1">
      <path d="M 56.179491 143.44 
L 56.179491 10.8 
" clip-path="url(#p9e62453592)" style="fill: none; stroke: #808080; stroke-opacity: 0.25; stroke-width: 0.5; stroke-linecap: square"/>
     </g>
     <g id="line2d_2">
      <defs>
       <path id="m101c21fabc" d="M 0 0 
L 0 3.5 
" style="stroke: #000000; stroke-width: 0.8"/>
      </defs>
      <g>
       <use xlink:href="#m101c21fabc" x="56.179491" y="143.44" style="stroke: #000000; stroke-width: 0.8"/>
      </g>
     </g>
     <g id="text_1">
      <!-- 0 -->
      <g transform="translate(52.998241 158.038438) scale(0.1 -0.1)">
       <defs>
        <path id="DejaVuSans-30" d="M 2034 4250 
Q 1547 4250 1301 3770 
Q 1056 3291 1056 2328 
Q 1056 1369 1301 889 
Q 1547 409 2034 409 
Q 2525 409 2770 889 
Q 3016 1369 3016 2328 
Q 3016 3291 2770 3770 
Q 2525 4250 2034 4250 
z
M 2034 4750 
Q 2819 4750 3233 4129 
Q 3647 3509 3647 2328 
Q 3647 1150 3233 529 
Q 2819 -91 2034 -91 
Q 1250 -91 836 529 
Q 422 1150 422 2328 
Q 422 3509 836 4129 
Q 1250 4750 2034 4750 
z
" transform="scale(0.015625)"/>
       </defs>
       <use xlink:href="#DejaVuSans-30"/>
      </g>
     </g>
    </g>
    <g id="xtick_2">
     <g id="line2d_3">
      <path d="M 91.419451 143.44 
L 91.419451 10.8 
" clip-path="url(#p9e62453592)" style="fill: none; stroke: #808080; stroke-opacity: 0.25; stroke-width: 0.5; stroke-linecap: square"/>
     </g>
     <g id="line2d_4">
      <g>
       <use xlink:href="#m101c21fabc" x="91.419451" y="143.44" style="stroke: #000000; stroke-width: 0.8"/>
      </g>
     </g>
     <g id="text_2">
      <!-- 100 -->
      <g transform="translate(81.875701 158.038438) scale(0.1 -0.1)">
       <defs>
        <path id="DejaVuSans-31" d="M 794 531 
L 1825 531 
L 1825 4091 
L 703 3866 
L 703 4441 
L 1819 4666 
L 2450 4666 
L 2450 531 
L 3481 531 
L 3481 0 
L 794 0 
L 794 531 
z
" transform="scale(0.015625)"/>
       </defs>
       <use xlink:href="#DejaVuSans-31"/>
       <use xlink:href="#DejaVuSans-30" x="63.623047"/>
       <use xlink:href="#DejaVuSans-30" x="127.246094"/>
      </g>
     </g>
    </g>
    <g id="xtick_3">
     <g id="line2d_5">
      <path d="M 126.659411 143.44 
L 126.659411 10.8 
" clip-path="url(#p9e62453592)" style="fill: none; stroke: #808080; stroke-opacity: 0.25; stroke-width: 0.5; stroke-linecap: square"/>
     </g>
     <g id="line2d_6">
      <g>
       <use xlink:href="#m101c21fabc" x="126.659411" y="143.44" style="stroke: #000000; stroke-width: 0.8"/>
      </g>
     </g>
     <g id="text_3">
      <!-- 200 -->
      <g transform="translate(117.115661 158.038438) scale(0.1 -0.1)">
       <defs>
        <path id="DejaVuSans-32" d="M 1228 531 
L 3431 531 
L 3431 0 
L 469 0 
L 469 531 
Q 828 903 1448 1529 
Q 2069 2156 2228 2338 
Q 2531 2678 2651 2914 
Q 2772 3150 2772 3378 
Q 2772 3750 2511 3984 
Q 2250 4219 1831 4219 
Q 1534 4219 1204 4116 
Q 875 4013 500 3803 
L 500 4441 
Q 881 4594 1212 4672 
Q 1544 4750 1819 4750 
Q 2544 4750 2975 4387 
Q 3406 4025 3406 3419 
Q 3406 3131 3298 2873 
Q 3191 2616 2906 2266 
Q 2828 2175 2409 1742 
Q 1991 1309 1228 531 
z
" transform="scale(0.015625)"/>
       </defs>
       <use xlink:href="#DejaVuSans-32"/>
       <use xlink:href="#DejaVuSans-30" x="63.623047"/>
       <use xlink:href="#DejaVuSans-30" x="127.246094"/>
      </g>
     </g>
    </g>
    <g id="xtick_4">
     <g id="line2d_7">
      <path d="M 161.899371 143.44 
L 161.899371 10.8 
" clip-path="url(#p9e62453592)" style="fill: none; stroke: #808080; stroke-opacity: 0.25; stroke-width: 0.5; stroke-linecap: square"/>
     </g>
     <g id="line2d_8">
      <g>
       <use xlink:href="#m101c21fabc" x="161.899371" y="143.44" style="stroke: #000000; stroke-width: 0.8"/>
      </g>
     </g>
     <g id="text_4">
      <!-- 300 -->
      <g transform="translate(152.355621 158.038438) scale(0.1 -0.1)">
       <defs>
        <path id="DejaVuSans-33" d="M 2597 2516 
Q 3050 2419 3304 2112 
Q 3559 1806 3559 1356 
Q 3559 666 3084 287 
Q 2609 -91 1734 -91 
Q 1441 -91 1130 -33 
Q 819 25 488 141 
L 488 750 
Q 750 597 1062 519 
Q 1375 441 1716 441 
Q 2309 441 2620 675 
Q 2931 909 2931 1356 
Q 2931 1769 2642 2001 
Q 2353 2234 1838 2234 
L 1294 2234 
L 1294 2753 
L 1863 2753 
Q 2328 2753 2575 2939 
Q 2822 3125 2822 3475 
Q 2822 3834 2567 4026 
Q 2313 4219 1838 4219 
Q 1578 4219 1281 4162 
Q 984 4106 628 3988 
L 628 4550 
Q 988 4650 1302 4700 
Q 1616 4750 1894 4750 
Q 2613 4750 3031 4423 
Q 3450 4097 3450 3541 
Q 3450 3153 3228 2886 
Q 3006 2619 2597 2516 
z
" transform="scale(0.015625)"/>
       </defs>
       <use xlink:href="#DejaVuSans-33"/>
       <use xlink:href="#DejaVuSans-30" x="63.623047"/>
       <use xlink:href="#DejaVuSans-30" x="127.246094"/>
      </g>
     </g>
    </g>
    <g id="xtick_5">
     <g id="line2d_9">
      <path d="M 197.139331 143.44 
L 197.139331 10.8 
" clip-path="url(#p9e62453592)" style="fill: none; stroke: #808080; stroke-opacity: 0.25; stroke-width: 0.5; stroke-linecap: square"/>
     </g>
     <g id="line2d_10">
      <g>
       <use xlink:href="#m101c21fabc" x="197.139331" y="143.44" style="stroke: #000000; stroke-width: 0.8"/>
      </g>
     </g>
     <g id="text_5">
      <!-- 400 -->
      <g transform="translate(187.595581 158.038438) scale(0.1 -0.1)">
       <defs>
        <path id="DejaVuSans-34" d="M 2419 4116 
L 825 1625 
L 2419 1625 
L 2419 4116 
z
M 2253 4666 
L 3047 4666 
L 3047 1625 
L 3713 1625 
L 3713 1100 
L 3047 1100 
L 3047 0 
L 2419 0 
L 2419 1100 
L 313 1100 
L 313 1709 
L 2253 4666 
z
" transform="scale(0.015625)"/>
       </defs>
       <use xlink:href="#DejaVuSans-34"/>
       <use xlink:href="#DejaVuSans-30" x="63.623047"/>
       <use xlink:href="#DejaVuSans-30" x="127.246094"/>
      </g>
     </g>
    </g>
    <g id="xtick_6">
     <g id="line2d_11">
      <path d="M 232.379291 143.44 
L 232.379291 10.8 
" clip-path="url(#p9e62453592)" style="fill: none; stroke: #808080; stroke-opacity: 0.25; stroke-width: 0.5; stroke-linecap: square"/>
     </g>
     <g id="line2d_12">
      <g>
       <use xlink:href="#m101c21fabc" x="232.379291" y="143.44" style="stroke: #000000; stroke-width: 0.8"/>
      </g>
     </g>
     <g id="text_6">
      <!-- 500 -->
      <g transform="translate(222.835541 158.038438) scale(0.1 -0.1)">
       <defs>
        <path id="DejaVuSans-35" d="M 691 4666 
L 3169 4666 
L 3169 4134 
L 1269 4134 
L 1269 2991 
Q 1406 3038 1543 3061 
Q 1681 3084 1819 3084 
Q 2600 3084 3056 2656 
Q 3513 2228 3513 1497 
Q 3513 744 3044 326 
Q 2575 -91 1722 -91 
Q 1428 -91 1123 -41 
Q 819 9 494 109 
L 494 744 
Q 775 591 1075 516 
Q 1375 441 1709 441 
Q 2250 441 2565 725 
Q 2881 1009 2881 1497 
Q 2881 1984 2565 2268 
Q 2250 2553 1709 2553 
Q 1456 2553 1204 2497 
Q 953 2441 691 2322 
L 691 4666 
z
" transform="scale(0.015625)"/>
       </defs>
       <use xlink:href="#DejaVuSans-35"/>
       <use xlink:href="#DejaVuSans-30" x="63.623047"/>
       <use xlink:href="#DejaVuSans-30" x="127.246094"/>
      </g>
     </g>
    </g>
    <g id="xtick_7">
     <g id="line2d_13">
      <path d="M 267.619251 143.44 
L 267.619251 10.8 
" clip-path="url(#p9e62453592)" style="fill: none; stroke: #808080; stroke-opacity: 0.25; stroke-width: 0.5; stroke-linecap: square"/>
     </g>
     <g id="line2d_14">
      <g>
       <use xlink:href="#m101c21fabc" x="267.619251" y="143.44" style="stroke: #000000; stroke-width: 0.8"/>
      </g>
     </g>
     <g id="text_7">
      <!-- 600 -->
      <g transform="translate(258.075501 158.038438) scale(0.1 -0.1)">
       <defs>
        <path id="DejaVuSans-36" d="M 2113 2584 
Q 1688 2584 1439 2293 
Q 1191 2003 1191 1497 
Q 1191 994 1439 701 
Q 1688 409 2113 409 
Q 2538 409 2786 701 
Q 3034 994 3034 1497 
Q 3034 2003 2786 2293 
Q 2538 2584 2113 2584 
z
M 3366 4563 
L 3366 3988 
Q 3128 4100 2886 4159 
Q 2644 4219 2406 4219 
Q 1781 4219 1451 3797 
Q 1122 3375 1075 2522 
Q 1259 2794 1537 2939 
Q 1816 3084 2150 3084 
Q 2853 3084 3261 2657 
Q 3669 2231 3669 1497 
Q 3669 778 3244 343 
Q 2819 -91 2113 -91 
Q 1303 -91 875 529 
Q 447 1150 447 2328 
Q 447 3434 972 4092 
Q 1497 4750 2381 4750 
Q 2619 4750 2861 4703 
Q 3103 4656 3366 4563 
z
" transform="scale(0.015625)"/>
       </defs>
       <use xlink:href="#DejaVuSans-36"/>
       <use xlink:href="#DejaVuSans-30" x="63.623047"/>
       <use xlink:href="#DejaVuSans-30" x="127.246094"/>
      </g>
     </g>
    </g>
    <g id="text_8">
     <!-- Training Steps -->
     <g transform="translate(123.951686 171.716563) scale(0.1 -0.1)">
      <defs>
       <path id="DejaVuSans-54" d="M -19 4666 
L 3928 4666 
L 3928 4134 
L 2272 4134 
L 2272 0 
L 1638 0 
L 1638 4134 
L -19 4134 
L -19 4666 
z
" transform="scale(0.015625)"/>
       <path id="DejaVuSans-72" d="M 2631 2963 
Q 2534 3019 2420 3045 
Q 2306 3072 2169 3072 
Q 1681 3072 1420 2755 
Q 1159 2438 1159 1844 
L 1159 0 
L 581 0 
L 581 3500 
L 1159 3500 
L 1159 2956 
Q 1341 3275 1631 3429 
Q 1922 3584 2338 3584 
Q 2397 3584 2469 3576 
Q 2541 3569 2628 3553 
L 2631 2963 
z
" transform="scale(0.015625)"/>
       <path id="DejaVuSans-61" d="M 2194 1759 
Q 1497 1759 1228 1600 
Q 959 1441 959 1056 
Q 959 750 1161 570 
Q 1363 391 1709 391 
Q 2188 391 2477 730 
Q 2766 1069 2766 1631 
L 2766 1759 
L 2194 1759 
z
M 3341 1997 
L 3341 0 
L 2766 0 
L 2766 531 
Q 2569 213 2275 61 
Q 1981 -91 1556 -91 
Q 1019 -91 701 211 
Q 384 513 384 1019 
Q 384 1609 779 1909 
Q 1175 2209 1959 2209 
L 2766 2209 
L 2766 2266 
Q 2766 2663 2505 2880 
Q 2244 3097 1772 3097 
Q 1472 3097 1187 3025 
Q 903 2953 641 2809 
L 641 3341 
Q 956 3463 1253 3523 
Q 1550 3584 1831 3584 
Q 2591 3584 2966 3190 
Q 3341 2797 3341 1997 
z
" transform="scale(0.015625)"/>
       <path id="DejaVuSans-69" d="M 603 3500 
L 1178 3500 
L 1178 0 
L 603 0 
L 603 3500 
z
M 603 4863 
L 1178 4863 
L 1178 4134 
L 603 4134 
L 603 4863 
z
" transform="scale(0.015625)"/>
       <path id="DejaVuSans-6e" d="M 3513 2113 
L 3513 0 
L 2938 0 
L 2938 2094 
Q 2938 2591 2744 2837 
Q 2550 3084 2163 3084 
Q 1697 3084 1428 2787 
Q 1159 2491 1159 1978 
L 1159 0 
L 581 0 
L 581 3500 
L 1159 3500 
L 1159 2956 
Q 1366 3272 1645 3428 
Q 1925 3584 2291 3584 
Q 2894 3584 3203 3211 
Q 3513 2838 3513 2113 
z
" transform="scale(0.015625)"/>
       <path id="DejaVuSans-67" d="M 2906 1791 
Q 2906 2416 2648 2759 
Q 2391 3103 1925 3103 
Q 1463 3103 1205 2759 
Q 947 2416 947 1791 
Q 947 1169 1205 825 
Q 1463 481 1925 481 
Q 2391 481 2648 825 
Q 2906 1169 2906 1791 
z
M 3481 434 
Q 3481 -459 3084 -895 
Q 2688 -1331 1869 -1331 
Q 1566 -1331 1297 -1286 
Q 1028 -1241 775 -1147 
L 775 -588 
Q 1028 -725 1275 -790 
Q 1522 -856 1778 -856 
Q 2344 -856 2625 -561 
Q 2906 -266 2906 331 
L 2906 616 
Q 2728 306 2450 153 
Q 2172 0 1784 0 
Q 1141 0 747 490 
Q 353 981 353 1791 
Q 353 2603 747 3093 
Q 1141 3584 1784 3584 
Q 2172 3584 2450 3431 
Q 2728 3278 2906 2969 
L 2906 3500 
L 3481 3500 
L 3481 434 
z
" transform="scale(0.015625)"/>
       <path id="DejaVuSans-20" transform="scale(0.015625)"/>
       <path id="DejaVuSans-53" d="M 3425 4513 
L 3425 3897 
Q 3066 4069 2747 4153 
Q 2428 4238 2131 4238 
Q 1616 4238 1336 4038 
Q 1056 3838 1056 3469 
Q 1056 3159 1242 3001 
Q 1428 2844 1947 2747 
L 2328 2669 
Q 3034 2534 3370 2195 
Q 3706 1856 3706 1288 
Q 3706 609 3251 259 
Q 2797 -91 1919 -91 
Q 1588 -91 1214 -16 
Q 841 59 441 206 
L 441 856 
Q 825 641 1194 531 
Q 1563 422 1919 422 
Q 2459 422 2753 634 
Q 3047 847 3047 1241 
Q 3047 1584 2836 1778 
Q 2625 1972 2144 2069 
L 1759 2144 
Q 1053 2284 737 2584 
Q 422 2884 422 3419 
Q 422 4038 858 4394 
Q 1294 4750 2059 4750 
Q 2388 4750 2728 4690 
Q 3069 4631 3425 4513 
z
" transform="scale(0.015625)"/>
       <path id="DejaVuSans-74" d="M 1172 4494 
L 1172 3500 
L 2356 3500 
L 2356 3053 
L 1172 3053 
L 1172 1153 
Q 1172 725 1289 603 
Q 1406 481 1766 481 
L 2356 481 
L 2356 0 
L 1766 0 
Q 1100 0 847 248 
Q 594 497 594 1153 
L 594 3053 
L 172 3053 
L 172 3500 
L 594 3500 
L 594 4494 
L 1172 4494 
z
" transform="scale(0.015625)"/>
       <path id="DejaVuSans-65" d="M 3597 1894 
L 3597 1613 
L 953 1613 
Q 991 1019 1311 708 
Q 1631 397 2203 397 
Q 2534 397 2845 478 
Q 3156 559 3463 722 
L 3463 178 
Q 3153 47 2828 -22 
Q 2503 -91 2169 -91 
Q 1331 -91 842 396 
Q 353 884 353 1716 
Q 353 2575 817 3079 
Q 1281 3584 2069 3584 
Q 2775 3584 3186 3129 
Q 3597 2675 3597 1894 
z
M 3022 2063 
Q 3016 2534 2758 2815 
Q 2500 3097 2075 3097 
Q 1594 3097 1305 2825 
Q 1016 2553 972 2059 
L 3022 2063 
z
" transform="scale(0.015625)"/>
       <path id="DejaVuSans-70" d="M 1159 525 
L 1159 -1331 
L 581 -1331 
L 581 3500 
L 1159 3500 
L 1159 2969 
Q 1341 3281 1617 3432 
Q 1894 3584 2278 3584 
Q 2916 3584 3314 3078 
Q 3713 2572 3713 1747 
Q 3713 922 3314 415 
Q 2916 -91 2278 -91 
Q 1894 -91 1617 61 
Q 1341 213 1159 525 
z
M 3116 1747 
Q 3116 2381 2855 2742 
Q 2594 3103 2138 3103 
Q 1681 3103 1420 2742 
Q 1159 2381 1159 1747 
Q 1159 1113 1420 752 
Q 1681 391 2138 391 
Q 2594 391 2855 752 
Q 3116 1113 3116 1747 
z
" transform="scale(0.015625)"/>
       <path id="DejaVuSans-73" d="M 2834 3397 
L 2834 2853 
Q 2591 2978 2328 3040 
Q 2066 3103 1784 3103 
Q 1356 3103 1142 2972 
Q 928 2841 928 2578 
Q 928 2378 1081 2264 
Q 1234 2150 1697 2047 
L 1894 2003 
Q 2506 1872 2764 1633 
Q 3022 1394 3022 966 
Q 3022 478 2636 193 
Q 2250 -91 1575 -91 
Q 1294 -91 989 -36 
Q 684 19 347 128 
L 347 722 
Q 666 556 975 473 
Q 1284 391 1588 391 
Q 1994 391 2212 530 
Q 2431 669 2431 922 
Q 2431 1156 2273 1281 
Q 2116 1406 1581 1522 
L 1381 1569 
Q 847 1681 609 1914 
Q 372 2147 372 2553 
Q 372 3047 722 3315 
Q 1072 3584 1716 3584 
Q 2034 3584 2315 3537 
Q 2597 3491 2834 3397 
z
" transform="scale(0.015625)"/>
      </defs>
      <use xlink:href="#DejaVuSans-54"/>
      <use xlink:href="#DejaVuSans-72" x="46.333984"/>
      <use xlink:href="#DejaVuSans-61" x="87.447266"/>
      <use xlink:href="#DejaVuSans-69" x="148.726562"/>
      <use xlink:href="#DejaVuSans-6e" x="176.509766"/>
      <use xlink:href="#DejaVuSans-69" x="239.888672"/>
      <use xlink:href="#DejaVuSans-6e" x="267.671875"/>
      <use xlink:href="#DejaVuSans-67" x="331.050781"/>
      <use xlink:href="#DejaVuSans-20" x="394.527344"/>
      <use xlink:href="#DejaVuSans-53" x="426.314453"/>
      <use xlink:href="#DejaVuSans-74" x="489.791016"/>
      <use xlink:href="#DejaVuSans-65" x="529"/>
      <use xlink:href="#DejaVuSans-70" x="590.523438"/>
      <use xlink:href="#DejaVuSans-73" x="654"/>
     </g>
    </g>
   </g>
   <g id="matplotlib.axis_2">
    <g id="ytick_1">
     <g id="line2d_15">
      <path d="M 47.81 125.635199 
L 270.702747 125.635199 
" clip-path="url(#p9e62453592)" style="fill: none; stroke: #808080; stroke-opacity: 0.25; stroke-width: 0.5; stroke-linecap: square"/>
     </g>
     <g id="line2d_16">
      <defs>
       <path id="m34ee3b01c9" d="M 0 0 
L -3.5 0 
" style="stroke: #000000; stroke-width: 0.8"/>
      </defs>
      <g>
       <use xlink:href="#m34ee3b01c9" x="47.81" y="125.635199" style="stroke: #000000; stroke-width: 0.8"/>
      </g>
     </g>
     <g id="text_9">
      <!-- 2.5 -->
      <g transform="translate(24.906875 129.434418) scale(0.1 -0.1)">
       <defs>
        <path id="DejaVuSans-2e" d="M 684 794 
L 1344 794 
L 1344 0 
L 684 0 
L 684 794 
z
" transform="scale(0.015625)"/>
       </defs>
       <use xlink:href="#DejaVuSans-32"/>
       <use xlink:href="#DejaVuSans-2e" x="63.623047"/>
       <use xlink:href="#DejaVuSans-35" x="95.410156"/>
      </g>
     </g>
    </g>
    <g id="ytick_2">
     <g id="line2d_17">
      <path d="M 47.81 98.234989 
L 270.702747 98.234989 
" clip-path="url(#p9e62453592)" style="fill: none; stroke: #808080; stroke-opacity: 0.25; stroke-width: 0.5; stroke-linecap: square"/>
     </g>
     <g id="line2d_18">
      <g>
       <use xlink:href="#m34ee3b01c9" x="47.81" y="98.234989" style="stroke: #000000; stroke-width: 0.8"/>
      </g>
     </g>
     <g id="text_10">
      <!-- 3.0 -->
      <g transform="translate(24.906875 102.034208) scale(0.1 -0.1)">
       <use xlink:href="#DejaVuSans-33"/>
       <use xlink:href="#DejaVuSans-2e" x="63.623047"/>
       <use xlink:href="#DejaVuSans-30" x="95.410156"/>
      </g>
     </g>
    </g>
    <g id="ytick_3">
     <g id="line2d_19">
      <path d="M 47.81 70.834779 
L 270.702747 70.834779 
" clip-path="url(#p9e62453592)" style="fill: none; stroke: #808080; stroke-opacity: 0.25; stroke-width: 0.5; stroke-linecap: square"/>
     </g>
     <g id="line2d_20">
      <g>
       <use xlink:href="#m34ee3b01c9" x="47.81" y="70.834779" style="stroke: #000000; stroke-width: 0.8"/>
      </g>
     </g>
     <g id="text_11">
      <!-- 3.5 -->
      <g transform="translate(24.906875 74.633998) scale(0.1 -0.1)">
       <use xlink:href="#DejaVuSans-33"/>
       <use xlink:href="#DejaVuSans-2e" x="63.623047"/>
       <use xlink:href="#DejaVuSans-35" x="95.410156"/>
      </g>
     </g>
    </g>
    <g id="ytick_4">
     <g id="line2d_21">
      <path d="M 47.81 43.434569 
L 270.702747 43.434569 
" clip-path="url(#p9e62453592)" style="fill: none; stroke: #808080; stroke-opacity: 0.25; stroke-width: 0.5; stroke-linecap: square"/>
     </g>
     <g id="line2d_22">
      <g>
       <use xlink:href="#m34ee3b01c9" x="47.81" y="43.434569" style="stroke: #000000; stroke-width: 0.8"/>
      </g>
     </g>
     <g id="text_12">
      <!-- 4.0 -->
      <g transform="translate(24.906875 47.233788) scale(0.1 -0.1)">
       <use xlink:href="#DejaVuSans-34"/>
       <use xlink:href="#DejaVuSans-2e" x="63.623047"/>
       <use xlink:href="#DejaVuSans-30" x="95.410156"/>
      </g>
     </g>
    </g>
    <g id="ytick_5">
     <g id="line2d_23">
      <path d="M 47.81 16.034359 
L 270.702747 16.034359 
" clip-path="url(#p9e62453592)" style="fill: none; stroke: #808080; stroke-opacity: 0.25; stroke-width: 0.5; stroke-linecap: square"/>
     </g>
     <g id="line2d_24">
      <g>
       <use xlink:href="#m34ee3b01c9" x="47.81" y="16.034359" style="stroke: #000000; stroke-width: 0.8"/>
      </g>
     </g>
     <g id="text_13">
      <!-- 4.5 -->
      <g transform="translate(24.906875 19.833578) scale(0.1 -0.1)">
       <use xlink:href="#DejaVuSans-34"/>
       <use xlink:href="#DejaVuSans-2e" x="63.623047"/>
       <use xlink:href="#DejaVuSans-35" x="95.410156"/>
      </g>
     </g>
    </g>
    <g id="text_14">
     <!-- BPC Loss -->
     <g transform="translate(18.827187 99.612969) rotate(-90) scale(0.1 -0.1)">
      <defs>
       <path id="DejaVuSans-42" d="M 1259 2228 
L 1259 519 
L 2272 519 
Q 2781 519 3026 730 
Q 3272 941 3272 1375 
Q 3272 1813 3026 2020 
Q 2781 2228 2272 2228 
L 1259 2228 
z
M 1259 4147 
L 1259 2741 
L 2194 2741 
Q 2656 2741 2882 2914 
Q 3109 3088 3109 3444 
Q 3109 3797 2882 3972 
Q 2656 4147 2194 4147 
L 1259 4147 
z
M 628 4666 
L 2241 4666 
Q 2963 4666 3353 4366 
Q 3744 4066 3744 3513 
Q 3744 3084 3544 2831 
Q 3344 2578 2956 2516 
Q 3422 2416 3680 2098 
Q 3938 1781 3938 1306 
Q 3938 681 3513 340 
Q 3088 0 2303 0 
L 628 0 
L 628 4666 
z
" transform="scale(0.015625)"/>
       <path id="DejaVuSans-50" d="M 1259 4147 
L 1259 2394 
L 2053 2394 
Q 2494 2394 2734 2622 
Q 2975 2850 2975 3272 
Q 2975 3691 2734 3919 
Q 2494 4147 2053 4147 
L 1259 4147 
z
M 628 4666 
L 2053 4666 
Q 2838 4666 3239 4311 
Q 3641 3956 3641 3272 
Q 3641 2581 3239 2228 
Q 2838 1875 2053 1875 
L 1259 1875 
L 1259 0 
L 628 0 
L 628 4666 
z
" transform="scale(0.015625)"/>
       <path id="DejaVuSans-43" d="M 4122 4306 
L 4122 3641 
Q 3803 3938 3442 4084 
Q 3081 4231 2675 4231 
Q 1875 4231 1450 3742 
Q 1025 3253 1025 2328 
Q 1025 1406 1450 917 
Q 1875 428 2675 428 
Q 3081 428 3442 575 
Q 3803 722 4122 1019 
L 4122 359 
Q 3791 134 3420 21 
Q 3050 -91 2638 -91 
Q 1578 -91 968 557 
Q 359 1206 359 2328 
Q 359 3453 968 4101 
Q 1578 4750 2638 4750 
Q 3056 4750 3426 4639 
Q 3797 4528 4122 4306 
z
" transform="scale(0.015625)"/>
       <path id="DejaVuSans-4c" d="M 628 4666 
L 1259 4666 
L 1259 531 
L 3531 531 
L 3531 0 
L 628 0 
L 628 4666 
z
" transform="scale(0.015625)"/>
       <path id="DejaVuSans-6f" d="M 1959 3097 
Q 1497 3097 1228 2736 
Q 959 2375 959 1747 
Q 959 1119 1226 758 
Q 1494 397 1959 397 
Q 2419 397 2687 759 
Q 2956 1122 2956 1747 
Q 2956 2369 2687 2733 
Q 2419 3097 1959 3097 
z
M 1959 3584 
Q 2709 3584 3137 3096 
Q 3566 2609 3566 1747 
Q 3566 888 3137 398 
Q 2709 -91 1959 -91 
Q 1206 -91 779 398 
Q 353 888 353 1747 
Q 353 2609 779 3096 
Q 1206 3584 1959 3584 
z
" transform="scale(0.015625)"/>
      </defs>
      <use xlink:href="#DejaVuSans-42"/>
      <use xlink:href="#DejaVuSans-50" x="68.603516"/>
      <use xlink:href="#DejaVuSans-43" x="128.90625"/>
      <use xlink:href="#DejaVuSans-20" x="198.730469"/>
      <use xlink:href="#DejaVuSans-4c" x="230.517578"/>
      <use xlink:href="#DejaVuSans-6f" x="284.480469"/>
      <use xlink:href="#DejaVuSans-73" x="345.662109"/>
      <use xlink:href="#DejaVuSans-73" x="397.761719"/>
     </g>
    </g>
   </g>
   <g id="line2d_25">
    <path d="M 57.941489 43.700968 
L 59.703487 51.003102 
L 61.465485 61.938455 
L 63.227483 76.379031 
L 64.989481 91.788773 
L 66.751479 102.19737 
L 68.513477 109.344597 
L 70.275475 112.911766 
L 72.037473 114.211906 
L 73.799471 114.360899 
L 75.561469 115.709405 
L 77.323467 117.389361 
L 79.085465 119.02455 
L 80.847463 120.385527 
L 82.609461 121.463333 
L 84.371459 122.621079 
L 86.133457 124.071892 
L 87.895455 122.666336 
L 89.657453 123.991095 
L 91.419451 124.825751 
L 93.181449 126.773472 
L 94.943447 127.242873 
L 96.705445 128.864749 
L 98.467443 127.282101 
L 100.229441 128.497994 
L 101.991439 128.982782 
L 103.753437 126.560665 
L 105.515435 128.171393 
L 107.277433 128.873244 
L 109.039431 127.803605 
L 110.801429 126.690487 
L 112.563427 128.446548 
L 114.325425 128.597446 
L 116.087423 127.449328 
L 117.849421 128.154701 
L 119.611419 126.955617 
L 121.373417 128.958123 
L 123.135415 129.739462 
L 124.897413 125.971571 
L 126.659411 131.605616 
L 128.421409 128.894699 
L 130.183407 128.587197 
L 131.945405 127.942335 
L 133.707403 127.833372 
L 135.469401 127.090771 
L 137.231399 128.249226 
L 138.993397 129.745508 
L 140.755395 128.973772 
L 142.517393 129.128011 
L 144.279391 129.38741 
L 146.041389 128.952961 
L 147.803387 129.800434 
L 149.565385 128.82334 
L 151.327383 129.136494 
L 153.089381 129.252533 
L 154.851379 128.353389 
L 156.613377 130.143886 
L 158.375375 130.068148 
L 160.137373 127.739786 
L 161.899371 129.232038 
L 163.661369 130.09983 
L 165.423367 128.467798 
L 167.185365 129.583512 
L 168.947363 132.345142 
L 170.709361 130.500325 
L 172.471359 130.310577 
L 174.233357 130.051557 
L 175.995355 129.649049 
L 177.757353 129.072087 
L 179.519351 126.80884 
L 181.281349 130.068232 
L 183.043347 128.823503 
L 184.805345 129.707982 
L 186.567343 128.008832 
L 188.329341 130.291678 
L 190.091339 128.532478 
L 191.853337 129.947776 
L 193.615335 130.73069 
L 195.377333 129.825693 
L 197.139331 130.204863 
L 198.901329 129.526943 
L 200.663327 132.889482 
L 202.425325 129.671313 
L 204.187323 126.356113 
L 205.949321 128.19779 
L 207.711319 129.975145 
L 209.473317 129.694325 
L 211.235315 130.073598 
L 212.997313 129.346914 
L 214.759311 127.566859 
L 216.521309 129.448681 
L 218.283307 131.843176 
L 220.045305 128.441328 
L 221.807303 128.735573 
L 223.569301 129.884974 
L 225.331299 130.111255 
L 227.093297 130.209668 
L 228.855295 132.324819 
L 230.617293 131.773952 
L 232.379291 129.716545 
L 234.141289 130.883981 
L 235.903287 129.407781 
L 237.665285 130.227019 
L 239.427283 129.492157 
L 241.189281 130.517713 
L 242.951279 127.972862 
L 244.713277 130.385881 
L 246.475275 130.617277 
L 248.237273 127.967751 
L 249.999271 130.5019 
L 251.761269 130.954333 
L 253.523267 130.133959 
L 255.285265 131.552018 
L 257.047263 129.980684 
L 258.809261 128.890206 
L 260.571259 130.186181 
" clip-path="url(#p9e62453592)" style="fill: none; stroke: #4e9a84; stroke-width: 1.5; stroke-linecap: square"/>
   </g>
   <g id="line2d_26">
    <path d="M 57.941489 65.742733 
L 59.703487 76.56658 
L 61.465485 81.942067 
L 63.227483 89.305452 
L 64.989481 97.649593 
L 66.751479 109.355124 
L 68.513477 117.945105 
L 70.275475 119.094442 
L 72.037473 120.205291 
L 73.799471 118.250673 
L 75.561469 121.424323 
L 77.323467 123.075838 
L 79.085465 121.161011 
L 80.847463 122.4255 
L 82.609461 123.339426 
L 84.371459 123.360993 
L 86.133457 126.300841 
L 87.895455 126.016108 
L 89.657453 125.612296 
L 91.419451 127.492468 
L 93.181449 128.101033 
L 94.943447 128.605057 
L 96.705445 128.865373 
L 98.467443 128.811489 
L 100.229441 130.35746 
L 101.991439 129.282028 
L 103.753437 129.117053 
L 105.515435 129.490119 
L 107.277433 128.792604 
L 109.039431 129.842023 
L 110.801429 128.34204 
L 112.563427 130.277688 
L 114.325425 129.789845 
L 116.087423 130.103005 
L 117.849421 131.311962 
L 119.611419 130.889856 
L 121.373417 132.563129 
L 123.135415 130.944243 
L 124.897413 130.58649 
L 126.659411 132.369629 
L 128.421409 132.447982 
L 130.183407 130.760285 
L 131.945405 132.335145 
L 133.707403 131.572555 
L 135.469401 129.70478 
L 137.231399 133.037834 
L 138.993397 130.471824 
L 140.755395 133.967365 
L 142.517393 133.212265 
L 144.279391 133.239361 
L 146.041389 133.149092 
L 147.803387 133.006018 
L 149.565385 133.739577 
L 151.327383 131.912662 
L 153.089381 133.006297 
L 154.851379 134.02942 
L 156.613377 132.73848 
L 158.375375 132.605423 
L 160.137373 132.543168 
L 161.899371 132.353961 
L 163.661369 134.250158 
L 165.423367 132.806681 
L 167.185365 133.14587 
L 168.947363 134.822768 
L 170.709361 136.0107 
L 172.471359 133.271903 
L 174.233357 133.234283 
L 175.995355 134.807074 
L 177.757353 134.650875 
L 179.519351 130.573743 
L 181.281349 131.391815 
L 183.043347 133.398318 
L 184.805345 132.586216 
L 186.567343 136.469678 
L 188.329341 134.508246 
L 190.091339 134.373197 
L 191.853337 134.922643 
L 193.615335 135.209288 
L 195.377333 130.281096 
L 197.139331 132.244892 
L 198.901329 136.462366 
L 200.663327 138.397446 
L 202.425325 133.471543 
L 204.187323 132.883347 
L 205.949321 134.251894 
L 207.711319 132.407109 
L 209.473317 133.315226 
L 211.235315 134.145601 
L 212.997313 133.933983 
L 214.759311 133.47374 
L 216.521309 134.71576 
L 218.283307 134.426814 
L 220.045305 134.454629 
L 221.807303 134.143433 
L 223.569301 134.495395 
L 225.331299 133.204428 
L 227.093297 133.944067 
L 228.855295 139.194059 
L 230.617293 136.861388 
L 232.379291 134.853973 
L 234.141289 132.617102 
L 235.903287 133.529035 
L 237.665285 134.305996 
L 239.427283 134.633002 
L 241.189281 137.038384 
L 242.951279 135.363928 
L 244.713277 132.673207 
L 246.475275 134.215473 
L 248.237273 134.634731 
L 249.999271 134.999486 
L 251.761269 134.566548 
L 253.523267 135.996661 
L 255.285265 136.201638 
L 257.047263 134.991051 
L 258.809261 134.513631 
L 260.571259 134.045209 
" clip-path="url(#p9e62453592)" style="fill: none; stroke: #438d77; stroke-width: 1.5; stroke-linecap: square"/>
   </g>
   <g id="line2d_27">
    <path d="M 57.941489 69.474224 
L 59.703487 74.739765 
L 61.465485 80.582107 
L 63.227483 88.871549 
L 64.989481 101.598733 
L 66.751479 112.868979 
L 68.513477 119.373194 
L 70.275475 119.631292 
L 72.037473 123.1333 
L 73.799471 122.784549 
L 75.561469 123.468263 
L 77.323467 121.484523 
L 79.085465 122.135311 
L 80.847463 125.354714 
L 82.609461 125.776895 
L 84.371459 125.852119 
L 86.133457 127.33857 
L 87.895455 128.356815 
L 89.657453 129.02233 
L 91.419451 128.225449 
L 93.181449 128.840308 
L 94.943447 128.410508 
L 96.705445 129.587647 
L 98.467443 129.647754 
L 100.229441 131.030647 
L 101.991439 131.228084 
L 103.753437 130.706194 
L 105.515435 133.038864 
L 107.277433 130.564946 
L 109.039431 130.349015 
L 110.801429 130.807757 
L 112.563427 132.381763 
L 114.325425 132.086469 
L 116.087423 131.816189 
L 117.849421 131.152477 
L 119.611419 130.31657 
L 121.373417 132.639621 
L 123.135415 131.547473 
L 124.897413 131.851441 
L 126.659411 131.248598 
L 128.421409 133.695371 
L 130.183407 132.94828 
L 131.945405 133.102607 
L 133.707403 135.437634 
L 135.469401 134.456205 
L 137.231399 132.176132 
L 138.993397 134.895364 
L 140.755395 134.332387 
L 142.517393 134.37541 
L 144.279391 132.73856 
L 146.041389 134.517809 
L 147.803387 136.067469 
L 149.565385 135.343228 
L 151.327383 133.528439 
L 153.089381 134.790695 
L 154.851379 133.115892 
L 156.613377 133.210423 
L 158.375375 136.045565 
L 160.137373 133.923484 
L 161.899371 135.848292 
L 163.661369 137.506224 
L 165.423367 134.551691 
L 167.185365 136.348995 
L 168.947363 136.956526 
L 170.709361 135.930922 
L 172.471359 135.82644 
L 174.233357 134.840823 
L 175.995355 136.223557 
L 177.757353 135.209357 
L 179.519351 133.710186 
L 181.281349 135.195341 
L 183.043347 134.957204 
L 184.805345 135.878593 
L 186.567343 138.046134 
L 188.329341 135.83832 
L 190.091339 136.591898 
L 191.853337 136.599375 
L 193.615335 136.207252 
L 195.377333 137.09574 
L 197.139331 135.875297 
L 198.901329 138.234366 
L 200.663327 138.132508 
L 202.425325 135.082009 
L 204.187323 135.142317 
L 205.949321 137.35476 
L 207.711319 136.785717 
L 209.473317 136.96424 
L 211.235315 136.896808 
L 212.997313 137.525037 
L 214.759311 135.588181 
L 216.521309 137.921516 
L 218.283307 135.666081 
L 220.045305 138.111641 
L 221.807303 136.760819 
L 223.569301 138.246479 
L 225.331299 139.254726 
L 227.093297 137.754573 
L 228.855295 137.948234 
L 230.617293 139.467183 
L 232.379291 140.118523 
L 234.141289 136.620776 
L 235.903287 136.501993 
L 237.665285 138.071846 
L 239.427283 137.647751 
L 241.189281 136.498657 
L 242.951279 137.280993 
L 244.713277 135.909673 
L 246.475275 136.046669 
L 248.237273 135.37397 
L 249.999271 136.577518 
L 251.761269 134.671161 
L 253.523267 138.963272 
L 255.285265 136.675042 
L 257.047263 136.535325 
L 258.809261 137.284939 
L 260.571259 138.170685 
" clip-path="url(#p9e62453592)" style="fill: none; stroke: #367d6a; stroke-width: 1.5; stroke-linecap: square"/>
   </g>
   <g id="line2d_28">
    <path d="M 57.941489 68.46412 
L 59.703487 75.194726 
L 61.465485 79.398347 
L 63.227483 87.602872 
L 64.989481 98.264224 
L 66.751479 107.355531 
L 68.513477 114.798201 
L 70.275475 121.656002 
L 72.037473 124.645149 
L 73.799471 123.051572 
L 75.561469 126.407478 
L 77.323467 125.82629 
L 79.085465 125.282353 
L 80.847463 127.430338 
L 82.609461 128.074875 
L 84.371459 128.616904 
L 86.133457 129.348857 
L 87.895455 129.776275 
L 89.657453 129.800172 
L 91.419451 130.756522 
L 93.181449 129.264807 
L 94.943447 130.936909 
L 96.705445 132.759173 
L 98.467443 129.765643 
L 100.229441 130.627402 
L 101.991439 132.156392 
L 103.753437 133.196418 
L 105.515435 133.037932 
L 107.277433 130.996189 
L 109.039431 132.844872 
L 110.801429 131.653965 
L 112.563427 133.104936 
L 114.325425 134.189046 
L 116.087423 132.952275 
L 117.849421 134.00145 
L 119.611419 131.036579 
L 121.373417 131.314305 
L 123.135415 133.276967 
L 124.897413 133.089135 
L 126.659411 135.094079 
L 128.421409 133.014936 
L 130.183407 133.928913 
L 131.945405 133.525258 
L 133.707403 135.576371 
L 135.469401 135.468566 
L 137.231399 135.579437 
L 138.993397 135.062893 
L 140.755395 136.921918 
L 142.517393 136.263537 
L 144.279391 132.796353 
L 146.041389 134.560431 
L 147.803387 134.978745 
L 149.565385 134.945882 
L 151.327383 135.222787 
L 153.089381 136.399038 
L 154.851379 134.814775 
L 156.613377 135.165008 
L 158.375375 135.402981 
L 160.137373 135.96993 
L 161.899371 134.326055 
L 163.661369 136.391124 
L 165.423367 133.332672 
L 167.185365 136.246546 
L 168.947363 136.930865 
L 170.709361 136.325863 
L 172.471359 137.564653 
L 174.233357 136.847335 
L 175.995355 136.906099 
L 177.757353 136.14327 
L 179.519351 137.283472 
L 181.281349 136.100994 
L 183.043347 137.817076 
L 184.805345 136.33706 
L 186.567343 137.157355 
L 188.329341 136.868132 
L 190.091339 136.957462 
L 191.853337 137.358547 
L 193.615335 136.964103 
L 195.377333 137.159531 
L 197.139331 135.912267 
L 198.901329 137.209498 
L 200.663327 140.800009 
L 202.425325 137.549816 
L 204.187323 137.489338 
L 205.949321 137.839537 
L 207.711319 137.867598 
L 209.473317 138.97908 
L 211.235315 136.718371 
L 212.997313 137.474294 
L 214.759311 138.216144 
L 216.521309 136.738768 
L 218.283307 137.883846 
L 220.045305 137.877752 
L 221.807303 138.776229 
L 223.569301 136.583799 
L 225.331299 137.180276 
L 227.093297 137.891902 
L 228.855295 139.305298 
L 230.617293 139.868172 
L 232.379291 136.637083 
L 234.141289 136.801062 
L 235.903287 139.461742 
L 237.665285 140.631871 
L 239.427283 138.693709 
L 241.189281 136.947689 
L 242.951279 139.703582 
L 244.713277 136.931289 
L 246.475275 138.261702 
L 248.237273 137.753059 
L 249.999271 138.592057 
L 251.761269 137.430282 
L 253.523267 139.673755 
L 255.285265 136.982286 
L 257.047263 137.980468 
L 258.809261 134.462408 
L 260.571259 138.214745 
" clip-path="url(#p9e62453592)" style="fill: none; stroke: #295e57; stroke-width: 1.5; stroke-linecap: square"/>
   </g>
   <g id="patch_3">
    <path d="M 47.81 143.44 
L 47.81 10.8 
" style="fill: none; stroke: #000000; stroke-width: 0.8; stroke-linejoin: miter; stroke-linecap: square"/>
   </g>
   <g id="patch_4">
    <path d="M 270.702747 143.44 
L 270.702747 10.8 
" style="fill: none; stroke: #000000; stroke-width: 0.8; stroke-linejoin: miter; stroke-linecap: square"/>
   </g>
   <g id="patch_5">
    <path d="M 47.81 143.44 
L 270.702747 143.44 
" style="fill: none; stroke: #000000; stroke-width: 0.8; stroke-linejoin: miter; stroke-linecap: square"/>
   </g>
   <g id="patch_6">
    <path d="M 47.81 10.8 
L 270.702747 10.8 
" style="fill: none; stroke: #000000; stroke-width: 0.8; stroke-linejoin: miter; stroke-linecap: square"/>
   </g>
   <g id="legend_1">
    <g id="patch_7">
     <path d="M 209.162269 67.298225 
L 264.871747 67.298225 
Q 266.537747 67.298225 266.537747 65.632225 
L 266.537747 16.631 
Q 266.537747 14.965 264.871747 14.965 
L 209.162269 14.965 
Q 207.496269 14.965 207.496269 16.631 
L 207.496269 65.632225 
Q 207.496269 67.298225 209.162269 67.298225 
z
" style="fill: #ffffff; opacity: 0.8; stroke: #cccccc; stroke-linejoin: miter"/>
    </g>
    <g id="line2d_29">
     <path d="M 210.828269 21.710998 
L 219.158269 21.710998 
L 227.488269 21.710998 
" style="fill: none; stroke: #4e9a84; stroke-width: 1.5; stroke-linecap: square"/>
    </g>
    <g id="text_15">
     <!-- es_10k -->
     <g transform="translate(234.152269 24.626498) scale(0.0833 -0.0833)">
      <defs>
       <path id="DejaVuSans-5f" d="M 3263 -1063 
L 3263 -1509 
L -63 -1509 
L -63 -1063 
L 3263 -1063 
z
" transform="scale(0.015625)"/>
       <path id="DejaVuSans-6b" d="M 581 4863 
L 1159 4863 
L 1159 1991 
L 2875 3500 
L 3609 3500 
L 1753 1863 
L 3688 0 
L 2938 0 
L 1159 1709 
L 1159 0 
L 581 0 
L 581 4863 
z
" transform="scale(0.015625)"/>
      </defs>
      <use xlink:href="#DejaVuSans-65"/>
      <use xlink:href="#DejaVuSans-73" x="61.523438"/>
      <use xlink:href="#DejaVuSans-5f" x="113.623047"/>
      <use xlink:href="#DejaVuSans-31" x="163.623047"/>
      <use xlink:href="#DejaVuSans-30" x="227.246094"/>
      <use xlink:href="#DejaVuSans-6b" x="290.869141"/>
     </g>
    </g>
    <g id="line2d_30">
     <path d="M 210.828269 34.169555 
L 219.158269 34.169555 
L 227.488269 34.169555 
" style="fill: none; stroke: #438d77; stroke-width: 1.5; stroke-linecap: square"/>
    </g>
    <g id="text_16">
     <!-- es_20k -->
     <g transform="translate(234.152269 37.085055) scale(0.0833 -0.0833)">
      <use xlink:href="#DejaVuSans-65"/>
      <use xlink:href="#DejaVuSans-73" x="61.523438"/>
      <use xlink:href="#DejaVuSans-5f" x="113.623047"/>
      <use xlink:href="#DejaVuSans-32" x="163.623047"/>
      <use xlink:href="#DejaVuSans-30" x="227.246094"/>
      <use xlink:href="#DejaVuSans-6b" x="290.869141"/>
     </g>
    </g>
    <g id="line2d_31">
     <path d="M 210.828269 46.628111 
L 219.158269 46.628111 
L 227.488269 46.628111 
" style="fill: none; stroke: #367d6a; stroke-width: 1.5; stroke-linecap: square"/>
    </g>
    <g id="text_17">
     <!-- es_30k -->
     <g transform="translate(234.152269 49.543611) scale(0.0833 -0.0833)">
      <use xlink:href="#DejaVuSans-65"/>
      <use xlink:href="#DejaVuSans-73" x="61.523438"/>
      <use xlink:href="#DejaVuSans-5f" x="113.623047"/>
      <use xlink:href="#DejaVuSans-33" x="163.623047"/>
      <use xlink:href="#DejaVuSans-30" x="227.246094"/>
      <use xlink:href="#DejaVuSans-6b" x="290.869141"/>
     </g>
    </g>
    <g id="line2d_32">
     <path d="M 210.828269 59.086667 
L 219.158269 59.086667 
L 227.488269 59.086667 
" style="fill: none; stroke: #295e57; stroke-width: 1.5; stroke-linecap: square"/>
    </g>
    <g id="text_18">
     <!-- es_40k -->
     <g transform="translate(234.152269 62.002167) scale(0.0833 -0.0833)">
      <use xlink:href="#DejaVuSans-65"/>
      <use xlink:href="#DejaVuSans-73" x="61.523438"/>
      <use xlink:href="#DejaVuSans-5f" x="113.623047"/>
      <use xlink:href="#DejaVuSans-34" x="163.623047"/>
      <use xlink:href="#DejaVuSans-30" x="227.246094"/>
      <use xlink:href="#DejaVuSans-6b" x="290.869141"/>
     </g>
    </g>
   </g>
  </g>
  <g id="axes_2">
   <g id="patch_8">
    <path d="M 47.81 318.04 
L 270.702747 318.04 
L 270.702747 185.4 
L 47.81 185.4 
z
" style="fill: #ffffff"/>
   </g>
   <g id="matplotlib.axis_3">
    <g id="xtick_8">
     <g id="line2d_33">
      <path d="M 56.179491 318.04 
L 56.179491 185.4 
" clip-path="url(#p721b571843)" style="fill: none; stroke: #808080; stroke-opacity: 0.25; stroke-width: 0.5; stroke-linecap: square"/>
     </g>
     <g id="line2d_34">
      <g>
       <use xlink:href="#m101c21fabc" x="56.179491" y="318.04" style="stroke: #000000; stroke-width: 0.8"/>
      </g>
     </g>
     <g id="text_19">
      <!-- 0 -->
      <g transform="translate(52.998241 332.638438) scale(0.1 -0.1)">
       <use xlink:href="#DejaVuSans-30"/>
      </g>
     </g>
    </g>
    <g id="xtick_9">
     <g id="line2d_35">
      <path d="M 91.419451 318.04 
L 91.419451 185.4 
" clip-path="url(#p721b571843)" style="fill: none; stroke: #808080; stroke-opacity: 0.25; stroke-width: 0.5; stroke-linecap: square"/>
     </g>
     <g id="line2d_36">
      <g>
       <use xlink:href="#m101c21fabc" x="91.419451" y="318.04" style="stroke: #000000; stroke-width: 0.8"/>
      </g>
     </g>
     <g id="text_20">
      <!-- 100 -->
      <g transform="translate(81.875701 332.638438) scale(0.1 -0.1)">
       <use xlink:href="#DejaVuSans-31"/>
       <use xlink:href="#DejaVuSans-30" x="63.623047"/>
       <use xlink:href="#DejaVuSans-30" x="127.246094"/>
      </g>
     </g>
    </g>
    <g id="xtick_10">
     <g id="line2d_37">
      <path d="M 126.659411 318.04 
L 126.659411 185.4 
" clip-path="url(#p721b571843)" style="fill: none; stroke: #808080; stroke-opacity: 0.25; stroke-width: 0.5; stroke-linecap: square"/>
     </g>
     <g id="line2d_38">
      <g>
       <use xlink:href="#m101c21fabc" x="126.659411" y="318.04" style="stroke: #000000; stroke-width: 0.8"/>
      </g>
     </g>
     <g id="text_21">
      <!-- 200 -->
      <g transform="translate(117.115661 332.638438) scale(0.1 -0.1)">
       <use xlink:href="#DejaVuSans-32"/>
       <use xlink:href="#DejaVuSans-30" x="63.623047"/>
       <use xlink:href="#DejaVuSans-30" x="127.246094"/>
      </g>
     </g>
    </g>
    <g id="xtick_11">
     <g id="line2d_39">
      <path d="M 161.899371 318.04 
L 161.899371 185.4 
" clip-path="url(#p721b571843)" style="fill: none; stroke: #808080; stroke-opacity: 0.25; stroke-width: 0.5; stroke-linecap: square"/>
     </g>
     <g id="line2d_40">
      <g>
       <use xlink:href="#m101c21fabc" x="161.899371" y="318.04" style="stroke: #000000; stroke-width: 0.8"/>
      </g>
     </g>
     <g id="text_22">
      <!-- 300 -->
      <g transform="translate(152.355621 332.638438) scale(0.1 -0.1)">
       <use xlink:href="#DejaVuSans-33"/>
       <use xlink:href="#DejaVuSans-30" x="63.623047"/>
       <use xlink:href="#DejaVuSans-30" x="127.246094"/>
      </g>
     </g>
    </g>
    <g id="xtick_12">
     <g id="line2d_41">
      <path d="M 197.139331 318.04 
L 197.139331 185.4 
" clip-path="url(#p721b571843)" style="fill: none; stroke: #808080; stroke-opacity: 0.25; stroke-width: 0.5; stroke-linecap: square"/>
     </g>
     <g id="line2d_42">
      <g>
       <use xlink:href="#m101c21fabc" x="197.139331" y="318.04" style="stroke: #000000; stroke-width: 0.8"/>
      </g>
     </g>
     <g id="text_23">
      <!-- 400 -->
      <g transform="translate(187.595581 332.638438) scale(0.1 -0.1)">
       <use xlink:href="#DejaVuSans-34"/>
       <use xlink:href="#DejaVuSans-30" x="63.623047"/>
       <use xlink:href="#DejaVuSans-30" x="127.246094"/>
      </g>
     </g>
    </g>
    <g id="xtick_13">
     <g id="line2d_43">
      <path d="M 232.379291 318.04 
L 232.379291 185.4 
" clip-path="url(#p721b571843)" style="fill: none; stroke: #808080; stroke-opacity: 0.25; stroke-width: 0.5; stroke-linecap: square"/>
     </g>
     <g id="line2d_44">
      <g>
       <use xlink:href="#m101c21fabc" x="232.379291" y="318.04" style="stroke: #000000; stroke-width: 0.8"/>
      </g>
     </g>
     <g id="text_24">
      <!-- 500 -->
      <g transform="translate(222.835541 332.638438) scale(0.1 -0.1)">
       <use xlink:href="#DejaVuSans-35"/>
       <use xlink:href="#DejaVuSans-30" x="63.623047"/>
       <use xlink:href="#DejaVuSans-30" x="127.246094"/>
      </g>
     </g>
    </g>
    <g id="xtick_14">
     <g id="line2d_45">
      <path d="M 267.619251 318.04 
L 267.619251 185.4 
" clip-path="url(#p721b571843)" style="fill: none; stroke: #808080; stroke-opacity: 0.25; stroke-width: 0.5; stroke-linecap: square"/>
     </g>
     <g id="line2d_46">
      <g>
       <use xlink:href="#m101c21fabc" x="267.619251" y="318.04" style="stroke: #000000; stroke-width: 0.8"/>
      </g>
     </g>
     <g id="text_25">
      <!-- 600 -->
      <g transform="translate(258.075501 332.638438) scale(0.1 -0.1)">
       <use xlink:href="#DejaVuSans-36"/>
       <use xlink:href="#DejaVuSans-30" x="63.623047"/>
       <use xlink:href="#DejaVuSans-30" x="127.246094"/>
      </g>
     </g>
    </g>
    <g id="text_26">
     <!-- Training Steps -->
     <g transform="translate(123.951686 346.316563) scale(0.1 -0.1)">
      <use xlink:href="#DejaVuSans-54"/>
      <use xlink:href="#DejaVuSans-72" x="46.333984"/>
      <use xlink:href="#DejaVuSans-61" x="87.447266"/>
      <use xlink:href="#DejaVuSans-69" x="148.726562"/>
      <use xlink:href="#DejaVuSans-6e" x="176.509766"/>
      <use xlink:href="#DejaVuSans-69" x="239.888672"/>
      <use xlink:href="#DejaVuSans-6e" x="267.671875"/>
      <use xlink:href="#DejaVuSans-67" x="331.050781"/>
      <use xlink:href="#DejaVuSans-20" x="394.527344"/>
      <use xlink:href="#DejaVuSans-53" x="426.314453"/>
      <use xlink:href="#DejaVuSans-74" x="489.791016"/>
      <use xlink:href="#DejaVuSans-65" x="529"/>
      <use xlink:href="#DejaVuSans-70" x="590.523438"/>
      <use xlink:href="#DejaVuSans-73" x="654"/>
     </g>
    </g>
   </g>
   <g id="matplotlib.axis_4">
    <g id="ytick_6">
     <g id="line2d_47">
      <path d="M 47.81 300.235199 
L 270.702747 300.235199 
" clip-path="url(#p721b571843)" style="fill: none; stroke: #808080; stroke-opacity: 0.25; stroke-width: 0.5; stroke-linecap: square"/>
     </g>
     <g id="line2d_48">
      <g>
       <use xlink:href="#m34ee3b01c9" x="47.81" y="300.235199" style="stroke: #000000; stroke-width: 0.8"/>
      </g>
     </g>
     <g id="text_27">
      <!-- 2.5 -->
      <g transform="translate(24.906875 304.034418) scale(0.1 -0.1)">
       <use xlink:href="#DejaVuSans-32"/>
       <use xlink:href="#DejaVuSans-2e" x="63.623047"/>
       <use xlink:href="#DejaVuSans-35" x="95.410156"/>
      </g>
     </g>
    </g>
    <g id="ytick_7">
     <g id="line2d_49">
      <path d="M 47.81 272.834989 
L 270.702747 272.834989 
" clip-path="url(#p721b571843)" style="fill: none; stroke: #808080; stroke-opacity: 0.25; stroke-width: 0.5; stroke-linecap: square"/>
     </g>
     <g id="line2d_50">
      <g>
       <use xlink:href="#m34ee3b01c9" x="47.81" y="272.834989" style="stroke: #000000; stroke-width: 0.8"/>
      </g>
     </g>
     <g id="text_28">
      <!-- 3.0 -->
      <g transform="translate(24.906875 276.634208) scale(0.1 -0.1)">
       <use xlink:href="#DejaVuSans-33"/>
       <use xlink:href="#DejaVuSans-2e" x="63.623047"/>
       <use xlink:href="#DejaVuSans-30" x="95.410156"/>
      </g>
     </g>
    </g>
    <g id="ytick_8">
     <g id="line2d_51">
      <path d="M 47.81 245.434779 
L 270.702747 245.434779 
" clip-path="url(#p721b571843)" style="fill: none; stroke: #808080; stroke-opacity: 0.25; stroke-width: 0.5; stroke-linecap: square"/>
     </g>
     <g id="line2d_52">
      <g>
       <use xlink:href="#m34ee3b01c9" x="47.81" y="245.434779" style="stroke: #000000; stroke-width: 0.8"/>
      </g>
     </g>
     <g id="text_29">
      <!-- 3.5 -->
      <g transform="translate(24.906875 249.233998) scale(0.1 -0.1)">
       <use xlink:href="#DejaVuSans-33"/>
       <use xlink:href="#DejaVuSans-2e" x="63.623047"/>
       <use xlink:href="#DejaVuSans-35" x="95.410156"/>
      </g>
     </g>
    </g>
    <g id="ytick_9">
     <g id="line2d_53">
      <path d="M 47.81 218.034569 
L 270.702747 218.034569 
" clip-path="url(#p721b571843)" style="fill: none; stroke: #808080; stroke-opacity: 0.25; stroke-width: 0.5; stroke-linecap: square"/>
     </g>
     <g id="line2d_54">
      <g>
       <use xlink:href="#m34ee3b01c9" x="47.81" y="218.034569" style="stroke: #000000; stroke-width: 0.8"/>
      </g>
     </g>
     <g id="text_30">
      <!-- 4.0 -->
      <g transform="translate(24.906875 221.833788) scale(0.1 -0.1)">
       <use xlink:href="#DejaVuSans-34"/>
       <use xlink:href="#DejaVuSans-2e" x="63.623047"/>
       <use xlink:href="#DejaVuSans-30" x="95.410156"/>
      </g>
     </g>
    </g>
    <g id="ytick_10">
     <g id="line2d_55">
      <path d="M 47.81 190.634359 
L 270.702747 190.634359 
" clip-path="url(#p721b571843)" style="fill: none; stroke: #808080; stroke-opacity: 0.25; stroke-width: 0.5; stroke-linecap: square"/>
     </g>
     <g id="line2d_56">
      <g>
       <use xlink:href="#m34ee3b01c9" x="47.81" y="190.634359" style="stroke: #000000; stroke-width: 0.8"/>
      </g>
     </g>
     <g id="text_31">
      <!-- 4.5 -->
      <g transform="translate(24.906875 194.433578) scale(0.1 -0.1)">
       <use xlink:href="#DejaVuSans-34"/>
       <use xlink:href="#DejaVuSans-2e" x="63.623047"/>
       <use xlink:href="#DejaVuSans-35" x="95.410156"/>
      </g>
     </g>
    </g>
    <g id="text_32">
     <!-- BPC Loss -->
     <g transform="translate(18.827187 274.212969) rotate(-90) scale(0.1 -0.1)">
      <use xlink:href="#DejaVuSans-42"/>
      <use xlink:href="#DejaVuSans-50" x="68.603516"/>
      <use xlink:href="#DejaVuSans-43" x="128.90625"/>
      <use xlink:href="#DejaVuSans-20" x="198.730469"/>
      <use xlink:href="#DejaVuSans-4c" x="230.517578"/>
      <use xlink:href="#DejaVuSans-6f" x="284.480469"/>
      <use xlink:href="#DejaVuSans-73" x="345.662109"/>
      <use xlink:href="#DejaVuSans-73" x="397.761719"/>
     </g>
    </g>
   </g>
   <g id="line2d_57">
    <path d="M 57.941489 237.1582 
L 59.703487 244.883219 
L 61.465485 254.44217 
L 63.227483 265.930278 
L 64.989481 278.043589 
L 66.751479 284.340228 
L 68.513477 289.784702 
L 70.275475 289.849965 
L 72.037473 292.582542 
L 73.799471 291.028546 
L 75.561469 293.873308 
L 77.323467 292.93134 
L 79.085465 295.197958 
L 80.847463 297.236147 
L 82.609461 296.658789 
L 84.371459 298.749688 
L 86.133457 300.276572 
L 87.895455 300.488768 
L 89.657453 301.899318 
L 91.419451 299.850732 
L 93.181449 302.153073 
L 94.943447 302.968535 
L 96.705445 303.798746 
L 98.467443 305.005017 
L 100.229441 303.378841 
L 101.991439 304.933464 
L 103.753437 302.706999 
L 105.515435 303.402451 
L 107.277433 304.725255 
L 109.039431 303.87868 
L 110.801429 304.339833 
L 112.563427 304.121552 
L 114.325425 304.965149 
L 116.087423 303.301823 
L 117.849421 304.501887 
L 119.611419 303.80627 
L 121.373417 305.603133 
L 123.135415 305.987355 
L 124.897413 304.81388 
L 126.659411 305.083802 
L 128.421409 303.803691 
L 130.183407 304.896457 
L 131.945405 308.62869 
L 133.707403 305.496842 
L 135.469401 306.288259 
L 137.231399 307.930954 
L 138.993397 305.193757 
L 140.755395 307.45746 
L 142.517393 306.985392 
L 144.279391 305.953461 
L 146.041389 307.559424 
L 147.803387 305.988218 
L 149.565385 305.731196 
L 151.327383 306.327055 
L 153.089381 307.33642 
L 154.851379 306.357562 
L 156.613377 305.716086 
L 158.375375 307.215335 
L 160.137373 306.419736 
L 161.899371 307.082481 
L 163.661369 308.333637 
L 165.423367 307.122065 
L 167.185365 307.890428 
L 168.947363 309.427346 
L 170.709361 308.597582 
L 172.471359 308.240431 
L 174.233357 308.34261 
L 175.995355 307.753981 
L 177.757353 307.626699 
L 179.519351 306.896638 
L 181.281349 307.394425 
L 183.043347 305.188851 
L 184.805345 309.083237 
L 186.567343 308.277652 
L 188.329341 307.62187 
L 190.091339 307.178776 
L 191.853337 308.325806 
L 193.615335 309.025201 
L 195.377333 306.499923 
L 197.139331 308.634132 
L 198.901329 308.309945 
L 200.663327 309.368447 
L 202.425325 307.905649 
L 204.187323 306.811869 
L 205.949321 307.726183 
L 207.711319 307.730961 
L 209.473317 305.785653 
L 211.235315 308.22698 
L 212.997313 307.476316 
L 214.759311 307.255833 
L 216.521309 307.08047 
L 218.283307 308.447643 
L 220.045305 308.827379 
L 221.807303 305.957067 
L 223.569301 308.464797 
L 225.331299 309.412817 
L 227.093297 307.162092 
L 228.855295 309.634397 
L 230.617293 307.716675 
L 232.379291 307.941437 
L 234.141289 306.954279 
L 235.903287 306.856411 
L 237.665285 309.783657 
L 239.427283 307.432794 
L 241.189281 308.510638 
L 242.951279 307.494577 
L 244.713277 307.879472 
L 246.475275 307.552115 
L 248.237273 307.55944 
L 249.999271 306.912557 
L 251.761269 307.424274 
L 253.523267 308.164335 
L 255.285265 307.2574 
L 257.047263 306.396319 
L 258.809261 307.678127 
L 260.571259 308.844483 
" clip-path="url(#p721b571843)" style="fill: none; stroke: #68b3c7; stroke-width: 1.5; stroke-linecap: square"/>
   </g>
   <g id="line2d_58">
    <path d="M 57.941489 263.104766 
L 59.703487 268.711894 
L 61.465485 273.629737 
L 63.227483 279.919946 
L 64.989481 284.825551 
L 66.751479 291.822979 
L 68.513477 294.081655 
L 70.275475 295.072013 
L 72.037473 297.056076 
L 73.799471 297.628064 
L 75.561469 297.657873 
L 77.323467 297.979519 
L 79.085465 300.896608 
L 80.847463 301.596806 
L 82.609461 300.353912 
L 84.371459 302.678448 
L 86.133457 301.656865 
L 87.895455 303.688671 
L 89.657453 303.205783 
L 91.419451 302.145196 
L 93.181449 303.15576 
L 94.943447 304.040537 
L 96.705445 304.523507 
L 98.467443 305.954104 
L 100.229441 305.09854 
L 101.991439 306.94894 
L 103.753437 306.067412 
L 105.515435 307.311001 
L 107.277433 305.995603 
L 109.039431 306.877471 
L 110.801429 306.736509 
L 112.563427 308.469163 
L 114.325425 306.803617 
L 116.087423 309.125124 
L 117.849421 308.274891 
L 119.611419 308.254574 
L 121.373417 308.851991 
L 123.135415 307.10368 
L 124.897413 308.107233 
L 126.659411 307.9141 
L 128.421409 308.199677 
L 130.183407 309.696351 
L 131.945405 310.628839 
L 133.707403 311.637254 
L 135.469401 309.114154 
L 137.231399 311.026216 
L 138.993397 310.086134 
L 140.755395 311.664541 
L 142.517393 311.293546 
L 144.279391 309.129718 
L 146.041389 311.714159 
L 147.803387 310.689819 
L 149.565385 310.494892 
L 151.327383 311.436087 
L 153.089381 310.861279 
L 154.851379 309.569517 
L 156.613377 310.88653 
L 158.375375 309.896863 
L 160.137373 310.347531 
L 161.899371 312.347143 
L 163.661369 311.376662 
L 165.423367 309.15248 
L 167.185365 311.44432 
L 168.947363 313.686201 
L 170.709361 312.574655 
L 172.471359 312.97181 
L 174.233357 311.059807 
L 175.995355 312.128883 
L 177.757353 312.307135 
L 179.519351 311.779058 
L 181.281349 312.043072 
L 183.043347 309.935691 
L 184.805345 312.511071 
L 186.567343 313.740767 
L 188.329341 313.141226 
L 190.091339 311.789272 
L 191.853337 313.324716 
L 193.615335 311.694403 
L 195.377333 312.288696 
L 197.139331 311.899927 
L 198.901329 311.586612 
L 200.663327 313.236288 
L 202.425325 312.218958 
L 204.187323 311.135483 
L 205.949321 311.350278 
L 207.711319 314.10487 
L 209.473317 313.683208 
L 211.235315 312.508419 
L 212.997313 314.348922 
L 214.759311 311.883604 
L 216.521309 313.227844 
L 218.283307 314.780054 
L 220.045305 313.552868 
L 221.807303 313.222734 
L 223.569301 313.737345 
L 225.331299 313.416571 
L 227.093297 313.475484 
L 228.855295 314.256939 
L 230.617293 314.730539 
L 232.379291 312.182847 
L 234.141289 313.216192 
L 235.903287 312.646979 
L 237.665285 313.542915 
L 239.427283 312.361053 
L 241.189281 312.640463 
L 242.951279 312.017486 
L 244.713277 314.45443 
L 246.475275 313.960903 
L 248.237273 313.181888 
L 249.999271 313.863119 
L 251.761269 314.527192 
L 253.523267 313.099085 
L 255.285265 311.781567 
L 257.047263 312.641429 
L 258.809261 312.985403 
L 260.571259 312.356731 
" clip-path="url(#p721b571843)" style="fill: none; stroke: #4da1b4; stroke-width: 1.5; stroke-linecap: square"/>
   </g>
   <g id="line2d_59">
    <path d="M 57.941489 268.561748 
L 59.703487 272.11385 
L 61.465485 275.10566 
L 63.227483 281.520774 
L 64.989481 286.438738 
L 66.751479 293.865164 
L 68.513477 295.410813 
L 70.275475 298.112825 
L 72.037473 298.762221 
L 73.799471 301.067304 
L 75.561469 299.998995 
L 77.323467 301.089091 
L 79.085465 300.523916 
L 80.847463 301.300113 
L 82.609461 302.813483 
L 84.371459 304.435998 
L 86.133457 303.217711 
L 87.895455 305.383906 
L 89.657453 303.551919 
L 91.419451 305.981476 
L 93.181449 304.692358 
L 94.943447 306.374567 
L 96.705445 307.584646 
L 98.467443 306.737544 
L 100.229441 304.946669 
L 101.991439 307.058906 
L 103.753437 306.806525 
L 105.515435 307.767638 
L 107.277433 305.96205 
L 109.039431 307.665988 
L 110.801429 307.169258 
L 112.563427 309.129275 
L 114.325425 308.354764 
L 116.087423 306.735787 
L 117.849421 307.336355 
L 119.611419 308.735789 
L 121.373417 309.393981 
L 123.135415 308.730946 
L 124.897413 309.284095 
L 126.659411 310.283383 
L 128.421409 310.817402 
L 130.183407 310.297722 
L 131.945405 311.00094 
L 133.707403 310.789438 
L 135.469401 312.187959 
L 137.231399 310.307355 
L 138.993397 311.922226 
L 140.755395 312.127104 
L 142.517393 313.142294 
L 144.279391 310.188452 
L 146.041389 312.350767 
L 147.803387 309.241719 
L 149.565385 312.084391 
L 151.327383 312.197454 
L 153.089381 312.462399 
L 154.851379 313.184938 
L 156.613377 313.24521 
L 158.375375 310.919192 
L 160.137373 312.670742 
L 161.899371 312.96669 
L 163.661369 312.481914 
L 165.423367 312.145952 
L 167.185365 312.874421 
L 168.947363 313.542908 
L 170.709361 313.566008 
L 172.471359 313.114137 
L 174.233357 313.348267 
L 175.995355 312.131031 
L 177.757353 313.962595 
L 179.519351 313.607895 
L 181.281349 313.729862 
L 183.043347 313.501772 
L 184.805345 314.499681 
L 186.567343 314.792608 
L 188.329341 314.5302 
L 190.091339 313.748791 
L 191.853337 315.174766 
L 193.615335 314.624297 
L 195.377333 313.538317 
L 197.139331 312.110301 
L 198.901329 314.429979 
L 200.663327 316.638237 
L 202.425325 313.841679 
L 204.187323 312.186672 
L 205.949321 314.141407 
L 207.711319 312.481403 
L 209.473317 313.246215 
L 211.235315 314.158 
L 212.997313 314.318776 
L 214.759311 313.162178 
L 216.521309 314.819361 
L 218.283307 313.903118 
L 220.045305 314.771352 
L 221.807303 314.102753 
L 223.569301 314.724414 
L 225.331299 315.356135 
L 227.093297 313.545715 
L 228.855295 315.404813 
L 230.617293 313.28192 
L 232.379291 313.634433 
L 234.141289 313.431949 
L 235.903287 314.320823 
L 237.665285 314.090973 
L 239.427283 313.721141 
L 241.189281 314.979571 
L 242.951279 314.081086 
L 244.713277 315.474791 
L 246.475275 315.908674 
L 248.237273 313.745362 
L 249.999271 315.552198 
L 251.761269 315.13073 
L 253.523267 314.705877 
L 255.285265 313.874636 
L 257.047263 313.530306 
L 258.809261 314.696724 
L 260.571259 313.690133 
" clip-path="url(#p721b571843)" style="fill: none; stroke: #3b7d98; stroke-width: 1.5; stroke-linecap: square"/>
   </g>
   <g id="line2d_60">
    <path d="M 57.941489 266.422284 
L 59.703487 269.451396 
L 61.465485 275.23232 
L 63.227483 280.412529 
L 64.989481 285.500986 
L 66.751479 293.466925 
L 68.513477 296.302427 
L 70.275475 298.412015 
L 72.037473 300.679107 
L 73.799471 300.942934 
L 75.561469 301.086461 
L 77.323467 300.327811 
L 79.085465 300.054718 
L 80.847463 302.523337 
L 82.609461 304.18837 
L 84.371459 304.97576 
L 86.133457 305.155426 
L 87.895455 303.891159 
L 89.657453 304.880249 
L 91.419451 305.255479 
L 93.181449 307.114855 
L 94.943447 308.522713 
L 96.705445 307.602529 
L 98.467443 306.348101 
L 100.229441 309.148819 
L 101.991439 305.905056 
L 103.753437 305.40625 
L 105.515435 308.349616 
L 107.277433 308.594745 
L 109.039431 308.084098 
L 110.801429 308.070717 
L 112.563427 309.541018 
L 114.325425 308.099767 
L 116.087423 309.141444 
L 117.849421 309.422421 
L 119.611419 308.079995 
L 121.373417 310.967236 
L 123.135415 309.202302 
L 124.897413 310.407358 
L 126.659411 310.403368 
L 128.421409 309.704256 
L 130.183407 311.341155 
L 131.945405 309.884269 
L 133.707403 312.726422 
L 135.469401 312.223322 
L 137.231399 311.009926 
L 138.993397 311.213655 
L 140.755395 312.402705 
L 142.517393 311.288473 
L 144.279391 312.654076 
L 146.041389 311.648603 
L 147.803387 310.536125 
L 149.565385 312.210105 
L 151.327383 312.337382 
L 153.089381 311.739039 
L 154.851379 311.931735 
L 156.613377 311.967252 
L 158.375375 312.632889 
L 160.137373 311.972234 
L 161.899371 314.652989 
L 163.661369 312.752644 
L 165.423367 311.612447 
L 167.185365 313.658864 
L 168.947363 313.511495 
L 170.709361 315.430633 
L 172.471359 313.225882 
L 174.233357 313.038633 
L 175.995355 313.874847 
L 177.757353 313.073497 
L 179.519351 313.649464 
L 181.281349 312.826675 
L 183.043347 312.412546 
L 184.805345 314.576954 
L 186.567343 314.941972 
L 188.329341 315.718246 
L 190.091339 313.467895 
L 191.853337 316.238853 
L 193.615335 316.088067 
L 195.377333 314.389883 
L 197.139331 314.730654 
L 198.901329 315.021937 
L 200.663327 318.04 
L 202.425325 314.718265 
L 204.187323 313.799116 
L 205.949321 314.969891 
L 207.711319 314.763861 
L 209.473317 315.020125 
L 211.235315 315.321375 
L 212.997313 314.343173 
L 214.759311 314.058075 
L 216.521309 315.084584 
L 218.283307 315.061686 
L 220.045305 315.300169 
L 221.807303 313.403879 
L 223.569301 314.973177 
L 225.331299 315.139659 
L 227.093297 313.863286 
L 228.855295 316.565034 
L 230.617293 314.79906 
L 232.379291 315.417667 
L 234.141289 316.045926 
L 235.903287 315.194971 
L 237.665285 316.590711 
L 239.427283 314.369966 
L 241.189281 315.262764 
L 242.951279 314.38359 
L 244.713277 315.456096 
L 246.475275 314.696347 
L 248.237273 316.065871 
L 249.999271 316.802366 
L 251.761269 316.815393 
L 253.523267 316.727526 
L 255.285265 315.104249 
L 257.047263 314.916786 
L 258.809261 315.373363 
L 260.571259 315.908879 
" clip-path="url(#p721b571843)" style="fill: none; stroke: #2c5b73; stroke-width: 1.5; stroke-linecap: square"/>
   </g>
   <g id="patch_9">
    <path d="M 47.81 318.04 
L 47.81 185.4 
" style="fill: none; stroke: #000000; stroke-width: 0.8; stroke-linejoin: miter; stroke-linecap: square"/>
   </g>
   <g id="patch_10">
    <path d="M 270.702747 318.04 
L 270.702747 185.4 
" style="fill: none; stroke: #000000; stroke-width: 0.8; stroke-linejoin: miter; stroke-linecap: square"/>
   </g>
   <g id="patch_11">
    <path d="M 47.81 318.04 
L 270.702747 318.04 
" style="fill: none; stroke: #000000; stroke-width: 0.8; stroke-linejoin: miter; stroke-linecap: square"/>
   </g>
   <g id="patch_12">
    <path d="M 47.81 185.4 
L 270.702747 185.4 
" style="fill: none; stroke: #000000; stroke-width: 0.8; stroke-linejoin: miter; stroke-linecap: square"/>
   </g>
   <g id="legend_2">
    <g id="patch_13">
     <path d="M 211.9372 241.898225 
L 264.871747 241.898225 
Q 266.537747 241.898225 266.537747 240.232225 
L 266.537747 191.231 
Q 266.537747 189.565 264.871747 189.565 
L 211.9372 189.565 
Q 210.2712 189.565 210.2712 191.231 
L 210.2712 240.232225 
Q 210.2712 241.898225 211.9372 241.898225 
z
" style="fill: #ffffff; opacity: 0.8; stroke: #cccccc; stroke-linejoin: miter"/>
    </g>
    <g id="line2d_61">
     <path d="M 213.6032 196.310998 
L 221.9332 196.310998 
L 230.2632 196.310998 
" style="fill: none; stroke: #68b3c7; stroke-width: 1.5; stroke-linecap: square"/>
    </g>
    <g id="text_33">
     <!-- tr_10k -->
     <g transform="translate(236.9272 199.226498) scale(0.0833 -0.0833)">
      <use xlink:href="#DejaVuSans-74"/>
      <use xlink:href="#DejaVuSans-72" x="39.208984"/>
      <use xlink:href="#DejaVuSans-5f" x="80.322266"/>
      <use xlink:href="#DejaVuSans-31" x="130.322266"/>
      <use xlink:href="#DejaVuSans-30" x="193.945312"/>
      <use xlink:href="#DejaVuSans-6b" x="257.568359"/>
     </g>
    </g>
    <g id="line2d_62">
     <path d="M 213.6032 208.769555 
L 221.9332 208.769555 
L 230.2632 208.769555 
" style="fill: none; stroke: #4da1b4; stroke-width: 1.5; stroke-linecap: square"/>
    </g>
    <g id="text_34">
     <!-- tr_20k -->
     <g transform="translate(236.9272 211.685055) scale(0.0833 -0.0833)">
      <use xlink:href="#DejaVuSans-74"/>
      <use xlink:href="#DejaVuSans-72" x="39.208984"/>
      <use xlink:href="#DejaVuSans-5f" x="80.322266"/>
      <use xlink:href="#DejaVuSans-32" x="130.322266"/>
      <use xlink:href="#DejaVuSans-30" x="193.945312"/>
      <use xlink:href="#DejaVuSans-6b" x="257.568359"/>
     </g>
    </g>
    <g id="line2d_63">
     <path d="M 213.6032 221.228111 
L 221.9332 221.228111 
L 230.2632 221.228111 
" style="fill: none; stroke: #3b7d98; stroke-width: 1.5; stroke-linecap: square"/>
    </g>
    <g id="text_35">
     <!-- tr_30k -->
     <g transform="translate(236.9272 224.143611) scale(0.0833 -0.0833)">
      <use xlink:href="#DejaVuSans-74"/>
      <use xlink:href="#DejaVuSans-72" x="39.208984"/>
      <use xlink:href="#DejaVuSans-5f" x="80.322266"/>
      <use xlink:href="#DejaVuSans-33" x="130.322266"/>
      <use xlink:href="#DejaVuSans-30" x="193.945312"/>
      <use xlink:href="#DejaVuSans-6b" x="257.568359"/>
     </g>
    </g>
    <g id="line2d_64">
     <path d="M 213.6032 233.686667 
L 221.9332 233.686667 
L 230.2632 233.686667 
" style="fill: none; stroke: #2c5b73; stroke-width: 1.5; stroke-linecap: square"/>
    </g>
    <g id="text_36">
     <!-- tr_40k -->
     <g transform="translate(236.9272 236.602167) scale(0.0833 -0.0833)">
      <use xlink:href="#DejaVuSans-74"/>
      <use xlink:href="#DejaVuSans-72" x="39.208984"/>
      <use xlink:href="#DejaVuSans-5f" x="80.322266"/>
      <use xlink:href="#DejaVuSans-34" x="130.322266"/>
      <use xlink:href="#DejaVuSans-30" x="193.945312"/>
      <use xlink:href="#DejaVuSans-6b" x="257.568359"/>
     </g>
    </g>
   </g>
  </g>
 </g>
 <defs>
  <clipPath id="p9e62453592">
   <rect x="47.81" y="10.8" width="222.892747" height="132.64"/>
  </clipPath>
  <clipPath id="p721b571843">
   <rect x="47.81" y="185.4" width="222.892747" height="132.64"/>
  </clipPath>
 </defs>
</svg>
