<?xml version="1.0" encoding="utf-8" standalone="no"?>
<!DOCTYPE svg PUBLIC "-//W3C//DTD SVG 1.1//EN"
  "http://www.w3.org/Graphics/SVG/1.1/DTD/svg11.dtd">
<svg xmlns:xlink="http://www.w3.org/1999/xlink" width="288pt" height="360pt" viewBox="0 0 288 360" xmlns="http://www.w3.org/2000/svg" version="1.1">
 <metadata>
  <rdf:RDF xmlns:dc="http://purl.org/dc/elements/1.1/" xmlns:cc="http://creativecommons.org/ns#" xmlns:rdf="http://www.w3.org/1999/02/22-rdf-syntax-ns#">
   <cc:Work>
    <dc:type rdf:resource="http://purl.org/dc/dcmitype/StillImage"/>
    <dc:date>2024-12-17T16:34:31.064260</dc:date>
    <dc:format>image/svg+xml</dc:format>
    <dc:creator>
     <cc:Agent>
      <dc:title>Matplotlib v3.8.0, https://matplotlib.org/</dc:title>
     </cc:Agent>
    </dc:creator>
   </cc:Work>
  </rdf:RDF>
 </metadata>
 <defs>
  <style type="text/css">*{stroke-linejoin: round; stroke-linecap: butt}</style>
 </defs>
 <g id="figure_1">
  <g id="patch_1">
   <path d="M 0 360 
L 288 360 
L 288 0 
L 0 0 
z
" style="fill: #ffffff"/>
  </g>
  <g id="axes_1">
   <g id="patch_2">
    <path d="M 44.66 143.44 
L 270.702747 143.44 
L 270.702747 10.8 
L 44.66 10.8 
z
" style="fill: #ffffff"/>
   </g>
   <g id="matplotlib.axis_1">
    <g id="xtick_1">
     <g id="line2d_1">
      <path d="M 53.147771 143.44 
L 53.147771 10.8 
" clip-path="url(#p4286341ffc)" style="fill: none; stroke: #808080; stroke-opacity: 0.25; stroke-width: 0.5; stroke-linecap: square"/>
     </g>
     <g id="line2d_2">
      <defs>
       <path id="mfb85abd0d2" d="M 0 0 
L 0 3.5 
" style="stroke: #000000; stroke-width: 0.8"/>
      </defs>
      <g>
       <use xlink:href="#mfb85abd0d2" x="53.147771" y="143.44" style="stroke: #000000; stroke-width: 0.8"/>
      </g>
     </g>
     <g id="text_1">
      <!-- 0 -->
      <g transform="translate(49.966521 158.038438) scale(0.1 -0.1)">
       <defs>
        <path id="DejaVuSans-30" d="M 2034 4250 
Q 1547 4250 1301 3770 
Q 1056 3291 1056 2328 
Q 1056 1369 1301 889 
Q 1547 409 2034 409 
Q 2525 409 2770 889 
Q 3016 1369 3016 2328 
Q 3016 3291 2770 3770 
Q 2525 4250 2034 4250 
z
M 2034 4750 
Q 2819 4750 3233 4129 
Q 3647 3509 3647 2328 
Q 3647 1150 3233 529 
Q 2819 -91 2034 -91 
Q 1250 -91 836 529 
Q 422 1150 422 2328 
Q 422 3509 836 4129 
Q 1250 4750 2034 4750 
z
" transform="scale(0.015625)"/>
       </defs>
       <use xlink:href="#DejaVuSans-30"/>
      </g>
     </g>
    </g>
    <g id="xtick_2">
     <g id="line2d_3">
      <path d="M 88.885755 143.44 
L 88.885755 10.8 
" clip-path="url(#p4286341ffc)" style="fill: none; stroke: #808080; stroke-opacity: 0.25; stroke-width: 0.5; stroke-linecap: square"/>
     </g>
     <g id="line2d_4">
      <g>
       <use xlink:href="#mfb85abd0d2" x="88.885755" y="143.44" style="stroke: #000000; stroke-width: 0.8"/>
      </g>
     </g>
     <g id="text_2">
      <!-- 100 -->
      <g transform="translate(79.342005 158.038438) scale(0.1 -0.1)">
       <defs>
        <path id="DejaVuSans-31" d="M 794 531 
L 1825 531 
L 1825 4091 
L 703 3866 
L 703 4441 
L 1819 4666 
L 2450 4666 
L 2450 531 
L 3481 531 
L 3481 0 
L 794 0 
L 794 531 
z
" transform="scale(0.015625)"/>
       </defs>
       <use xlink:href="#DejaVuSans-31"/>
       <use xlink:href="#DejaVuSans-30" x="63.623047"/>
       <use xlink:href="#DejaVuSans-30" x="127.246094"/>
      </g>
     </g>
    </g>
    <g id="xtick_3">
     <g id="line2d_5">
      <path d="M 124.623739 143.44 
L 124.623739 10.8 
" clip-path="url(#p4286341ffc)" style="fill: none; stroke: #808080; stroke-opacity: 0.25; stroke-width: 0.5; stroke-linecap: square"/>
     </g>
     <g id="line2d_6">
      <g>
       <use xlink:href="#mfb85abd0d2" x="124.623739" y="143.44" style="stroke: #000000; stroke-width: 0.8"/>
      </g>
     </g>
     <g id="text_3">
      <!-- 200 -->
      <g transform="translate(115.079989 158.038438) scale(0.1 -0.1)">
       <defs>
        <path id="DejaVuSans-32" d="M 1228 531 
L 3431 531 
L 3431 0 
L 469 0 
L 469 531 
Q 828 903 1448 1529 
Q 2069 2156 2228 2338 
Q 2531 2678 2651 2914 
Q 2772 3150 2772 3378 
Q 2772 3750 2511 3984 
Q 2250 4219 1831 4219 
Q 1534 4219 1204 4116 
Q 875 4013 500 3803 
L 500 4441 
Q 881 4594 1212 4672 
Q 1544 4750 1819 4750 
Q 2544 4750 2975 4387 
Q 3406 4025 3406 3419 
Q 3406 3131 3298 2873 
Q 3191 2616 2906 2266 
Q 2828 2175 2409 1742 
Q 1991 1309 1228 531 
z
" transform="scale(0.015625)"/>
       </defs>
       <use xlink:href="#DejaVuSans-32"/>
       <use xlink:href="#DejaVuSans-30" x="63.623047"/>
       <use xlink:href="#DejaVuSans-30" x="127.246094"/>
      </g>
     </g>
    </g>
    <g id="xtick_4">
     <g id="line2d_7">
      <path d="M 160.361722 143.44 
L 160.361722 10.8 
" clip-path="url(#p4286341ffc)" style="fill: none; stroke: #808080; stroke-opacity: 0.25; stroke-width: 0.5; stroke-linecap: square"/>
     </g>
     <g id="line2d_8">
      <g>
       <use xlink:href="#mfb85abd0d2" x="160.361722" y="143.44" style="stroke: #000000; stroke-width: 0.8"/>
      </g>
     </g>
     <g id="text_4">
      <!-- 300 -->
      <g transform="translate(150.817972 158.038438) scale(0.1 -0.1)">
       <defs>
        <path id="DejaVuSans-33" d="M 2597 2516 
Q 3050 2419 3304 2112 
Q 3559 1806 3559 1356 
Q 3559 666 3084 287 
Q 2609 -91 1734 -91 
Q 1441 -91 1130 -33 
Q 819 25 488 141 
L 488 750 
Q 750 597 1062 519 
Q 1375 441 1716 441 
Q 2309 441 2620 675 
Q 2931 909 2931 1356 
Q 2931 1769 2642 2001 
Q 2353 2234 1838 2234 
L 1294 2234 
L 1294 2753 
L 1863 2753 
Q 2328 2753 2575 2939 
Q 2822 3125 2822 3475 
Q 2822 3834 2567 4026 
Q 2313 4219 1838 4219 
Q 1578 4219 1281 4162 
Q 984 4106 628 3988 
L 628 4550 
Q 988 4650 1302 4700 
Q 1616 4750 1894 4750 
Q 2613 4750 3031 4423 
Q 3450 4097 3450 3541 
Q 3450 3153 3228 2886 
Q 3006 2619 2597 2516 
z
" transform="scale(0.015625)"/>
       </defs>
       <use xlink:href="#DejaVuSans-33"/>
       <use xlink:href="#DejaVuSans-30" x="63.623047"/>
       <use xlink:href="#DejaVuSans-30" x="127.246094"/>
      </g>
     </g>
    </g>
    <g id="xtick_5">
     <g id="line2d_9">
      <path d="M 196.099706 143.44 
L 196.099706 10.8 
" clip-path="url(#p4286341ffc)" style="fill: none; stroke: #808080; stroke-opacity: 0.25; stroke-width: 0.5; stroke-linecap: square"/>
     </g>
     <g id="line2d_10">
      <g>
       <use xlink:href="#mfb85abd0d2" x="196.099706" y="143.44" style="stroke: #000000; stroke-width: 0.8"/>
      </g>
     </g>
     <g id="text_5">
      <!-- 400 -->
      <g transform="translate(186.555956 158.038438) scale(0.1 -0.1)">
       <defs>
        <path id="DejaVuSans-34" d="M 2419 4116 
L 825 1625 
L 2419 1625 
L 2419 4116 
z
M 2253 4666 
L 3047 4666 
L 3047 1625 
L 3713 1625 
L 3713 1100 
L 3047 1100 
L 3047 0 
L 2419 0 
L 2419 1100 
L 313 1100 
L 313 1709 
L 2253 4666 
z
" transform="scale(0.015625)"/>
       </defs>
       <use xlink:href="#DejaVuSans-34"/>
       <use xlink:href="#DejaVuSans-30" x="63.623047"/>
       <use xlink:href="#DejaVuSans-30" x="127.246094"/>
      </g>
     </g>
    </g>
    <g id="xtick_6">
     <g id="line2d_11">
      <path d="M 231.83769 143.44 
L 231.83769 10.8 
" clip-path="url(#p4286341ffc)" style="fill: none; stroke: #808080; stroke-opacity: 0.25; stroke-width: 0.5; stroke-linecap: square"/>
     </g>
     <g id="line2d_12">
      <g>
       <use xlink:href="#mfb85abd0d2" x="231.83769" y="143.44" style="stroke: #000000; stroke-width: 0.8"/>
      </g>
     </g>
     <g id="text_6">
      <!-- 500 -->
      <g transform="translate(222.29394 158.038438) scale(0.1 -0.1)">
       <defs>
        <path id="DejaVuSans-35" d="M 691 4666 
L 3169 4666 
L 3169 4134 
L 1269 4134 
L 1269 2991 
Q 1406 3038 1543 3061 
Q 1681 3084 1819 3084 
Q 2600 3084 3056 2656 
Q 3513 2228 3513 1497 
Q 3513 744 3044 326 
Q 2575 -91 1722 -91 
Q 1428 -91 1123 -41 
Q 819 9 494 109 
L 494 744 
Q 775 591 1075 516 
Q 1375 441 1709 441 
Q 2250 441 2565 725 
Q 2881 1009 2881 1497 
Q 2881 1984 2565 2268 
Q 2250 2553 1709 2553 
Q 1456 2553 1204 2497 
Q 953 2441 691 2322 
L 691 4666 
z
" transform="scale(0.015625)"/>
       </defs>
       <use xlink:href="#DejaVuSans-35"/>
       <use xlink:href="#DejaVuSans-30" x="63.623047"/>
       <use xlink:href="#DejaVuSans-30" x="127.246094"/>
      </g>
     </g>
    </g>
    <g id="xtick_7">
     <g id="line2d_13">
      <path d="M 267.575673 143.44 
L 267.575673 10.8 
" clip-path="url(#p4286341ffc)" style="fill: none; stroke: #808080; stroke-opacity: 0.25; stroke-width: 0.5; stroke-linecap: square"/>
     </g>
     <g id="line2d_14">
      <g>
       <use xlink:href="#mfb85abd0d2" x="267.575673" y="143.44" style="stroke: #000000; stroke-width: 0.8"/>
      </g>
     </g>
     <g id="text_7">
      <!-- 600 -->
      <g transform="translate(258.031923 158.038438) scale(0.1 -0.1)">
       <defs>
        <path id="DejaVuSans-36" d="M 2113 2584 
Q 1688 2584 1439 2293 
Q 1191 2003 1191 1497 
Q 1191 994 1439 701 
Q 1688 409 2113 409 
Q 2538 409 2786 701 
Q 3034 994 3034 1497 
Q 3034 2003 2786 2293 
Q 2538 2584 2113 2584 
z
M 3366 4563 
L 3366 3988 
Q 3128 4100 2886 4159 
Q 2644 4219 2406 4219 
Q 1781 4219 1451 3797 
Q 1122 3375 1075 2522 
Q 1259 2794 1537 2939 
Q 1816 3084 2150 3084 
Q 2853 3084 3261 2657 
Q 3669 2231 3669 1497 
Q 3669 778 3244 343 
Q 2819 -91 2113 -91 
Q 1303 -91 875 529 
Q 447 1150 447 2328 
Q 447 3434 972 4092 
Q 1497 4750 2381 4750 
Q 2619 4750 2861 4703 
Q 3103 4656 3366 4563 
z
" transform="scale(0.015625)"/>
       </defs>
       <use xlink:href="#DejaVuSans-36"/>
       <use xlink:href="#DejaVuSans-30" x="63.623047"/>
       <use xlink:href="#DejaVuSans-30" x="127.246094"/>
      </g>
     </g>
    </g>
    <g id="text_8">
     <!-- Training Steps -->
     <g transform="translate(122.376686 171.716563) scale(0.1 -0.1)">
      <defs>
       <path id="DejaVuSans-54" d="M -19 4666 
L 3928 4666 
L 3928 4134 
L 2272 4134 
L 2272 0 
L 1638 0 
L 1638 4134 
L -19 4134 
L -19 4666 
z
" transform="scale(0.015625)"/>
       <path id="DejaVuSans-72" d="M 2631 2963 
Q 2534 3019 2420 3045 
Q 2306 3072 2169 3072 
Q 1681 3072 1420 2755 
Q 1159 2438 1159 1844 
L 1159 0 
L 581 0 
L 581 3500 
L 1159 3500 
L 1159 2956 
Q 1341 3275 1631 3429 
Q 1922 3584 2338 3584 
Q 2397 3584 2469 3576 
Q 2541 3569 2628 3553 
L 2631 2963 
z
" transform="scale(0.015625)"/>
       <path id="DejaVuSans-61" d="M 2194 1759 
Q 1497 1759 1228 1600 
Q 959 1441 959 1056 
Q 959 750 1161 570 
Q 1363 391 1709 391 
Q 2188 391 2477 730 
Q 2766 1069 2766 1631 
L 2766 1759 
L 2194 1759 
z
M 3341 1997 
L 3341 0 
L 2766 0 
L 2766 531 
Q 2569 213 2275 61 
Q 1981 -91 1556 -91 
Q 1019 -91 701 211 
Q 384 513 384 1019 
Q 384 1609 779 1909 
Q 1175 2209 1959 2209 
L 2766 2209 
L 2766 2266 
Q 2766 2663 2505 2880 
Q 2244 3097 1772 3097 
Q 1472 3097 1187 3025 
Q 903 2953 641 2809 
L 641 3341 
Q 956 3463 1253 3523 
Q 1550 3584 1831 3584 
Q 2591 3584 2966 3190 
Q 3341 2797 3341 1997 
z
" transform="scale(0.015625)"/>
       <path id="DejaVuSans-69" d="M 603 3500 
L 1178 3500 
L 1178 0 
L 603 0 
L 603 3500 
z
M 603 4863 
L 1178 4863 
L 1178 4134 
L 603 4134 
L 603 4863 
z
" transform="scale(0.015625)"/>
       <path id="DejaVuSans-6e" d="M 3513 2113 
L 3513 0 
L 2938 0 
L 2938 2094 
Q 2938 2591 2744 2837 
Q 2550 3084 2163 3084 
Q 1697 3084 1428 2787 
Q 1159 2491 1159 1978 
L 1159 0 
L 581 0 
L 581 3500 
L 1159 3500 
L 1159 2956 
Q 1366 3272 1645 3428 
Q 1925 3584 2291 3584 
Q 2894 3584 3203 3211 
Q 3513 2838 3513 2113 
z
" transform="scale(0.015625)"/>
       <path id="DejaVuSans-67" d="M 2906 1791 
Q 2906 2416 2648 2759 
Q 2391 3103 1925 3103 
Q 1463 3103 1205 2759 
Q 947 2416 947 1791 
Q 947 1169 1205 825 
Q 1463 481 1925 481 
Q 2391 481 2648 825 
Q 2906 1169 2906 1791 
z
M 3481 434 
Q 3481 -459 3084 -895 
Q 2688 -1331 1869 -1331 
Q 1566 -1331 1297 -1286 
Q 1028 -1241 775 -1147 
L 775 -588 
Q 1028 -725 1275 -790 
Q 1522 -856 1778 -856 
Q 2344 -856 2625 -561 
Q 2906 -266 2906 331 
L 2906 616 
Q 2728 306 2450 153 
Q 2172 0 1784 0 
Q 1141 0 747 490 
Q 353 981 353 1791 
Q 353 2603 747 3093 
Q 1141 3584 1784 3584 
Q 2172 3584 2450 3431 
Q 2728 3278 2906 2969 
L 2906 3500 
L 3481 3500 
L 3481 434 
z
" transform="scale(0.015625)"/>
       <path id="DejaVuSans-20" transform="scale(0.015625)"/>
       <path id="DejaVuSans-53" d="M 3425 4513 
L 3425 3897 
Q 3066 4069 2747 4153 
Q 2428 4238 2131 4238 
Q 1616 4238 1336 4038 
Q 1056 3838 1056 3469 
Q 1056 3159 1242 3001 
Q 1428 2844 1947 2747 
L 2328 2669 
Q 3034 2534 3370 2195 
Q 3706 1856 3706 1288 
Q 3706 609 3251 259 
Q 2797 -91 1919 -91 
Q 1588 -91 1214 -16 
Q 841 59 441 206 
L 441 856 
Q 825 641 1194 531 
Q 1563 422 1919 422 
Q 2459 422 2753 634 
Q 3047 847 3047 1241 
Q 3047 1584 2836 1778 
Q 2625 1972 2144 2069 
L 1759 2144 
Q 1053 2284 737 2584 
Q 422 2884 422 3419 
Q 422 4038 858 4394 
Q 1294 4750 2059 4750 
Q 2388 4750 2728 4690 
Q 3069 4631 3425 4513 
z
" transform="scale(0.015625)"/>
       <path id="DejaVuSans-74" d="M 1172 4494 
L 1172 3500 
L 2356 3500 
L 2356 3053 
L 1172 3053 
L 1172 1153 
Q 1172 725 1289 603 
Q 1406 481 1766 481 
L 2356 481 
L 2356 0 
L 1766 0 
Q 1100 0 847 248 
Q 594 497 594 1153 
L 594 3053 
L 172 3053 
L 172 3500 
L 594 3500 
L 594 4494 
L 1172 4494 
z
" transform="scale(0.015625)"/>
       <path id="DejaVuSans-65" d="M 3597 1894 
L 3597 1613 
L 953 1613 
Q 991 1019 1311 708 
Q 1631 397 2203 397 
Q 2534 397 2845 478 
Q 3156 559 3463 722 
L 3463 178 
Q 3153 47 2828 -22 
Q 2503 -91 2169 -91 
Q 1331 -91 842 396 
Q 353 884 353 1716 
Q 353 2575 817 3079 
Q 1281 3584 2069 3584 
Q 2775 3584 3186 3129 
Q 3597 2675 3597 1894 
z
M 3022 2063 
Q 3016 2534 2758 2815 
Q 2500 3097 2075 3097 
Q 1594 3097 1305 2825 
Q 1016 2553 972 2059 
L 3022 2063 
z
" transform="scale(0.015625)"/>
       <path id="DejaVuSans-70" d="M 1159 525 
L 1159 -1331 
L 581 -1331 
L 581 3500 
L 1159 3500 
L 1159 2969 
Q 1341 3281 1617 3432 
Q 1894 3584 2278 3584 
Q 2916 3584 3314 3078 
Q 3713 2572 3713 1747 
Q 3713 922 3314 415 
Q 2916 -91 2278 -91 
Q 1894 -91 1617 61 
Q 1341 213 1159 525 
z
M 3116 1747 
Q 3116 2381 2855 2742 
Q 2594 3103 2138 3103 
Q 1681 3103 1420 2742 
Q 1159 2381 1159 1747 
Q 1159 1113 1420 752 
Q 1681 391 2138 391 
Q 2594 391 2855 752 
Q 3116 1113 3116 1747 
z
" transform="scale(0.015625)"/>
       <path id="DejaVuSans-73" d="M 2834 3397 
L 2834 2853 
Q 2591 2978 2328 3040 
Q 2066 3103 1784 3103 
Q 1356 3103 1142 2972 
Q 928 2841 928 2578 
Q 928 2378 1081 2264 
Q 1234 2150 1697 2047 
L 1894 2003 
Q 2506 1872 2764 1633 
Q 3022 1394 3022 966 
Q 3022 478 2636 193 
Q 2250 -91 1575 -91 
Q 1294 -91 989 -36 
Q 684 19 347 128 
L 347 722 
Q 666 556 975 473 
Q 1284 391 1588 391 
Q 1994 391 2212 530 
Q 2431 669 2431 922 
Q 2431 1156 2273 1281 
Q 2116 1406 1581 1522 
L 1381 1569 
Q 847 1681 609 1914 
Q 372 2147 372 2553 
Q 372 3047 722 3315 
Q 1072 3584 1716 3584 
Q 2034 3584 2315 3537 
Q 2597 3491 2834 3397 
z
" transform="scale(0.015625)"/>
      </defs>
      <use xlink:href="#DejaVuSans-54"/>
      <use xlink:href="#DejaVuSans-72" x="46.333984"/>
      <use xlink:href="#DejaVuSans-61" x="87.447266"/>
      <use xlink:href="#DejaVuSans-69" x="148.726562"/>
      <use xlink:href="#DejaVuSans-6e" x="176.509766"/>
      <use xlink:href="#DejaVuSans-69" x="239.888672"/>
      <use xlink:href="#DejaVuSans-6e" x="267.671875"/>
      <use xlink:href="#DejaVuSans-67" x="331.050781"/>
      <use xlink:href="#DejaVuSans-20" x="394.527344"/>
      <use xlink:href="#DejaVuSans-53" x="426.314453"/>
      <use xlink:href="#DejaVuSans-74" x="489.791016"/>
      <use xlink:href="#DejaVuSans-65" x="529"/>
      <use xlink:href="#DejaVuSans-70" x="590.523438"/>
      <use xlink:href="#DejaVuSans-73" x="654"/>
     </g>
    </g>
   </g>
   <g id="matplotlib.axis_2">
    <g id="ytick_1">
     <g id="line2d_15">
      <path d="M 44.66 143.183941 
L 270.702747 143.183941 
" clip-path="url(#p4286341ffc)" style="fill: none; stroke: #808080; stroke-opacity: 0.25; stroke-width: 0.5; stroke-linecap: square"/>
     </g>
     <g id="line2d_16">
      <defs>
       <path id="md43a9fbd63" d="M 0 0 
L -3.5 0 
" style="stroke: #000000; stroke-width: 0.8"/>
      </defs>
      <g>
       <use xlink:href="#md43a9fbd63" x="44.66" y="143.183941" style="stroke: #000000; stroke-width: 0.8"/>
      </g>
     </g>
     <g id="text_9">
      <!-- 5 -->
      <g transform="translate(31.2975 146.98316) scale(0.1 -0.1)">
       <use xlink:href="#DejaVuSans-35"/>
      </g>
     </g>
    </g>
    <g id="ytick_2">
     <g id="line2d_17">
      <path d="M 44.66 120.026067 
L 270.702747 120.026067 
" clip-path="url(#p4286341ffc)" style="fill: none; stroke: #808080; stroke-opacity: 0.25; stroke-width: 0.5; stroke-linecap: square"/>
     </g>
     <g id="line2d_18">
      <g>
       <use xlink:href="#md43a9fbd63" x="44.66" y="120.026067" style="stroke: #000000; stroke-width: 0.8"/>
      </g>
     </g>
     <g id="text_10">
      <!-- 6 -->
      <g transform="translate(31.2975 123.825286) scale(0.1 -0.1)">
       <use xlink:href="#DejaVuSans-36"/>
      </g>
     </g>
    </g>
    <g id="ytick_3">
     <g id="line2d_19">
      <path d="M 44.66 96.868193 
L 270.702747 96.868193 
" clip-path="url(#p4286341ffc)" style="fill: none; stroke: #808080; stroke-opacity: 0.25; stroke-width: 0.5; stroke-linecap: square"/>
     </g>
     <g id="line2d_20">
      <g>
       <use xlink:href="#md43a9fbd63" x="44.66" y="96.868193" style="stroke: #000000; stroke-width: 0.8"/>
      </g>
     </g>
     <g id="text_11">
      <!-- 7 -->
      <g transform="translate(31.2975 100.667412) scale(0.1 -0.1)">
       <defs>
        <path id="DejaVuSans-37" d="M 525 4666 
L 3525 4666 
L 3525 4397 
L 1831 0 
L 1172 0 
L 2766 4134 
L 525 4134 
L 525 4666 
z
" transform="scale(0.015625)"/>
       </defs>
       <use xlink:href="#DejaVuSans-37"/>
      </g>
     </g>
    </g>
    <g id="ytick_4">
     <g id="line2d_21">
      <path d="M 44.66 73.710319 
L 270.702747 73.710319 
" clip-path="url(#p4286341ffc)" style="fill: none; stroke: #808080; stroke-opacity: 0.25; stroke-width: 0.5; stroke-linecap: square"/>
     </g>
     <g id="line2d_22">
      <g>
       <use xlink:href="#md43a9fbd63" x="44.66" y="73.710319" style="stroke: #000000; stroke-width: 0.8"/>
      </g>
     </g>
     <g id="text_12">
      <!-- 8 -->
      <g transform="translate(31.2975 77.509538) scale(0.1 -0.1)">
       <defs>
        <path id="DejaVuSans-38" d="M 2034 2216 
Q 1584 2216 1326 1975 
Q 1069 1734 1069 1313 
Q 1069 891 1326 650 
Q 1584 409 2034 409 
Q 2484 409 2743 651 
Q 3003 894 3003 1313 
Q 3003 1734 2745 1975 
Q 2488 2216 2034 2216 
z
M 1403 2484 
Q 997 2584 770 2862 
Q 544 3141 544 3541 
Q 544 4100 942 4425 
Q 1341 4750 2034 4750 
Q 2731 4750 3128 4425 
Q 3525 4100 3525 3541 
Q 3525 3141 3298 2862 
Q 3072 2584 2669 2484 
Q 3125 2378 3379 2068 
Q 3634 1759 3634 1313 
Q 3634 634 3220 271 
Q 2806 -91 2034 -91 
Q 1263 -91 848 271 
Q 434 634 434 1313 
Q 434 1759 690 2068 
Q 947 2378 1403 2484 
z
M 1172 3481 
Q 1172 3119 1398 2916 
Q 1625 2713 2034 2713 
Q 2441 2713 2670 2916 
Q 2900 3119 2900 3481 
Q 2900 3844 2670 4047 
Q 2441 4250 2034 4250 
Q 1625 4250 1398 4047 
Q 1172 3844 1172 3481 
z
" transform="scale(0.015625)"/>
       </defs>
       <use xlink:href="#DejaVuSans-38"/>
      </g>
     </g>
    </g>
    <g id="ytick_5">
     <g id="line2d_23">
      <path d="M 44.66 50.552445 
L 270.702747 50.552445 
" clip-path="url(#p4286341ffc)" style="fill: none; stroke: #808080; stroke-opacity: 0.25; stroke-width: 0.5; stroke-linecap: square"/>
     </g>
     <g id="line2d_24">
      <g>
       <use xlink:href="#md43a9fbd63" x="44.66" y="50.552445" style="stroke: #000000; stroke-width: 0.8"/>
      </g>
     </g>
     <g id="text_13">
      <!-- 9 -->
      <g transform="translate(31.2975 54.351664) scale(0.1 -0.1)">
       <defs>
        <path id="DejaVuSans-39" d="M 703 97 
L 703 672 
Q 941 559 1184 500 
Q 1428 441 1663 441 
Q 2288 441 2617 861 
Q 2947 1281 2994 2138 
Q 2813 1869 2534 1725 
Q 2256 1581 1919 1581 
Q 1219 1581 811 2004 
Q 403 2428 403 3163 
Q 403 3881 828 4315 
Q 1253 4750 1959 4750 
Q 2769 4750 3195 4129 
Q 3622 3509 3622 2328 
Q 3622 1225 3098 567 
Q 2575 -91 1691 -91 
Q 1453 -91 1209 -44 
Q 966 3 703 97 
z
M 1959 2075 
Q 2384 2075 2632 2365 
Q 2881 2656 2881 3163 
Q 2881 3666 2632 3958 
Q 2384 4250 1959 4250 
Q 1534 4250 1286 3958 
Q 1038 3666 1038 3163 
Q 1038 2656 1286 2365 
Q 1534 2075 1959 2075 
z
" transform="scale(0.015625)"/>
       </defs>
       <use xlink:href="#DejaVuSans-39"/>
      </g>
     </g>
    </g>
    <g id="ytick_6">
     <g id="line2d_25">
      <path d="M 44.66 27.394571 
L 270.702747 27.394571 
" clip-path="url(#p4286341ffc)" style="fill: none; stroke: #808080; stroke-opacity: 0.25; stroke-width: 0.5; stroke-linecap: square"/>
     </g>
     <g id="line2d_26">
      <g>
       <use xlink:href="#md43a9fbd63" x="44.66" y="27.394571" style="stroke: #000000; stroke-width: 0.8"/>
      </g>
     </g>
     <g id="text_14">
      <!-- 10 -->
      <g transform="translate(24.935 31.19379) scale(0.1 -0.1)">
       <use xlink:href="#DejaVuSans-31"/>
       <use xlink:href="#DejaVuSans-30" x="63.623047"/>
      </g>
     </g>
    </g>
    <g id="text_15">
     <!-- NLL Loss -->
     <g transform="translate(18.855313 98.98875) rotate(-90) scale(0.1 -0.1)">
      <defs>
       <path id="DejaVuSans-4e" d="M 628 4666 
L 1478 4666 
L 3547 763 
L 3547 4666 
L 4159 4666 
L 4159 0 
L 3309 0 
L 1241 3903 
L 1241 0 
L 628 0 
L 628 4666 
z
" transform="scale(0.015625)"/>
       <path id="DejaVuSans-4c" d="M 628 4666 
L 1259 4666 
L 1259 531 
L 3531 531 
L 3531 0 
L 628 0 
L 628 4666 
z
" transform="scale(0.015625)"/>
       <path id="DejaVuSans-6f" d="M 1959 3097 
Q 1497 3097 1228 2736 
Q 959 2375 959 1747 
Q 959 1119 1226 758 
Q 1494 397 1959 397 
Q 2419 397 2687 759 
Q 2956 1122 2956 1747 
Q 2956 2369 2687 2733 
Q 2419 3097 1959 3097 
z
M 1959 3584 
Q 2709 3584 3137 3096 
Q 3566 2609 3566 1747 
Q 3566 888 3137 398 
Q 2709 -91 1959 -91 
Q 1206 -91 779 398 
Q 353 888 353 1747 
Q 353 2609 779 3096 
Q 1206 3584 1959 3584 
z
" transform="scale(0.015625)"/>
      </defs>
      <use xlink:href="#DejaVuSans-4e"/>
      <use xlink:href="#DejaVuSans-4c" x="74.804688"/>
      <use xlink:href="#DejaVuSans-4c" x="130.517578"/>
      <use xlink:href="#DejaVuSans-20" x="186.230469"/>
      <use xlink:href="#DejaVuSans-4c" x="218.017578"/>
      <use xlink:href="#DejaVuSans-6f" x="271.980469"/>
      <use xlink:href="#DejaVuSans-73" x="333.162109"/>
      <use xlink:href="#DejaVuSans-73" x="385.261719"/>
     </g>
    </g>
   </g>
   <g id="line2d_27">
    <path d="M 54.93467 48.362313 
L 56.72157 56.125878 
L 58.508469 66.683535 
L 60.295368 80.343327 
L 62.082267 94.41336 
L 63.869166 105.740351 
L 65.656065 112.195353 
L 67.442965 114.763283 
L 69.229864 115.798289 
L 71.016763 116.665139 
L 72.803662 118.003494 
L 74.590561 119.189463 
L 76.377461 120.696835 
L 78.16436 121.920801 
L 79.951259 123.060799 
L 81.738158 123.941894 
L 83.525057 125.0842 
L 85.311956 125.549632 
L 87.098856 126.308563 
L 88.885755 127.032048 
L 90.672654 127.469498 
L 92.459553 127.670715 
L 94.246452 128.199685 
L 96.033352 128.132282 
L 97.820251 128.707885 
L 99.60715 128.89955 
L 101.394049 128.971492 
L 103.180948 128.976031 
L 104.967848 129.51611 
L 106.754747 129.288579 
L 108.541646 129.386305 
L 110.328545 129.436394 
L 112.115444 129.567237 
L 113.902343 129.976065 
L 115.689243 129.699858 
L 117.476142 130.023978 
L 119.263041 130.244376 
L 121.04994 130.017242 
L 122.836839 130.297149 
L 124.623739 130.389829 
L 126.410638 130.299158 
L 128.197537 130.206953 
L 129.984436 130.464973 
L 131.771335 130.745332 
L 133.558235 130.800114 
L 135.345134 130.895698 
L 137.132033 130.840949 
L 138.918932 130.921493 
L 140.705831 131.076928 
L 142.49273 130.926971 
L 144.27963 130.947002 
L 146.066529 131.011656 
L 147.853428 131.372471 
L 149.640327 131.17344 
L 151.427226 131.092454 
L 153.214126 131.127459 
L 155.001025 131.282717 
L 156.787924 131.378522 
L 158.574823 131.366099 
L 160.361722 131.314011 
L 162.148621 131.228432 
L 163.935521 131.371742 
L 165.72242 131.363614 
L 167.509319 131.713387 
L 169.296218 131.578679 
L 171.083117 131.502806 
L 172.870017 131.63705 
L 174.656916 131.39375 
L 176.443815 131.618322 
L 178.230714 131.557808 
L 180.017613 131.58017 
L 181.804513 131.497152 
L 183.591412 131.493795 
L 185.378311 131.622937 
L 187.16521 131.502684 
L 188.952109 131.918645 
L 190.739008 131.75642 
L 192.525908 131.657611 
L 194.312807 131.863289 
L 196.099706 131.751141 
L 197.886605 131.764757 
L 199.673504 131.651979 
L 201.460404 131.747828 
L 203.247303 131.884944 
L 205.034202 131.511386 
L 206.821101 131.790839 
L 208.608 131.892585 
L 210.3949 131.708175 
L 212.181799 131.854201 
L 213.968698 131.724849 
L 215.755597 131.563043 
L 217.542496 131.847079 
L 219.329395 131.692781 
L 221.116295 131.884977 
L 222.903194 131.844163 
L 224.690093 132.068404 
L 226.476992 131.72094 
L 228.263891 131.790475 
L 230.050791 131.767053 
L 231.83769 131.835948 
L 233.624589 131.87114 
L 235.411488 132.068327 
L 237.198387 131.929059 
L 238.985286 132.022213 
L 240.772186 132.029645 
L 242.559085 132.22703 
L 244.345984 132.081622 
L 246.132883 132.101675 
L 247.919782 132.044022 
L 249.706682 132.206734 
L 251.493581 132.064904 
L 253.28048 131.892883 
L 255.067379 131.970965 
L 256.854278 132.147789 
L 258.641178 132.1049 
L 260.428077 132.107815 
" clip-path="url(#p4286341ffc)" style="fill: none; stroke: #4e9a84; stroke-width: 1.5; stroke-linecap: square"/>
   </g>
   <g id="line2d_28">
    <path d="M 54.93467 31.705886 
L 56.72157 39.982177 
L 58.508469 47.835518 
L 60.295368 57.770067 
L 62.082267 68.607211 
L 63.869166 79.140883 
L 65.656065 87.064068 
L 67.442965 91.237947 
L 69.229864 91.834675 
L 71.016763 92.394575 
L 72.803662 92.629251 
L 74.590561 93.431403 
L 76.377461 94.608416 
L 78.16436 95.160819 
L 79.951259 96.530579 
L 81.738158 97.094941 
L 83.525057 98.016727 
L 85.311956 98.605736 
L 87.098856 98.979703 
L 88.885755 99.872227 
L 90.672654 100.864321 
L 92.459553 100.692852 
L 94.246452 101.408243 
L 96.033352 101.60988 
L 97.820251 102.25695 
L 99.60715 102.436723 
L 101.394049 102.833956 
L 103.180948 103.023302 
L 104.967848 103.493714 
L 106.754747 103.742447 
L 108.541646 104.139272 
L 110.328545 104.166193 
L 112.115444 104.170191 
L 113.902343 104.742956 
L 115.689243 104.809509 
L 117.476142 105.185784 
L 119.263041 105.576104 
L 121.04994 105.963995 
L 122.836839 105.690704 
L 124.623739 106.290744 
L 126.410638 106.046362 
L 128.197537 106.358523 
L 129.984436 106.393252 
L 131.771335 106.932094 
L 133.558235 107.04104 
L 135.345134 107.304957 
L 137.132033 107.181424 
L 138.918932 106.958067 
L 140.705831 107.555534 
L 142.49273 107.093315 
L 144.27963 107.496346 
L 146.066529 107.499913 
L 147.853428 107.916205 
L 149.640327 107.893734 
L 151.427226 107.71914 
L 153.214126 107.996738 
L 155.001025 107.984371 
L 156.787924 108.232254 
L 158.574823 108.295748 
L 160.361722 107.819241 
L 162.148621 108.732469 
L 163.935521 108.357465 
L 165.72242 108.542427 
L 167.509319 109.231713 
L 169.296218 108.784877 
L 171.083117 108.869695 
L 172.870017 108.968338 
L 174.656916 109.149966 
L 176.443815 109.173784 
L 178.230714 109.125473 
L 180.017613 109.386342 
L 181.804513 108.978729 
L 183.591412 109.058975 
L 185.378311 109.265272 
L 187.16521 109.224381 
L 188.952109 109.558915 
L 190.739008 109.630746 
L 192.525908 109.586344 
L 194.312807 109.621559 
L 196.099706 109.4629 
L 197.886605 109.529034 
L 199.673504 109.709159 
L 201.460404 109.647211 
L 203.247303 109.76414 
L 205.034202 109.706266 
L 206.821101 109.871496 
L 208.608 109.958743 
L 210.3949 109.624706 
L 212.181799 109.789074 
L 213.968698 109.987222 
L 215.755597 109.753948 
L 217.542496 109.8887 
L 219.329395 109.790145 
L 221.116295 109.902603 
L 222.903194 109.908278 
L 224.690093 110.423512 
L 226.476992 110.047116 
L 228.263891 110.180963 
L 230.050791 110.097095 
L 231.83769 110.056624 
L 233.624589 110.077505 
L 235.411488 110.444614 
L 237.198387 110.116022 
L 238.985286 110.152804 
L 240.772186 110.120229 
L 242.559085 110.352034 
L 244.345984 110.342824 
L 246.132883 110.559755 
L 247.919782 110.014287 
L 249.706682 110.605615 
L 251.493581 110.57125 
L 253.28048 110.304109 
L 255.067379 110.363584 
L 256.854278 110.288351 
L 258.641178 110.411796 
L 260.428077 110.691415 
" clip-path="url(#p4286341ffc)" style="fill: none; stroke: #438d77; stroke-width: 1.5; stroke-linecap: square"/>
   </g>
   <g id="line2d_29">
    <path d="M 54.93467 23.123363 
L 56.72157 31.495548 
L 58.508469 39.5115 
L 60.295368 49.51215 
L 62.082267 61.022292 
L 63.869166 72.127261 
L 65.656065 81.240157 
L 67.442965 87.055388 
L 69.229864 88.633135 
L 71.016763 88.551155 
L 72.803662 89.18112 
L 74.590561 89.512341 
L 76.377461 91.050809 
L 78.16436 91.563393 
L 79.951259 92.161832 
L 81.738158 93.403167 
L 83.525057 93.578865 
L 85.311956 94.553214 
L 87.098856 95.260996 
L 88.885755 95.619382 
L 90.672654 96.083489 
L 92.459553 96.566743 
L 94.246452 97.089894 
L 96.033352 97.216574 
L 97.820251 97.716945 
L 99.60715 98.665719 
L 101.394049 98.51056 
L 103.180948 98.62389 
L 104.967848 99.316334 
L 106.754747 99.038946 
L 108.541646 99.741406 
L 110.328545 99.841175 
L 112.115444 99.832981 
L 113.902343 100.761062 
L 115.689243 100.615058 
L 117.476142 101.054727 
L 119.263041 101.124185 
L 121.04994 101.407227 
L 122.836839 101.614981 
L 124.623739 102.096204 
L 126.410638 101.757618 
L 128.197537 102.314438 
L 129.984436 102.163519 
L 131.771335 102.654338 
L 133.558235 103.195566 
L 135.345134 103.137107 
L 137.132033 102.811606 
L 138.918932 103.410995 
L 140.705831 104.024175 
L 142.49273 103.669489 
L 144.27963 103.982876 
L 146.066529 103.630432 
L 147.853428 103.890163 
L 149.640327 103.816808 
L 151.427226 104.489629 
L 153.214126 104.213687 
L 155.001025 104.606448 
L 156.787924 105.037372 
L 158.574823 104.956927 
L 160.361722 104.530089 
L 162.148621 104.876262 
L 163.935521 104.899495 
L 165.72242 105.037748 
L 167.509319 105.579218 
L 169.296218 105.478223 
L 171.083117 105.413205 
L 172.870017 105.660812 
L 174.656916 105.379039 
L 176.443815 105.63082 
L 178.230714 105.924397 
L 180.017613 105.331214 
L 181.804513 105.119065 
L 183.591412 105.497592 
L 185.378311 105.906751 
L 187.16521 105.696534 
L 188.952109 105.904012 
L 190.739008 105.948922 
L 192.525908 105.946217 
L 194.312807 106.347039 
L 196.099706 106.042397 
L 197.886605 105.848402 
L 199.673504 106.037793 
L 201.460404 106.186083 
L 203.247303 106.166118 
L 205.034202 106.284759 
L 206.821101 106.378841 
L 208.608 106.460114 
L 210.3949 106.429328 
L 212.181799 106.090532 
L 213.968698 106.654143 
L 215.755597 106.193857 
L 217.542496 106.539687 
L 219.329395 106.610514 
L 221.116295 106.634388 
L 222.903194 106.8507 
L 224.690093 106.913256 
L 226.476992 106.821459 
L 228.263891 106.373718 
L 230.050791 106.707567 
L 231.83769 107.187199 
L 233.624589 106.49439 
L 235.411488 106.66905 
L 237.198387 106.96764 
L 238.985286 107.199324 
L 240.772186 106.618199 
L 242.559085 107.357895 
L 244.345984 107.148407 
L 246.132883 107.244433 
L 247.919782 107.126377 
L 249.706682 107.309164 
L 251.493581 106.82517 
L 253.28048 106.988842 
L 255.067379 106.926827 
L 256.854278 107.299524 
L 258.641178 106.908386 
L 260.428077 107.427772 
" clip-path="url(#p4286341ffc)" style="fill: none; stroke: #367d6a; stroke-width: 1.5; stroke-linecap: square"/>
   </g>
   <g id="line2d_30">
    <path d="M 54.93467 16.620944 
L 56.72157 24.330974 
L 58.508469 32.919505 
L 60.295368 43.063928 
L 62.082267 55.135716 
L 63.869166 67.277579 
L 65.656065 77.321604 
L 67.442965 84.179139 
L 69.229864 87.7549 
L 71.016763 87.816373 
L 72.803662 87.910158 
L 74.590561 88.5976 
L 76.377461 89.764188 
L 78.16436 90.622072 
L 79.951259 91.224431 
L 81.738158 92.156951 
L 83.525057 92.888431 
L 85.311956 93.424656 
L 87.098856 94.114914 
L 88.885755 94.704563 
L 90.672654 95.050945 
L 92.459553 95.525388 
L 94.246452 96.005429 
L 96.033352 96.234263 
L 97.820251 96.809911 
L 99.60715 97.239465 
L 101.394049 97.110886 
L 103.180948 97.779489 
L 104.967848 97.798328 
L 106.754747 97.853243 
L 108.541646 98.25455 
L 110.328545 98.692133 
L 112.115444 98.582282 
L 113.902343 99.357976 
L 115.689243 99.211099 
L 117.476142 100.087898 
L 119.263041 100.203569 
L 121.04994 100.049393 
L 122.836839 100.203679 
L 124.623739 100.719741 
L 126.410638 100.60258 
L 128.197537 100.577182 
L 129.984436 100.995595 
L 131.771335 101.481941 
L 133.558235 101.789487 
L 135.345134 101.601929 
L 137.132033 101.791132 
L 138.918932 101.863902 
L 140.705831 102.673585 
L 142.49273 102.366338 
L 144.27963 102.243732 
L 146.066529 102.540456 
L 147.853428 102.78411 
L 149.640327 102.856394 
L 151.427226 103.288875 
L 153.214126 102.927243 
L 155.001025 103.3153 
L 156.787924 103.22283 
L 158.574823 103.446507 
L 160.361722 103.611803 
L 162.148621 103.10484 
L 163.935521 103.208198 
L 165.72242 103.5569 
L 167.509319 104.292288 
L 169.296218 103.781935 
L 171.083117 103.877354 
L 172.870017 103.934057 
L 174.656916 103.901813 
L 176.443815 103.525428 
L 178.230714 103.924174 
L 180.017613 104.120753 
L 181.804513 104.278143 
L 183.591412 104.538051 
L 185.378311 104.703004 
L 187.16521 104.349201 
L 188.952109 104.735867 
L 190.739008 104.599889 
L 192.525908 104.652717 
L 194.312807 104.630267 
L 196.099706 104.7467 
L 197.886605 104.538426 
L 199.673504 104.483545 
L 201.460404 104.745518 
L 203.247303 105.320061 
L 205.034202 105.03036 
L 206.821101 105.112572 
L 208.608 104.725122 
L 210.3949 105.05133 
L 212.181799 104.786508 
L 213.968698 105.280518 
L 215.755597 105.000479 
L 217.542496 105.051915 
L 219.329395 105.283024 
L 221.116295 104.891633 
L 222.903194 105.483468 
L 224.690093 105.978373 
L 226.476992 105.239649 
L 228.263891 105.554339 
L 230.050791 105.048216 
L 231.83769 105.415579 
L 233.624589 105.205925 
L 235.411488 105.802432 
L 237.198387 105.497945 
L 238.985286 105.572538 
L 240.772186 105.541088 
L 242.559085 105.908352 
L 244.345984 105.621544 
L 246.132883 105.544059 
L 247.919782 105.920311 
L 249.706682 105.603037 
L 251.493581 105.82698 
L 253.28048 105.946857 
L 255.067379 105.789501 
L 256.854278 106.058972 
L 258.641178 105.665825 
L 260.428077 106.029908 
" clip-path="url(#p4286341ffc)" style="fill: none; stroke: #295e57; stroke-width: 1.5; stroke-linecap: square"/>
   </g>
   <g id="patch_3">
    <path d="M 44.66 143.44 
L 44.66 10.8 
" style="fill: none; stroke: #000000; stroke-width: 0.8; stroke-linejoin: miter; stroke-linecap: square"/>
   </g>
   <g id="patch_4">
    <path d="M 270.702747 143.44 
L 270.702747 10.8 
" style="fill: none; stroke: #000000; stroke-width: 0.8; stroke-linejoin: miter; stroke-linecap: square"/>
   </g>
   <g id="patch_5">
    <path d="M 44.66 143.44 
L 270.702747 143.44 
" style="fill: none; stroke: #000000; stroke-width: 0.8; stroke-linejoin: miter; stroke-linecap: square"/>
   </g>
   <g id="patch_6">
    <path d="M 44.66 10.8 
L 270.702747 10.8 
" style="fill: none; stroke: #000000; stroke-width: 0.8; stroke-linejoin: miter; stroke-linecap: square"/>
   </g>
   <g id="legend_1">
    <g id="patch_7">
     <path d="M 209.162269 67.298225 
L 264.871747 67.298225 
Q 266.537747 67.298225 266.537747 65.632225 
L 266.537747 16.631 
Q 266.537747 14.965 264.871747 14.965 
L 209.162269 14.965 
Q 207.496269 14.965 207.496269 16.631 
L 207.496269 65.632225 
Q 207.496269 67.298225 209.162269 67.298225 
z
" style="fill: #ffffff; opacity: 0.8; stroke: #cccccc; stroke-linejoin: miter"/>
    </g>
    <g id="line2d_31">
     <path d="M 210.828269 21.710998 
L 219.158269 21.710998 
L 227.488269 21.710998 
" style="fill: none; stroke: #4e9a84; stroke-width: 1.5; stroke-linecap: square"/>
    </g>
    <g id="text_16">
     <!-- es_10k -->
     <g transform="translate(234.152269 24.626498) scale(0.0833 -0.0833)">
      <defs>
       <path id="DejaVuSans-5f" d="M 3263 -1063 
L 3263 -1509 
L -63 -1509 
L -63 -1063 
L 3263 -1063 
z
" transform="scale(0.015625)"/>
       <path id="DejaVuSans-6b" d="M 581 4863 
L 1159 4863 
L 1159 1991 
L 2875 3500 
L 3609 3500 
L 1753 1863 
L 3688 0 
L 2938 0 
L 1159 1709 
L 1159 0 
L 581 0 
L 581 4863 
z
" transform="scale(0.015625)"/>
      </defs>
      <use xlink:href="#DejaVuSans-65"/>
      <use xlink:href="#DejaVuSans-73" x="61.523438"/>
      <use xlink:href="#DejaVuSans-5f" x="113.623047"/>
      <use xlink:href="#DejaVuSans-31" x="163.623047"/>
      <use xlink:href="#DejaVuSans-30" x="227.246094"/>
      <use xlink:href="#DejaVuSans-6b" x="290.869141"/>
     </g>
    </g>
    <g id="line2d_32">
     <path d="M 210.828269 34.169555 
L 219.158269 34.169555 
L 227.488269 34.169555 
" style="fill: none; stroke: #438d77; stroke-width: 1.5; stroke-linecap: square"/>
    </g>
    <g id="text_17">
     <!-- es_20k -->
     <g transform="translate(234.152269 37.085055) scale(0.0833 -0.0833)">
      <use xlink:href="#DejaVuSans-65"/>
      <use xlink:href="#DejaVuSans-73" x="61.523438"/>
      <use xlink:href="#DejaVuSans-5f" x="113.623047"/>
      <use xlink:href="#DejaVuSans-32" x="163.623047"/>
      <use xlink:href="#DejaVuSans-30" x="227.246094"/>
      <use xlink:href="#DejaVuSans-6b" x="290.869141"/>
     </g>
    </g>
    <g id="line2d_33">
     <path d="M 210.828269 46.628111 
L 219.158269 46.628111 
L 227.488269 46.628111 
" style="fill: none; stroke: #367d6a; stroke-width: 1.5; stroke-linecap: square"/>
    </g>
    <g id="text_18">
     <!-- es_30k -->
     <g transform="translate(234.152269 49.543611) scale(0.0833 -0.0833)">
      <use xlink:href="#DejaVuSans-65"/>
      <use xlink:href="#DejaVuSans-73" x="61.523438"/>
      <use xlink:href="#DejaVuSans-5f" x="113.623047"/>
      <use xlink:href="#DejaVuSans-33" x="163.623047"/>
      <use xlink:href="#DejaVuSans-30" x="227.246094"/>
      <use xlink:href="#DejaVuSans-6b" x="290.869141"/>
     </g>
    </g>
    <g id="line2d_34">
     <path d="M 210.828269 59.086667 
L 219.158269 59.086667 
L 227.488269 59.086667 
" style="fill: none; stroke: #295e57; stroke-width: 1.5; stroke-linecap: square"/>
    </g>
    <g id="text_19">
     <!-- es_40k -->
     <g transform="translate(234.152269 62.002167) scale(0.0833 -0.0833)">
      <use xlink:href="#DejaVuSans-65"/>
      <use xlink:href="#DejaVuSans-73" x="61.523438"/>
      <use xlink:href="#DejaVuSans-5f" x="113.623047"/>
      <use xlink:href="#DejaVuSans-34" x="163.623047"/>
      <use xlink:href="#DejaVuSans-30" x="227.246094"/>
      <use xlink:href="#DejaVuSans-6b" x="290.869141"/>
     </g>
    </g>
   </g>
  </g>
  <g id="axes_2">
   <g id="patch_8">
    <path d="M 44.66 318.04 
L 270.702747 318.04 
L 270.702747 185.4 
L 44.66 185.4 
z
" style="fill: #ffffff"/>
   </g>
   <g id="matplotlib.axis_3">
    <g id="xtick_8">
     <g id="line2d_35">
      <path d="M 53.147771 318.04 
L 53.147771 185.4 
" clip-path="url(#p139d6ce4e7)" style="fill: none; stroke: #808080; stroke-opacity: 0.25; stroke-width: 0.5; stroke-linecap: square"/>
     </g>
     <g id="line2d_36">
      <g>
       <use xlink:href="#mfb85abd0d2" x="53.147771" y="318.04" style="stroke: #000000; stroke-width: 0.8"/>
      </g>
     </g>
     <g id="text_20">
      <!-- 0 -->
      <g transform="translate(49.966521 332.638438) scale(0.1 -0.1)">
       <use xlink:href="#DejaVuSans-30"/>
      </g>
     </g>
    </g>
    <g id="xtick_9">
     <g id="line2d_37">
      <path d="M 88.885755 318.04 
L 88.885755 185.4 
" clip-path="url(#p139d6ce4e7)" style="fill: none; stroke: #808080; stroke-opacity: 0.25; stroke-width: 0.5; stroke-linecap: square"/>
     </g>
     <g id="line2d_38">
      <g>
       <use xlink:href="#mfb85abd0d2" x="88.885755" y="318.04" style="stroke: #000000; stroke-width: 0.8"/>
      </g>
     </g>
     <g id="text_21">
      <!-- 100 -->
      <g transform="translate(79.342005 332.638438) scale(0.1 -0.1)">
       <use xlink:href="#DejaVuSans-31"/>
       <use xlink:href="#DejaVuSans-30" x="63.623047"/>
       <use xlink:href="#DejaVuSans-30" x="127.246094"/>
      </g>
     </g>
    </g>
    <g id="xtick_10">
     <g id="line2d_39">
      <path d="M 124.623739 318.04 
L 124.623739 185.4 
" clip-path="url(#p139d6ce4e7)" style="fill: none; stroke: #808080; stroke-opacity: 0.25; stroke-width: 0.5; stroke-linecap: square"/>
     </g>
     <g id="line2d_40">
      <g>
       <use xlink:href="#mfb85abd0d2" x="124.623739" y="318.04" style="stroke: #000000; stroke-width: 0.8"/>
      </g>
     </g>
     <g id="text_22">
      <!-- 200 -->
      <g transform="translate(115.079989 332.638438) scale(0.1 -0.1)">
       <use xlink:href="#DejaVuSans-32"/>
       <use xlink:href="#DejaVuSans-30" x="63.623047"/>
       <use xlink:href="#DejaVuSans-30" x="127.246094"/>
      </g>
     </g>
    </g>
    <g id="xtick_11">
     <g id="line2d_41">
      <path d="M 160.361722 318.04 
L 160.361722 185.4 
" clip-path="url(#p139d6ce4e7)" style="fill: none; stroke: #808080; stroke-opacity: 0.25; stroke-width: 0.5; stroke-linecap: square"/>
     </g>
     <g id="line2d_42">
      <g>
       <use xlink:href="#mfb85abd0d2" x="160.361722" y="318.04" style="stroke: #000000; stroke-width: 0.8"/>
      </g>
     </g>
     <g id="text_23">
      <!-- 300 -->
      <g transform="translate(150.817972 332.638438) scale(0.1 -0.1)">
       <use xlink:href="#DejaVuSans-33"/>
       <use xlink:href="#DejaVuSans-30" x="63.623047"/>
       <use xlink:href="#DejaVuSans-30" x="127.246094"/>
      </g>
     </g>
    </g>
    <g id="xtick_12">
     <g id="line2d_43">
      <path d="M 196.099706 318.04 
L 196.099706 185.4 
" clip-path="url(#p139d6ce4e7)" style="fill: none; stroke: #808080; stroke-opacity: 0.25; stroke-width: 0.5; stroke-linecap: square"/>
     </g>
     <g id="line2d_44">
      <g>
       <use xlink:href="#mfb85abd0d2" x="196.099706" y="318.04" style="stroke: #000000; stroke-width: 0.8"/>
      </g>
     </g>
     <g id="text_24">
      <!-- 400 -->
      <g transform="translate(186.555956 332.638438) scale(0.1 -0.1)">
       <use xlink:href="#DejaVuSans-34"/>
       <use xlink:href="#DejaVuSans-30" x="63.623047"/>
       <use xlink:href="#DejaVuSans-30" x="127.246094"/>
      </g>
     </g>
    </g>
    <g id="xtick_13">
     <g id="line2d_45">
      <path d="M 231.83769 318.04 
L 231.83769 185.4 
" clip-path="url(#p139d6ce4e7)" style="fill: none; stroke: #808080; stroke-opacity: 0.25; stroke-width: 0.5; stroke-linecap: square"/>
     </g>
     <g id="line2d_46">
      <g>
       <use xlink:href="#mfb85abd0d2" x="231.83769" y="318.04" style="stroke: #000000; stroke-width: 0.8"/>
      </g>
     </g>
     <g id="text_25">
      <!-- 500 -->
      <g transform="translate(222.29394 332.638438) scale(0.1 -0.1)">
       <use xlink:href="#DejaVuSans-35"/>
       <use xlink:href="#DejaVuSans-30" x="63.623047"/>
       <use xlink:href="#DejaVuSans-30" x="127.246094"/>
      </g>
     </g>
    </g>
    <g id="xtick_14">
     <g id="line2d_47">
      <path d="M 267.575673 318.04 
L 267.575673 185.4 
" clip-path="url(#p139d6ce4e7)" style="fill: none; stroke: #808080; stroke-opacity: 0.25; stroke-width: 0.5; stroke-linecap: square"/>
     </g>
     <g id="line2d_48">
      <g>
       <use xlink:href="#mfb85abd0d2" x="267.575673" y="318.04" style="stroke: #000000; stroke-width: 0.8"/>
      </g>
     </g>
     <g id="text_26">
      <!-- 600 -->
      <g transform="translate(258.031923 332.638438) scale(0.1 -0.1)">
       <use xlink:href="#DejaVuSans-36"/>
       <use xlink:href="#DejaVuSans-30" x="63.623047"/>
       <use xlink:href="#DejaVuSans-30" x="127.246094"/>
      </g>
     </g>
    </g>
    <g id="text_27">
     <!-- Training Steps -->
     <g transform="translate(122.376686 346.316563) scale(0.1 -0.1)">
      <use xlink:href="#DejaVuSans-54"/>
      <use xlink:href="#DejaVuSans-72" x="46.333984"/>
      <use xlink:href="#DejaVuSans-61" x="87.447266"/>
      <use xlink:href="#DejaVuSans-69" x="148.726562"/>
      <use xlink:href="#DejaVuSans-6e" x="176.509766"/>
      <use xlink:href="#DejaVuSans-69" x="239.888672"/>
      <use xlink:href="#DejaVuSans-6e" x="267.671875"/>
      <use xlink:href="#DejaVuSans-67" x="331.050781"/>
      <use xlink:href="#DejaVuSans-20" x="394.527344"/>
      <use xlink:href="#DejaVuSans-53" x="426.314453"/>
      <use xlink:href="#DejaVuSans-74" x="489.791016"/>
      <use xlink:href="#DejaVuSans-65" x="529"/>
      <use xlink:href="#DejaVuSans-70" x="590.523438"/>
      <use xlink:href="#DejaVuSans-73" x="654"/>
     </g>
    </g>
   </g>
   <g id="matplotlib.axis_4">
    <g id="ytick_7">
     <g id="line2d_49">
      <path d="M 44.66 317.783941 
L 270.702747 317.783941 
" clip-path="url(#p139d6ce4e7)" style="fill: none; stroke: #808080; stroke-opacity: 0.25; stroke-width: 0.5; stroke-linecap: square"/>
     </g>
     <g id="line2d_50">
      <g>
       <use xlink:href="#md43a9fbd63" x="44.66" y="317.783941" style="stroke: #000000; stroke-width: 0.8"/>
      </g>
     </g>
     <g id="text_28">
      <!-- 5 -->
      <g transform="translate(31.2975 321.58316) scale(0.1 -0.1)">
       <use xlink:href="#DejaVuSans-35"/>
      </g>
     </g>
    </g>
    <g id="ytick_8">
     <g id="line2d_51">
      <path d="M 44.66 294.626067 
L 270.702747 294.626067 
" clip-path="url(#p139d6ce4e7)" style="fill: none; stroke: #808080; stroke-opacity: 0.25; stroke-width: 0.5; stroke-linecap: square"/>
     </g>
     <g id="line2d_52">
      <g>
       <use xlink:href="#md43a9fbd63" x="44.66" y="294.626067" style="stroke: #000000; stroke-width: 0.8"/>
      </g>
     </g>
     <g id="text_29">
      <!-- 6 -->
      <g transform="translate(31.2975 298.425286) scale(0.1 -0.1)">
       <use xlink:href="#DejaVuSans-36"/>
      </g>
     </g>
    </g>
    <g id="ytick_9">
     <g id="line2d_53">
      <path d="M 44.66 271.468193 
L 270.702747 271.468193 
" clip-path="url(#p139d6ce4e7)" style="fill: none; stroke: #808080; stroke-opacity: 0.25; stroke-width: 0.5; stroke-linecap: square"/>
     </g>
     <g id="line2d_54">
      <g>
       <use xlink:href="#md43a9fbd63" x="44.66" y="271.468193" style="stroke: #000000; stroke-width: 0.8"/>
      </g>
     </g>
     <g id="text_30">
      <!-- 7 -->
      <g transform="translate(31.2975 275.267412) scale(0.1 -0.1)">
       <use xlink:href="#DejaVuSans-37"/>
      </g>
     </g>
    </g>
    <g id="ytick_10">
     <g id="line2d_55">
      <path d="M 44.66 248.310319 
L 270.702747 248.310319 
" clip-path="url(#p139d6ce4e7)" style="fill: none; stroke: #808080; stroke-opacity: 0.25; stroke-width: 0.5; stroke-linecap: square"/>
     </g>
     <g id="line2d_56">
      <g>
       <use xlink:href="#md43a9fbd63" x="44.66" y="248.310319" style="stroke: #000000; stroke-width: 0.8"/>
      </g>
     </g>
     <g id="text_31">
      <!-- 8 -->
      <g transform="translate(31.2975 252.109538) scale(0.1 -0.1)">
       <use xlink:href="#DejaVuSans-38"/>
      </g>
     </g>
    </g>
    <g id="ytick_11">
     <g id="line2d_57">
      <path d="M 44.66 225.152445 
L 270.702747 225.152445 
" clip-path="url(#p139d6ce4e7)" style="fill: none; stroke: #808080; stroke-opacity: 0.25; stroke-width: 0.5; stroke-linecap: square"/>
     </g>
     <g id="line2d_58">
      <g>
       <use xlink:href="#md43a9fbd63" x="44.66" y="225.152445" style="stroke: #000000; stroke-width: 0.8"/>
      </g>
     </g>
     <g id="text_32">
      <!-- 9 -->
      <g transform="translate(31.2975 228.951664) scale(0.1 -0.1)">
       <use xlink:href="#DejaVuSans-39"/>
      </g>
     </g>
    </g>
    <g id="ytick_12">
     <g id="line2d_59">
      <path d="M 44.66 201.994571 
L 270.702747 201.994571 
" clip-path="url(#p139d6ce4e7)" style="fill: none; stroke: #808080; stroke-opacity: 0.25; stroke-width: 0.5; stroke-linecap: square"/>
     </g>
     <g id="line2d_60">
      <g>
       <use xlink:href="#md43a9fbd63" x="44.66" y="201.994571" style="stroke: #000000; stroke-width: 0.8"/>
      </g>
     </g>
     <g id="text_33">
      <!-- 10 -->
      <g transform="translate(24.935 205.79379) scale(0.1 -0.1)">
       <use xlink:href="#DejaVuSans-31"/>
       <use xlink:href="#DejaVuSans-30" x="63.623047"/>
      </g>
     </g>
    </g>
    <g id="text_34">
     <!-- NLL Loss -->
     <g transform="translate(18.855313 273.58875) rotate(-90) scale(0.1 -0.1)">
      <use xlink:href="#DejaVuSans-4e"/>
      <use xlink:href="#DejaVuSans-4c" x="74.804688"/>
      <use xlink:href="#DejaVuSans-4c" x="130.517578"/>
      <use xlink:href="#DejaVuSans-20" x="186.230469"/>
      <use xlink:href="#DejaVuSans-4c" x="218.017578"/>
      <use xlink:href="#DejaVuSans-6f" x="271.980469"/>
      <use xlink:href="#DejaVuSans-73" x="333.162109"/>
      <use xlink:href="#DejaVuSans-73" x="385.261719"/>
     </g>
    </g>
   </g>
   <g id="line2d_61">
    <path d="M 54.93467 222.044082 
L 56.72157 228.923383 
L 58.508469 238.523806 
L 60.295368 250.346386 
L 62.082267 261.995675 
L 63.869166 270.694807 
L 65.656065 275.520042 
L 67.442965 276.707302 
L 69.229864 277.335997 
L 71.016763 278.14642 
L 72.803662 279.378778 
L 74.590561 280.638378 
L 76.377461 282.038306 
L 78.16436 283.038186 
L 79.951259 284.083826 
L 81.738158 285.2276 
L 83.525057 286.147344 
L 85.311956 286.693 
L 87.098856 287.573178 
L 88.885755 288.278012 
L 90.672654 288.980803 
L 92.459553 289.078894 
L 94.246452 289.705359 
L 96.033352 289.629596 
L 97.820251 290.366928 
L 99.60715 290.544106 
L 101.394049 290.880649 
L 103.180948 290.871959 
L 104.967848 291.431594 
L 106.754747 291.395938 
L 108.541646 291.480093 
L 110.328545 291.983335 
L 112.115444 291.987023 
L 113.902343 292.334366 
L 115.689243 292.50664 
L 117.476142 292.507314 
L 119.263041 292.701872 
L 121.04994 292.961273 
L 122.836839 293.250134 
L 124.623739 293.002318 
L 126.410638 293.200388 
L 128.197537 293.266864 
L 129.984436 293.689406 
L 131.771335 293.444229 
L 133.558235 293.881016 
L 135.345134 293.752537 
L 137.132033 293.850462 
L 138.918932 293.906204 
L 140.705831 294.206793 
L 142.49273 293.884451 
L 144.27963 294.32507 
L 146.066529 294.170276 
L 147.853428 294.43449 
L 149.640327 294.393578 
L 151.427226 294.475789 
L 153.214126 294.375446 
L 155.001025 294.337338 
L 156.787924 294.846841 
L 158.574823 294.847338 
L 160.361722 294.649179 
L 162.148621 294.997218 
L 163.935521 294.748352 
L 165.72242 294.860036 
L 167.509319 295.215264 
L 169.296218 295.114832 
L 171.083117 295.117802 
L 172.870017 295.198821 
L 174.656916 294.98855 
L 176.443815 295.219924 
L 178.230714 294.984552 
L 180.017613 295.342904 
L 181.804513 295.273259 
L 183.591412 295.344969 
L 185.378311 295.538733 
L 187.16521 295.617002 
L 188.952109 295.799513 
L 190.739008 295.54368 
L 192.525908 295.68212 
L 194.312807 295.836042 
L 196.099706 295.524985 
L 197.886605 295.706579 
L 199.673504 295.554214 
L 201.460404 295.724998 
L 203.247303 296.053315 
L 205.034202 295.838858 
L 206.821101 296.018023 
L 208.608 295.867988 
L 210.3949 295.924139 
L 212.181799 296.081705 
L 213.968698 295.985712 
L 215.755597 295.809849 
L 217.542496 295.94766 
L 219.329395 296.132214 
L 221.116295 295.8106 
L 222.903194 296.346373 
L 224.690093 296.19244 
L 226.476992 296.058262 
L 228.263891 296.031594 
L 230.050791 296.295367 
L 231.83769 296.098015 
L 233.624589 296.352689 
L 235.411488 296.282602 
L 237.198387 296.244483 
L 238.985286 296.312362 
L 240.772186 296.368436 
L 242.559085 296.602571 
L 244.345984 296.457549 
L 246.132883 296.637995 
L 247.919782 296.364008 
L 249.706682 296.790338 
L 251.493581 296.595316 
L 253.28048 296.381157 
L 255.067379 296.437175 
L 256.854278 296.54219 
L 258.641178 296.721764 
L 260.428077 296.683402 
" clip-path="url(#p139d6ce4e7)" style="fill: none; stroke: #68b3c7; stroke-width: 1.5; stroke-linecap: square"/>
   </g>
   <g id="line2d_62">
    <path d="M 54.93467 205.531142 
L 56.72157 211.527768 
L 58.508469 218.149137 
L 60.295368 226.47501 
L 62.082267 234.994347 
L 63.869166 241.871108 
L 65.656065 246.635785 
L 67.442965 248.5926 
L 69.229864 248.889158 
L 71.016763 249.700585 
L 72.803662 250.399721 
L 74.590561 251.280706 
L 76.377461 251.807126 
L 78.16436 252.983906 
L 79.951259 253.464941 
L 81.738158 254.458869 
L 83.525057 255.258459 
L 85.311956 255.751431 
L 87.098856 256.243773 
L 88.885755 257.235194 
L 90.672654 258.050509 
L 92.459553 258.237823 
L 94.246452 259.378881 
L 96.033352 259.21978 
L 97.820251 260.400128 
L 99.60715 260.529436 
L 101.394049 260.604084 
L 103.180948 261.20864 
L 104.967848 261.980425 
L 106.754747 262.037272 
L 108.541646 262.190222 
L 110.328545 262.752221 
L 112.115444 262.916258 
L 113.902343 263.075105 
L 115.689243 263.739865 
L 117.476142 264.135983 
L 119.263041 264.256711 
L 121.04994 264.608504 
L 122.836839 264.844196 
L 124.623739 264.943943 
L 126.410638 265.640208 
L 128.197537 265.1084 
L 129.984436 265.73661 
L 131.771335 265.954766 
L 133.558235 266.096718 
L 135.345134 266.098308 
L 137.132033 266.157474 
L 138.918932 266.899786 
L 140.705831 266.894431 
L 142.49273 266.631861 
L 144.27963 266.967024 
L 146.066529 266.68799 
L 147.853428 267.371711 
L 149.640327 267.002029 
L 151.427226 267.417261 
L 153.214126 267.323477 
L 155.001025 267.294049 
L 156.787924 268.071896 
L 158.574823 267.837077 
L 160.361722 267.831931 
L 162.148621 268.024755 
L 163.935521 268.16727 
L 165.72242 268.112323 
L 167.509319 268.739892 
L 169.296218 268.391566 
L 171.083117 268.860388 
L 172.870017 268.742697 
L 174.656916 268.461797 
L 176.443815 268.916396 
L 178.230714 268.66933 
L 180.017613 268.947138 
L 181.804513 268.685154 
L 183.591412 269.166951 
L 185.378311 269.646683 
L 187.16521 269.409655 
L 188.952109 269.302509 
L 190.739008 269.465022 
L 192.525908 269.464636 
L 194.312807 269.862344 
L 196.099706 269.341456 
L 197.886605 269.363287 
L 199.673504 269.752658 
L 201.460404 269.81687 
L 203.247303 270.001159 
L 205.034202 270.079683 
L 206.821101 270.212845 
L 208.608 270.122914 
L 210.3949 269.893373 
L 212.181799 270.462616 
L 213.968698 270.210879 
L 215.755597 270.162634 
L 217.542496 270.349452 
L 219.329395 270.675218 
L 221.116295 270.261664 
L 222.903194 270.594331 
L 224.690093 270.347177 
L 226.476992 270.276306 
L 228.263891 270.497577 
L 230.050791 270.652525 
L 231.83769 270.26067 
L 233.624589 270.483619 
L 235.411488 271.016355 
L 237.198387 270.561435 
L 238.985286 270.875253 
L 240.772186 270.633731 
L 242.559085 271.012114 
L 244.345984 270.827837 
L 246.132883 271.21575 
L 247.919782 270.995286 
L 249.706682 271.172021 
L 251.493581 270.972759 
L 253.28048 270.760521 
L 255.067379 271.29922 
L 256.854278 271.058051 
L 258.641178 270.777019 
L 260.428077 271.057389 
" clip-path="url(#p139d6ce4e7)" style="fill: none; stroke: #4da1b4; stroke-width: 1.5; stroke-linecap: square"/>
   </g>
   <g id="line2d_63">
    <path d="M 54.93467 196.531741 
L 56.72157 202.516662 
L 58.508469 208.703022 
L 60.295368 216.535933 
L 62.082267 225.321219 
L 63.869166 232.953709 
L 65.656065 238.479703 
L 67.442965 240.878428 
L 69.229864 241.839151 
L 71.016763 242.213912 
L 72.803662 242.660075 
L 74.590561 243.700591 
L 76.377461 244.386951 
L 78.16436 245.384776 
L 79.951259 246.0144 
L 81.738158 246.67704 
L 83.525057 247.350613 
L 85.311956 247.874802 
L 87.098856 248.666894 
L 88.885755 249.698962 
L 90.672654 250.518053 
L 92.459553 250.801195 
L 94.246452 251.171749 
L 96.033352 251.356557 
L 97.820251 252.188524 
L 99.60715 252.487368 
L 101.394049 253.200163 
L 103.180948 253.334463 
L 104.967848 254.191772 
L 106.754747 254.554718 
L 108.541646 254.436541 
L 110.328545 254.74974 
L 112.115444 255.066672 
L 113.902343 255.504685 
L 115.689243 256.068009 
L 117.476142 256.499043 
L 119.263041 256.644717 
L 121.04994 257.020207 
L 122.836839 257.108371 
L 124.623739 257.294702 
L 126.410638 257.660497 
L 128.197537 257.794123 
L 129.984436 257.889851 
L 131.771335 258.888515 
L 133.558235 257.938118 
L 135.345134 258.599102 
L 137.132033 258.864509 
L 138.918932 259.00137 
L 140.705831 259.108947 
L 142.49273 259.235074 
L 144.27963 259.339128 
L 146.066529 259.737377 
L 147.853428 260.228306 
L 149.640327 259.969591 
L 151.427226 260.084908 
L 153.214126 260.141589 
L 155.001025 260.227953 
L 156.787924 260.810259 
L 158.574823 260.901349 
L 160.361722 260.835646 
L 162.148621 261.401675 
L 163.935521 261.325846 
L 165.72242 261.3279 
L 167.509319 261.68316 
L 169.296218 261.312683 
L 171.083117 261.559097 
L 172.870017 262.047796 
L 174.656916 261.696411 
L 176.443815 261.955292 
L 178.230714 261.763947 
L 180.017613 262.083331 
L 181.804513 262.26815 
L 183.591412 261.97518 
L 185.378311 263.173682 
L 187.16521 262.887459 
L 188.952109 262.275504 
L 190.739008 262.685226 
L 192.525908 262.863828 
L 194.312807 262.954874 
L 196.099706 262.508336 
L 197.886605 262.60445 
L 199.673504 263.224566 
L 201.460404 263.333081 
L 203.247303 263.075005 
L 205.034202 263.291483 
L 206.821101 263.498277 
L 208.608 263.530179 
L 210.3949 263.545771 
L 212.181799 263.462322 
L 213.968698 263.453411 
L 215.755597 263.584563 
L 217.542496 263.689103 
L 219.329395 263.539885 
L 221.116295 263.342058 
L 222.903194 264.172103 
L 224.690093 263.869659 
L 226.476992 263.829763 
L 228.263891 263.694668 
L 230.050791 263.774042 
L 231.83769 263.682025 
L 233.624589 264.191339 
L 235.411488 264.112418 
L 237.198387 264.084359 
L 238.985286 264.187419 
L 240.772186 264.225682 
L 242.559085 264.32014 
L 244.345984 264.484574 
L 246.132883 264.611044 
L 247.919782 264.063158 
L 249.706682 264.709069 
L 251.493581 264.450596 
L 253.28048 264.452771 
L 255.067379 264.527894 
L 256.854278 264.225108 
L 258.641178 264.413339 
L 260.428077 264.247292 
" clip-path="url(#p139d6ce4e7)" style="fill: none; stroke: #3b7d98; stroke-width: 1.5; stroke-linecap: square"/>
   </g>
   <g id="line2d_64">
    <path d="M 54.93467 190.031575 
L 56.72157 195.749753 
L 58.508469 202.443936 
L 60.295368 210.642179 
L 62.082267 219.511433 
L 63.869166 227.554462 
L 65.656065 233.413012 
L 67.442965 236.573297 
L 69.229864 237.664432 
L 71.016763 238.118634 
L 72.803662 238.207394 
L 74.590561 239.277901 
L 76.377461 239.612932 
L 78.16436 240.865376 
L 79.951259 241.412666 
L 81.738158 242.458195 
L 83.525057 243.365936 
L 85.311956 243.662803 
L 87.098856 244.423921 
L 88.885755 244.965425 
L 90.672654 245.929505 
L 92.459553 246.166742 
L 94.246452 246.559017 
L 96.033352 247.03124 
L 97.820251 247.569255 
L 99.60715 247.615567 
L 101.394049 248.208684 
L 103.180948 248.533412 
L 104.967848 249.284182 
L 106.754747 249.17665 
L 108.541646 249.44399 
L 110.328545 250.069329 
L 112.115444 250.242818 
L 113.902343 250.638792 
L 115.689243 251.173715 
L 117.476142 251.521135 
L 119.263041 251.919517 
L 121.04994 252.238833 
L 122.836839 252.566057 
L 124.623739 252.433535 
L 126.410638 253.036105 
L 128.197537 253.231049 
L 129.984436 253.653967 
L 131.771335 254.16209 
L 133.558235 253.853462 
L 135.345134 253.962441 
L 137.132033 254.450145 
L 138.918932 254.5129 
L 140.705831 254.991494 
L 142.49273 254.845943 
L 144.27963 254.831808 
L 146.066529 255.343939 
L 147.853428 255.707647 
L 149.640327 255.4415 
L 151.427226 255.47857 
L 153.214126 255.479519 
L 155.001025 256.134905 
L 156.787924 256.397077 
L 158.574823 256.451759 
L 160.361722 256.634381 
L 162.148621 256.803155 
L 163.935521 256.513134 
L 165.72242 256.978179 
L 167.509319 257.207599 
L 169.296218 257.024701 
L 171.083117 257.505802 
L 172.870017 257.49656 
L 174.656916 257.831988 
L 176.443815 257.825561 
L 178.230714 257.286718 
L 180.017613 258.028103 
L 181.804513 257.785377 
L 183.591412 258.033547 
L 185.378311 258.907553 
L 187.16521 259.052077 
L 188.952109 258.574223 
L 190.739008 258.994104 
L 192.525908 259.077177 
L 194.312807 258.417264 
L 196.099706 258.168454 
L 197.886605 258.937809 
L 199.673504 258.891309 
L 201.460404 259.457294 
L 203.247303 258.978501 
L 205.034202 259.135559 
L 206.821101 259.597446 
L 208.608 259.474742 
L 210.3949 259.37527 
L 212.181799 259.798089 
L 213.968698 259.72173 
L 215.755597 259.694046 
L 217.542496 260.189724 
L 219.329395 259.707165 
L 221.116295 259.886253 
L 222.903194 260.074528 
L 224.690093 259.963672 
L 226.476992 260.123689 
L 228.263891 259.876557 
L 230.050791 260.198999 
L 231.83769 259.870142 
L 233.624589 260.27792 
L 235.411488 260.53297 
L 237.198387 260.083539 
L 238.985286 260.218975 
L 240.772186 260.412374 
L 242.559085 260.386468 
L 244.345984 260.296571 
L 246.132883 260.76504 
L 247.919782 260.2705 
L 249.706682 260.707111 
L 251.493581 260.799779 
L 253.28048 260.922992 
L 255.067379 260.946623 
L 256.854278 260.589563 
L 258.641178 260.777142 
L 260.428077 260.500626 
" clip-path="url(#p139d6ce4e7)" style="fill: none; stroke: #2c5b73; stroke-width: 1.5; stroke-linecap: square"/>
   </g>
   <g id="patch_9">
    <path d="M 44.66 318.04 
L 44.66 185.4 
" style="fill: none; stroke: #000000; stroke-width: 0.8; stroke-linejoin: miter; stroke-linecap: square"/>
   </g>
   <g id="patch_10">
    <path d="M 270.702747 318.04 
L 270.702747 185.4 
" style="fill: none; stroke: #000000; stroke-width: 0.8; stroke-linejoin: miter; stroke-linecap: square"/>
   </g>
   <g id="patch_11">
    <path d="M 44.66 318.04 
L 270.702747 318.04 
" style="fill: none; stroke: #000000; stroke-width: 0.8; stroke-linejoin: miter; stroke-linecap: square"/>
   </g>
   <g id="patch_12">
    <path d="M 44.66 185.4 
L 270.702747 185.4 
" style="fill: none; stroke: #000000; stroke-width: 0.8; stroke-linejoin: miter; stroke-linecap: square"/>
   </g>
   <g id="legend_2">
    <g id="patch_13">
     <path d="M 211.9372 241.898225 
L 264.871747 241.898225 
Q 266.537747 241.898225 266.537747 240.232225 
L 266.537747 191.231 
Q 266.537747 189.565 264.871747 189.565 
L 211.9372 189.565 
Q 210.2712 189.565 210.2712 191.231 
L 210.2712 240.232225 
Q 210.2712 241.898225 211.9372 241.898225 
z
" style="fill: #ffffff; opacity: 0.8; stroke: #cccccc; stroke-linejoin: miter"/>
    </g>
    <g id="line2d_65">
     <path d="M 213.6032 196.310998 
L 221.9332 196.310998 
L 230.2632 196.310998 
" style="fill: none; stroke: #68b3c7; stroke-width: 1.5; stroke-linecap: square"/>
    </g>
    <g id="text_35">
     <!-- tr_10k -->
     <g transform="translate(236.9272 199.226498) scale(0.0833 -0.0833)">
      <use xlink:href="#DejaVuSans-74"/>
      <use xlink:href="#DejaVuSans-72" x="39.208984"/>
      <use xlink:href="#DejaVuSans-5f" x="80.322266"/>
      <use xlink:href="#DejaVuSans-31" x="130.322266"/>
      <use xlink:href="#DejaVuSans-30" x="193.945312"/>
      <use xlink:href="#DejaVuSans-6b" x="257.568359"/>
     </g>
    </g>
    <g id="line2d_66">
     <path d="M 213.6032 208.769555 
L 221.9332 208.769555 
L 230.2632 208.769555 
" style="fill: none; stroke: #4da1b4; stroke-width: 1.5; stroke-linecap: square"/>
    </g>
    <g id="text_36">
     <!-- tr_20k -->
     <g transform="translate(236.9272 211.685055) scale(0.0833 -0.0833)">
      <use xlink:href="#DejaVuSans-74"/>
      <use xlink:href="#DejaVuSans-72" x="39.208984"/>
      <use xlink:href="#DejaVuSans-5f" x="80.322266"/>
      <use xlink:href="#DejaVuSans-32" x="130.322266"/>
      <use xlink:href="#DejaVuSans-30" x="193.945312"/>
      <use xlink:href="#DejaVuSans-6b" x="257.568359"/>
     </g>
    </g>
    <g id="line2d_67">
     <path d="M 213.6032 221.228111 
L 221.9332 221.228111 
L 230.2632 221.228111 
" style="fill: none; stroke: #3b7d98; stroke-width: 1.5; stroke-linecap: square"/>
    </g>
    <g id="text_37">
     <!-- tr_30k -->
     <g transform="translate(236.9272 224.143611) scale(0.0833 -0.0833)">
      <use xlink:href="#DejaVuSans-74"/>
      <use xlink:href="#DejaVuSans-72" x="39.208984"/>
      <use xlink:href="#DejaVuSans-5f" x="80.322266"/>
      <use xlink:href="#DejaVuSans-33" x="130.322266"/>
      <use xlink:href="#DejaVuSans-30" x="193.945312"/>
      <use xlink:href="#DejaVuSans-6b" x="257.568359"/>
     </g>
    </g>
    <g id="line2d_68">
     <path d="M 213.6032 233.686667 
L 221.9332 233.686667 
L 230.2632 233.686667 
" style="fill: none; stroke: #2c5b73; stroke-width: 1.5; stroke-linecap: square"/>
    </g>
    <g id="text_38">
     <!-- tr_40k -->
     <g transform="translate(236.9272 236.602167) scale(0.0833 -0.0833)">
      <use xlink:href="#DejaVuSans-74"/>
      <use xlink:href="#DejaVuSans-72" x="39.208984"/>
      <use xlink:href="#DejaVuSans-5f" x="80.322266"/>
      <use xlink:href="#DejaVuSans-34" x="130.322266"/>
      <use xlink:href="#DejaVuSans-30" x="193.945312"/>
      <use xlink:href="#DejaVuSans-6b" x="257.568359"/>
     </g>
    </g>
   </g>
  </g>
 </g>
 <defs>
  <clipPath id="p4286341ffc">
   <rect x="44.66" y="10.8" width="226.042747" height="132.64"/>
  </clipPath>
  <clipPath id="p139d6ce4e7">
   <rect x="44.66" y="185.4" width="226.042747" height="132.64"/>
  </clipPath>
 </defs>
</svg>
